<svg width="139" height="139" viewBox="0 0 139 139" fill="none" xmlns="http://www.w3.org/2000/svg">
<rect width="139" height="139" rx="69.5" fill="#128894"/>
<rect x="7" y="7.37488" width="124.25" height="124.25" rx="62.1251" fill="#FD8413"/>
<path fill-rule="evenodd" clip-rule="evenodd" d="M59.0694 36.7484C59.0694 34.4091 60.9885 32.5 63.3401 32.5H86.4795C88.7922 32.5 90.7502 34.2167 90.7502 36.7484V40.4562C90.7502 42.7954 88.8311 44.7046 86.4795 44.7046H85.936V54.0244C85.9364 54.0423 85.9364 54.0603 85.936 54.0783V94.8361C85.936 100.883 80.9109 105.882 74.8322 105.882C68.7534 105.882 63.7283 100.883 63.7283 94.8361V89.0239C62.8382 89.342 61.9165 89.5716 60.9211 89.7112C60.5937 92.0992 61.0303 94.5233 62.0841 97.0128C62.2068 97.3027 62.2057 97.6297 62.0812 97.9188C61.3917 99.5192 59.8127 100.243 58.3511 100.243C56.889 100.243 55.3098 99.5253 54.5334 97.9806C54.3813 97.678 54.3697 97.3245 54.5017 97.0128C55.5592 94.5143 55.9952 92.0817 55.661 89.6853C54.681 89.5197 53.7312 89.2653 52.8204 88.9301C52.2027 89.6697 51.8462 90.29 51.605 90.9594C51.2911 91.8302 51.1444 92.8551 50.9886 94.4825C50.9561 94.8225 50.7744 95.1309 50.4921 95.3253C47.6781 97.2633 43.574 94.9528 44.0144 91.4481C44.0551 91.1247 44.2308 90.8332 44.4985 90.6453C45.7959 89.7342 46.5779 89.077 47.1511 88.3601C47.5859 87.8163 47.9312 87.1993 48.2705 86.3355C47.4651 85.6797 46.7246 84.9461 46.0601 84.1455C45.1747 84.4958 44.5635 84.868 44.0258 85.3265C43.322 85.9266 42.6946 86.7132 41.7536 87.9614C41.5499 88.2315 41.238 88.3998 40.8993 88.4223C39.1941 88.5354 37.8056 87.5178 37.0928 86.2768C36.3788 85.0338 36.2064 83.3205 37.2499 81.9363C37.4455 81.6769 37.7415 81.5109 38.0658 81.4786C39.5915 81.3268 40.5917 81.1454 41.4519 80.8163C42.1036 80.5669 42.7169 80.2164 43.4358 79.6659C43.0505 78.6638 42.7613 77.6115 42.5799 76.52C40.2027 76.19 37.8863 76.6214 35.3724 77.6743C35.0591 77.8056 34.7037 77.7941 34.3996 77.6428C32.8468 76.8705 32.1251 75.2995 32.1251 73.845C32.1251 72.391 32.8529 70.8203 34.4617 70.1344C34.7523 70.0105 35.081 70.0094 35.3724 70.1315C37.8863 71.1844 40.2027 71.6158 42.5799 71.2858C42.7486 70.2713 43.0103 69.2906 43.3558 68.3525C42.6041 67.7684 41.971 67.4021 41.2967 67.1441C40.4364 66.8149 39.4362 66.6335 37.9105 66.4817C37.5708 66.4479 37.2631 66.2676 37.0688 65.9883C36.0711 64.5547 36.2121 62.8305 36.9375 61.5676C37.6611 60.3079 39.0853 59.3155 40.8204 59.5457C41.1419 59.5883 41.431 59.7624 41.6181 60.026C42.5477 61.336 43.1711 62.1119 43.8581 62.6814C44.3946 63.1261 45.0097 63.4767 45.9243 63.8263C46.5911 63.0005 47.3379 62.2437 48.1528 61.5671C47.8014 60.6523 47.4467 60.0096 46.9958 59.4457C46.4226 58.7289 45.6407 58.0717 44.3432 57.1606C44.0563 56.9591 43.8761 56.6396 43.8527 56.2911C43.7398 54.6058 44.7496 53.1938 45.9791 52.445C47.2122 51.694 48.9537 51.4476 50.3727 52.5063C50.635 52.702 50.8022 52.9986 50.8333 53.3233C50.9859 54.9175 51.1687 55.9103 51.4986 56.7636C51.7624 57.446 52.1393 58.0875 52.7512 58.9014C53.683 58.5536 54.6561 58.2903 55.661 58.1205C55.9952 55.7241 55.5592 53.2916 54.5017 50.7931C54.379 50.5032 54.38 50.1761 54.5046 49.887C55.1941 48.2866 56.773 47.5626 58.2346 47.5626C59.6968 47.5626 61.276 48.2806 62.0524 49.8253C62.2044 50.1278 62.216 50.4813 62.0841 50.7931C61.0277 53.2888 60.5915 55.7187 60.9236 58.1125C61.8925 58.2768 62.8387 58.5528 63.7283 58.8622V54.0766C63.7279 54.0593 63.7279 54.0419 63.7283 54.0245V44.7046H63.3401C60.9885 44.7046 59.0694 42.7954 59.0694 40.4562V36.7484ZM65.4745 42.3873C65.3034 42.289 65.1048 42.2328 64.8931 42.2328C64.6813 42.2328 64.4827 42.289 64.3116 42.3873H63.3401C62.2751 42.3873 61.3988 41.5156 61.3988 40.4562V36.7484C61.3988 35.689 62.2751 34.8173 63.3401 34.8173H86.4795C87.5834 34.8173 88.4208 35.5725 88.4208 36.7484V40.4562C88.4208 41.5156 87.5446 42.3873 86.4795 42.3873H85.3527C85.1816 42.289 84.983 42.2328 84.7712 42.2328C84.5595 42.2328 84.3609 42.289 84.1898 42.3873H65.4745ZM66.0578 44.7046V53.2812C68.3172 54.1861 69.795 54.3804 70.8679 54.2873C72.0378 54.1857 72.8585 53.7392 73.9171 53.1542L73.9267 53.1489C74.9794 52.567 76.2357 51.8727 78.0488 51.6823C79.5314 51.5266 81.3067 51.7123 83.6065 52.4255V44.7046H66.0578ZM83.6065 54.8645C81.1423 54.019 79.4954 53.8605 78.2934 53.9868C76.9865 54.1241 76.0902 54.6041 75.0484 55.1799C75.0239 55.1934 74.9994 55.2069 74.9748 55.2206C73.9528 55.7858 72.7523 56.4498 71.0703 56.5958C69.7021 56.7146 68.1012 56.4882 66.0578 55.7605V60.5133C66.0582 60.5311 66.0582 60.5489 66.0578 60.5667V77.1972C66.0582 77.2152 66.0582 77.2332 66.0578 77.2513V82.4502C66.0582 82.4682 66.0582 82.4863 66.0578 82.5042V87.241C66.0581 87.2572 66.0581 87.2734 66.0578 87.2895V94.8361C66.0578 99.6033 70.04 103.565 74.8322 103.565C79.6243 103.565 83.6065 99.6033 83.6065 94.8361V54.8645ZM63.7283 86.5305V83.9363C63.6513 83.9417 63.5736 83.9447 63.4954 83.9447C61.3394 83.9447 59.38 82.2294 59.38 79.8507C59.38 77.706 61.1043 75.7568 63.4954 75.7568C63.5736 75.7568 63.6513 75.7597 63.7283 75.7651V61.3304C62.4185 60.8338 61.1019 60.4193 59.8181 60.3032C59.3087 60.2571 58.8891 59.8859 58.7838 59.388C58.1452 56.3707 58.5654 53.389 59.7002 50.4766C59.3444 50.0954 58.8127 49.88 58.2346 49.88C57.6591 49.88 57.1753 50.0896 56.8714 50.4405C58.0168 53.3644 58.4432 56.3582 57.802 59.388C57.6986 59.8764 57.2924 60.2442 56.7937 60.3005C50.5066 61.0112 45.4919 65.9885 44.7748 72.4087C44.7193 72.9059 44.3492 73.3115 43.8571 73.4146C40.8076 74.0533 37.9352 73.6265 35.0175 72.4893C34.6651 72.7916 34.4546 73.2728 34.4546 73.845C34.4546 74.4198 34.6709 74.9484 35.0538 75.3025C37.959 74.1759 40.8202 73.7552 43.8571 74.3912C44.3492 74.4943 44.7193 74.8999 44.7748 75.3971C44.9307 76.7927 45.2896 78.1202 45.8206 79.3505C45.9019 79.4682 45.9586 79.5968 45.9911 79.7296C46.9272 81.7294 48.3244 83.4554 50.0424 84.7767C50.282 84.8562 50.4783 85.0056 50.6161 85.1945C52.4136 86.4336 54.5205 87.2483 56.7937 87.5053C57.2924 87.5617 57.6986 87.9294 57.802 88.4179C58.4405 91.4352 58.0203 94.4168 56.8855 97.3293C57.2414 97.7105 57.7731 97.9259 58.3511 97.9259C58.9266 97.9259 59.4105 97.7162 59.7143 97.3654C58.5689 94.4414 58.1426 91.4476 58.7838 88.4179C58.8898 87.9168 59.3138 87.5444 59.8268 87.5019C61.2782 87.3816 62.514 87.06 63.7283 86.5305ZM50.2249 87.6977C49.8782 88.4861 49.4827 89.1667 48.9741 89.8027C48.2874 90.6614 47.4339 91.3887 46.3334 92.1878C46.5023 93.2351 47.7038 93.966 48.7325 93.6342C48.8726 92.3041 49.0447 91.197 49.4121 90.1774C49.7004 89.3775 50.0965 88.6621 50.6422 87.936C50.5018 87.8586 50.3627 87.7792 50.2249 87.6977ZM44.4458 81.8054C43.7414 82.305 43.0502 82.6876 42.2882 82.9791C41.2835 83.3635 40.2089 83.5686 38.9107 83.7188C38.7756 84.1382 38.8364 84.6416 39.1154 85.1271C39.3951 85.6141 39.8179 85.9453 40.2742 86.0643C41.0342 85.0705 41.7143 84.2453 42.5098 83.567C43.1507 83.0205 43.8444 82.5864 44.6826 82.2099C44.6018 82.0764 44.5229 81.9415 44.4458 81.8054ZM63.7283 78.0962C63.6439 78.0814 63.5679 78.0741 63.4954 78.0741C62.4699 78.0741 61.7094 78.9057 61.7094 79.8507C61.7094 80.8708 62.5454 81.6273 63.4954 81.6273C63.5679 81.6273 63.6439 81.62 63.7283 81.6053V78.0962ZM50.5969 59.8949C50.0515 59.1276 49.6362 58.4021 49.3244 57.5955C48.9357 56.5901 48.7296 55.5149 48.5786 54.165C48.177 54.0503 47.6872 54.1219 47.1954 54.4214C46.6933 54.7272 46.3499 55.1798 46.2255 55.6525C47.3032 56.4381 48.142 57.1568 48.8188 58.0031C49.3432 58.6589 49.7473 59.3619 50.1017 60.1817C50.2649 60.0833 50.43 59.9876 50.5969 59.8949ZM44.5725 65.7807C43.7275 65.4182 43.0213 65.0042 42.3668 64.4616C41.5451 63.7804 40.8519 62.9337 40.0699 61.8572C39.635 61.9439 39.2326 62.243 38.9601 62.7173C38.6826 63.2004 38.6096 63.7528 38.7712 64.2434C40.0623 64.3934 41.1323 64.5984 42.1329 64.9812C42.9128 65.2796 43.6185 65.6734 44.3401 66.1902C44.4156 66.0524 44.4931 65.9159 44.5725 65.7807ZM65.0484 35.5898C65.6916 35.5898 66.2131 36.1085 66.2131 36.7484V40.1472C66.2131 40.7871 65.6916 41.3058 65.0484 41.3058C64.4051 41.3058 63.8836 40.7871 63.8836 40.1472V36.7484C63.8836 36.1085 64.4051 35.5898 65.0484 35.5898ZM70.0179 35.5898C70.6612 35.5898 71.1826 36.1085 71.1826 36.7484V40.1472C71.1826 40.7871 70.6612 41.3058 70.0179 41.3058C69.3746 41.3058 68.8532 40.7871 68.8532 40.1472V36.7484C68.8532 36.1085 69.3746 35.5898 70.0179 35.5898ZM74.8322 35.5898C75.4754 35.5898 75.9969 36.1085 75.9969 36.7484V40.1472C75.9969 40.7871 75.4754 41.3058 74.8322 41.3058C74.1889 41.3058 73.6674 40.7871 73.6674 40.1472V36.7484C73.6674 36.1085 74.1889 35.5898 74.8322 35.5898ZM79.8017 35.5898C80.445 35.5898 80.9664 36.1085 80.9664 36.7484V40.1472C80.9664 40.7871 80.445 41.3058 79.8017 41.3058C79.1584 41.3058 78.637 40.7871 78.637 40.1472V36.7484C78.637 36.1085 79.1584 35.5898 79.8017 35.5898ZM84.616 35.5898C85.2592 35.5898 85.7807 36.1085 85.7807 36.7484V40.1472C85.7807 40.7871 85.2592 41.3058 84.616 41.3058C83.9727 41.3058 83.4512 40.7871 83.4512 40.1472V36.7484C83.4512 36.1085 83.9727 35.5898 84.616 35.5898ZM94.0575 47.2077L103.795 51.2335V48.495L95.0169 44.9225C94.5134 45.5796 94.1751 46.364 94.0575 47.2077ZM97.2008 43.3076L103.333 45.803C102.541 44.1326 100.824 43.0052 98.9034 43.0052C98.3011 43.0052 97.7282 43.1125 97.2008 43.3076ZM106.12 47.6118C105.981 43.6811 102.705 40.6879 98.9034 40.6879C94.8242 40.6879 91.682 44.0069 91.682 47.8716V58.3768C91.682 61.1903 93.2859 63.5558 95.5645 64.742V103.178C95.5645 105.054 97.0178 106.5 98.9034 106.5C100.789 106.5 102.242 105.054 102.242 103.178V64.742C104.521 63.5558 106.125 61.1903 106.125 58.3768V58.2492C106.125 58.2316 106.125 58.214 106.125 58.1964V52.9966C106.125 52.979 106.125 52.9614 106.125 52.9438V47.8716C106.125 47.8366 106.125 47.8016 106.124 47.7667C106.126 47.7147 106.125 47.663 106.12 47.6118ZM103.795 53.7429L94.0115 49.6982V52.4413L103.795 56.4861V53.7429ZM103.758 58.9803L94.0115 54.9508V57.6938L102.795 61.3233C103.305 60.6605 103.649 59.8608 103.758 58.9803ZM100.55 62.905L94.4445 60.382C94.9299 61.4457 95.7881 62.2957 96.8371 62.7846C97.0613 62.8051 97.2671 62.8888 97.4363 63.0176C97.9023 63.1644 98.3957 63.2432 98.9034 63.2432C99.4111 63.2432 99.9045 63.1644 100.37 63.0176C100.427 62.9749 100.487 62.9372 100.55 62.905ZM99.9128 65.4896C99.5819 65.5364 99.2448 65.5605 98.9034 65.5605C98.5621 65.5605 98.225 65.5364 97.894 65.4896V103.178C97.894 103.774 98.3043 104.183 98.9034 104.183C99.5025 104.183 99.9128 103.774 99.9128 103.178V65.4896ZM57.7493 63.5522C57.1918 63.5522 56.7399 64.0018 56.7399 64.5564C56.7399 65.111 57.1918 65.5605 57.7493 65.5605C58.3068 65.5605 58.7588 65.111 58.7588 64.5564C58.7588 64.0018 58.3068 63.5522 57.7493 63.5522ZM54.4104 64.5564C54.4104 62.7219 55.9053 61.2349 57.7493 61.2349C59.5934 61.2349 61.0882 62.7219 61.0882 64.5564C61.0882 66.3908 59.5934 67.8779 57.7493 67.8779C55.9053 67.8779 54.4104 66.3908 54.4104 64.5564ZM50.1397 71.4311C49.5822 71.4311 49.1303 71.8807 49.1303 72.4353C49.1303 72.9899 49.5822 73.4395 50.1397 73.4395C50.6972 73.4395 51.1491 72.9899 51.1491 72.4353C51.1491 71.8807 50.6972 71.4311 50.1397 71.4311ZM46.8008 72.4353C46.8008 70.6009 48.2957 69.1138 50.1397 69.1138C51.9837 69.1138 53.4786 70.6009 53.4786 72.4353C53.4786 74.2697 51.9837 75.7568 50.1397 75.7568C48.2957 75.7568 46.8008 74.2697 46.8008 72.4353ZM58.3705 72.0491C58.1561 72.0491 57.9823 72.222 57.9823 72.4353C57.9823 72.6486 58.1561 72.8215 58.3705 72.8215C58.5849 72.8215 58.7588 72.6486 58.7588 72.4353C58.7588 72.222 58.5849 72.0491 58.3705 72.0491ZM55.6528 72.4353C55.6528 70.9421 56.8696 69.7317 58.3705 69.7317C59.8715 69.7317 61.0882 70.9421 61.0882 72.4353C61.0882 73.9284 59.8715 75.1388 58.3705 75.1388C56.8696 75.1388 55.6528 73.9284 55.6528 72.4353ZM53.0904 80.5459C52.876 80.5459 52.7021 80.7188 52.7021 80.9321C52.7021 81.1455 52.876 81.3184 53.0904 81.3184C53.3048 81.3184 53.4786 81.1455 53.4786 80.9321C53.4786 80.7188 53.3048 80.5459 53.0904 80.5459ZM50.3727 80.9321C50.3727 79.439 51.5894 78.2286 53.0904 78.2286C54.5913 78.2286 55.8081 79.439 55.8081 80.9321C55.8081 82.4253 54.5913 83.6357 53.0904 83.6357C51.5894 83.6357 50.3727 82.4253 50.3727 80.9321ZM69.8626 82.0908C70.5059 82.0908 71.0273 82.6096 71.0273 83.2495V94.8361C71.0273 96.977 72.68 98.6211 74.8322 98.6211C75.4754 98.6211 75.9969 99.1398 75.9969 99.7797C75.9969 100.42 75.4754 100.938 74.8322 100.938C71.3935 100.938 68.6979 98.2568 68.6979 94.8361V83.2495C68.6979 82.6096 69.2193 82.0908 69.8626 82.0908Z" fill="white"/>
</svg>
