<svg width="139" height="139" viewBox="0 0 139 139" fill="none" xmlns="http://www.w3.org/2000/svg">
<rect width="139" height="139" rx="69.5" fill="#128894"/>
<rect x="7" y="7.37491" width="124.25" height="124.25" rx="62.1251" fill="#FD8413"/>
<path d="M102.297 37.5967H77.4377C76.8337 37.5967 76.344 38.0821 76.344 38.6807C76.344 39.2794 76.8337 39.7647 77.4377 39.7647H102.297C102.498 39.7647 102.662 39.9269 102.662 40.126V43.9529H72.469C71.7795 42.5901 70.3573 41.6521 68.7174 41.6521C67.9907 41.6521 67.3066 41.8366 66.7099 42.1602V40.7988C66.7099 40.442 66.6643 40.0955 66.5785 39.7647H72.3341C72.9381 39.7647 73.4277 39.2794 73.4277 38.6807C73.4277 38.0821 72.9381 37.5967 72.3341 37.5967H65.1878C64.4617 37.0003 63.53 36.6411 62.5152 36.6411C61.7885 36.6411 61.1044 36.8255 60.5077 37.1491V36.6577C60.5076 34.3652 58.6258 32.5 56.3127 32.5C53.9997 32.5 52.1179 34.3652 52.1179 36.6577V37.1493C51.5212 36.8255 50.8372 36.6412 50.1104 36.6412C47.7974 36.6412 45.9156 38.5064 45.9156 40.799V60.8119C45.9156 61.004 45.8373 61.1817 45.6949 61.3124C45.6128 61.388 45.4371 61.5114 45.1713 61.492C45.0124 61.4801 44.8423 61.3952 44.7048 61.2589L42.0439 58.6214C41.0017 57.5884 39.6167 57.0198 38.143 57.0198H38.1362C36.66 57.0216 35.2736 57.5938 34.2321 58.6311C33.1202 59.7386 33.1244 61.5406 34.2417 62.648C34.2484 62.6547 34.2553 62.6613 34.2623 62.6678L47.6138 75.2248C48.6863 76.2335 49.3014 77.6522 49.3014 79.1176V103.971C49.3014 105.365 50.4462 106.5 51.8532 106.5H64.6848C66.0918 106.5 67.2366 105.365 67.2366 103.971V93.5987H71.0165C71.442 94.7136 72.5272 95.51 73.7993 95.51C75.0714 95.51 76.1565 94.7136 76.582 93.5987H90.2699C90.8739 93.5987 91.3636 93.1134 91.3636 92.5148C91.3636 91.9161 90.8739 91.4308 90.2699 91.4308H76.9084C77.0489 90.8365 77.3002 90.2699 77.6557 89.7564C78.1895 88.9853 78.4717 88.0824 78.4717 87.1453V66.3866H78.7208C79.7259 66.3866 80.5435 65.5762 80.5435 64.58V62.1049C80.5435 61.1086 79.7259 60.2982 78.7208 60.2982H78.4717V52.4211C78.4717 49.8676 76.3757 47.7901 73.7993 47.7901C73.496 47.7901 73.1997 47.8198 72.9123 47.8749V46.1209H102.662V91.0696C102.662 91.2688 102.498 91.4309 102.297 91.4309H95.3738C94.7698 91.4309 94.2801 91.9163 94.2801 92.5149C94.2801 93.1135 94.7698 93.5989 95.3738 93.5989H102.297C103.704 93.5989 104.849 92.4642 104.849 91.0696V40.126C104.849 38.7313 103.704 37.5967 102.297 37.5967ZM78.3561 62.4662V64.2186H69.2421V62.4662H78.3561ZM69.1268 87.1451C69.1268 88.0823 69.4089 88.9852 69.9426 89.7562C70.2981 90.2698 70.5494 90.8363 70.69 91.4306H67.2366V80.2366C67.2366 78.6795 67.9216 77.2185 69.1268 76.1713V87.1451ZM73.7992 93.3421C73.3636 93.3421 73.0092 92.9908 73.0092 92.5591C73.0092 91.1169 72.5725 89.7234 71.7463 88.5299C71.4635 88.1213 71.3141 87.6426 71.3141 87.1451V79.5448H76.2842V87.1451C76.2842 87.6425 76.1348 88.1213 75.852 88.5297C75.0258 89.7234 74.5891 91.1167 74.5891 92.5591C74.5889 92.9908 74.2347 93.3421 73.7992 93.3421ZM76.2842 77.3769H71.3141V66.3866H76.2842V77.3769ZM76.2842 52.4211V60.2982H71.3141V52.4211C71.3141 51.063 72.4289 49.958 73.7992 49.958C75.1694 49.958 76.2842 51.0631 76.2842 52.4211ZM69.1268 52.4211V60.2982H68.8777C67.8726 60.2982 67.0549 61.1086 67.0549 62.1049V64.58C67.0549 65.5762 67.8726 66.3866 68.8777 66.3866H69.1268V73.2267C68.8154 73.591 68.4701 73.921 68.0936 74.2072C66.1589 75.6778 65.0493 77.8755 65.0493 80.2366V103.971C65.0493 104.17 64.8857 104.332 64.6848 104.332H51.8532C51.6523 104.332 51.4887 104.17 51.4887 103.971V79.1175C51.4887 77.0602 50.6251 75.0681 49.1194 73.6522L35.7809 61.1073C35.5264 60.8467 35.5263 60.4154 35.7825 60.1602C36.4111 59.5341 37.2478 59.1888 38.1388 59.1876H38.143C39.0324 59.1876 39.8684 59.5309 40.4973 60.1543L43.1582 62.7918C43.6674 63.2967 44.3241 63.6026 45.0068 63.6538C45.8053 63.7136 46.5977 63.4395 47.1823 62.9019C47.7673 62.3641 48.1029 61.6023 48.1029 60.8117V40.7987C48.1029 39.7015 49.0035 38.8089 50.1104 38.8089C51.2173 38.8089 52.1179 39.7015 52.1179 40.7987V56.2157C52.1179 56.8143 52.6076 57.2996 53.2116 57.2996C53.8156 57.2996 54.3052 56.8143 54.3052 56.2157V36.6577C54.3052 35.5606 55.2058 34.668 56.3127 34.668C57.4197 34.668 58.3203 35.5606 58.3203 36.6577V56.2158C58.3203 56.8144 58.8099 57.2998 59.4139 57.2998C60.0179 57.2998 60.5076 56.8144 60.5076 56.2158V40.7987C60.5076 39.7015 61.4082 38.8089 62.5151 38.8089C63.622 38.8089 64.5226 39.7015 64.5226 40.7987V56.1074C64.5226 56.706 65.0123 57.1914 65.6163 57.1914C66.2203 57.1914 66.7099 56.706 66.7099 56.1074V45.8096C66.7099 44.7124 67.6105 43.8198 68.7174 43.8198C69.8244 43.8198 70.725 44.7124 70.725 45.8096V48.9381C69.7464 49.7878 69.1268 51.0338 69.1268 52.4211Z" fill="white"/>
<path d="M50.887 62.7618C50.2831 62.7618 49.7934 63.2471 49.7934 63.8457C49.7934 64.4444 50.2831 64.9297 50.887 64.9297C54.0056 64.9297 56.5426 67.4443 56.5426 70.5352C56.5426 71.1339 57.0322 71.6192 57.6362 71.6192C58.2402 71.6192 58.7299 71.1339 58.7299 70.5352C58.7299 66.249 55.2117 62.7618 50.887 62.7618Z" fill="white"/>
<path d="M56.1273 83.308H55.5472C54.9432 83.308 54.4535 83.7933 54.4535 84.392C54.4535 84.9906 54.9432 85.476 55.5472 85.476H56.1273C56.7313 85.476 57.2209 84.9906 57.2209 84.392C57.2209 83.7933 56.7313 83.308 56.1273 83.308Z" fill="white"/>
<path d="M61.4929 83.308H60.9128C60.3088 83.308 59.8192 83.7933 59.8192 84.392C59.8192 84.9906 60.3088 85.476 60.9128 85.476H61.4929C62.0969 85.476 62.5865 84.9906 62.5865 84.392C62.5865 83.7933 62.0969 83.308 61.4929 83.308Z" fill="white"/>
<path d="M56.1273 88.2453H55.5472C54.9432 88.2453 54.4535 88.7306 54.4535 89.3293C54.4535 89.9279 54.9432 90.4133 55.5472 90.4133H56.1273C56.7313 90.4133 57.2209 89.9279 57.2209 89.3293C57.2209 88.7306 56.7313 88.2453 56.1273 88.2453Z" fill="white"/>
<path d="M61.4929 88.2453H60.9128C60.3088 88.2453 59.8192 88.7306 59.8192 89.3293C59.8192 89.9279 60.3088 90.4133 60.9128 90.4133H61.4929C62.0969 90.4133 62.5865 89.9279 62.5865 89.3293C62.5865 88.7306 62.0969 88.2453 61.4929 88.2453Z" fill="white"/>
<path d="M56.1273 93.1828H55.5472C54.9432 93.1828 54.4535 93.6681 54.4535 94.2668C54.4535 94.8654 54.9432 95.3507 55.5472 95.3507H56.1273C56.7313 95.3507 57.2209 94.8654 57.2209 94.2668C57.2209 93.6681 56.7313 93.1828 56.1273 93.1828Z" fill="white"/>
<path d="M61.4929 93.1828H60.9128C60.3088 93.1828 59.8192 93.6681 59.8192 94.2668C59.8192 94.8654 60.3088 95.3507 60.9128 95.3507H61.4929C62.0969 95.3507 62.5865 94.8654 62.5865 94.2668C62.5865 93.6681 62.0969 93.1828 61.4929 93.1828Z" fill="white"/>
<path d="M56.1273 98.1202H55.5472C54.9432 98.1202 54.4535 98.6056 54.4535 99.2042C54.4535 99.8029 54.9432 100.288 55.5472 100.288H56.1273C56.7313 100.288 57.2209 99.8029 57.2209 99.2042C57.2209 98.6056 56.7313 98.1202 56.1273 98.1202Z" fill="white"/>
<path d="M61.4929 98.1202H60.9128C60.3088 98.1202 59.8192 98.6056 59.8192 99.2042C59.8192 99.8029 60.3088 100.288 60.9128 100.288H61.4929C62.0969 100.288 62.5865 99.8029 62.5865 99.2042C62.5865 98.6056 62.0969 98.1202 61.4929 98.1202Z" fill="white"/>
<path d="M74.7463 97.0957C74.5509 96.7604 74.19 96.5537 73.7992 96.5537C73.4085 96.5537 73.0474 96.7602 72.852 97.0957L70.5866 100.985C69.9161 102.136 69.9161 103.511 70.5866 104.662C71.2572 105.813 72.458 106.5 73.7992 106.5C75.1403 106.5 76.3413 105.813 77.0117 104.662C77.6824 103.511 77.6824 102.136 77.0117 100.985L74.7463 97.0957ZM75.1174 103.577C74.8422 104.05 74.3493 104.332 73.799 104.332C73.2487 104.332 72.7558 104.05 72.4806 103.577C72.2055 103.105 72.2055 102.541 72.4806 102.069L73.799 99.8055L75.1174 102.069C75.3925 102.541 75.3925 103.105 75.1174 103.577Z" fill="white"/>
<path d="M87.7361 50.1782C87.309 49.7548 86.6165 49.7548 86.1896 50.1782L84.4722 51.8803L83.6386 51.0542C83.2115 50.6307 82.519 50.6308 82.092 51.0542C81.6649 51.4775 81.6649 52.1639 82.092 52.5871L83.6989 54.1798C83.9124 54.3915 84.1924 54.4973 84.4722 54.4973C84.7521 54.4973 85.032 54.3915 85.2455 54.1798L87.7363 51.7111C88.1632 51.2879 88.1632 50.6015 87.7361 50.1782Z" fill="white"/>
<path d="M90.7392 53.263H98.9346C99.5386 53.263 100.028 52.7777 100.028 52.1791C100.028 51.5804 99.5386 51.0951 98.9346 51.0951H90.7392C90.1352 51.0951 89.6455 51.5804 89.6455 52.1791C89.6455 52.7777 90.1352 53.263 90.7392 53.263Z" fill="white"/>
<path d="M87.7361 56.7283C87.309 56.3048 86.6165 56.305 86.1896 56.7283L84.4722 58.4306L83.6386 57.6043C83.2115 57.181 82.519 57.181 82.092 57.6043C81.6649 58.0276 81.6649 58.714 82.092 59.1372L83.6989 60.7299C83.904 60.9333 84.1822 61.0475 84.4722 61.0475C84.7623 61.0475 85.0405 60.9333 85.2455 60.7299L87.7363 58.2612C88.1632 57.8379 88.1632 57.1515 87.7361 56.7283Z" fill="white"/>
<path d="M90.7392 59.8132H98.9346C99.5386 59.8132 100.028 59.3278 100.028 58.7292C100.028 58.1305 99.5386 57.6452 98.9346 57.6452H90.7392C90.1352 57.6452 89.6455 58.1305 89.6455 58.7292C89.6455 59.3278 90.1352 59.8132 90.7392 59.8132Z" fill="white"/>
<path d="M87.7361 63.2785C87.309 62.8551 86.6165 62.8551 86.1896 63.2785L84.4722 64.9806L83.6386 64.1545C83.2115 63.731 82.519 63.7311 82.092 64.1545C81.6649 64.5778 81.6649 65.2642 82.092 65.6873L83.6989 67.2801C83.9124 67.4918 84.1924 67.5976 84.4722 67.5976C84.7521 67.5976 85.032 67.4918 85.2455 67.2801L87.7363 64.8113C88.1632 64.388 88.1632 63.7016 87.7361 63.2785Z" fill="white"/>
<path d="M90.7392 66.3632H98.9346C99.5386 66.3632 100.028 65.8778 100.028 65.2792C100.028 64.6805 99.5386 64.1952 98.9346 64.1952H90.7392C90.1352 64.1952 89.6455 64.6805 89.6455 65.2792C89.6455 65.8778 90.1352 66.3632 90.7392 66.3632Z" fill="white"/>
<path d="M87.7361 69.8285C87.309 69.405 86.6165 69.4051 86.1896 69.8285L84.4722 71.5307L83.6386 70.7045C83.2115 70.2811 82.519 70.2811 82.092 70.7045C81.6649 71.1278 81.6649 71.8142 82.092 72.2373L83.6989 73.8301C83.904 74.0334 84.1822 74.1476 84.4722 74.1476C84.7623 74.1476 85.0405 74.0334 85.2455 73.8301L87.7363 71.3613C88.1632 70.938 88.1632 70.2518 87.7361 69.8285Z" fill="white"/>
<path d="M90.7392 72.9133H98.9346C99.5386 72.9133 100.028 72.428 100.028 71.8293C100.028 71.2307 99.5386 70.7454 98.9346 70.7454H90.7392C90.1352 70.7454 89.6455 71.2307 89.6455 71.8293C89.6455 72.428 90.1352 72.9133 90.7392 72.9133Z" fill="white"/>
<path d="M87.7361 76.3786C87.309 75.9553 86.6165 75.9553 86.1896 76.3786L84.4722 78.0807L83.6386 77.2545C83.2115 76.8311 82.519 76.8311 82.092 77.2545C81.6649 77.6778 81.6649 78.3642 82.092 78.7873L83.6989 80.3801C83.9124 80.5917 84.1924 80.6976 84.4722 80.6976C84.7521 80.6976 85.032 80.5918 85.2455 80.3801L87.7363 77.9113C88.1632 77.4883 88.1632 76.8018 87.7361 76.3786Z" fill="white"/>
<path d="M90.7392 79.4633H98.9346C99.5386 79.4633 100.028 78.978 100.028 78.3793C100.028 77.7807 99.5386 77.2954 98.9346 77.2954H90.7392C90.1352 77.2954 89.6455 77.7807 89.6455 78.3793C89.6455 78.978 90.1352 79.4633 90.7392 79.4633Z" fill="white"/>
<path d="M86.1896 82.9286L84.4722 84.6309L83.6386 83.8046C83.2115 83.3813 82.519 83.3813 82.092 83.8046C81.6649 84.2279 81.6649 84.9143 82.092 85.3375L83.6989 86.9302C83.904 87.1336 84.1822 87.2478 84.4722 87.2478C84.7623 87.2478 85.0405 87.1336 85.2455 86.9302L87.7363 84.4615C88.1634 84.0382 88.1634 83.3518 87.7363 82.9286C87.309 82.5051 86.6165 82.5053 86.1896 82.9286Z" fill="white"/>
<path d="M90.7392 86.0135H98.9346C99.5386 86.0135 100.028 85.5281 100.028 84.9295C100.028 84.3308 99.5386 83.8455 98.9346 83.8455H90.7392C90.1352 83.8455 89.6455 84.3308 89.6455 84.9295C89.6455 85.5281 90.1352 86.0135 90.7392 86.0135Z" fill="white"/>
</svg>
