<svg width="139" height="139" viewBox="0 0 139 139" fill="none" xmlns="http://www.w3.org/2000/svg">
<rect width="139" height="139" rx="69.5" fill="#128894"/>
<rect x="7" y="7.37491" width="124.25" height="124.25" rx="62.1251" fill="#FD8413"/>
<path d="M37.1311 53.3549H39.3034V55.5273H37.1311V53.3549Z" fill="white"/>
<path d="M37.1311 57.6997H39.3034V59.8721H37.1311V57.6997Z" fill="white"/>
<path d="M82.6026 104.334C64.1983 104.386 54.3779 82.1755 66.7849 68.6155L65.1768 67.155C61.2391 71.4918 59.0704 77.1089 59.0704 82.9717C59.0106 103.246 83.4805 114.071 98.418 100.399L96.9577 98.7908C93.0218 102.365 87.9236 104.334 82.6026 104.334Z" fill="white"/>
<path d="M83.6887 59.4635V57.3376C83.6887 55.1416 81.9022 53.3549 79.7063 53.3549H68.2488C67.7304 47.7504 64.4371 34.8654 58.5113 35.107C56.9603 35.1069 54.9836 35.935 53.5675 39.4328V32.5H47.0509V39.4331C45.636 35.9361 43.6598 35.1069 42.1071 35.1069C35.2419 34.8627 31.9164 51.8797 32.1352 56.9553C32.1351 60.3155 33.3 62.5896 35.5979 63.7146C37.4961 64.6439 39.8867 64.6513 42.004 64.6513C47.515 64.9372 49.2693 56.3965 48.7084 48.1368L50.309 47.275L51.91 48.1371C51.3488 56.4027 53.105 64.938 58.6144 64.6513C65.0664 64.8649 68.9812 63.0272 68.4393 55.5274H79.7061C80.7043 55.5274 81.5162 56.3395 81.5162 57.3377V59.4626C76.0492 59.7132 70.8549 61.8504 66.7869 65.5446L68.2472 67.1529C72.1831 63.5784 77.2813 61.6101 82.6023 61.6101C101.004 61.5556 110.828 83.7687 98.42 97.3282L100.028 98.7886C113.396 84.2084 103.363 60.2738 83.6887 59.4635ZM66.3111 56.9553C66.2736 62.7073 62.6044 62.3922 58.6151 62.4789C53.847 62.3756 53.9804 52.4231 54.0306 49.2788L55.2844 49.954C56.1906 50.4419 56.7535 51.3844 56.7535 52.4134H58.9257C58.9257 50.5839 57.9252 48.9087 56.3145 48.0412L50.3093 44.8074L44.3039 48.0412C42.6933 48.9087 41.6928 50.5841 41.6928 52.4134H43.865C43.865 51.3844 44.4279 50.4419 45.334 49.954L46.5881 49.2786C46.6393 52.4183 46.7699 62.3781 42.0037 62.4789C38.0249 62.3993 34.3348 62.6935 34.3073 56.9553C34.3073 53.9853 35.0137 48.9648 36.5919 44.4436C39.264 36.5871 43.6531 34.3432 45.6437 42.106L43.2123 43.3915C42.3116 43.8677 41.2074 43.7741 40.3999 43.1528L39.0754 44.8746C40.558 46.0156 42.5831 46.1824 44.2276 45.3121L47.102 43.7925C48.4102 43.1008 49.2229 41.7515 49.2229 40.2715V34.6725H51.3951V40.2715C51.3951 41.7515 52.2078 43.1007 53.5162 43.7925L56.3903 45.3119C58.0408 46.1846 60.0628 46.013 61.5427 44.8745L60.2182 43.1526C59.4104 43.774 58.3068 43.8677 57.4056 43.3912L54.9741 42.1057C56.9661 34.3487 61.3512 36.5802 64.0265 44.4436C65.0734 47.4425 65.7362 50.6606 66.064 53.3547H61.4597V55.5271H66.2646C66.2954 56.0414 66.3111 56.5208 66.3111 56.9553Z" fill="white"/>
<path d="M90.857 80.1476C92.7335 80.1476 94.2601 78.6209 94.2601 76.7442C94.0732 72.2292 87.6401 72.2305 87.4539 76.7442C87.4539 78.6209 88.9805 80.1476 90.857 80.1476ZM90.857 75.5132C91.5357 75.5132 92.0879 76.0654 92.0879 76.7442C92.0203 78.3773 89.6936 78.3769 89.6261 76.7442C89.6261 76.0654 90.1783 75.5132 90.857 75.5132Z" fill="white"/>
<path d="M75.5068 86.6648C73.6303 86.6648 72.1036 88.1916 72.1036 90.0682C72.2906 94.5833 78.7236 94.582 78.9099 90.0682C78.9099 88.1916 77.3832 86.6648 75.5068 86.6648ZM75.5068 91.2992C74.828 91.2992 74.2758 90.747 74.2758 90.0682C74.3435 88.4351 76.6702 88.4356 76.7377 90.0682C76.7377 90.7469 76.1854 91.2992 75.5068 91.2992Z" fill="white"/>
<path d="M81.8061 76.0925C83.9621 76.0925 85.7161 74.3384 85.7161 72.1822C85.5014 66.9947 78.1102 66.9962 77.8962 72.1822C77.8962 74.3382 79.6502 76.0925 81.8061 76.0925ZM81.8061 70.4443C82.7644 70.4443 83.5439 71.2239 83.5439 72.1822C83.4485 74.4879 80.1634 74.4871 80.0684 72.1822C80.0684 71.2238 80.8478 70.4443 81.8061 70.4443Z" fill="white"/>
<path d="M80.358 93.9061C80.358 96.0622 82.112 97.8164 84.268 97.8164C89.4551 97.6016 89.4536 90.2098 84.268 89.9958C82.112 89.9958 80.358 91.7499 80.358 93.9061ZM86.0057 93.9061C86.0057 94.8644 85.2262 95.644 84.268 95.644C81.9625 95.5485 81.9633 92.2632 84.268 92.1682C85.2262 92.1682 86.0057 92.9476 86.0057 93.9061Z" fill="white"/>
<path d="M83.1819 79.2787C81.3054 79.2787 79.7788 80.8054 79.7788 82.6821C79.9657 87.1972 86.3988 87.1959 86.585 82.6821C86.585 80.8054 85.0584 79.2787 83.1819 79.2787ZM83.1819 83.9131C82.5031 83.9131 81.951 83.3609 81.951 82.6821C82.0186 81.049 84.3453 81.0495 84.4128 82.6821C84.4128 83.3607 83.8605 83.9131 83.1819 83.9131Z" fill="white"/>
<path d="M78.041 79.7856C78.041 77.1902 75.9298 75.0787 73.3345 75.0787C67.0908 75.3373 67.0927 84.2349 73.3345 84.4924C75.9296 84.4924 78.041 82.381 78.041 79.7856ZM70.8003 79.7856C70.8003 78.3882 71.9372 77.2511 73.3345 77.2511C76.6965 77.3903 76.6955 82.1813 73.3345 82.32C71.9371 82.32 70.8003 81.183 70.8003 79.7856Z" fill="white"/>
<path d="M88.0331 86.7372C88.0331 89.3326 90.1444 91.444 92.7396 91.444C98.9834 91.1855 98.9815 82.2879 92.7396 82.0304C90.1444 82.0304 88.0331 84.1418 88.0331 86.7372ZM95.2738 86.7372C95.2738 88.1346 94.1369 89.2717 92.7396 89.2717C89.3776 89.1325 89.3786 84.3415 92.7396 84.2028C94.1369 84.2028 95.2738 85.3396 95.2738 86.7372Z" fill="white"/>
<path d="M82.6026 102.161C93.1828 102.161 101.79 93.5528 101.79 82.9717C100.736 57.5144 64.465 57.5218 63.4148 82.9719C63.4148 93.5527 72.0224 102.161 82.6026 102.161ZM82.6026 65.9547C91.9851 65.9547 99.6182 73.5885 99.6182 82.9717C98.6836 105.547 66.5182 105.541 65.587 82.9716C65.587 73.5885 73.2201 65.9547 82.6026 65.9547Z" fill="white"/>
</svg>
