<svg width="98" height="98" viewBox="0 0 98 98" fill="none" xmlns="http://www.w3.org/2000/svg">
<rect x="0.432495" y="0.270264" width="97.1351" height="97.1351" rx="48.5676" fill="#FD8413"/>
<path d="M70.5669 61.8571H72.265V63.5553H70.5669V61.8571Z" fill="white"/>
<path d="M70.5669 65.2534H72.265V66.9516H70.5669V65.2534Z" fill="white"/>
<path d="M77.9256 45.6679C77.9256 44.2009 76.7321 43.0074 75.2651 43.0074H72.265V31.6297C72.265 29.2887 70.3606 27.3842 68.0196 27.3842H59.6131C59.2187 25.4488 57.5034 23.9879 55.4531 23.9879C55.4028 23.9879 55.3528 23.9899 55.3028 23.9918C53.9919 20.6413 52.1573 19.9123 50.8115 19.9123C47.9308 19.9123 46.4078 23.3779 44.8679 27.1936V23.2349L44.7388 23.0284C44.6709 22.9196 43.0206 20.3651 38.3582 20.3651C33.6958 20.3651 32.0456 22.9196 31.9776 23.0284L31.8486 23.2349V27.1936C30.3087 23.3779 28.7856 19.9123 25.905 19.9123C21.6273 19.9123 20.0746 26.9873 20.0746 31.7429C20.0746 32.677 20.1187 33.6541 20.2058 34.6473L21.8974 34.499C21.8148 33.5551 21.7728 32.6276 21.7728 31.7429C21.7728 27.495 23.2087 21.6105 25.905 21.6105C27.7739 21.6105 29.1552 25.046 30.4909 28.3684C30.9202 29.4361 31.3636 30.5384 31.8486 31.5949V31.6297H31.8645C33.361 34.8804 35.2558 37.6865 38.3582 37.6865C41.4607 37.6865 43.3555 34.8804 44.8519 31.6297H44.8679V31.5949C45.3529 30.5384 45.7962 29.4361 46.2255 28.3684C47.5613 25.046 48.9426 21.6105 50.8115 21.6105C52.1427 21.6105 53.0533 22.9884 53.6363 24.3972C52.2019 25.0793 51.2077 26.5422 51.2077 28.2333C51.2077 30.3988 52.8377 32.1895 54.9351 32.446C54.8504 35.9683 54.142 39.8932 53.0438 42.8537C52.2696 44.9405 50.5824 48.4416 47.9812 48.4416C46.7449 48.4416 45.6722 47.3733 44.4303 46.1365C42.8511 44.5636 41.0611 42.781 38.3582 42.781C35.6553 42.781 33.8653 44.5636 32.2861 46.1365C31.0442 47.3733 29.9715 48.4416 28.7353 48.4416C25.2625 48.4416 22.8904 42.2731 22.0801 36.1598L20.3967 36.383C21.2781 43.0333 23.9316 50.1397 28.7353 50.1397C29.9304 50.1397 30.932 49.5979 31.8486 48.8599V63.1195L31.9776 63.326C32.0456 63.4347 33.6958 65.9893 38.3582 65.9893C43.0206 65.9893 44.6709 63.4348 44.7388 63.326L44.8679 63.1195V54.1587H43.1697V55.7953C42.7649 56.2596 41.4001 57.4985 38.3582 57.4985C35.3081 57.4985 33.9441 56.2528 33.5467 55.7967V51.1767C34.5543 51.8062 36.1031 52.404 38.3582 52.404C40.6134 52.404 42.1621 51.8062 43.1697 51.1767V52.4606H44.8679V48.8599C45.7844 49.5979 46.786 50.1397 47.9812 50.1397C50.7099 50.1397 53.0111 47.8244 54.636 43.4442C55.8135 40.2701 56.566 36.056 56.636 32.3098C58.1369 31.8736 59.2977 30.6304 59.6131 29.0824H68.0196C69.4242 29.0824 70.5669 30.2251 70.5669 31.6297V43.0074H67.5668C66.0998 43.0074 64.9063 44.2009 64.9063 45.6679C64.9063 47.0003 65.8908 48.1068 67.1705 48.2987V51.3284H68.8687V48.3283H73.9632V55.6871H68.8687V53.0266H67.1705V73.5179C67.1705 75.8589 69.075 77.7633 71.4159 77.7633C72.5494 77.7633 73.6154 77.3215 74.4175 76.5194C75.2196 75.7173 75.6614 74.6513 75.6614 73.5179V69.3291H73.9632V73.5179C73.9632 74.1978 73.6982 74.8374 73.2168 75.3187C72.7354 75.8001 72.0959 76.0651 71.4159 76.0651C70.0113 76.0651 68.8687 74.9225 68.8687 73.5179V57.3853H73.9632V67.6309H75.6614V48.2987C76.9411 48.1068 77.9256 47.0003 77.9256 45.6679ZM38.3582 22.0633C41.406 22.0633 42.7712 23.3078 43.1697 23.7648V28.385C42.1621 27.7556 40.6134 27.1578 38.3582 27.1578C36.1031 27.1578 34.5543 27.7556 33.5467 28.385V23.7661C33.9528 23.3009 35.3189 22.0633 38.3582 22.0633ZM38.3582 35.9883C36.2565 35.9883 34.7977 33.891 33.5467 31.2287V30.5591C33.9516 30.0949 35.3163 28.856 38.3582 28.856C41.4084 28.856 42.7723 30.1017 43.1697 30.5578V31.2288C41.9187 33.891 40.46 35.9883 38.3582 35.9883ZM38.3582 59.1966C40.6134 59.1966 42.1621 58.5989 43.1697 57.9694V62.5866C42.768 63.0391 41.3819 64.2911 38.3582 64.2911C35.3105 64.2911 33.9452 63.0466 33.5467 62.5897V57.9694C34.5543 58.5989 36.1031 59.1966 38.3582 59.1966ZM38.3582 50.7058C35.3081 50.7058 33.9441 49.4601 33.5467 49.004V47.2775C35.0009 45.8298 36.3848 44.4792 38.3582 44.4792C40.3316 44.4792 41.7155 45.8298 43.1697 47.2776V49.0026C42.7649 49.4669 41.4001 50.7058 38.3582 50.7058ZM55.4531 30.7806C54.0485 30.7806 52.9059 29.6379 52.9059 28.2333C52.9059 26.8287 54.0485 25.6861 55.4531 25.6861C56.8577 25.6861 58.0004 26.8287 58.0004 28.2333C58.0004 29.6379 56.8577 30.7806 55.4531 30.7806ZM75.2651 46.6302H67.5668C67.0361 46.6302 66.6045 46.1985 66.6045 45.6679C66.6045 45.1373 67.0361 44.7056 67.5668 44.7056H75.2651C75.7957 44.7056 76.2274 45.1373 76.2274 45.6679C76.2274 46.1985 75.7957 46.6302 75.2651 46.6302Z" fill="white"/>
</svg>
