<svg width="98" height="98" viewBox="0 0 98 98" fill="none" xmlns="http://www.w3.org/2000/svg">
<rect x="0.432495" y="0.405396" width="97.1351" height="97.1351" rx="48.5676" fill="#FD8413"/>
<path d="M56.5185 50.229V55.2598M54.0031 52.7444H59.0339M67.8378 59.0329V64.0637M65.3224 61.5483H70.3532M52.7454 64.0637V69.0945M50.23 66.5791H55.2608M38.1257 63.7223H28.797C27.6433 63.7223 26.5011 63.4927 25.437 63.0469C24.3729 62.6012 23.4081 61.9481 22.5989 61.1258C21.7897 60.3035 21.1521 59.3284 20.7234 58.2573C20.2947 57.1862 20.0834 56.0406 20.1018 54.887C20.1202 53.7334 20.368 52.5951 20.8307 51.5382C21.2934 50.4813 21.9617 49.5271 22.7968 48.7311C23.6319 47.935 24.617 47.3131 25.6948 46.9015C26.7726 46.49 27.9215 46.297 29.0746 46.3338L42.9719 46.1003M68.8401 39.964C68.8401 39.0329 68.6521 38.1113 68.2874 37.2546C67.9227 36.3979 67.3888 35.6236 66.7177 34.9782C66.0465 34.3328 65.252 33.8295 64.3817 33.4985C63.5114 33.1675 62.5832 33.0157 61.6528 33.052L33.5116 34.1512C31.9111 34.1436 30.3705 34.7591 29.2159 35.8675C28.0613 36.9758 27.3834 38.49 27.3257 40.0894C27.3257 43.0893 29.837 46.1003 32.8641 46.1003M37.7053 33.568C36.4035 32.8032 35.3709 31.6535 34.7497 30.2773C34.1286 28.9011 33.9496 27.3662 34.2373 25.884C34.525 24.4018 35.2652 23.0452 36.3561 22.0013C37.447 20.9574 38.8347 20.2775 40.3281 20.0553C40.4914 20.0355 40.6571 20.0532 40.8124 20.1073C40.9678 20.1613 41.1087 20.2501 41.2245 20.367C41.3402 20.4839 41.4277 20.6257 41.4802 20.7815C41.5328 20.9374 41.5489 21.1032 41.5275 21.2663L41.3013 23.1064C41.2746 23.3242 41.2926 23.5451 41.3544 23.7556C41.4162 23.9661 41.5204 24.1617 41.6606 24.3304C41.8007 24.4992 41.974 24.6375 42.1696 24.7368C42.3652 24.8361 42.579 24.8943 42.798 24.9079L57.843 25.8418C58.799 25.8792 59.7034 26.2852 60.3666 26.9748C61.0298 27.6644 61.4003 28.584 61.4003 29.5408M77.8994 60.2906C77.8994 70.0152 70.0161 77.8984 60.2916 77.8984C50.5671 77.8984 42.6838 70.0152 42.6838 60.2906C42.6838 50.5661 50.5671 42.6828 60.2916 42.6828C70.0161 42.6828 77.8994 50.5661 77.8994 60.2906ZM70.3532 54.0021C70.3532 54.6967 69.7901 55.2598 69.0955 55.2598C68.4009 55.2598 67.8378 54.6967 67.8378 54.0021C67.8378 53.3075 68.4009 52.7444 69.0955 52.7444C69.7901 52.7444 70.3532 53.3075 70.3532 54.0021ZM59.0339 71.6099C59.0339 72.3045 58.4708 72.8676 57.7762 72.8676C57.0816 72.8676 56.5185 72.3045 56.5185 71.6099C56.5185 70.9153 57.0816 70.3522 57.7762 70.3522C58.4708 70.3522 59.0339 70.9153 59.0339 71.6099ZM51.4877 57.7752C51.4877 58.4698 50.9246 59.0329 50.23 59.0329C49.5354 59.0329 48.9723 58.4698 48.9723 57.7752C48.9723 57.0806 49.5354 56.5175 50.23 56.5175C50.9246 56.5175 51.4877 57.0806 51.4877 57.7752ZM65.3224 50.229C65.3224 50.9236 64.7593 51.4867 64.0647 51.4867C63.3701 51.4867 62.807 50.9236 62.807 50.229C62.807 49.5344 63.3701 48.9713 64.0647 48.9713C64.7593 48.9713 65.3224 49.5344 65.3224 50.229ZM60.2916 61.5483C60.2916 62.2429 59.7285 62.806 59.0339 62.806C58.3393 62.806 57.7762 62.2429 57.7762 61.5483C57.7762 60.8537 58.3393 60.2906 59.0339 60.2906C59.7285 60.2906 60.2916 60.8537 60.2916 61.5483ZM67.8378 69.0945C67.8378 69.7891 67.2747 70.3522 66.5801 70.3522C65.8855 70.3522 65.3224 69.7891 65.3224 69.0945C65.3224 68.3999 65.8855 67.8368 66.5801 67.8368C67.2747 67.8368 67.8378 68.3999 67.8378 69.0945Z" stroke="white" stroke-width="1.56354" stroke-miterlimit="10" stroke-linecap="round"/>
</svg>
