<svg width="139" height="139" viewBox="0 0 139 139" fill="none" xmlns="http://www.w3.org/2000/svg">
<rect width="139" height="139" rx="69.5" fill="#128894"/>
<rect x="7" y="7.37491" width="124.25" height="124.25" rx="62.1251" fill="#FD8413"/>
<path d="M78.7423 71.1067V77.5419M75.5247 74.3243H81.9599M93.2214 82.3682V88.8034M90.0038 85.5858H96.4389M73.916 88.8034V95.2385M70.6984 92.0209H77.1335M55.2152 88.3666H43.2824C41.8067 88.3666 40.3457 88.0729 38.9845 87.5027C37.6233 86.9325 36.3893 86.0972 35.3541 85.0453C34.319 83.9935 33.5034 82.7462 32.9551 81.3761C32.4067 80.006 32.1364 78.5405 32.16 77.065C32.1835 75.5894 32.5005 74.1332 33.0923 72.7814C33.6841 71.4295 34.539 70.2089 35.6072 69.1906C36.6754 68.1724 37.9356 67.3768 39.3142 66.8504C40.6929 66.3239 42.1625 66.077 43.6375 66.1241L61.4142 65.8255M94.5034 57.9762C94.5034 56.7852 94.263 55.6064 93.7964 54.5105C93.3299 53.4147 92.647 52.4243 91.7885 51.5987C90.9301 50.7731 89.9138 50.1293 88.8005 49.7059C87.6873 49.2826 86.5 49.0883 85.3099 49.1348L49.313 50.5409C47.2658 50.5311 45.2952 51.3184 43.8183 52.7362C42.3414 54.1539 41.4742 56.0908 41.4003 58.1367C41.4003 61.9739 44.6127 65.8254 48.4849 65.8254M54.6774 49.7948C53.0122 48.8165 51.6913 47.3459 50.8968 45.5855C50.1023 43.8252 49.8733 41.8618 50.2413 39.9658C50.6093 38.0698 51.5562 36.3347 52.9516 34.9994C54.347 33.6641 56.1221 32.7943 58.0324 32.5101C58.2413 32.4847 58.4532 32.5074 58.6519 32.5765C58.8506 32.6457 59.0309 32.7593 59.179 32.9088C59.327 33.0583 59.4389 33.2396 59.5061 33.439C59.5733 33.6384 59.594 33.8505 59.5667 34.0591L59.2773 36.4129C59.2431 36.6914 59.2662 36.974 59.3452 37.2433C59.4242 37.5125 59.5575 37.7628 59.7368 37.9786C59.9161 38.1945 60.1377 38.3713 60.3879 38.4984C60.6381 38.6254 60.9117 38.6999 61.1918 38.7173L80.4365 39.9119C81.6594 39.9596 82.8163 40.479 83.6646 41.3612C84.513 42.2433 84.9868 43.4196 84.9868 44.6434M106.092 83.977C106.092 96.4161 96.0078 106.5 83.5687 106.5C71.1296 106.5 61.0457 96.4161 61.0457 83.977C61.0457 71.5379 71.1296 61.454 83.5687 61.454C96.0078 61.454 106.092 71.5379 106.092 83.977ZM96.4389 75.9331C96.4389 76.8216 95.7187 77.5419 94.8302 77.5419C93.9416 77.5419 93.2214 76.8216 93.2214 75.9331C93.2214 75.0446 93.9416 74.3243 94.8302 74.3243C95.7187 74.3243 96.4389 75.0446 96.4389 75.9331ZM81.9599 98.4561C81.9599 99.3446 81.2396 100.065 80.3511 100.065C79.4626 100.065 78.7423 99.3446 78.7423 98.4561C78.7423 97.5676 79.4626 96.8473 80.3511 96.8473C81.2396 96.8473 81.9599 97.5676 81.9599 98.4561ZM72.3072 80.7594C72.3072 81.648 71.5869 82.3682 70.6984 82.3682C69.8099 82.3682 69.0896 81.648 69.0896 80.7594C69.0896 79.8709 69.8099 79.1507 70.6984 79.1507C71.5869 79.1507 72.3072 79.8709 72.3072 80.7594ZM90.0038 71.1067C90.0038 71.9952 89.2835 72.7155 88.395 72.7155C87.5065 72.7155 86.7862 71.9952 86.7862 71.1067C86.7862 70.2182 87.5065 69.498 88.395 69.498C89.2835 69.498 90.0038 70.2182 90.0038 71.1067ZM83.5687 85.5858C83.5687 86.4743 82.8484 87.1946 81.9599 87.1946C81.0714 87.1946 80.3511 86.4743 80.3511 85.5858C80.3511 84.6973 81.0714 83.977 81.9599 83.977C82.8484 83.977 83.5687 84.6973 83.5687 85.5858ZM93.2214 95.2385C93.2214 96.127 92.5011 96.8473 91.6126 96.8473C90.7241 96.8473 90.0038 96.127 90.0038 95.2385C90.0038 94.35 90.7241 93.6297 91.6126 93.6297C92.5011 93.6297 93.2214 94.35 93.2214 95.2385Z" stroke="white" stroke-width="2" stroke-miterlimit="10" stroke-linecap="round"/>
</svg>
