<svg width="98" height="98" viewBox="0 0 98 98" fill="none" xmlns="http://www.w3.org/2000/svg">
<rect x="0.432495" width="97.1351" height="97.1351" rx="48.5676" fill="#FD8413"/>
<path d="M73.5928 25.0676H24.4073C22.5283 25.0676 21 26.564 21 28.4038V61.8771C21 63.717 22.5283 65.2134 24.4073 65.2134H42V70.1092H30C29.4472 70.1092 29 70.5476 29 71.0884C29 71.6291 29.4472 72.0676 30 72.0676H68C68.5527 72.0676 69 71.6291 69 71.0884C69 70.5476 68.5527 70.1092 68 70.1092H56V65.2134H73.5928C75.4718 65.2134 77 63.717 77 61.8771V28.4038C77 26.564 75.4718 25.0676 73.5928 25.0676ZM23 28.4038C23 27.644 23.6308 27.0259 24.4073 27.0259H73.5928C74.369 27.0259 75 27.644 75 28.4038V56.4009H23V42.6926H25.4647L27.1678 45.1941C27.3748 45.5001 27.744 45.6626 28.114 45.6239C28.487 45.5818 28.8045 45.339 28.9363 44.9948L30.944 39.7514L32.0515 43.0025C32.1873 43.4022 32.569 43.6717 32.9998 43.6717H35.323L37.071 47.9522C37.2232 48.325 37.5925 48.5676 37.9998 48.5676C38.0183 48.5676 38.0377 48.5671 38.0565 48.5661C38.4862 48.5416 38.8515 48.252 38.9648 47.8462L41.0955 40.1954L42.0515 43.0025C42.1873 43.4022 42.569 43.6717 42.9997 43.6717H45.323L47.071 47.9522C47.2272 48.3333 47.614 48.5896 48.029 48.5671C48.449 48.5551 48.816 48.2878 48.948 47.8983L51.7205 39.7551H53C53.5527 39.7551 54 39.3166 54 38.7759C54 38.2352 53.5527 37.7967 53 37.7967H51C50.5693 37.7967 50.1875 38.0665 50.0517 38.466L47.915 44.7427L46.9287 42.3288C46.7765 41.9572 46.4092 41.7134 46 41.7134H43.7207L41.9482 36.5077C41.8095 36.0989 41.415 35.834 40.9727 35.8389C40.5322 35.8509 40.1515 36.1434 40.0352 36.5598L37.8205 44.5121L36.929 42.3286C36.7768 41.957 36.4095 41.7132 36.0002 41.7132H33.721L31.9485 36.5074C31.8147 36.114 31.4427 35.8457 31.0187 35.8382C30.6017 35.8492 30.212 36.0854 30.0637 36.4736L27.7493 42.517L26.8322 41.1702C26.6467 40.8978 26.3342 40.7342 26.0002 40.7342H23V28.4038ZM65 62.2759C64.1727 62.2759 63.5 61.6172 63.5 60.8071C63.5 59.9971 64.1727 59.3384 65 59.3384C65.8272 59.3384 66.5 59.9971 66.5 60.8071C66.5 61.6172 65.8272 62.2759 65 62.2759ZM62.5582 63.2551H34.9417C35.5927 62.6323 36 61.7665 36 60.8071C36 59.8478 35.5927 58.982 34.9417 58.3592H62.5582C61.9072 58.982 61.5 59.8478 61.5 60.8071C61.5 61.7665 61.9072 62.6323 62.5582 63.2551ZM32.5 59.3384C33.3272 59.3384 34 59.9971 34 60.8071C34 61.6172 33.3272 62.2759 32.5 62.2759C31.6727 62.2759 31 61.6172 31 60.8071C31 59.9971 31.6727 59.3384 32.5 59.3384ZM23 61.8771V58.3592H30.0582C29.4072 58.982 29 59.8478 29 60.8071C29 61.7665 29.4072 62.6323 30.0582 63.2551H24.4073C23.6308 63.2551 23 62.6367 23 61.8771ZM54 70.1092H44V65.2134H54V70.1092ZM73.5928 63.2551H67.4417C68.0928 62.6323 68.5 61.7665 68.5 60.8071C68.5 59.8478 68.0928 58.982 67.4417 58.3592H75V61.8771C75 62.6367 74.3693 63.2551 73.5928 63.2551Z" fill="white"/>
<path d="M55.8068 46.3595C57.3643 50.2251 60.3018 52.1513 62.5312 52.6654C63.003 52.7738 63.459 52.8274 63.8955 52.8274C64.9805 52.8274 65.9385 52.4957 66.671 51.8512C69.708 49.1776 71.1592 46.4562 70.9865 43.7635C70.7915 40.7462 68.6248 38.7737 67.4415 37.9098L67.4347 37.5169C67.4152 37.3101 67.3823 37.0692 67.3413 36.8176H69C69.5528 36.8176 70 36.3791 70 35.8384C70 35.2977 69.5528 34.8592 69 34.8592H66.77C66.4408 34.1246 65.9662 33.4338 65.2547 32.9787C64.3035 32.3702 63.1523 32.2801 61.83 32.7109C61.2415 32.9031 60.739 33.1636 60.2975 33.4654C59.5625 32.8527 58.7835 32.3276 58.0887 31.9159C57.615 31.6353 57 31.7834 56.7158 32.2468C56.4295 32.7092 56.581 33.3117 57.0538 33.5912C57.7483 34.0027 58.3615 34.4301 58.8923 34.8619C58.147 35.9383 57.8158 37.2009 57.7248 38.3487C57.0405 39.0209 54.1315 42.2074 55.8068 46.3595ZM62.463 34.5689C63.1875 34.3322 63.7423 34.3491 64.1613 34.6181C64.8225 35.0409 65.3017 36.1916 65.4385 37.622L65.4825 40.3286C65.4912 40.8684 65.9775 41.2982 66.498 41.2921C66.962 41.2848 67.3295 40.9636 67.4357 40.5428C68.182 41.3521 68.899 42.4735 68.99 43.8869C69.1228 45.952 67.8923 48.1416 65.3328 50.3949C64.8073 50.8569 63.9753 50.9859 62.99 50.7592C61.3317 50.3771 58.943 48.807 57.6657 45.6406C56.9072 43.7596 57.4713 42.1227 58.1225 41.038C58.423 41.3575 59.176 41.9462 60.6785 41.9462C61.4295 41.9462 62.365 41.7981 63.5203 41.3939C64.0407 41.2118 64.3123 40.6515 64.1258 40.1423C63.9403 39.6337 63.366 39.3663 62.8485 39.5494C60.8973 40.2317 60.0233 39.9649 59.741 39.8287C59.6648 39.1703 59.5895 37.5987 60.32 36.2976C60.5588 36.6139 60.746 36.9267 60.873 37.2318C61.0303 37.6119 61.4043 37.8423 61.7988 37.8423C61.9248 37.8423 62.0527 37.8188 62.1758 37.7696C62.6875 37.5659 62.9335 36.9946 62.7245 36.4935C62.4877 35.9241 62.1385 35.3924 61.7315 34.8945C61.9538 34.7709 62.1912 34.6575 62.463 34.5689Z" fill="white"/>
<path d="M31 30.9426C31 29.3228 29.6542 28.0051 28 28.0051C26.3457 28.0051 25 29.3228 25 30.9426C25 32.5624 26.3457 33.8801 28 33.8801C29.6542 33.8801 31 32.5624 31 30.9426ZM27 30.9426C27 30.4028 27.4482 29.9634 28 29.9634C28.5517 29.9634 29 30.4028 29 30.9426C29 31.4823 28.5517 31.9217 28 31.9217C27.4482 31.9217 27 31.4823 27 30.9426Z" fill="white"/>
<path d="M33 31.9217H37C37.5527 31.9217 38 31.4833 38 30.9426C38 30.4018 37.5527 29.9634 37 29.9634H33C32.4472 29.9634 32 30.4018 32 30.9426C32 31.4833 32.4472 31.9217 33 31.9217Z" fill="white"/>
<path d="M40 31.9217H47C47.5528 31.9217 48 31.4833 48 30.9426C48 30.4018 47.5528 29.9634 47 29.9634H40C39.4473 29.9634 39 30.4018 39 30.9426C39 31.4833 39.4473 31.9217 40 31.9217Z" fill="white"/>
<path d="M28 52.4842H32C32.5527 52.4842 33 52.0458 33 51.5051C33 50.9643 32.5527 50.5259 32 50.5259H28C27.4472 50.5259 27 50.9643 27 51.5051C27 52.0458 27.4472 52.4842 28 52.4842Z" fill="white"/>
<path d="M40 53.4634H28C27.4472 53.4634 27 53.9018 27 54.4426C27 54.9833 27.4472 55.4217 28 55.4217H40C40.5528 55.4217 41 54.9833 41 54.4426C41 53.9018 40.5528 53.4634 40 53.4634Z" fill="white"/>
<path d="M51 60.3176H47C46.4473 60.3176 46 60.756 46 61.2967C46 61.8375 46.4473 62.2759 47 62.2759H51C51.5527 62.2759 52 61.8375 52 61.2967C52 60.756 51.5527 60.3176 51 60.3176Z" fill="white"/>
</svg>
