<svg width="98" height="99" viewBox="0 0 98 99" fill="none" xmlns="http://www.w3.org/2000/svg">
<rect x="0.555054" y="0.929993" width="97.14" height="97.14" rx="48.57" fill="#FD8413"/>
<path d="M46.2779 53.4824C46.2779 53.9838 45.8731 54.3902 45.3737 54.3902H27.4545C26.9552 54.3902 26.5503 53.9838 26.5503 53.4824C26.5503 52.9811 26.9552 52.5747 27.4545 52.5747H45.3738C45.8732 52.5747 46.2779 52.9811 46.2779 53.4824ZM45.3737 60.1771H27.4545C26.9552 60.1771 26.5503 60.5835 26.5503 61.0848C26.5503 61.5862 26.9552 61.9926 27.4545 61.9926H45.3738C45.8732 61.9926 46.2781 61.5862 46.2781 61.0848C46.2781 60.5835 45.8732 60.1771 45.3737 60.1771ZM28.9424 35.5813H24.7837C24.2843 35.5813 23.8795 35.1748 23.8795 34.6735V31.7445C23.8795 31.2432 24.2843 30.8368 24.7837 30.8368H28.9424V26.6618C28.9424 26.1605 29.3472 25.754 29.8466 25.754H32.7642C33.2636 25.754 33.6685 26.1605 33.6685 26.6618V30.8368H37.8272C38.3266 30.8368 38.7314 31.2432 38.7314 31.7445V34.6735C38.7314 35.1748 38.3266 35.5813 37.8272 35.5813H33.6685V39.7562C33.6685 40.2576 33.2636 40.664 32.7642 40.664H29.8466C29.3472 40.664 28.9424 40.2576 28.9424 39.7562V35.5813ZM29.8466 33.7657C30.346 33.7657 30.7509 34.1721 30.7509 34.6735V38.8484H31.86V34.6735C31.86 34.1721 32.2648 33.7657 32.7642 33.7657H36.923V32.6523H32.7642C32.2648 32.6523 31.86 32.2459 31.86 31.7445V27.5696H30.7509V31.7445C30.7509 32.2459 30.346 32.6523 29.8466 32.6523H25.6879V33.7657H29.8466ZM45.3737 26.9953H42.5578C42.0584 26.9953 41.6535 27.4018 41.6535 27.9031C41.6535 28.4045 42.0584 28.8109 42.5578 28.8109H45.3737C45.8731 28.8109 46.2779 28.4045 46.2779 27.9031C46.2779 27.4018 45.8732 26.9953 45.3737 26.9953ZM79.428 47.3148L76.6026 50.1511L78.6042 52.1603C79.0167 52.5744 79.2439 53.1263 79.2439 53.7144C79.2439 54.3025 79.0167 54.8545 78.6042 55.2685L77.3955 56.4819C76.9687 56.9104 76.4081 57.1246 75.8476 57.1246C75.2868 57.1246 74.7262 56.9104 74.2995 56.4819L73.1283 55.306L51.2963 77.2231C50.2125 78.3111 48.7665 78.9104 47.2246 78.9104C45.6826 78.9104 44.2366 78.3111 43.1528 77.2231C42.0688 76.1351 41.4719 74.6835 41.4719 73.1354C41.4719 71.5874 42.0688 70.1358 43.1528 69.0478L44.5381 67.6571H22.4908C19.9831 67.6571 17.9429 65.609 17.9429 63.0914V24.6551C17.9429 22.1376 19.9831 20.0896 22.4908 20.0896H50.3376C52.8453 20.0896 54.8854 22.1376 54.8854 24.6551V57.2695L64.9846 47.1309L63.8133 45.9551C63.4008 45.541 63.1736 44.9891 63.1736 44.401C63.1736 43.8129 63.4008 43.261 63.8133 42.8469L65.022 41.6335C65.8752 40.7767 67.2644 40.7767 68.118 41.6335L70.1195 43.6427L72.945 40.8064C73.5118 40.2373 74.2675 39.9239 75.0731 39.9239C75.8788 39.9239 76.6345 40.2373 77.2015 40.8064L79.4281 43.0417C79.9949 43.6107 80.3071 44.3695 80.3071 45.1782C80.3071 45.9869 79.9949 46.7458 79.428 47.3148ZM46.3467 65.8417L53.077 59.085V24.6551C53.077 23.1388 51.8482 21.9051 50.3377 21.9051H22.4908C20.9803 21.9051 19.7513 23.1388 19.7513 24.6551V63.0915C19.7513 64.6079 20.9803 65.8417 22.4908 65.8417H46.3467ZM60.7921 65.123H49.62L44.4316 70.3316C43.6895 71.0768 43.2807 72.0726 43.2807 73.1356C43.2807 74.1986 43.6895 75.1943 44.4316 75.9395C45.1739 76.6847 46.1658 77.0951 47.2247 77.0951C48.2835 77.0951 49.2755 76.6847 50.0177 75.9395L60.7921 65.123ZM71.8494 54.0225L66.2633 48.4146L51.4284 63.3074H62.6005L71.8494 54.0225ZM66.8395 42.9173C66.7666 42.844 66.6684 42.8073 66.5702 42.8073C66.472 42.8073 66.3739 42.844 66.3009 42.9173L65.0922 44.1307C64.9966 44.2268 64.9821 44.3415 64.9821 44.4011C64.9821 44.4608 64.9964 44.5754 65.0922 44.6714L66.9027 46.489C66.9026 46.489 66.9028 46.4891 66.9027 46.489L73.767 53.3802C73.7672 53.3804 73.7674 53.3805 73.7676 53.3808C73.7677 53.381 73.7678 53.3811 73.7681 53.3813L75.5782 55.1985C75.7243 55.345 75.9709 55.3448 76.117 55.1985L77.3257 53.9851C77.4213 53.889 77.4358 53.7743 77.4358 53.7147C77.4358 53.655 77.4214 53.5404 77.3257 53.4444L66.8395 42.9173ZM78.4987 45.1782C78.4987 44.8544 78.3746 44.5516 78.1494 44.3255L75.9226 42.0901C75.6975 41.8639 75.3958 41.7393 75.0733 41.7393C74.7507 41.7393 74.4491 41.8638 74.2239 42.0899L71.3984 44.9263L75.3241 48.8673L78.1495 46.031C78.3746 45.8048 78.4987 45.502 78.4987 45.1782ZM45.3737 44.9721H27.4545C26.9552 44.9721 26.5503 45.3785 26.5503 45.8799C26.5503 46.3812 26.9552 46.7876 27.4545 46.7876H45.3738C45.8732 46.7876 46.2781 46.3812 46.2781 45.8799C46.2781 45.3785 45.8732 44.9721 45.3737 44.9721ZM45.3737 32.762H42.5578C42.0584 32.762 41.6535 33.1684 41.6535 33.6698C41.6535 34.1711 42.0584 34.5775 42.5578 34.5775H45.3737C45.8731 34.5775 46.2779 34.1711 46.2779 33.6698C46.2779 33.1684 45.8732 32.762 45.3737 32.762ZM45.3737 38.5285H42.5578C42.0584 38.5285 41.6535 38.9349 41.6535 39.4363C41.6535 39.9376 42.0584 40.3441 42.5578 40.3441H45.3737C45.8731 40.3441 46.2779 39.9376 46.2779 39.4363C46.2779 38.9349 45.8732 38.5285 45.3737 38.5285Z" fill="white"/>
</svg>
