<svg width="140" height="140" viewBox="0 0 140 140" fill="none" xmlns="http://www.w3.org/2000/svg">
<rect x="0.315063" y="0.315033" width="139" height="139" rx="69.5" fill="#128894"/>
<rect x="7.31506" y="7.68991" width="124.25" height="124.25" rx="62.1251" fill="#FD8413"/>
<path d="M65.7986 74.9089C65.7986 75.5502 65.2808 76.07 64.642 76.07H41.7219C41.0831 76.07 40.5653 75.5502 40.5653 74.9089C40.5653 74.2676 41.0831 73.7478 41.7219 73.7478H64.6422C65.2809 73.7478 65.7986 74.2676 65.7986 74.9089ZM64.642 83.4719H41.7219C41.0831 83.4719 40.5653 83.9918 40.5653 84.633C40.5653 85.2743 41.0831 85.7941 41.7219 85.7941H64.6422C65.2809 85.7941 65.7988 85.2743 65.7988 84.633C65.7988 83.9918 65.2809 83.4719 64.642 83.4719ZM43.625 52.0118H38.3056C37.6669 52.0118 37.149 51.4919 37.149 50.8507V47.1043C37.149 46.463 37.6669 45.9432 38.3056 45.9432H43.625V40.6031C43.625 39.9618 44.1428 39.442 44.7816 39.442H48.5134C49.1522 39.442 49.67 39.9618 49.67 40.6031V45.9432H54.9894C55.6281 45.9432 56.146 46.463 56.146 47.1043V50.8507C56.146 51.4919 55.6281 52.0118 54.9894 52.0118H49.67V57.3519C49.67 57.9932 49.1522 58.513 48.5134 58.513H44.7816C44.1428 58.513 43.625 57.9932 43.625 57.3519V52.0118ZM44.7816 49.6896C45.4204 49.6896 45.9382 50.2094 45.9382 50.8507V56.1908H47.3568V50.8507C47.3568 50.2094 47.8747 49.6896 48.5134 49.6896H53.8328V48.2654H48.5134C47.8747 48.2654 47.3568 47.7455 47.3568 47.1043V41.7642H45.9382V47.1043C45.9382 47.7455 45.4204 48.2654 44.7816 48.2654H39.4622V49.6896H44.7816ZM64.642 41.0297H61.0402C60.4014 41.0297 59.8836 41.5495 59.8836 42.1908C59.8836 42.8321 60.4014 43.3519 61.0402 43.3519H64.642C65.2808 43.3519 65.7986 42.8321 65.7986 42.1908C65.7986 41.5495 65.2809 41.0297 64.642 41.0297ZM108.2 67.02L104.586 70.6478L107.147 73.2178C107.674 73.7474 107.965 74.4534 107.965 75.2056C107.965 75.9579 107.674 76.6638 107.147 77.1935L105.601 78.7455C105.055 79.2936 104.338 79.5676 103.621 79.5676C102.903 79.5676 102.186 79.2936 101.641 78.7455L100.142 77.2414L72.2175 105.275C70.8313 106.667 68.9817 107.433 67.0094 107.433C65.0371 107.433 63.1875 106.667 61.8012 105.275C60.4148 103.884 59.6513 102.027 59.6513 100.047C59.6513 98.0667 60.4148 96.2099 61.8012 94.8183L63.5731 93.0395H35.3728C32.1653 93.0395 29.5557 90.4198 29.5557 87.1996V38.0363C29.5557 34.8163 32.1653 32.1966 35.3728 32.1966H70.9912C74.1988 32.1966 76.8082 34.8163 76.8082 38.0363V79.7529L89.7259 66.7848L88.2278 65.2808C87.7002 64.7512 87.4096 64.0452 87.4096 63.293C87.4096 62.5407 87.7002 61.8348 88.2278 61.3052L89.7738 59.7531C90.8652 58.6572 92.642 58.6572 93.7339 59.7531L96.2939 62.3231L99.9079 58.6951C100.633 57.9673 101.6 57.5664 102.63 57.5664C103.661 57.5664 104.627 57.9673 105.352 58.6951L108.2 61.5543C108.925 62.2821 109.325 63.2527 109.325 64.2871C109.325 65.3214 108.925 66.2921 108.2 67.02ZM65.8865 90.7174L74.4952 82.0751V38.0363C74.4952 36.0968 72.9234 34.5188 70.9914 34.5188H35.3728C33.4408 34.5188 31.8689 36.0968 31.8689 38.0363V87.1997C31.8689 89.1393 33.4408 90.7174 35.3728 90.7174H65.8865ZM84.3634 89.7981H70.0734L63.437 96.4604C62.4878 97.4135 61.9648 98.6873 61.9648 100.047C61.9648 101.407 62.4878 102.68 63.437 103.633C64.3864 104.587 65.6552 105.112 67.0096 105.112C68.3639 105.112 69.6327 104.587 70.5821 103.633L84.3634 89.7981ZM98.5066 75.5997L91.3615 68.4267L72.3864 87.4759H86.6765L98.5066 75.5997ZM92.0986 61.3952C92.0052 61.3015 91.8797 61.2546 91.7541 61.2546C91.6285 61.2546 91.503 61.3015 91.4096 61.3952L89.8636 62.9473C89.7413 63.0702 89.7228 63.2168 89.7228 63.2931C89.7228 63.3694 89.7411 63.5161 89.8636 63.6388L92.1794 65.9637C92.1792 65.9637 92.1796 65.9639 92.1794 65.9637L100.959 74.7782C100.96 74.7783 100.96 74.7785 100.96 74.7788C100.96 74.7792 100.96 74.7793 100.961 74.7795L103.276 77.1039C103.463 77.2913 103.778 77.291 103.965 77.1039L105.511 75.5518C105.634 75.4289 105.652 75.2823 105.652 75.206C105.652 75.1297 105.634 74.983 105.511 74.8603L92.0986 61.3952ZM107.012 64.2871C107.012 63.8729 106.853 63.4856 106.565 63.1964L103.717 60.3371C103.429 60.0478 103.043 59.8884 102.63 59.8884C102.218 59.8884 101.832 60.0477 101.544 60.337L97.9298 63.9649L102.951 69.0058L106.565 65.3778C106.853 65.0885 107.012 64.7012 107.012 64.2871ZM64.642 64.0235H41.7219C41.0831 64.0235 40.5653 64.5433 40.5653 65.1846C40.5653 65.8259 41.0831 66.3457 41.7219 66.3457H64.6422C65.2809 66.3457 65.7988 65.8259 65.7988 65.1846C65.7988 64.5433 65.2809 64.0235 64.642 64.0235ZM64.642 48.4057H61.0402C60.4014 48.4057 59.8836 48.9256 59.8836 49.5668C59.8836 50.2081 60.4014 50.7279 61.0402 50.7279H64.642C65.2808 50.7279 65.7986 50.2081 65.7986 49.5668C65.7986 48.9256 65.2809 48.4057 64.642 48.4057ZM64.642 55.7816H61.0402C60.4014 55.7816 59.8836 56.3014 59.8836 56.9427C59.8836 57.584 60.4014 58.1038 61.0402 58.1038H64.642C65.2808 58.1038 65.7986 57.584 65.7986 56.9427C65.7986 56.3014 65.2809 55.7816 64.642 55.7816Z" fill="white"/>
</svg>
