<svg width="98" height="98" viewBox="0 0 98 98" fill="none" xmlns="http://www.w3.org/2000/svg">
<rect x="0.432495" y="0.135132" width="97.1351" height="97.1351" rx="48.5676" fill="#FD8413"/>
<path fill-rule="evenodd" clip-rule="evenodd" d="M41.1388 23.0985C41.1388 21.2697 42.6392 19.7772 44.4775 19.7772H62.5673C64.3753 19.7772 65.906 21.1193 65.906 23.0985V25.9971C65.906 27.8259 64.4057 29.3184 62.5673 29.3184H62.1423V36.6044C62.1427 36.6184 62.1427 36.6324 62.1423 36.6465V68.5098C62.1423 73.2371 58.2139 77.1451 53.4617 77.1451C48.7096 77.1451 44.7811 73.2371 44.7811 68.5098V63.966C44.0852 64.2146 43.3646 64.3941 42.5865 64.5033C42.3305 66.3701 42.6719 68.2652 43.4956 70.2114C43.5915 70.438 43.5907 70.6937 43.4934 70.9197C42.9543 72.1708 41.7199 72.7369 40.5773 72.7369C39.4342 72.7369 38.1997 72.1756 37.5927 70.968C37.4738 70.7315 37.4648 70.4551 37.5679 70.2114C38.3947 68.2581 38.7355 66.3564 38.4743 64.483C37.7081 64.3536 36.9656 64.1546 36.2536 63.8926C35.7707 64.4708 35.492 64.9557 35.3034 65.479C35.058 66.1598 34.9433 66.961 34.8215 68.2333C34.7961 68.4991 34.654 68.7402 34.4334 68.8922C32.2334 70.4073 29.025 68.6009 29.3693 65.8611C29.4011 65.6083 29.5385 65.3804 29.7477 65.2335C30.7621 64.5212 31.3733 64.0074 31.8214 63.447C32.1614 63.0219 32.4314 62.5395 32.6966 61.8642C32.0669 61.3515 31.488 60.778 30.9686 60.1522C30.2764 60.426 29.7986 60.7169 29.3782 61.0754C28.828 61.5445 28.3375 62.1595 27.6019 63.1353C27.4426 63.3465 27.1988 63.478 26.934 63.4956C25.6009 63.584 24.5155 62.7885 23.9582 61.8184C23.4 60.8466 23.2652 59.5072 24.081 58.4251C24.2339 58.2223 24.4653 58.0925 24.7189 58.0672C25.9116 57.9486 26.6935 57.8068 27.366 57.5494C27.8755 57.3545 28.3549 57.0805 28.917 56.6501C28.6157 55.8667 28.3897 55.044 28.2479 54.1908C26.3894 53.9328 24.5785 54.27 22.6133 55.0932C22.3683 55.1958 22.0905 55.1868 21.8527 55.0685C20.6388 54.4647 20.0746 53.2366 20.0746 52.0995C20.0746 50.9628 20.6436 49.7349 21.9012 49.1987C22.1284 49.1018 22.3855 49.101 22.6133 49.1964C24.5785 50.0196 26.3894 50.3568 28.2479 50.0988C28.3797 49.3057 28.5843 48.539 28.8544 47.8057C28.2668 47.349 27.7718 47.0626 27.2446 46.8609C26.5721 46.6036 25.7902 46.4618 24.5975 46.3431C24.3319 46.3167 24.0913 46.1757 23.9394 45.9574C23.1594 44.8366 23.2697 43.4887 23.8368 42.5014C24.4025 41.5166 25.5159 40.7408 26.8724 40.9207C27.1237 40.954 27.3497 41.0901 27.4959 41.2962C28.2226 42.3204 28.7101 42.9269 29.2471 43.3721C29.6665 43.7198 30.1474 43.9939 30.8624 44.2672C31.3837 43.6216 31.9675 43.03 32.6045 42.501C32.3298 41.7858 32.0526 41.2834 31.7 40.8426C31.2519 40.2822 30.6406 39.7684 29.6263 39.0561C29.402 38.8986 29.2611 38.6489 29.2429 38.3764C29.1546 37.0589 29.9441 35.9551 30.9052 35.3697C31.8693 34.7825 33.2307 34.5899 34.34 35.4175C34.5451 35.5705 34.6758 35.8024 34.7001 36.0563C34.8194 37.3026 34.9623 38.0787 35.2202 38.7458C35.4265 39.2793 35.7211 39.7808 36.1994 40.417C36.9279 40.1451 37.6886 39.9393 38.4743 39.8066C38.7355 37.9332 38.3947 36.0315 37.5679 34.0782C37.472 33.8516 37.4728 33.5959 37.5702 33.3699C38.1092 32.1188 39.3436 31.5527 40.4863 31.5527C41.6293 31.5527 42.8639 32.114 43.4708 33.3216C43.5897 33.5581 43.5988 33.8345 43.4956 34.0782C42.6698 36.0293 42.3288 37.9289 42.5884 39.8003C43.3459 39.9288 44.0856 40.1445 44.7811 40.3864V36.6452C44.7807 36.6316 44.7807 36.618 44.7811 36.6045V29.3184H44.4775C42.6392 29.3184 41.1388 27.8259 41.1388 25.9971V23.0985ZM46.1462 27.5068C46.0124 27.43 45.8572 27.386 45.6916 27.386C45.526 27.386 45.3708 27.43 45.237 27.5068H44.4775C43.6449 27.5068 42.9599 26.8254 42.9599 25.9971V23.0985C42.9599 22.2703 43.6449 21.5888 44.4775 21.5888H62.5673C63.4303 21.5888 64.0849 22.1792 64.0849 23.0985V25.9971C64.0849 26.8254 63.3999 27.5068 62.5673 27.5068H61.6864C61.5526 27.43 61.3974 27.386 61.2318 27.386C61.0662 27.386 60.911 27.43 60.7772 27.5068H46.1462ZM46.6022 29.3184V36.0233C48.3685 36.7307 49.5238 36.8827 50.3625 36.8099C51.2772 36.7305 51.9188 36.3814 52.7463 35.924L52.7538 35.9199C53.5769 35.465 54.559 34.9223 55.9764 34.7734C57.1354 34.6516 58.5233 34.7968 60.3212 35.3544V29.3184H46.6022ZM60.3212 37.2611C58.3948 36.6002 57.1073 36.4763 56.1676 36.575C55.1459 36.6823 54.4452 37.0576 53.6307 37.5077C53.6116 37.5182 53.5925 37.5288 53.5732 37.5395C52.7743 37.9814 51.8357 38.5005 50.5208 38.6146C49.4512 38.7075 48.1996 38.5305 46.6022 37.9616V41.6772C46.6025 41.6911 46.6025 41.705 46.6022 41.719V54.7202C46.6025 54.7342 46.6025 54.7483 46.6022 54.7625V58.8268C46.6025 58.8409 46.6025 58.855 46.6022 58.869V62.5721C46.6024 62.5848 46.6024 62.5974 46.6022 62.6101V68.5098C46.6022 72.2366 49.7153 75.3335 53.4617 75.3335C57.2081 75.3335 60.3212 72.2366 60.3212 68.5098V37.2611ZM44.7811 62.0167V59.9886C44.7209 59.9929 44.6601 59.9951 44.5989 59.9951C42.9135 59.9951 41.3816 58.6542 41.3816 56.7946C41.3816 55.1179 42.7296 53.5941 44.5989 53.5941C44.6601 53.5941 44.7209 53.5964 44.7811 53.6006V42.3159C43.7571 41.9277 42.7278 41.6037 41.7241 41.5129C41.3259 41.4769 40.9979 41.1867 40.9155 40.7974C40.4163 38.4386 40.7448 36.1077 41.632 33.8308C41.3538 33.5328 40.9381 33.3644 40.4863 33.3644C40.0364 33.3644 39.6581 33.5283 39.4205 33.8025C40.316 36.0884 40.6493 38.4289 40.148 40.7974C40.0672 41.1793 39.7496 41.4668 39.3598 41.5108C34.4447 42.0665 30.5244 45.9575 29.9637 50.9767C29.9203 51.3654 29.631 51.6825 29.2463 51.763C26.8623 52.2623 24.6167 51.9287 22.3358 51.0397C22.0603 51.276 21.8957 51.6522 21.8957 52.0995C21.8957 52.5488 22.0648 52.9622 22.3642 53.2389C24.6353 52.3582 26.8722 52.0293 29.2463 52.5266C29.631 52.6071 29.9203 52.9242 29.9637 53.3129C30.0856 54.404 30.3662 55.4417 30.7813 56.4035C30.8449 56.4956 30.8892 56.5961 30.9146 56.6999C31.6464 58.2633 32.7387 59.6127 34.0818 60.6456C34.2691 60.7077 34.4226 60.8245 34.5303 60.9722C35.9356 61.9409 37.5827 62.5779 39.3598 62.7788C39.7496 62.8228 40.0672 63.1103 40.148 63.4922C40.6472 65.851 40.3187 68.1819 39.4316 70.4588C39.7098 70.7568 40.1254 70.9252 40.5773 70.9252C41.0272 70.9252 41.4055 70.7613 41.643 70.487C40.7476 68.2012 40.4143 65.8607 40.9155 63.4922C40.9984 63.1005 41.33 62.8093 41.7309 62.7761C42.8656 62.682 43.8317 62.4306 44.7811 62.0167ZM34.2245 62.9291C33.9534 63.5455 33.6442 64.0776 33.2467 64.5748C32.7098 65.2461 32.0426 65.8147 31.1822 66.4394C31.3143 67.2581 32.2536 67.8295 33.0577 67.5701C33.1673 66.5303 33.3018 65.6648 33.5891 64.8677C33.8144 64.2424 34.1241 63.6831 34.5507 63.1154C34.4409 63.0549 34.3322 62.9928 34.2245 62.9291ZM29.7066 58.3227C29.1559 58.7133 28.6155 59.0124 28.0198 59.2403C27.2344 59.5408 26.3943 59.7011 25.3794 59.8186C25.2738 60.1465 25.3213 60.54 25.5394 60.9196C25.758 61.3002 26.0886 61.5592 26.4454 61.6522C27.0395 60.8753 27.5712 60.2301 28.193 59.6999C28.6941 59.2727 29.2364 58.9333 29.8917 58.639C29.8285 58.5346 29.7668 58.4292 29.7066 58.3227ZM44.7811 55.423C44.7151 55.4114 44.6557 55.4057 44.5989 55.4057C43.7973 55.4057 43.2028 56.0558 43.2028 56.7946C43.2028 57.5921 43.8563 58.1835 44.5989 58.1835C44.6557 58.1835 44.7151 58.1778 44.7811 58.1663V55.423ZM34.5153 41.1938C34.0889 40.5939 33.7643 40.0267 33.5205 39.3961C33.2166 38.6102 33.0555 37.7696 32.9374 36.7143C32.6235 36.6246 32.2406 36.6806 31.8561 36.9147C31.4636 37.1538 31.1951 37.5076 31.0979 37.8772C31.9404 38.4913 32.5962 39.0532 33.1252 39.7148C33.5352 40.2274 33.8511 40.7771 34.1281 41.418C34.2557 41.341 34.3848 41.2662 34.5153 41.1938ZM29.8056 45.795C29.145 45.5117 28.5929 45.1881 28.0813 44.7639C27.4389 44.2314 26.897 43.5694 26.2856 42.7278C25.9456 42.7956 25.631 43.0294 25.418 43.4002C25.201 43.7779 25.144 44.2097 25.2703 44.5932C26.2797 44.7105 27.1162 44.8708 27.8984 45.1701C28.5081 45.4033 29.0598 45.7112 29.6239 46.1152C29.683 46.0075 29.7435 45.9008 29.8056 45.795ZM45.813 22.1927C46.3159 22.1927 46.7236 22.5983 46.7236 23.0985V25.7556C46.7236 26.2558 46.3159 26.6614 45.813 26.6614C45.3101 26.6614 44.9025 26.2558 44.9025 25.7556V23.0985C44.9025 22.5983 45.3101 22.1927 45.813 22.1927ZM49.6981 22.1927C50.201 22.1927 50.6086 22.5983 50.6086 23.0985V25.7556C50.6086 26.2558 50.201 26.6614 49.6981 26.6614C49.1952 26.6614 48.7875 26.2558 48.7875 25.7556V23.0985C48.7875 22.5983 49.1952 22.1927 49.6981 22.1927ZM53.4617 22.1927C53.9646 22.1927 54.3723 22.5983 54.3723 23.0985V25.7556C54.3723 26.2558 53.9646 26.6614 53.4617 26.6614C52.9588 26.6614 52.5511 26.2558 52.5511 25.7556V23.0985C52.5511 22.5983 52.9588 22.1927 53.4617 22.1927ZM57.3468 22.1927C57.8496 22.1927 58.2573 22.5983 58.2573 23.0985V25.7556C58.2573 26.2558 57.8496 26.6614 57.3468 26.6614C56.8439 26.6614 56.4362 26.2558 56.4362 25.7556V23.0985C56.4362 22.5983 56.8439 22.1927 57.3468 22.1927ZM61.1104 22.1927C61.6133 22.1927 62.0209 22.5983 62.0209 23.0985V25.7556C62.0209 26.2558 61.6133 26.6614 61.1104 26.6614C60.6075 26.6614 60.1998 26.2558 60.1998 25.7556V23.0985C60.1998 22.5983 60.6075 22.1927 61.1104 22.1927ZM68.4915 31.2753L76.1042 34.4225V32.2816L69.2415 29.4888C68.8479 30.0025 68.5834 30.6157 68.4915 31.2753ZM70.9488 28.2263L75.7427 30.1771C75.1236 28.8712 73.7811 27.9899 72.2799 27.9899C71.809 27.9899 71.3612 28.0738 70.9488 28.2263ZM77.9218 31.5912C77.8133 28.5182 75.2519 26.1783 72.2799 26.1783C69.0909 26.1783 66.6344 28.7729 66.6344 31.7943V40.007C66.6344 42.2065 67.8883 44.0557 69.6696 44.983V75.0316C69.6696 76.498 70.8058 77.6282 72.2799 77.6282C73.7541 77.6282 74.8902 76.498 74.8902 75.0316V44.983C76.6715 44.0557 77.9254 42.2065 77.9254 40.007V39.9072C77.9257 39.8934 77.9257 39.8796 77.9254 39.8659V35.8009C77.9257 35.7871 77.9257 35.7733 77.9254 35.7596V31.7943C77.9254 31.7669 77.9252 31.7395 77.9248 31.7122C77.9265 31.6716 77.9255 31.6312 77.9218 31.5912ZM76.1042 36.3843L68.4556 33.2222V35.3667L76.1042 38.5288V36.3843ZM76.0753 40.4787L68.4556 37.3286V39.473L75.3222 42.3104C75.721 41.7923 75.9901 41.1671 76.0753 40.4787ZM73.5674 43.547L68.7941 41.5745C69.1735 42.4061 69.8444 43.0706 70.6645 43.4529C70.8398 43.4689 71.0007 43.5343 71.133 43.635C71.4972 43.7498 71.883 43.8114 72.2799 43.8114C72.6768 43.8114 73.0626 43.7498 73.4268 43.635C73.4707 43.6016 73.5177 43.5721 73.5674 43.547ZM73.069 45.5675C72.8103 45.6041 72.5468 45.623 72.2799 45.623C72.013 45.623 71.7495 45.6041 71.4907 45.5675V75.0316C71.4907 75.4975 71.8115 75.8166 72.2799 75.8166C72.7483 75.8166 73.069 75.4975 73.069 75.0316V45.5675ZM40.1069 44.0529C39.671 44.0529 39.3177 44.4044 39.3177 44.8379C39.3177 45.2715 39.671 45.623 40.1069 45.623C40.5427 45.623 40.896 45.2715 40.896 44.8379C40.896 44.4044 40.5427 44.0529 40.1069 44.0529ZM37.4966 44.8379C37.4966 43.4038 38.6652 42.2413 40.1069 42.2413C41.5485 42.2413 42.7171 43.4038 42.7171 44.8379C42.7171 46.272 41.5485 47.4346 40.1069 47.4346C38.6652 47.4346 37.4966 46.272 37.4966 44.8379ZM34.1579 50.2124C33.722 50.2124 33.3687 50.5639 33.3687 50.9974C33.3687 51.431 33.722 51.7825 34.1579 51.7825C34.5937 51.7825 34.947 51.431 34.947 50.9974C34.947 50.5639 34.5937 50.2124 34.1579 50.2124ZM31.5476 50.9974C31.5476 49.5633 32.7163 48.4008 34.1579 48.4008C35.5995 48.4008 36.7681 49.5633 36.7681 50.9974C36.7681 52.4315 35.5995 53.5941 34.1579 53.5941C32.7163 53.5941 31.5476 52.4315 31.5476 50.9974ZM40.5925 50.6955C40.4249 50.6955 40.289 50.8307 40.289 50.9974C40.289 51.1642 40.4249 51.2994 40.5925 51.2994C40.7601 51.2994 40.896 51.1642 40.896 50.9974C40.896 50.8307 40.7601 50.6955 40.5925 50.6955ZM38.4679 50.9974C38.4679 49.8302 39.4191 48.8839 40.5925 48.8839C41.7659 48.8839 42.7171 49.8302 42.7171 50.9974C42.7171 52.1647 41.7659 53.111 40.5925 53.111C39.4191 53.111 38.4679 52.1647 38.4679 50.9974ZM36.4646 57.3381C36.297 57.3381 36.1611 57.4733 36.1611 57.64C36.1611 57.8068 36.297 57.942 36.4646 57.942C36.6323 57.942 36.7681 57.8068 36.7681 57.64C36.7681 57.4733 36.6322 57.3381 36.4646 57.3381ZM34.34 57.64C34.34 56.4728 35.2912 55.5265 36.4646 55.5265C37.638 55.5265 38.5893 56.4728 38.5893 57.64C38.5893 58.8073 37.638 59.7536 36.4646 59.7536C35.2912 59.7536 34.34 58.8073 34.34 57.64ZM49.5767 58.5459C50.0795 58.5459 50.4872 58.9514 50.4872 59.4517V68.5098C50.4872 70.1834 51.7792 71.4687 53.4617 71.4687C53.9646 71.4687 54.3723 71.8743 54.3723 72.3745C54.3723 72.8748 53.9646 73.2803 53.4617 73.2803C50.7735 73.2803 48.6661 71.184 48.6661 68.5098V59.4517C48.6661 58.9514 49.0738 58.5459 49.5767 58.5459Z" fill="white"/>
</svg>
