<svg width="98" height="98" viewBox="0 0 98 98" fill="none" xmlns="http://www.w3.org/2000/svg">
<rect x="0.432495" y="0.135132" width="97.1351" height="97.1351" rx="48.5676" fill="#FD8413"/>
<path d="M54.1217 51.9871C55.4901 51.4615 56.7489 50.6649 57.8271 49.6242C59.7598 47.7583 60.9517 45.2605 61.1834 42.5907C61.3912 40.1963 60.8199 37.8047 59.5682 35.7795L60.7936 34.5536C60.9998 35.4317 61.7896 36.0873 62.7297 36.0873H63.8709C64.9674 36.0873 65.8595 35.1952 65.8595 34.0986V27.856C65.8595 26.7595 64.9675 25.8673 63.8709 25.8673H62.6246C62.1566 25.8673 61.7772 26.2468 61.7772 26.7148C61.7772 27.1828 62.1566 27.5622 62.6246 27.5622H63.8709C64.0329 27.5622 64.1647 27.694 64.1647 27.856V34.0987C64.1647 34.2607 64.0329 34.3925 63.8709 34.3925H62.7297C62.5677 34.3925 62.4359 34.2607 62.4359 34.0987V32.5597C62.4359 32.2169 62.2294 31.908 61.9128 31.7768C61.596 31.6456 61.2316 31.7181 60.9892 31.9607L57.8797 35.0713C57.5872 35.364 57.5488 35.8251 57.7889 36.1622C59.0828 37.9784 59.6888 40.2094 59.4948 42.4442C59.2985 44.7063 58.2882 46.8232 56.6498 48.4048C54.8944 50.0993 52.5723 51.0315 50.1086 51.0315C50.1003 51.0315 50.0919 51.0315 50.0835 51.0315C47.6106 51.0252 45.2832 50.0804 43.5302 48.3714C42.3009 47.1731 41.4348 45.69 40.9999 44.0518C41.5284 43.8364 42.0938 43.6936 42.6842 43.6373C43.0981 45.1654 43.978 46.5382 45.2112 47.5592C46.6178 48.7239 48.3601 49.3035 50.1022 49.3034C51.9269 49.3033 53.7515 48.6671 55.1878 47.4011C56.8141 45.9675 57.7656 43.9034 57.7984 41.738C57.831 39.5715 56.9438 37.4803 55.3642 36.0008C52.4769 33.2965 47.9112 33.2479 44.97 35.8903C44.1609 36.6172 43.5146 37.5088 43.0765 38.494C43.0391 38.4946 43.0019 38.4934 42.9645 38.4943C42.3502 38.5103 41.7438 38.5769 41.1498 38.6916C41.606 37.2886 42.3839 36.015 43.4421 34.9568C46.7093 31.6896 51.8083 31.2617 55.5662 33.9393C55.9033 34.1794 56.3647 34.141 56.6573 33.8482L59.7668 30.7376C60.009 30.4953 60.0816 30.1308 59.9503 29.8141C59.8191 29.4975 59.5102 29.2911 59.1674 29.2911H57.6296C57.467 29.2911 57.3347 29.1594 57.3347 28.9973V27.8561C57.3347 27.6941 57.467 27.5623 57.6296 27.5623H58.6702C59.1382 27.5623 59.5176 27.1829 59.5176 26.7149C59.5176 26.2469 59.1382 25.8674 58.6702 25.8674H57.6296C56.5324 25.8674 55.6398 26.7595 55.6398 27.8561V28.9973C55.6398 29.9374 56.2958 30.7272 57.1744 30.9334L55.9486 32.1598C53.9503 30.9252 51.5909 30.351 49.2294 30.5365C46.5955 30.7431 44.1146 31.8872 42.2436 33.7583C40.7294 35.2725 39.7004 37.1598 39.2471 39.2409C37.8102 39.8001 36.4909 40.6608 35.3724 41.7888C33.3394 43.8392 32.1916 46.5452 32.1407 49.4089C32.1156 50.861 32.3646 52.2746 32.8811 53.6104C33.011 53.9466 33.3318 54.1525 33.6717 54.1525C33.7733 54.1525 33.8767 54.134 33.9771 54.0952C34.4136 53.9264 34.6308 53.4357 34.4618 52.9991C34.0247 51.8684 33.8138 50.6704 33.8352 49.4385C33.8782 47.0138 34.8515 44.721 36.5758 42.9822C38.3 41.2433 40.5844 40.2511 43.0082 40.1885C45.2619 40.1292 47.4621 40.8788 49.204 42.2972C50.75 43.5562 51.8542 45.2708 52.3626 47.1765C51.8229 47.3931 51.2567 47.5296 50.6833 47.5843C49.7828 44.2577 46.7721 41.9144 43.2583 41.9144C39.015 41.9144 35.5627 45.3666 35.5627 49.6102C35.5627 53.8537 39.0149 57.306 43.2583 57.306C46.3161 57.306 49.0707 55.4884 50.2947 52.7243C50.948 52.7137 51.5924 52.6478 52.222 52.5281C51.1529 55.8267 48.3229 58.3182 44.83 58.904C44.4218 58.9725 44.1227 59.3258 44.1227 59.7398V63.004C44.1227 63.4721 44.5021 63.8515 44.9701 63.8515H48.0921C48.2541 63.8515 48.3858 63.9832 48.3858 64.1453V65.2876C48.3858 65.4496 48.2541 65.5814 48.0921 65.5814H44.9701C44.5021 65.5814 44.1227 65.9608 44.1227 66.4288V69.5497C44.1227 69.7117 43.991 69.8435 43.8289 69.8435H42.6877C42.5257 69.8435 42.394 69.7116 42.394 69.5497V66.4288C42.394 65.9608 42.0146 65.5814 41.5465 65.5814H38.4258C38.2637 65.5814 38.132 65.4496 38.132 65.2876V64.1453C38.132 63.9832 38.2637 63.8515 38.4258 63.8515H41.5465C42.0146 63.8515 42.394 63.4721 42.394 63.004V59.7398C42.394 59.3259 42.095 58.9725 41.6867 58.904C39.6775 58.5672 37.7984 57.5603 36.3958 56.0689C36.0751 55.728 35.5387 55.7115 35.198 56.0322C34.857 56.3529 34.8406 56.8891 35.1613 57.23C36.6505 58.8135 38.5957 59.9342 40.6991 60.4326V62.1566H38.4258C37.3293 62.1566 36.4371 63.0487 36.4371 64.1453V65.2876C36.4371 66.3841 37.3292 67.2763 38.4258 67.2763H40.6991V69.5497C40.6991 70.6462 41.5912 71.5383 42.6877 71.5383H43.8289C44.9254 71.5383 45.8175 70.6463 45.8175 69.5497V67.2763H48.0919C49.1884 67.2763 50.0805 66.3842 50.0805 65.2876V64.1453C50.0805 63.0488 49.1884 62.1566 48.0919 62.1566H45.8175V60.4332C49.9714 59.4563 53.2137 56.1669 54.1217 51.9871ZM50.2742 40.983C48.7256 39.722 46.8712 38.9105 44.9135 38.6157C45.2288 38.0714 45.6301 37.5755 46.1026 37.151C48.3954 35.0913 51.9547 35.1293 54.2056 37.2377C55.4374 38.3914 56.1292 40.0223 56.1036 41.7122C56.0778 43.4259 55.3545 44.9947 54.0671 46.1294C54.0027 46.1862 53.9372 46.241 53.8708 46.2945C53.224 44.2242 51.9762 42.3688 50.2742 40.983ZM48.8728 47.4867C47.9447 47.2954 47.0549 46.8852 46.2921 46.2536C45.4785 45.58 44.8629 44.71 44.4967 43.7375C46.5003 44.1553 48.1525 45.5683 48.8728 47.4867ZM43.2585 55.6108C39.9497 55.6108 37.2577 52.9188 37.2577 49.6099C37.2577 47.7264 38.1307 46.0436 39.4926 44.9426C40.039 46.6961 41.0118 48.2834 42.3472 49.5851C44.028 51.2237 46.1545 52.2673 48.4557 52.6058C47.398 54.4387 45.4262 55.6108 43.2585 55.6108Z" fill="white"/>
<path d="M76.1307 65.9103C75.367 65.4694 74.4867 65.33 73.6465 65.4964C73.7396 65.0013 73.7865 64.4981 73.7865 63.9917C73.7865 63.4853 73.7396 62.9822 73.6465 62.487C74.487 62.6534 75.3671 62.5141 76.1307 62.0731C76.9604 61.594 77.5538 60.8206 77.8018 59.8952C78.0497 58.9698 77.9225 58.0032 77.4435 57.1735C76.4546 55.4607 74.2565 54.8718 72.544 55.8608C71.7796 56.3021 71.2187 56.9957 70.9427 57.8076C70.1746 57.1498 69.2872 56.6364 68.3375 56.3004C68.9017 55.6559 69.2211 54.824 69.2211 53.9422C69.2211 51.9645 67.6121 50.3555 65.6345 50.3555C63.6567 50.3555 62.0477 51.9645 62.0477 53.9422C62.0477 54.8241 62.3671 55.6558 62.9313 56.3004C61.9816 56.6364 61.0942 57.1497 60.3261 57.8076C60.0501 56.9958 59.4892 56.3021 58.7247 55.8608C57.0118 54.8718 54.814 55.4609 53.8252 57.1735C52.8364 58.8864 53.4253 61.0843 55.138 62.0731C55.9017 62.514 56.7817 62.6532 57.6222 62.487C57.5291 62.9821 57.4822 63.4853 57.4822 63.9917C57.4822 64.4981 57.5291 65.0012 57.6222 65.4964C56.7819 65.3304 55.9017 65.4695 55.138 65.9103C53.4253 66.8991 52.8364 69.0971 53.8252 70.8099C54.3043 71.6396 55.0777 72.233 56.0031 72.481C56.9286 72.7291 57.895 72.6016 58.7247 72.1227C59.4892 71.6814 60.0501 70.9878 60.3261 70.1759C61.0941 70.8337 61.9816 71.3472 62.9313 71.6831C62.3672 72.3276 62.0477 73.1596 62.0477 74.0413C62.0477 76.0192 63.6567 77.6282 65.6345 77.6282C67.6121 77.6282 69.2211 76.0192 69.2211 74.0413C69.2211 73.1596 68.9016 72.3277 68.3375 71.6831C69.2872 71.3472 70.1746 70.8338 70.9427 70.1759C71.2187 70.9877 71.7796 71.6814 72.544 72.1227C73.3737 72.6018 74.3402 72.7289 75.2656 72.481C76.191 72.233 76.9645 71.6396 77.4435 70.8099C77.9226 69.9802 78.0498 69.0136 77.8018 68.0882C77.5538 67.1628 76.9604 66.3894 76.1307 65.9103ZM75.9757 69.9624C75.4541 70.8658 74.2948 71.1765 73.3912 70.655C72.8328 70.3326 72.4803 69.7543 72.448 69.1082C72.4336 68.8209 72.2744 68.5604 72.0254 68.4166L71.5092 68.1185C71.1615 67.9177 70.7204 67.9886 70.4531 68.2881C69.5203 69.3336 68.3078 70.0346 66.9467 70.3155C66.5531 70.3968 66.2706 70.7434 66.2706 71.1455V71.7391C66.2706 72.0268 66.4166 72.2948 66.6583 72.451C67.2016 72.8019 67.5261 73.3965 67.5261 74.0412C67.5261 75.0845 66.6775 75.9332 65.6343 75.9332C64.5911 75.9332 63.7424 75.0845 63.7424 74.0412C63.7424 73.3965 64.0669 72.8019 64.6103 72.451C64.852 72.2948 64.998 72.0268 64.998 71.7391V71.1455C64.998 70.7434 64.7155 70.3968 64.3218 70.3155C62.9608 70.0348 61.7483 69.3336 60.8154 68.2882C60.6499 68.1027 60.4179 68.005 60.1827 68.005C60.0379 68.005 59.8918 68.042 59.7594 68.1185L59.2432 68.4166C58.994 68.5604 58.8348 68.8209 58.8205 69.1082C58.7883 69.7543 58.4356 70.3325 57.8772 70.6549C56.9738 71.1764 55.8145 70.8657 55.2928 69.9623C54.7712 69.059 55.0819 67.8995 55.9852 67.378C56.5437 67.0557 57.2206 67.0393 57.7963 67.3345C58.0524 67.4658 58.3576 67.4582 58.6067 67.3142L59.1219 67.0167C59.4697 66.8159 59.6288 66.3985 59.5029 66.0172C59.2867 65.3622 59.177 64.6807 59.177 63.9917C59.177 63.3027 59.2867 62.6211 59.5029 61.9662C59.6288 61.5849 59.4697 61.1675 59.1219 60.9667L58.6067 60.6692C58.3574 60.5252 58.0523 60.5176 57.7963 60.6489C57.2209 60.944 56.5437 60.9278 55.9852 60.6054C55.0819 60.0839 54.7711 58.9244 55.2927 58.021C55.8144 57.1176 56.9738 56.8071 57.8771 57.3285C58.4355 57.6509 58.7882 58.2292 58.8204 58.8752C58.8347 59.1625 58.9939 59.4231 59.2431 59.5668L59.7593 59.8649C60.1071 60.0657 60.548 59.9947 60.8153 59.6952C61.7482 58.6498 62.9605 57.9487 64.3217 57.6678C64.7154 57.5865 64.9979 57.2398 64.9979 56.8378V56.2442C64.9979 55.9565 64.8519 55.6884 64.6102 55.5323C64.0668 55.1814 63.7423 54.5869 63.7423 53.9421C63.7423 52.8989 64.591 52.0502 65.6342 52.0502C66.6774 52.0502 67.526 52.8989 67.526 53.9421C67.526 54.5869 67.2016 55.1814 66.6581 55.5323C66.4165 55.6884 66.2705 55.9565 66.2705 56.2442V56.8378C66.2705 57.2398 66.5528 57.5865 66.9466 57.6678C68.3077 57.9487 69.5202 58.6497 70.453 59.6952C70.7204 59.9946 71.1611 60.0657 71.509 59.8648L72.0253 59.5667C72.2744 59.4229 72.4335 59.1624 72.4479 58.8751C72.4802 58.229 72.8327 57.6507 73.3911 57.3283C74.2945 56.8068 75.454 57.1174 75.9755 58.0207C76.2282 58.4584 76.2953 58.9683 76.1645 59.4563C76.0337 59.9444 75.7206 60.3524 75.283 60.6051C74.7247 60.9274 74.0477 60.9437 73.4719 60.6486C73.2159 60.5173 72.9107 60.5249 72.6615 60.6688L72.1463 60.9663C71.7985 61.1671 71.6394 61.5845 71.7653 61.9659C71.9817 62.621 72.0913 63.3025 72.0913 63.9914C72.0913 64.6803 71.9816 65.3618 71.7653 66.0169C71.6394 66.3982 71.7985 66.8156 72.1463 67.0164L72.6615 67.3139C72.9107 67.4577 73.2159 67.4653 73.4719 67.3341C74.0475 67.0391 74.7247 67.0555 75.283 67.3776C75.7206 67.6303 76.0337 68.0383 76.1645 68.5264C76.2954 69.015 76.2284 69.5248 75.9757 69.9624Z" fill="white"/>
<path d="M68.9959 62.3256C68.5402 62.4324 68.2575 62.8884 68.3642 63.344C68.4138 63.5558 68.439 63.7736 68.439 63.9913C68.439 65.5382 67.181 66.7968 65.6347 66.7968C64.0877 66.7968 62.8291 65.5383 62.8291 63.9913C62.8291 62.445 64.0876 61.1869 65.6347 61.1869C65.8524 61.1869 66.0701 61.2121 66.282 61.2617C66.7376 61.3686 67.1936 61.0855 67.3004 60.63C67.4072 60.1743 67.1243 59.7183 66.6687 59.6116C66.3302 59.5322 65.9823 59.492 65.6347 59.492C63.1532 59.492 61.1344 61.5104 61.1344 63.9913C61.1344 66.4728 63.1532 68.4916 65.6347 68.4916C68.1155 68.4916 70.1338 66.4728 70.1338 63.9913C70.1338 63.6435 70.0936 63.2956 70.0143 62.9573C69.9075 62.5016 69.4517 62.2186 68.9959 62.3256Z" fill="white"/>
<path d="M23.6613 28.5485H24.4702C24.5432 29.0907 24.6844 29.6112 24.886 30.1011L24.1856 30.5055C23.7803 30.7396 23.6415 31.2579 23.8755 31.6632C24.0324 31.935 24.3173 32.087 24.6101 32.087C24.7538 32.087 24.8996 32.0504 25.033 31.9733L25.7361 31.5674C26.0651 31.9922 26.4468 32.3739 26.8715 32.7029L26.4656 33.4058C26.2316 33.8111 26.3705 34.3294 26.7758 34.5634C26.9092 34.6405 27.055 34.6771 27.1987 34.6771C27.4916 34.6771 27.7764 34.525 27.9334 34.2533L28.3378 33.5529C28.8277 33.7546 29.3482 33.8958 29.8904 33.9688V34.7777C29.8904 35.2457 30.2698 35.6251 30.7378 35.6251C31.2058 35.6251 31.5852 35.2457 31.5852 34.7777V33.9688C32.1274 33.8958 32.6479 33.7546 33.1378 33.5529L33.5422 34.2533C33.6992 34.5251 33.984 34.6771 34.2769 34.6771C34.4206 34.6771 34.5664 34.6405 34.6998 34.5634C35.1051 34.3294 35.244 33.8111 35.01 33.4058L34.6041 32.7029C35.0288 32.3739 35.4105 31.9922 35.7395 31.5674L36.4426 31.9733C36.576 32.0504 36.7218 32.087 36.8655 32.087C37.1583 32.087 37.4432 31.935 37.6001 31.6632C37.8341 31.2579 37.6953 30.7396 37.29 30.5055L36.5896 30.1011C36.7912 29.6112 36.9325 29.0907 37.0054 28.5485H37.8143C38.2823 28.5485 38.6617 28.1691 38.6617 27.7011C38.6617 27.2331 38.2823 26.8536 37.8143 26.8536H37.0054C36.9324 26.3115 36.7912 25.7909 36.5896 25.301L37.2899 24.8966C37.6952 24.6626 37.834 24.1443 37.6 23.739C37.366 23.3337 36.8476 23.1947 36.4424 23.4288L35.7395 23.8347C35.4105 23.41 35.0288 23.0283 34.604 22.6991L35.0098 21.9962C35.2438 21.5909 35.105 21.0726 34.6997 20.8386C34.2944 20.6045 33.7761 20.7434 33.5421 21.1488L33.1377 21.8491C32.6478 21.6474 32.1272 21.5063 31.5851 21.4333V20.6246C31.5851 20.1566 31.2057 19.7772 30.7377 19.7772C30.2697 19.7772 29.8903 20.1566 29.8903 20.6246V21.4335C29.3481 21.5064 28.8276 21.6476 28.3377 21.8493L27.9333 21.1489C27.6994 20.7436 27.1811 20.6047 26.7758 20.8387C26.3705 21.0727 26.2316 21.591 26.4656 21.9963L26.8715 22.6994C26.4468 23.0284 26.0651 23.4101 25.7361 23.8348L25.0332 23.429C24.6279 23.1948 24.1096 23.3338 23.8756 23.7391C23.6416 24.1444 23.7804 24.6627 24.1857 24.8967L24.886 25.3011C24.6844 25.7911 24.5432 26.3116 24.4702 26.8538H23.6613C23.1933 26.8538 22.8139 27.2332 22.8139 27.7012C22.8139 28.1691 23.1933 28.5485 23.6613 28.5485ZM30.7377 23.0699C33.2913 23.0699 35.3688 25.1475 35.3688 27.7011C35.3688 30.2547 33.2913 32.3323 30.7377 32.3323C28.1841 32.3323 26.1066 30.2548 26.1066 27.7011C26.1066 25.1473 28.1841 23.0699 30.7377 23.0699Z" fill="white"/>
<path d="M66.5765 40.9657H67.4082C67.5252 41.5773 67.7658 42.1456 68.104 42.6427L67.5152 43.2316C67.1842 43.5626 67.1842 44.0992 67.5152 44.43C67.6806 44.5956 67.8975 44.6783 68.1144 44.6783C68.3312 44.6783 68.5481 44.5956 68.7136 44.43L69.3023 43.8411C69.7995 44.1793 70.3677 44.4199 70.9795 44.5369V45.3685C70.9795 45.8366 71.3589 46.216 71.8269 46.216C72.2949 46.216 72.6743 45.8366 72.6743 45.3685V44.5369C73.2859 44.4199 73.8543 44.1793 74.3514 43.8411L74.9402 44.43C75.1056 44.5956 75.3226 44.6783 75.5394 44.6783C75.7562 44.6783 75.9732 44.5956 76.1386 44.43C76.4695 44.0991 76.4695 43.5626 76.1386 43.2316L75.5498 42.6427C75.888 42.1456 76.1284 41.5773 76.2456 40.9657H77.0772C77.5452 40.9657 77.9246 40.5863 77.9246 40.1182C77.9246 39.6502 77.5452 39.2708 77.0772 39.2708H76.2456C76.1285 38.6592 75.888 38.0908 75.5498 37.5938L76.1387 37.0049C76.4696 36.6739 76.4696 36.1373 76.1387 35.8065C75.8077 35.4754 75.2712 35.4755 74.9403 35.8065L74.3515 36.3954C73.8544 36.0572 73.2861 35.8167 72.6745 35.6996V34.8678C72.6745 34.3998 72.2951 34.0204 71.8271 34.0204C71.3591 34.0204 70.9797 34.3998 70.9797 34.8678V35.6996C70.3681 35.8166 69.7997 36.0572 69.3027 36.3954L68.7138 35.8065C68.3829 35.4754 67.8463 35.4755 67.5154 35.8065C67.1845 36.1374 67.1845 36.6739 67.5154 37.0049L68.1042 37.5938C67.766 38.0909 67.5255 38.6592 67.4084 39.2708H66.5767C66.1087 39.2708 65.7293 39.6502 65.7293 40.1182C65.7293 40.5863 66.1084 40.9657 66.5765 40.9657ZM71.8268 37.3133C73.3734 37.3133 74.6317 38.5717 74.6317 40.1184C74.6317 41.665 73.3734 42.9234 71.8268 42.9234C70.2802 42.9234 69.0218 41.665 69.0218 40.1184C69.0218 38.5717 70.2802 37.3133 71.8268 37.3133Z" fill="white"/>
<path d="M31.4225 63.6063H30.5908C30.4737 62.9947 30.2332 62.4263 29.895 61.9293L30.4839 61.3403C30.8149 61.0094 30.8149 60.4729 30.4839 60.1419C30.153 59.8109 29.6164 59.811 29.2855 60.1419L28.6966 60.7309C28.1995 60.3927 27.6312 60.1521 27.0195 60.0351V59.2034C27.0195 58.7354 26.6401 58.356 26.1721 58.356C25.7041 58.356 25.3247 58.7354 25.3247 59.2034V60.0351C24.7131 60.1521 24.1448 60.3927 23.6477 60.7309L23.0588 60.1421C22.7278 59.811 22.1912 59.8111 21.8604 60.1421C21.5294 60.473 21.5294 61.0096 21.8604 61.3405L22.4493 61.9293C22.1111 62.4264 21.8706 62.9947 21.7535 63.6063H20.922C20.454 63.6063 20.0746 63.9857 20.0746 64.4537C20.0746 64.9217 20.454 65.3012 20.922 65.3012H21.7536C21.8707 65.9128 22.1112 66.4811 22.4494 66.9782L21.8605 67.567C21.5296 67.898 21.5296 68.4344 21.8605 68.7654C22.0259 68.9309 22.2429 69.0136 22.4597 69.0136C22.6765 69.0136 22.8935 68.9309 23.0589 68.7654L23.6478 68.1766C24.1449 68.5148 24.7132 68.7552 25.3248 68.8724V69.7041C25.3248 70.1722 25.7042 70.5516 26.1722 70.5516C26.6402 70.5516 27.0196 70.1722 27.0196 69.7041V68.8724C27.6312 68.7553 28.1996 68.5148 28.6967 68.1766L29.2857 68.7655C29.4511 68.931 29.668 69.0138 29.8848 69.0138C30.1017 69.0138 30.3186 68.931 30.484 68.7655C30.815 68.4346 30.815 67.898 30.484 67.5671L29.8951 66.9782C30.2333 66.481 30.4737 65.9128 30.5909 65.3012H31.4226C31.8906 65.3012 32.2701 64.9217 32.2701 64.4537C32.2699 63.9857 31.8905 63.6063 31.4225 63.6063ZM26.1722 67.2586C24.6256 67.2586 23.3672 66.0003 23.3672 64.4536C23.3672 62.907 24.6256 61.6486 26.1722 61.6486C27.7188 61.6486 28.9772 62.907 28.9772 64.4536C28.9772 66.0004 27.7188 67.2586 26.1722 67.2586Z" fill="white"/>
<path d="M30.4231 26.974C30.8911 26.974 31.2705 26.5946 31.2705 26.1265C31.2705 25.6585 30.8911 25.2791 30.4231 25.2791C29.9551 25.2791 29.5757 25.6585 29.5757 26.1265C29.5757 26.5946 29.9551 26.974 30.4231 26.974Z" fill="white"/>
<path d="M29.0989 30.1235C29.5669 30.1235 29.9463 29.7441 29.9463 29.2761C29.9463 28.8081 29.5669 28.4286 29.0989 28.4286C28.6309 28.4286 28.2515 28.8081 28.2515 29.2761C28.2515 29.7441 28.6309 30.1235 29.0989 30.1235Z" fill="white"/>
<path d="M32.3767 28.9896C32.8447 28.9896 33.2241 28.6102 33.2241 28.1422C33.2241 27.6742 32.8447 27.2948 32.3767 27.2948C31.9087 27.2948 31.5293 27.6742 31.5293 28.1422C31.5293 28.6102 31.9087 28.9896 32.3767 28.9896Z" fill="white"/>
</svg>
