<svg width="139" height="139" viewBox="0 0 139 139" fill="none" xmlns="http://www.w3.org/2000/svg">
<rect width="139" height="139" rx="69.5" fill="#128894"/>
<rect x="7" y="7.37488" width="124.25" height="124.25" rx="62.1251" fill="#FD8413"/>
<path d="M103.818 36H34.4318C31.781 36 29.6251 38.1332 29.6251 40.756V88.4732C29.6251 91.096 31.781 93.2292 34.4318 93.2292H59.2501V100.208H42.3215C41.5418 100.208 40.9108 100.833 40.9108 101.604C40.9108 102.375 41.5418 103 42.3215 103H95.9287C96.7084 103 97.3394 102.375 97.3394 101.604C97.3394 100.833 96.7084 100.208 95.9287 100.208H79.0001V93.2292H103.818C106.469 93.2292 108.625 91.096 108.625 88.4732V40.756C108.625 38.1332 106.469 36 103.818 36ZM32.4465 40.756C32.4465 39.6728 33.3363 38.7917 34.4318 38.7917H103.818C104.914 38.7917 105.804 39.6728 105.804 40.756V80.6667H32.4465V61.125H35.9236L38.326 64.691C38.6181 65.1272 39.139 65.3589 39.6609 65.3038C40.1871 65.2438 40.635 64.8976 40.8209 64.407L43.6532 56.9323L45.2156 61.5668C45.4071 62.1366 45.9457 62.5208 46.5533 62.5208H49.8308L52.2967 68.6227C52.5115 69.1542 53.0324 69.5 53.6069 69.5C53.633 69.5 53.6605 69.4993 53.6869 69.4979C54.2932 69.463 54.8085 69.0502 54.9682 68.4716L57.9741 57.5653L59.3228 61.5668C59.5143 62.1366 60.0528 62.5208 60.6605 62.5208H63.9379L66.4038 68.6227C66.6243 69.166 67.1698 69.5314 67.7553 69.4993C68.3478 69.4822 68.8655 69.1011 69.0517 68.5459L72.963 56.9375H74.768C75.5477 56.9375 76.1787 56.3125 76.1787 55.5417C76.1787 54.7708 75.5477 54.1458 74.768 54.1458H71.9465C71.3389 54.1458 70.8003 54.5304 70.6088 55.0999L67.5945 64.0475L66.2032 60.6064C65.9884 60.0767 65.4703 59.7292 64.893 59.7292H61.6776L59.1771 52.3082C58.9814 51.7255 58.4248 51.3479 57.8009 51.3549C57.1795 51.372 56.6424 51.789 56.4784 52.3825L53.354 63.7188L52.0964 60.6061C51.8816 60.0764 51.3635 59.7288 50.7862 59.7288H47.5708L45.0703 52.3079C44.8816 51.7471 44.3568 51.3646 43.7587 51.3538C43.1704 51.3695 42.6206 51.7063 42.4115 52.2597L39.1464 60.8748L37.8527 58.9548C37.591 58.5664 37.1502 58.3333 36.679 58.3333H32.4465V40.756ZM91.6965 89.0417C90.5295 89.0417 89.5805 88.1026 89.5805 86.9479C89.5805 85.7932 90.5295 84.8542 91.6965 84.8542C92.8635 84.8542 93.8126 85.7932 93.8126 86.9479C93.8126 88.1026 92.8635 89.0417 91.6965 89.0417ZM88.2519 90.4375H49.2929C50.2113 89.5497 50.7858 88.3155 50.7858 86.9479C50.7858 85.5803 50.2113 84.3461 49.2929 83.4583H88.2519C87.3335 84.3461 86.759 85.5803 86.759 86.9479C86.759 88.3155 87.3335 89.5497 88.2519 90.4375ZM45.8483 84.8542C47.0153 84.8542 47.9644 85.7932 47.9644 86.9479C47.9644 88.1026 47.0153 89.0417 45.8483 89.0417C44.6813 89.0417 43.7322 88.1026 43.7322 86.9479C43.7322 85.7932 44.6813 84.8542 45.8483 84.8542ZM32.4465 88.4732V83.4583H42.4037C41.4853 84.3461 40.9108 85.5803 40.9108 86.9479C40.9108 88.3155 41.4853 89.5497 42.4037 90.4375H34.4318C33.3363 90.4375 32.4465 89.556 32.4465 88.4732ZM76.1787 100.208H62.0715V93.2292H76.1787V100.208ZM103.818 90.4375H95.1411C96.0595 89.5497 96.634 88.3155 96.634 86.9479C96.634 85.5803 96.0595 84.3461 95.1411 83.4583H105.804V88.4732C105.804 89.556 104.914 90.4375 103.818 90.4375Z" fill="white"/>
<path d="M78.7275 66.3524C80.9247 71.8628 85.0686 74.6088 88.2138 75.3416C88.8793 75.4962 89.5226 75.5726 90.1384 75.5726C91.669 75.5726 93.0205 75.0997 94.0538 74.1809C98.3382 70.3696 100.385 66.4902 100.142 62.6517C99.8667 58.3504 96.81 55.5385 95.1408 54.3071L95.1313 53.747C95.1038 53.4521 95.0572 53.1087 94.9994 52.75H97.3394C98.1192 52.75 98.7501 52.125 98.7501 51.3542C98.7501 50.5833 98.1192 49.9583 97.3394 49.9583H94.1935C93.729 48.9111 93.0596 47.9264 92.0559 47.2776C90.714 46.4101 89.0899 46.2817 87.2246 46.8959C86.3944 47.1698 85.6855 47.5411 85.0626 47.9714C84.0258 47.0979 82.9268 46.3494 81.9467 45.7625C81.2784 45.3626 80.4108 45.5737 80.0098 46.2343C79.606 46.8934 79.8197 47.7522 80.4866 48.1507C81.4664 48.7373 82.3315 49.3466 83.0802 49.9622C82.0289 51.4965 81.5616 53.2965 81.4332 54.9327C80.468 55.891 76.3642 60.4334 78.7275 66.3524ZM88.1175 49.5445C89.1396 49.207 89.9222 49.2311 90.5133 49.6146C91.4461 50.2173 92.1222 51.8577 92.3151 53.8967L92.3772 57.7551C92.3895 58.5246 93.0755 59.1373 93.8098 59.1286C94.4644 59.1181 94.9828 58.6603 95.1327 58.0604C96.1854 59.2141 97.1969 60.8127 97.3253 62.8276C97.5126 65.7714 95.7767 68.8928 92.1659 72.105C91.4246 72.7635 90.2509 72.9474 88.861 72.6242C86.5217 72.0795 83.1518 69.8413 81.35 65.3275C80.28 62.6461 81.0756 60.3126 81.9943 58.7664C82.4183 59.2218 83.4805 60.061 85.6001 60.061C86.6596 60.061 87.9793 59.8499 89.609 59.2738C90.3433 59.0142 90.7263 58.2154 90.4632 57.4896C90.2015 56.7644 89.3914 56.3834 88.6614 56.6444C85.9087 57.6169 84.6758 57.2366 84.2776 57.0425C84.17 56.1038 84.0639 53.8635 85.0944 52.0088C85.4312 52.4597 85.6954 52.9056 85.8745 53.3404C86.0964 53.8824 86.624 54.2107 87.1805 54.2107C87.3582 54.2107 87.5388 54.1772 87.7123 54.1071C88.4343 53.8168 88.7813 53.0023 88.4865 52.288C88.1525 51.4763 87.6598 50.7184 87.0856 50.0086C87.3991 49.8324 87.7342 49.6708 88.1175 49.5445Z" fill="white"/>
<path d="M43.7322 44.375C43.7322 42.0659 41.8338 40.1875 39.5001 40.1875C37.1664 40.1875 35.268 42.0659 35.268 44.375C35.268 46.6841 37.1664 48.5625 39.5001 48.5625C41.8338 48.5625 43.7322 46.6841 43.7322 44.375ZM38.0894 44.375C38.0894 43.6055 38.7217 42.9792 39.5001 42.9792C40.2785 42.9792 40.9108 43.6055 40.9108 44.375C40.9108 45.1445 40.2785 45.7708 39.5001 45.7708C38.7217 45.7708 38.0894 45.1445 38.0894 44.375Z" fill="white"/>
<path d="M46.5537 45.7708H52.1965C52.9763 45.7708 53.6072 45.1458 53.6072 44.375C53.6072 43.6042 52.9763 42.9792 52.1965 42.9792H46.5537C45.7739 42.9792 45.143 43.6042 45.143 44.375C45.143 45.1458 45.7739 45.7708 46.5537 45.7708Z" fill="white"/>
<path d="M56.4287 45.7708H66.3037C67.0834 45.7708 67.7144 45.1458 67.7144 44.375C67.7144 43.6042 67.0834 42.9792 66.3037 42.9792H56.4287C55.6489 42.9792 55.018 43.6042 55.018 44.375C55.018 45.1458 55.6489 45.7708 56.4287 45.7708Z" fill="white"/>
<path d="M39.5001 75.0833H45.143C45.9227 75.0833 46.5537 74.4584 46.5537 73.6875C46.5537 72.9167 45.9227 72.2917 45.143 72.2917H39.5001C38.7203 72.2917 38.0894 72.9167 38.0894 73.6875C38.0894 74.4584 38.7203 75.0833 39.5001 75.0833Z" fill="white"/>
<path d="M56.4287 76.4792H39.5001C38.7203 76.4792 38.0894 77.1042 38.0894 77.875C38.0894 78.6459 38.7203 79.2708 39.5001 79.2708H56.4287C57.2084 79.2708 57.8394 78.6459 57.8394 77.875C57.8394 77.1042 57.2084 76.4792 56.4287 76.4792Z" fill="white"/>
<path d="M71.9465 86.25H66.3037C65.5239 86.25 64.893 86.875 64.893 87.6458C64.893 88.4167 65.5239 89.0417 66.3037 89.0417H71.9465C72.7263 89.0417 73.3572 88.4167 73.3572 87.6458C73.3572 86.875 72.7263 86.25 71.9465 86.25Z" fill="white"/>
</svg>
