<svg width="98" height="98" viewBox="0 0 98 98" fill="none" xmlns="http://www.w3.org/2000/svg">
<rect x="0.432495" y="0.270264" width="97.1351" height="97.1351" rx="48.5676" fill="#FD8413"/>
<path d="M67.3459 36.1219C65.6589 36.1219 64.2865 37.5038 64.2865 39.2023C64.2865 40.9025 65.6589 42.2859 67.3459 42.2859C69.0311 42.2859 70.4022 40.9025 70.4022 39.2023C70.4021 37.5038 69.0311 36.1219 67.3459 36.1219ZM67.3459 40.591C66.5862 40.591 65.9681 39.968 65.9681 39.2023C65.9681 38.4383 66.5862 37.8168 67.3459 37.8168C68.1038 37.8168 68.7206 38.4383 68.7206 39.2023C68.7204 39.968 68.1037 40.591 67.3459 40.591Z" fill="white"/>
<path d="M58.8491 36.1219C57.1621 36.1219 55.7897 37.5038 55.7897 39.2023C55.7897 40.9025 57.1621 42.2859 58.8491 42.2859C60.5343 42.2859 61.9054 40.9025 61.9054 39.2023C61.9053 37.5038 60.5343 36.1219 58.8491 36.1219ZM58.8491 40.591C58.0895 40.591 57.4713 39.968 57.4713 39.2023C57.4713 38.4383 58.0895 37.8168 58.8491 37.8168C59.6071 37.8168 60.2238 38.4383 60.2238 39.2023C60.2237 39.968 59.607 40.591 58.8491 40.591Z" fill="white"/>
<path d="M68.9932 24.3685H57.2018C56.4231 24.3685 55.7896 25.0069 55.7896 25.7918V31.4765C55.7896 32.2614 56.423 32.8999 57.2018 32.8999H61.2709C61.7353 32.8999 62.1117 32.5204 62.1117 32.0524C62.1117 31.5844 61.7353 31.205 61.2709 31.205H57.4712V26.0634H68.7204V31.2049H65.3589C64.8944 31.2049 64.5181 31.5843 64.5181 32.0523C64.5181 32.5203 64.8944 32.8998 65.3589 32.8998H68.9932C69.7701 32.8998 70.4021 32.2612 70.4021 31.4764V25.7919C70.4021 25.007 69.7701 24.3685 68.9932 24.3685Z" fill="white"/>
<path d="M69.758 19.9123H56.4338C53.6389 19.9123 51.3651 22.204 51.3651 25.0208V41.2049C51.3651 45.9716 55.2036 49.8509 59.9286 49.8699V54.3469H48.2555C48.8823 52.4481 48.6992 50.7427 48.3914 49.5642C47.9242 47.7762 46.9057 46.1956 45.5961 45.2269C44.7647 44.6134 43.7021 44.4783 42.8227 44.8741C41.9319 45.2753 41.3566 46.1638 41.244 47.3127C40.9727 50.1174 40.1393 51.973 38.6966 52.9854C37.5761 53.7708 35.3043 54.3178 34.2883 54.3468H32V53.9819C32 53.3135 31.4618 52.7697 30.8005 52.7697H24.3764C23.7133 52.7697 23.1737 53.3134 23.1737 53.9819V62.1971C23.1737 62.6651 23.5502 63.0445 24.0145 63.0445C24.4789 63.0445 24.8553 62.6651 24.8553 62.1971V54.4647H30.3183V74.293H24.8553V66.1031C24.8553 65.6351 24.4789 65.2557 24.0145 65.2557C23.5502 65.2557 23.1737 65.6351 23.1737 66.1031V74.7758C23.1737 75.4442 23.7132 75.988 24.3764 75.988H30.8006C31.462 75.988 32.0001 75.4443 32.0001 74.7758V74.4108H33.7842C35.208 74.4108 35.9475 74.9839 36.8836 75.7095C37.9126 76.5071 39.1934 77.4997 41.5716 77.7584C41.6017 77.7617 41.6317 77.7633 41.6619 77.7633H56.6304C58.0429 77.7633 58.9053 77.1569 59.3799 76.6482C59.9866 75.9982 60.3206 75.1292 60.3206 74.2015C60.3206 73.423 60.0752 72.6404 59.5943 72.0078C60.9459 71.4113 61.6453 70.0852 61.6453 68.7702C61.6453 67.9911 61.3996 67.2081 60.9181 66.5751C61.4143 66.3552 61.7777 66.0578 62.0302 65.7873C62.6368 65.1373 62.9709 64.2683 62.9709 63.3406C62.9709 62.6913 62.7996 62.0393 62.4639 61.4737H65.9269C68.3496 61.4737 69.6172 59.6811 69.6172 57.9102C69.6172 56.2243 68.4673 54.5197 66.2662 54.3602V49.8697C70.9897 49.849 74.8264 45.9704 74.8264 41.2048V25.0208C74.8266 22.204 72.5528 19.9123 69.758 19.9123ZM64.5848 54.5482C64.5848 55.3739 63.917 56.0456 63.096 56.0456C62.2767 56.0456 61.6102 55.3739 61.6102 54.5482V45.6897H64.5848V54.5482ZM58.1551 75.4871C57.8001 75.8674 57.273 76.0686 56.6304 76.0686H49.5143C48.1268 76.0686 47.5057 75.1309 47.5057 74.2016C47.5057 73.7071 47.6776 73.2506 47.9897 72.916C48.3446 72.5357 48.8719 72.3346 49.5143 72.3346H56.6304C58.018 72.3346 58.639 73.2723 58.639 74.2015C58.6391 74.6962 58.4672 75.1527 58.1551 75.4871ZM57.9541 70.6398H49.5145C48.1261 70.6398 47.5046 69.7009 47.5046 68.7704C47.5046 68.2756 47.6766 67.8188 47.9888 67.4842C48.3438 67.1037 48.8714 66.9027 49.5145 66.9027H57.9541C59.3424 66.9027 59.9638 67.8407 59.9638 68.7704C59.9638 69.7009 59.3424 70.6398 57.9541 70.6398ZM61.2894 63.3408C61.2894 64.27 60.6683 65.2077 59.2807 65.2077H49.5145C48.1261 65.2077 47.5046 64.2695 47.5046 63.3398C47.5046 62.8455 47.6764 62.3893 47.9886 62.055C48.3436 61.6747 48.8713 61.4737 49.5143 61.4737H59.2806C60.6683 61.4738 61.2894 62.4115 61.2894 63.3408ZM67.9357 57.9103C67.9357 58.8405 67.3146 59.7789 65.927 59.7789H49.5145C47.091 59.7789 45.823 61.5703 45.823 63.34C45.823 64.3507 46.2369 65.3678 47.0424 66.0552C46.2369 66.7427 45.823 67.7598 45.823 68.7704C45.823 69.7823 46.2377 70.8008 47.0445 71.4886C46.9397 71.5779 46.8461 71.6678 46.7649 71.7549C46.1583 72.405 45.8242 73.274 45.8242 74.2016C45.8242 74.851 45.9955 75.5029 46.3312 76.0686H41.7083C39.8292 75.8546 38.8963 75.1314 37.9087 74.366C36.8622 73.5548 35.7799 72.7159 33.784 72.7159H32V56.0418H34.3649C35.4351 56.0315 38.2304 55.3767 39.6571 54.3766C41.5291 53.063 42.5956 50.8062 42.9176 47.4782C42.9546 47.101 43.0871 46.6115 43.5086 46.4216C43.8331 46.2753 44.2623 46.3433 44.6018 46.5938C46.6373 48.0993 47.8436 51.6675 46.243 54.8069C46.1091 55.0696 46.1205 55.3836 46.2733 55.6357C46.426 55.8878 46.6979 56.0416 46.9909 56.0416H60.2976C60.8302 57.051 61.8843 57.7403 63.0957 57.7403C64.3088 57.7403 65.3644 57.0503 65.8972 56.0401C65.9071 56.0404 65.9168 56.0416 65.9268 56.0416C67.3146 56.0418 67.9357 56.9803 67.9357 57.9103ZM73.145 41.2049C73.145 45.036 70.0627 48.1543 66.2664 48.1749V45.3732C66.2664 44.6131 65.6528 43.9947 64.8988 43.9947H61.2932C60.5407 43.9947 59.9286 44.6131 59.9286 45.3732V48.1751C56.1308 48.1561 53.0468 45.0371 53.0468 41.2049V25.0208C53.0468 23.1385 54.5662 21.6071 56.4338 21.6071H69.7581C71.6257 21.6071 73.1451 23.1385 73.1451 25.0208L73.145 41.2049Z" fill="white"/>
</svg>
