<svg width="98" height="98" viewBox="0 0 98 98" fill="none" xmlns="http://www.w3.org/2000/svg">
<rect x="0.432495" y="0.405396" width="97.1351" height="97.1351" rx="48.5676" fill="#FD8413"/>
<path d="M74.9331 24.0319H55.4986C55.0264 24.0319 54.6436 24.4113 54.6436 24.8793C54.6436 25.3473 55.0264 25.7268 55.4986 25.7268H74.9331C75.0902 25.7268 75.2181 25.8535 75.2181 26.0092V29.001H51.6142C51.0752 27.9356 49.9634 27.2023 48.6814 27.2023C48.1132 27.2023 47.5785 27.3465 47.112 27.5995V26.5352C47.112 26.2562 47.0763 25.9854 47.0093 25.7268H51.5088C51.981 25.7268 52.3638 25.3473 52.3638 24.8793C52.3638 24.4113 51.981 24.0319 51.5088 24.0319H45.9221C45.3543 23.5656 44.626 23.2848 43.8327 23.2848C43.2645 23.2848 42.7298 23.429 42.2633 23.682V23.2978C42.2632 21.5056 40.792 20.0474 38.9838 20.0474C37.1755 20.0474 35.7044 21.5056 35.7044 23.2978V23.6821C35.2379 23.429 34.7031 23.2849 34.135 23.2849C32.3267 23.2849 30.8556 24.7431 30.8556 26.5353V42.1808C30.8556 42.331 30.7943 42.47 30.6831 42.5721C30.6189 42.6312 30.4815 42.7277 30.2737 42.7125C30.1495 42.7032 30.0165 42.6368 29.909 42.5303L27.8288 40.4683C27.014 39.6608 25.9313 39.2163 24.7792 39.2163H24.7739C23.6199 39.2177 22.536 39.665 21.7218 40.4759C20.8525 41.3418 20.8558 42.7505 21.7293 43.6162C21.7345 43.6214 21.7399 43.6266 21.7454 43.6317L32.1832 53.4484C33.0216 54.237 33.5025 55.3461 33.5025 56.4917V75.921C33.5025 77.0112 34.3975 77.8983 35.4975 77.8983H45.5288C46.6287 77.8983 47.5237 77.0112 47.5237 75.921V67.8126H50.4787C50.8113 68.6842 51.6597 69.3068 52.6542 69.3068C53.6488 69.3068 54.497 68.6842 54.8297 67.8126H65.5305C66.0027 67.8126 66.3855 67.4332 66.3855 66.9652C66.3855 66.4972 66.0027 66.1178 65.5305 66.1178H55.0848C55.1947 65.6531 55.3911 65.2102 55.669 64.8088C56.0864 64.206 56.307 63.5001 56.307 62.7675V46.539H56.5017C57.2875 46.539 57.9267 45.9054 57.9267 45.1266V43.1916C57.9267 42.4128 57.2875 41.7792 56.5017 41.7792H56.307V35.6212C56.307 33.6249 54.6684 32.0008 52.6542 32.0008C52.4171 32.0008 52.1855 32.024 51.9608 32.0671V30.6958H75.2182V65.8354C75.2182 65.9911 75.0903 66.1179 74.9332 66.1179H69.5205C69.0484 66.1179 68.6656 66.4973 68.6656 66.9653C68.6656 67.4333 69.0484 67.8127 69.5205 67.8127H74.9332C76.0332 67.8127 76.9282 66.9256 76.9282 65.8354V26.0092C76.9281 24.9189 76.0331 24.0319 74.9331 24.0319ZM56.2166 43.4741V44.8441H49.0916V43.4741H56.2166ZM49.0014 62.7674C49.0014 63.5 49.222 64.2059 49.6392 64.8087C49.9171 65.2101 50.1136 65.653 50.2234 66.1176H47.5237V57.3665C47.5237 56.1492 48.0592 55.007 49.0014 54.1884V62.7674ZM52.6541 67.6119C52.3136 67.6119 52.0366 67.3374 52.0366 66.9999C52.0366 65.8723 51.6952 64.783 51.0493 63.8499C50.8282 63.5305 50.7114 63.1563 50.7114 62.7674V56.8257H54.5969V62.7674C54.5969 63.1562 54.48 63.5305 54.259 63.8498C53.6131 64.783 53.2717 65.8722 53.2717 66.9999C53.2715 67.3374 52.9946 67.6119 52.6541 67.6119ZM54.5969 55.1308H50.7114V46.539H54.5969V55.1308ZM54.5969 35.6212V41.7792H50.7114V35.6212C50.7114 34.5594 51.5829 33.6956 52.6541 33.6956C53.7254 33.6956 54.5969 34.5595 54.5969 35.6212ZM49.0014 35.6212V41.7792H48.8067C48.0209 41.7792 47.3817 42.4128 47.3817 43.1916V45.1266C47.3817 45.9054 48.0209 46.539 48.8067 46.539H49.0014V51.8863C48.758 52.1712 48.4881 52.4291 48.1937 52.6528C46.6812 53.8025 45.8138 55.5206 45.8138 57.3665V75.921C45.8138 76.0767 45.6859 76.2035 45.5288 76.2035H35.4975C35.3404 76.2035 35.2125 76.0767 35.2125 75.921V56.4916C35.2125 54.8833 34.5374 53.3259 33.3602 52.219L22.9326 42.4118C22.7336 42.208 22.7335 41.8709 22.9338 41.6713C23.4253 41.1819 24.0794 40.9119 24.7759 40.911H24.7792C25.4745 40.911 26.128 41.1794 26.6197 41.6667L28.7 43.7287C29.098 44.1233 29.6114 44.3625 30.1451 44.4025C30.7694 44.4493 31.3888 44.235 31.8459 43.8148C32.3032 43.3943 32.5655 42.7988 32.5655 42.1807V26.5351C32.5655 25.6774 33.2696 24.9796 34.135 24.9796C35.0003 24.9796 35.7044 25.6774 35.7044 26.5351V38.5876C35.7044 39.0556 36.0872 39.435 36.5594 39.435C37.0315 39.435 37.4144 39.0556 37.4144 38.5876V23.2978C37.4144 22.4401 38.1184 21.7423 38.9838 21.7423C39.8491 21.7423 40.5532 22.4401 40.5532 23.2978V38.5877C40.5532 39.0557 40.936 39.4352 41.4082 39.4352C41.8804 39.4352 42.2632 39.0557 42.2632 38.5877V26.5351C42.2632 25.6774 42.9672 24.9796 43.8326 24.9796C44.6979 24.9796 45.402 25.6774 45.402 26.5351V38.503C45.402 38.971 45.7848 39.3504 46.257 39.3504C46.7292 39.3504 47.112 38.971 47.112 38.503V30.4525C47.112 29.5947 47.816 28.8969 48.6814 28.8969C49.5468 28.8969 50.2508 29.5947 50.2508 30.4525V32.8982C49.4858 33.5625 49.0014 34.5366 49.0014 35.6212Z" fill="white"/>
<path d="M34.7421 43.7052C34.2699 43.7052 33.8871 44.0846 33.8871 44.5526C33.8871 45.0206 34.2699 45.4 34.7421 45.4C37.1801 45.4 39.1634 47.3658 39.1634 49.7822C39.1634 50.2502 39.5462 50.6296 40.0184 50.6296C40.4906 50.6296 40.8734 50.2502 40.8734 49.7822C40.8734 46.4314 38.123 43.7052 34.7421 43.7052Z" fill="white"/>
<path d="M38.8388 59.7676H38.3853C37.9131 59.7676 37.5303 60.147 37.5303 60.615C37.5303 61.083 37.9131 61.4625 38.3853 61.4625H38.8388C39.3109 61.4625 39.6938 61.083 39.6938 60.615C39.6938 60.147 39.3109 59.7676 38.8388 59.7676Z" fill="white"/>
<path d="M43.0335 59.7676H42.58C42.1078 59.7676 41.725 60.147 41.725 60.615C41.725 61.083 42.1078 61.4625 42.58 61.4625H43.0335C43.5056 61.4625 43.8884 61.083 43.8884 60.615C43.8884 60.147 43.5056 59.7676 43.0335 59.7676Z" fill="white"/>
<path d="M38.8388 63.6275H38.3853C37.9131 63.6275 37.5303 64.0069 37.5303 64.4749C37.5303 64.9429 37.9131 65.3223 38.3853 65.3223H38.8388C39.3109 65.3223 39.6938 64.9429 39.6938 64.4749C39.6938 64.0069 39.3109 63.6275 38.8388 63.6275Z" fill="white"/>
<path d="M43.0335 63.6275H42.58C42.1078 63.6275 41.725 64.0069 41.725 64.4749C41.725 64.9429 42.1078 65.3223 42.58 65.3223H43.0335C43.5056 65.3223 43.8884 64.9429 43.8884 64.4749C43.8884 64.0069 43.5056 63.6275 43.0335 63.6275Z" fill="white"/>
<path d="M38.8388 67.4874H38.3853C37.9131 67.4874 37.5303 67.8668 37.5303 68.3348C37.5303 68.8028 37.9131 69.1823 38.3853 69.1823H38.8388C39.3109 69.1823 39.6938 68.8028 39.6938 68.3348C39.6938 67.8668 39.3109 67.4874 38.8388 67.4874Z" fill="white"/>
<path d="M43.0335 67.4874H42.58C42.1078 67.4874 41.725 67.8668 41.725 68.3348C41.725 68.8028 42.1078 69.1823 42.58 69.1823H43.0335C43.5056 69.1823 43.8884 68.8028 43.8884 68.3348C43.8884 67.8668 43.5056 67.4874 43.0335 67.4874Z" fill="white"/>
<path d="M38.8388 71.3474H38.3853C37.9131 71.3474 37.5303 71.7268 37.5303 72.1948C37.5303 72.6628 37.9131 73.0422 38.3853 73.0422H38.8388C39.3109 73.0422 39.6938 72.6628 39.6938 72.1948C39.6938 71.7268 39.3109 71.3474 38.8388 71.3474Z" fill="white"/>
<path d="M43.0335 71.3474H42.58C42.1078 71.3474 41.725 71.7268 41.725 72.1948C41.725 72.6628 42.1078 73.0422 42.58 73.0422H43.0335C43.5056 73.0422 43.8884 72.6628 43.8884 72.1948C43.8884 71.7268 43.5056 71.3474 43.0335 71.3474Z" fill="white"/>
<path d="M53.3945 70.5464C53.2418 70.2843 52.9596 70.1227 52.6541 70.1227C52.3487 70.1227 52.0665 70.2842 51.9137 70.5464L50.1426 73.5868C49.6185 74.4867 49.6185 75.5614 50.1426 76.4612C50.6669 77.3612 51.6057 77.8984 52.6541 77.8984C53.7026 77.8984 54.6415 77.3612 55.1656 76.4612C55.6899 75.5614 55.6899 74.4868 55.1656 73.5868L53.3945 70.5464ZM53.6847 75.6137C53.4696 75.983 53.0842 76.2035 52.654 76.2035C52.2238 76.2035 51.8385 75.983 51.6234 75.6137C51.4082 75.2443 51.4082 74.8034 51.6234 74.4342L52.654 72.6649L53.6847 74.4342C53.8998 74.8035 53.8998 75.2444 53.6847 75.6137Z" fill="white"/>
<path d="M63.5496 33.8677C63.2157 33.5367 62.6744 33.5367 62.3406 33.8677L60.998 35.1984L60.3463 34.5525C60.0124 34.2215 59.471 34.2216 59.1372 34.5525C58.8033 34.8835 58.8033 35.4201 59.1372 35.7509L60.3935 36.996C60.5604 37.1616 60.7793 37.2443 60.998 37.2443C61.2168 37.2443 61.4357 37.1616 61.6026 36.996L63.5498 35.0661C63.8835 34.7352 63.8835 34.1986 63.5496 33.8677Z" fill="white"/>
<path d="M65.8973 36.2793H72.3043C72.7765 36.2793 73.1593 35.8999 73.1593 35.4319C73.1593 34.9639 72.7765 34.5845 72.3043 34.5845H65.8973C65.4251 34.5845 65.0423 34.9639 65.0423 35.4319C65.0423 35.8999 65.4251 36.2793 65.8973 36.2793Z" fill="white"/>
<path d="M63.5496 38.9884C63.2157 38.6573 62.6744 38.6574 62.3406 38.9884L60.998 40.3192L60.3463 39.6732C60.0124 39.3423 59.471 39.3423 59.1372 39.6732C58.8033 40.0042 58.8033 40.5408 59.1372 40.8716L60.3935 42.1168C60.5538 42.2757 60.7713 42.365 60.998 42.365C61.2248 42.365 61.4423 42.2757 61.6026 42.1168L63.5498 40.1868C63.8835 39.8558 63.8835 39.3192 63.5496 38.9884Z" fill="white"/>
<path d="M65.8973 41.4001H72.3043C72.7765 41.4001 73.1593 41.0206 73.1593 40.5526C73.1593 40.0846 72.7765 39.7052 72.3043 39.7052H65.8973C65.4251 39.7052 65.0423 40.0846 65.0423 40.5526C65.0423 41.0206 65.4251 41.4001 65.8973 41.4001Z" fill="white"/>
<path d="M63.5496 44.1091C63.2157 43.7782 62.6744 43.7782 62.3406 44.1091L60.998 45.4398L60.3463 44.7939C60.0124 44.4629 59.471 44.463 59.1372 44.7939C58.8033 45.1249 58.8033 45.6615 59.1372 45.9923L60.3935 47.2375C60.5604 47.403 60.7793 47.4857 60.998 47.4857C61.2168 47.4857 61.4357 47.403 61.6026 47.2375L63.5498 45.3075C63.8835 44.9765 63.8835 44.4399 63.5496 44.1091Z" fill="white"/>
<path d="M65.8973 46.5207H72.3043C72.7765 46.5207 73.1593 46.1412 73.1593 45.6732C73.1593 45.2052 72.7765 44.8258 72.3043 44.8258H65.8973C65.4251 44.8258 65.0423 45.2052 65.0423 45.6732C65.0423 46.1412 65.4251 46.5207 65.8973 46.5207Z" fill="white"/>
<path d="M63.5496 49.2297C63.2157 48.8986 62.6744 48.8988 62.3406 49.2297L60.998 50.5605L60.3463 49.9145C60.0124 49.5836 59.471 49.5836 59.1372 49.9145C58.8033 50.2455 58.8033 50.7821 59.1372 51.1129L60.3935 52.3581C60.5538 52.517 60.7713 52.6063 60.998 52.6063C61.2248 52.6063 61.4423 52.517 61.6026 52.3581L63.5498 50.4281C63.8835 50.0971 63.8835 49.5606 63.5496 49.2297Z" fill="white"/>
<path d="M65.8973 51.6414H72.3043C72.7765 51.6414 73.1593 51.2619 73.1593 50.7939C73.1593 50.3259 72.7765 49.9465 72.3043 49.9465H65.8973C65.4251 49.9465 65.0423 50.3259 65.0423 50.7939C65.0423 51.2619 65.4251 51.6414 65.8973 51.6414Z" fill="white"/>
<path d="M63.5496 54.3504C63.2157 54.0195 62.6744 54.0195 62.3406 54.3504L60.998 55.6811L60.3463 55.0351C60.0124 54.7042 59.471 54.7042 59.1372 55.0351C58.8033 55.3661 58.8033 55.9027 59.1372 56.2335L60.3935 57.4786C60.5604 57.6441 60.7793 57.7269 60.998 57.7269C61.2168 57.7269 61.4357 57.6442 61.6026 57.4786L63.5498 55.5487C63.8835 55.2179 63.8835 54.6812 63.5496 54.3504Z" fill="white"/>
<path d="M65.8973 56.762H72.3043C72.7765 56.762 73.1593 56.3825 73.1593 55.9145C73.1593 55.4465 72.7765 55.0671 72.3043 55.0671H65.8973C65.4251 55.0671 65.0423 55.4465 65.0423 55.9145C65.0423 56.3825 65.4251 56.762 65.8973 56.762Z" fill="white"/>
<path d="M62.3406 59.471L60.998 60.8018L60.3463 60.1558C60.0124 59.8249 59.471 59.8249 59.1372 60.1558C58.8033 60.4868 58.8033 61.0234 59.1372 61.3542L60.3935 62.5994C60.5538 62.7583 60.7713 62.8476 60.998 62.8476C61.2248 62.8476 61.4423 62.7583 61.6026 62.5994L63.5498 60.6694C63.8837 60.3384 63.8837 59.8018 63.5498 59.471C63.2157 59.1399 62.6744 59.1401 62.3406 59.471Z" fill="white"/>
<path d="M65.8973 61.8827H72.3043C72.7765 61.8827 73.1593 61.5032 73.1593 61.0352C73.1593 60.5672 72.7765 60.1878 72.3043 60.1878H65.8973C65.4251 60.1878 65.0423 60.5672 65.0423 61.0352C65.0423 61.5032 65.4251 61.8827 65.8973 61.8827Z" fill="white"/>
</svg>
