<svg width="139" height="139" viewBox="0 0 139 139" fill="none" xmlns="http://www.w3.org/2000/svg">
<rect width="139" height="139" rx="69.5" fill="#128894"/>
<rect x="7" y="7.37488" width="124.25" height="124.25" rx="62.1251" fill="#FD8413"/>
<path d="M92.5921 53.2345C90.4342 53.2345 88.6787 55.0021 88.6787 57.1747C88.6787 59.3496 90.4342 61.1191 92.5921 61.1191C94.7478 61.1191 96.5016 59.3496 96.5016 57.1747C96.5014 55.0021 94.7478 53.2345 92.5921 53.2345ZM92.5921 58.9512C91.6204 58.9512 90.8297 58.1542 90.8297 57.1747C90.8297 56.1975 91.6204 55.4025 92.5921 55.4025C93.5617 55.4025 94.3505 56.1975 94.3505 57.1747C94.3504 58.1542 93.5615 58.9512 92.5921 58.9512Z" fill="white"/>
<path d="M81.7235 53.2345C79.5656 53.2345 77.8101 55.0021 77.8101 57.1747C77.8101 59.3496 79.5656 61.1191 81.7235 61.1191C83.8791 61.1191 85.633 59.3496 85.633 57.1747C85.6328 55.0021 83.8791 53.2345 81.7235 53.2345ZM81.7235 58.9512C80.7518 58.9512 79.9611 58.1542 79.9611 57.1747C79.9611 56.1975 80.7518 55.4025 81.7235 55.4025C82.6931 55.4025 83.4819 56.1975 83.4819 57.1747C83.4818 58.1542 82.6929 58.9512 81.7235 58.9512Z" fill="white"/>
<path d="M94.6993 38.2002H79.6164C78.6203 38.2002 77.8099 39.0168 77.8099 40.0207V47.2924C77.8099 48.2963 78.6201 49.113 79.6164 49.113H84.8213C85.4154 49.113 85.8968 48.6277 85.8968 48.029C85.8968 47.4304 85.4154 46.9451 84.8213 46.9451H79.961V40.3682H94.3504V46.9449H90.0505C89.4564 46.9449 88.975 47.4303 88.975 48.0289C88.975 48.6276 89.4564 49.1129 90.0505 49.1129H94.6993C95.6931 49.1129 96.5014 48.2961 96.5014 47.2922V40.0208C96.5014 39.0169 95.6931 38.2002 94.6993 38.2002Z" fill="white"/>
<path d="M95.6776 32.5H78.6339C75.0589 32.5 72.1504 35.4314 72.1504 39.0346V59.7364C72.1504 65.8337 77.0604 70.7959 83.1043 70.8202V76.547H68.1727C68.9745 74.1181 68.7403 71.9366 68.3465 70.4291C67.7489 68.1421 66.4461 66.1202 64.7709 64.8811C63.7074 64.0963 62.3483 63.9236 61.2234 64.4299C60.0839 64.943 59.348 66.0796 59.204 67.5492C58.857 71.1367 57.7909 73.5104 55.9455 74.8054C54.5122 75.81 51.6063 76.5097 50.3066 76.5469H47.3795V76.08C47.3795 75.2251 46.6911 74.5295 45.8452 74.5295H37.6278C36.7796 74.5295 36.0894 75.225 36.0894 76.08V86.5885C36.0894 87.1871 36.5709 87.6725 37.1649 87.6725C37.7589 87.6725 38.2404 87.1871 38.2404 86.5885V76.6976H45.2284V102.061H38.2404V91.5849C38.2404 90.9863 37.7589 90.5009 37.1649 90.5009C36.5709 90.5009 36.0894 90.9863 36.0894 91.5849V102.679C36.0894 103.533 36.7794 104.229 37.6278 104.229H45.8453C46.6913 104.229 47.3796 103.534 47.3796 102.679V102.212H49.6617C51.4831 102.212 52.429 102.945 53.6264 103.873C54.9427 104.893 56.5809 106.163 59.623 106.494C59.6615 106.498 59.6999 106.5 59.7385 106.5H78.8854C80.6923 106.5 81.7954 105.724 82.4025 105.074C83.1785 104.242 83.6058 103.131 83.6058 101.944C83.6058 100.948 83.2919 99.9471 82.6767 99.1379C84.4056 98.3749 85.3003 96.6785 85.3003 94.9964C85.3003 93.9999 84.9859 92.9983 84.37 92.1886C85.0047 91.9074 85.4696 91.527 85.7926 91.181C86.5685 90.3495 86.9959 89.2379 86.9959 88.0513C86.9959 87.2207 86.7767 86.3867 86.3474 85.6632H90.7771C93.876 85.6632 95.4975 83.3702 95.4975 81.1049C95.4975 78.9484 94.0266 76.768 91.211 76.5639V70.8199C97.2532 70.7935 102.161 65.8322 102.161 59.7362V39.0346C102.161 35.4314 99.2526 32.5 95.6776 32.5ZM89.0603 76.8044C89.0603 77.8606 88.206 78.7199 87.1559 78.7199C86.1079 78.7199 85.2554 77.8606 85.2554 76.8044V65.4731H89.0603V76.8044ZM80.8357 103.588C80.3817 104.075 79.7074 104.332 78.8854 104.332H69.783C68.0081 104.332 67.2136 103.133 67.2136 101.944C67.2136 101.311 67.4334 100.728 67.8327 100.3C68.2867 99.8131 68.9611 99.5558 69.783 99.5558H78.8854C80.6603 99.5558 81.4548 100.755 81.4548 101.944C81.4549 102.577 81.2349 103.161 80.8357 103.588ZM80.5786 97.388H69.7831C68.0072 97.388 67.2122 96.187 67.2122 94.9967C67.2122 94.3638 67.4322 93.7795 67.8315 93.3515C68.2857 92.8648 68.9605 92.6076 69.7831 92.6076H80.5786C82.3545 92.6076 83.1494 93.8075 83.1494 94.9967C83.1494 96.187 82.3545 97.388 80.5786 97.388ZM84.845 88.0514C84.845 89.24 84.0505 90.4395 82.2756 90.4395H69.7831C68.0072 90.4395 67.2122 89.2395 67.2122 88.0503C67.2122 87.4179 67.432 86.8343 67.8312 86.4068C68.2854 85.9203 68.9604 85.6632 69.783 85.6632H82.2755C84.0505 85.6633 84.845 86.8628 84.845 88.0514ZM93.3466 81.1051C93.3466 82.2949 92.5521 83.4954 90.7772 83.4954H69.7831C66.6832 83.4954 65.0611 85.7868 65.0611 88.0504C65.0611 89.3432 65.5906 90.6443 66.6209 91.5236C65.5906 92.403 65.0611 93.704 65.0611 94.9967C65.0611 96.2912 65.5916 97.594 66.6237 98.4737C66.4896 98.5879 66.3698 98.703 66.266 98.8144C65.4901 99.6459 65.0627 100.757 65.0627 101.944C65.0627 102.775 65.2818 103.609 65.7112 104.332H59.7978C57.3943 104.058 56.2009 103.133 54.9376 102.154C53.599 101.117 52.2146 100.044 49.6616 100.044H47.3795V78.715H50.4045C51.7735 78.7018 55.3491 77.8643 57.1741 76.585C59.5687 74.9047 60.9329 72.0178 61.3447 67.7609C61.392 67.2783 61.5615 66.6522 62.1007 66.4093C62.5157 66.2222 63.0648 66.3091 63.4991 66.6295C66.1028 68.5554 67.6458 73.1196 65.5985 77.1354C65.4271 77.4714 65.4417 77.8731 65.6372 78.1955C65.8325 78.518 66.1803 78.7147 66.5551 78.7147H83.5763C84.2576 80.0059 85.606 80.8876 87.1555 80.8876C88.7072 80.8876 90.0575 80.0051 90.7391 78.7128C90.7517 78.7132 90.7642 78.7147 90.7769 78.7147C92.5521 78.715 93.3466 79.9155 93.3466 81.1051ZM100.01 59.7364C100.01 64.6369 96.0674 68.6257 91.2113 68.6521V65.0683C91.2113 64.096 90.4265 63.305 89.4619 63.305H84.8498C83.8873 63.305 83.1043 64.096 83.1043 65.0683V68.6523C78.2464 68.628 74.3014 64.6383 74.3014 59.7364V39.0346C74.3014 36.6268 76.245 34.668 78.6339 34.668H95.6777C98.0667 34.668 100.01 36.6268 100.01 39.0346L100.01 59.7364Z" fill="white"/>
</svg>
