<svg width="139" height="139" viewBox="0 0 139 139" fill="none" xmlns="http://www.w3.org/2000/svg">
<rect width="139" height="139" rx="69.5" fill="#128894"/>
<rect x="7" y="7.37488" width="124.25" height="124.25" rx="62.1251" fill="#FD8413"/>
<path d="M96.7122 86.1536H98.8844V88.3258H96.7122V86.1536Z" fill="white"/>
<path d="M96.7122 90.498H98.8844V92.6703H96.7122V90.498Z" fill="white"/>
<path d="M106.125 65.4452C106.125 63.5687 104.598 62.0421 102.722 62.0421H98.8844V47.4883C98.8844 44.4938 96.4483 42.0577 93.4539 42.0577H82.7007C82.1962 39.582 80.0021 37.7133 77.3795 37.7133C77.3151 37.7133 77.2512 37.7159 77.1872 37.7182C75.5104 33.4325 73.1637 32.5 71.4421 32.5C67.7573 32.5 65.8091 36.933 63.8394 41.8139V36.7501L63.6743 36.486C63.5874 36.3468 61.4764 33.0793 55.5126 33.0793C49.5487 33.0793 47.4377 36.3468 47.3508 36.486L47.1858 36.7501V41.8139C45.216 36.933 43.2678 32.5 39.583 32.5C34.1112 32.5 32.1251 41.55 32.1251 47.6331C32.1251 48.8279 32.1816 50.0778 32.2929 51.3483L34.4567 51.1586C34.351 49.9511 34.2973 48.7648 34.2973 47.6331C34.2973 42.1994 36.1341 34.6722 39.583 34.6722C41.9736 34.6722 43.7405 39.0667 45.4491 43.3166C45.9983 44.6823 46.5654 46.0924 47.1858 47.4438V47.4883H47.2062C49.1203 51.6465 51.5441 55.2358 55.5126 55.2358C59.4811 55.2358 61.9048 51.6465 63.819 47.4883H63.8394V47.4438C64.4598 46.0924 65.0269 44.6823 65.576 43.3166C67.2846 39.0667 69.0515 34.6722 71.4421 34.6722C73.145 34.6722 74.3097 36.4347 75.0555 38.2368C73.2207 39.1093 71.949 40.9806 71.949 43.1438C71.949 45.9138 74.034 48.2044 76.7168 48.5325C76.6085 53.038 75.7024 58.0585 74.2976 61.8454C73.3073 64.5148 71.1492 68.9931 67.8218 68.9931C66.2404 68.9931 64.8683 67.6267 63.2797 66.0446C61.2597 64.0327 58.97 61.7524 55.5126 61.7524C52.0551 61.7524 49.7655 64.0327 47.7455 66.0446C46.1569 67.6267 44.7847 68.9931 43.2034 68.9931C38.7612 68.9931 35.7269 61.1028 34.6905 53.283L32.5371 53.5684C33.6646 62.0752 37.0588 71.1654 43.2034 71.1654C44.7322 71.1654 46.0133 70.4723 47.1858 69.5282V87.7684L47.3508 88.0326C47.4377 88.1716 49.5487 91.4393 55.5126 91.4393C61.4764 91.4393 63.5874 88.1717 63.6743 88.0326L63.8394 87.7684V76.3063H61.6672V78.3997C61.1493 78.9936 59.4036 80.5783 55.5126 80.5783C51.611 80.5783 49.8663 78.9849 49.358 78.4014V72.4919C50.6468 73.297 52.6279 74.0616 55.5126 74.0616C58.3973 74.0616 60.3783 73.297 61.6672 72.4919V74.1341H63.8394V69.5282C65.0118 70.4723 66.293 71.1654 67.8218 71.1654C71.3122 71.1654 74.2557 68.2038 76.3342 62.6008C77.8404 58.5406 78.803 53.1502 78.8925 48.3583C80.8125 47.8003 82.2972 46.21 82.7007 44.2299H93.4539C95.2506 44.2299 96.7122 45.6916 96.7122 47.4883V62.0421H92.8746C90.9981 62.0421 89.4715 63.5687 89.4715 65.4452C89.4715 67.1495 90.7308 68.5649 92.3678 68.8104V72.6859H94.54V68.8483H101.057V78.2613H94.54V74.8581H92.3678V101.069C92.3678 104.064 94.8038 106.5 97.7983 106.5C99.2482 106.5 100.612 105.935 101.638 104.909C102.664 103.883 103.229 102.519 103.229 101.069V95.7114H101.057V101.069C101.057 101.939 100.718 102.757 100.102 103.373C99.4861 103.989 98.668 104.328 97.7983 104.328C96.0016 104.328 94.54 102.866 94.54 101.069V80.4335H101.057V93.5391H103.229V68.8104C104.866 68.5649 106.125 67.1495 106.125 65.4452ZM55.5126 35.2515C59.4111 35.2515 61.1574 36.8434 61.6672 37.4279V43.3379C60.3783 42.5327 58.3973 41.7681 55.5126 41.7681C52.6279 41.7681 50.6468 42.5327 49.358 43.3379V37.4296C49.8774 36.8346 51.6249 35.2515 55.5126 35.2515ZM55.5126 53.0636C52.8241 53.0636 50.9582 50.3808 49.358 46.9753V46.1189C49.8758 45.525 51.6216 43.9403 55.5126 43.9403C59.4141 43.9403 61.1589 45.5337 61.6672 46.1172V46.9755C60.067 50.3808 58.201 53.0636 55.5126 53.0636ZM55.5126 82.7505C58.3973 82.7505 60.3783 81.9859 61.6672 81.1807V87.0868C61.1534 87.6656 59.3803 89.2671 55.5126 89.2671C51.614 89.2671 49.8677 87.6752 49.358 87.0907V81.1807C50.6468 81.9859 52.6279 82.7505 55.5126 82.7505ZM55.5126 71.8894C51.611 71.8894 49.8663 70.296 49.358 69.7126V67.5042C51.2181 65.6523 52.9883 63.9247 55.5126 63.9247C58.0368 63.9247 59.807 65.6523 61.6672 67.5043V69.7108C61.1493 70.3047 59.4036 71.8894 55.5126 71.8894ZM77.3795 46.4022C75.5828 46.4022 74.1212 44.9405 74.1212 43.1438C74.1212 41.3471 75.5828 39.8855 77.3795 39.8855C79.1762 39.8855 80.6378 41.3471 80.6378 43.1438C80.6378 44.9405 79.1762 46.4022 77.3795 46.4022ZM102.722 66.6761H92.8746C92.1959 66.6761 91.6437 66.124 91.6437 65.4452C91.6437 64.7665 92.1959 64.2143 92.8746 64.2143H102.722C103.401 64.2143 103.953 64.7665 103.953 65.4452C103.953 66.124 103.401 66.6761 102.722 66.6761Z" fill="white"/>
</svg>
