<svg width="140" height="139" viewBox="0 0 140 139" fill="none" xmlns="http://www.w3.org/2000/svg">
<rect x="0.900146" width="139" height="139" rx="69.5" fill="#128894"/>
<rect x="7.90015" y="7.37488" width="124.25" height="124.25" rx="62.1251" fill="#FD8413"/>
<path d="M83.6184 93.086C80.2131 93.086 77.3017 92.0874 75.2301 90.0158C69.3755 84.1612 72.0723 71.6231 81.6431 60.2029C82.6439 59.0116 84.1166 58.289 85.6856 58.22C87.2711 58.1631 88.8259 58.7532 89.9449 59.8722L91.0771 61.0055C91.515 61.4435 91.515 62.1541 91.0771 62.591C90.6391 63.0289 89.9296 63.0289 89.4916 62.591L88.3594 61.4577C87.6828 60.7821 86.7455 60.4142 85.7831 60.4613C84.8272 60.5029 83.9666 60.9223 83.3611 61.6439C74.6969 71.9822 71.8829 83.4976 76.8156 88.4303C81.7406 93.3553 93.2505 90.5392 103.591 81.8826C104.317 81.2727 104.74 80.411 104.781 79.4562C104.823 78.496 104.457 77.5554 103.776 76.8744L102.644 75.7422C102.206 75.3042 102.206 74.5947 102.644 74.1568C103.082 73.7188 103.791 73.7188 104.229 74.1568L105.362 75.2889C106.486 76.4134 107.09 77.9671 107.021 79.5537C106.954 81.1205 106.229 82.5954 105.032 83.6006C97.6576 89.7738 89.8201 93.086 83.6184 93.086Z" fill="white"/>
<path d="M101.457 76.8952C100.406 76.8952 99.4194 76.4835 98.6814 75.7378C97.9467 75.0119 97.5361 74.0308 97.5328 72.9852C97.5295 71.9351 97.939 70.9453 98.6858 70.1986C99.4194 69.4573 100.405 69.0467 101.456 69.0467C102.508 69.0467 103.495 69.4573 104.233 70.2019C104.975 70.9453 105.385 71.9351 105.381 72.9852C105.379 74.0286 104.97 75.0075 104.229 75.7422C103.491 76.4857 102.507 76.8952 101.457 76.8952ZM101.457 71.2891C101.008 71.2891 100.589 71.4632 100.276 71.7797C99.9504 72.1048 99.7741 72.5297 99.7752 72.9797C99.7763 73.4232 99.9515 73.8403 100.267 74.1524C100.589 74.4776 101.008 74.6528 101.457 74.6528C101.906 74.6528 102.325 74.4776 102.64 74.1611L102.648 74.1524C102.964 73.8403 103.138 73.4232 103.139 72.9797C103.14 72.5297 102.965 72.1048 102.644 71.784C102.326 71.4632 101.906 71.2891 101.457 71.2891Z" fill="white"/>
<path d="M92.2662 67.6977C91.2621 67.6977 90.2592 67.32 89.496 66.5645C88.7481 65.8166 88.3386 64.8301 88.3386 63.7823C88.3386 62.7344 88.7481 61.7479 89.4916 61.0055C91.0267 59.4879 93.5133 59.4879 95.0418 61.0011C95.0451 61.0044 95.0473 61.0066 95.0506 61.0099C96.5638 62.5384 96.5638 65.0261 95.0506 66.5557C94.2808 67.3178 93.2724 67.6977 92.2662 67.6977ZM92.2684 62.1059C91.8359 62.1059 91.4034 62.2691 91.0727 62.5953C90.7573 62.9107 90.5811 63.3333 90.5811 63.7823C90.5811 64.2312 90.7573 64.6549 91.0771 64.9746C91.734 65.6217 92.806 65.6217 93.4651 64.9703C94.1078 64.321 94.1089 63.2512 93.4607 62.591C93.1323 62.2669 92.7009 62.1059 92.2684 62.1059Z" fill="white"/>
<path d="M73.8472 95.6569C72.7216 95.6569 71.6551 95.2101 70.8405 94.3977C69.1642 92.7214 69.1642 89.9961 70.8394 88.3208L73.4092 85.751C73.8472 85.313 74.5567 85.313 74.9947 85.751C75.4327 86.189 75.4327 86.8985 74.9947 87.3365L72.4249 89.9063C72.0362 90.2961 71.8216 90.8118 71.8216 91.3582C71.8216 91.9056 72.0362 92.4213 72.4249 92.8111C72.8147 93.2009 73.3205 93.4144 73.8483 93.4144H73.8669C74.4264 93.4101 74.9454 93.1955 75.3319 92.81L77.9006 90.2413C78.3386 89.8034 79.0481 89.8034 79.4861 90.2413C79.9241 90.6793 79.9241 91.3888 79.4861 91.8268L76.9163 94.3966C76.1115 95.2003 75.0363 95.647 73.8866 95.6569C73.8735 95.6569 73.8603 95.6569 73.8472 95.6569Z" fill="white"/>
<path d="M56.694 101.695C53.4705 101.695 50.5601 100.679 48.4436 98.5628C44.0573 94.1765 44.2457 86.3718 48.9145 79.1431C49.2506 78.6219 49.9448 78.473 50.4638 78.8091C50.985 79.1453 51.1339 79.8384 50.7977 80.3585C46.718 86.6784 46.4082 93.3564 50.0291 96.9774C54.6191 101.567 63.9545 99.6983 70.8416 92.8133C71.2796 92.3754 71.9891 92.3754 72.4271 92.8133C72.865 93.2513 72.865 93.9608 72.4271 94.3988C67.6729 99.153 61.792 101.695 56.694 101.695Z" fill="white"/>
<path d="M55.1392 83.0761C52.934 83.0761 50.7288 82.2363 49.0502 80.5577C45.6932 77.2007 45.6932 71.738 49.0502 68.381C52.4084 65.025 57.871 65.0261 61.227 68.3821C62.8508 70.0059 63.7453 72.1684 63.7453 74.4699C63.7453 76.7725 62.8508 78.9339 61.227 80.5577C59.5485 82.2363 57.3433 83.0761 55.1392 83.0761ZM55.1381 68.1051C53.5077 68.1051 51.8773 68.7259 50.6357 69.9664C48.1524 72.4498 48.1524 76.489 50.6357 78.9723C53.1201 81.4567 57.1593 81.4545 59.6415 78.9723C60.8416 77.7722 61.5029 76.1736 61.5029 74.4699C61.5029 72.7673 60.8416 71.1687 59.6415 69.9675C58.3999 68.7259 56.7684 68.1051 55.1381 68.1051Z" fill="white"/>
<path d="M55.1381 78.0865C54.1723 78.0865 53.2635 77.7109 52.5803 77.0277C51.17 75.6174 51.17 73.3224 52.5803 71.9121C53.9479 70.5446 56.3326 70.5468 57.6958 71.9121C59.1061 73.3224 59.1061 75.6174 57.6958 77.0277C57.0137 77.7109 56.1049 78.0865 55.1381 78.0865ZM55.1381 73.0958C54.7713 73.0958 54.4253 73.2381 54.1658 73.4976C53.6292 74.0341 53.6292 74.9057 54.1658 75.4422C54.6848 75.9612 55.5914 75.9601 56.1104 75.4422C56.6469 74.9057 56.6469 74.0341 56.1104 73.4976C55.8509 73.2381 55.506 73.0958 55.1381 73.0958Z" fill="white"/>
<path d="M78.1864 106.5H36.4552C34.5632 106.5 33.0237 104.962 33.0237 103.07V44.0822C33.0237 42.1902 34.5632 40.6518 36.4552 40.6518H45.8727C46.4925 40.6518 46.9939 41.1533 46.9939 41.773C46.9939 42.3927 46.4925 42.8942 45.8727 42.8942H36.4552C35.7993 42.8942 35.2661 43.4274 35.2661 44.0822V103.07C35.2661 103.713 35.8103 104.258 36.4552 104.258H78.1864C78.8302 104.258 79.3744 103.713 79.3744 103.07V91.622C79.3744 91.0023 79.8759 90.5008 80.4956 90.5008C81.1154 90.5008 81.6168 91.0023 81.6168 91.622V103.07C81.6168 104.962 80.0785 106.5 78.1864 106.5Z" fill="white"/>
<path d="M80.4956 64.6013C79.8759 64.6013 79.3744 64.0998 79.3744 63.4801V44.0822C79.3744 43.4274 78.8412 42.8942 78.1864 42.8942H68.7678C68.1481 42.8942 67.6466 42.3927 67.6466 41.773C67.6466 41.1533 68.1481 40.6518 68.7678 40.6518H78.1864C80.0785 40.6518 81.6168 42.1902 81.6168 44.0822V63.4801C81.6168 64.0998 81.1154 64.6013 80.4956 64.6013Z" fill="white"/>
<path d="M66.694 46.4965H47.9443C46.1848 46.4965 44.7526 45.0644 44.7526 43.3048V40.2423C44.7526 38.4827 46.1848 37.0516 47.9443 37.0516H51.7635C52.2847 34.4588 54.5753 32.5 57.3137 32.5C60.0576 32.5 62.3526 34.4588 62.8738 37.0516H66.694C68.4535 37.0516 69.8857 38.4827 69.8857 40.2423V43.3048C69.8857 45.0644 68.4535 46.4965 66.694 46.4965ZM47.9443 39.2941C47.421 39.2941 46.995 39.7189 46.995 40.2423V43.3048C46.995 43.8282 47.421 44.2541 47.9443 44.2541H66.694C67.2174 44.2541 67.6433 43.8282 67.6433 43.3048V40.2423C67.6433 39.7189 67.2174 39.2941 66.694 39.2941H61.8642C61.2445 39.2941 60.743 38.7926 60.743 38.1729C60.743 36.2808 59.2046 34.7424 57.3137 34.7424C55.4293 34.7424 53.8953 36.2808 53.8953 38.1729C53.8953 38.7926 53.3938 39.2941 52.7741 39.2941H47.9443Z" fill="white"/>
<path d="M57.3203 52.5482H40.1999C39.5801 52.5482 39.0787 52.0468 39.0787 51.427C39.0787 50.8073 39.5801 50.3058 40.1999 50.3058H57.3203C57.94 50.3058 58.4415 50.8073 58.4415 51.427C58.4415 52.0468 57.94 52.5482 57.3203 52.5482Z" fill="white"/>
<path d="M74.4417 57.5608H40.1999C39.5801 57.5608 39.0787 57.0594 39.0787 56.4396C39.0787 55.8199 39.5801 55.3184 40.1999 55.3184H74.4417C75.0615 55.3184 75.563 55.8199 75.563 56.4396C75.563 57.0594 75.0615 57.5608 74.4417 57.5608Z" fill="white"/>
<path d="M74.4417 62.5734H40.1999C39.5801 62.5734 39.0787 62.072 39.0787 61.4522C39.0787 60.8325 39.5801 60.331 40.1999 60.331H74.4417C75.0615 60.331 75.563 60.8325 75.563 61.4522C75.563 62.072 75.0615 62.5734 74.4417 62.5734Z" fill="white"/>
</svg>
