<svg width="139" height="139" viewBox="0 0 139 139" fill="none" xmlns="http://www.w3.org/2000/svg">
<rect width="139" height="139" rx="69.5" fill="#128894"/>
<rect x="7" y="7.37488" width="124.25" height="124.25" rx="62.1251" fill="#FD8413"/>
<path d="M75.6763 73.7012C77.4268 73.029 79.037 72.01 80.4161 70.6787C82.8883 68.2921 84.413 65.097 84.7094 61.682C84.9752 58.6191 84.2444 55.5599 82.6433 52.9693L84.2108 51.4013C84.4745 52.5244 85.4848 53.363 86.6873 53.363H88.1471C89.5496 53.363 90.6908 52.2219 90.6908 50.8192V42.834C90.6908 41.4315 89.5497 40.2902 88.1471 40.2902H86.5529C85.9542 40.2902 85.4689 40.7756 85.4689 41.3742C85.4689 41.9729 85.9542 42.4582 86.5529 42.4582H88.1471C88.3543 42.4582 88.5228 42.6268 88.5228 42.834V50.8194C88.5228 51.0266 88.3543 51.1952 88.1471 51.1952H86.6873C86.48 51.1952 86.3115 51.0266 86.3115 50.8194V48.8508C86.3115 48.4123 86.0473 48.0171 85.6423 47.8493C85.2371 47.6815 84.771 47.7742 84.4609 48.0845L80.4835 52.0635C80.1093 52.4379 80.0601 53.0277 80.3672 53.4588C82.0224 55.7821 82.7975 58.6359 82.5494 61.4945C82.2983 64.3881 81.0059 67.0959 78.9102 69.1189C76.6648 71.2865 73.6945 72.4789 70.543 72.4789C70.5325 72.4789 70.5216 72.4789 70.5109 72.4789C67.3477 72.4708 64.3707 71.2624 62.1283 69.0763C60.5558 67.5435 59.448 65.6464 58.8917 63.5509C59.5676 63.2753 60.2909 63.0926 61.0462 63.0206C61.5756 64.9753 62.7011 66.7314 64.2785 68.0374C66.0777 69.5271 68.3064 70.2686 70.5348 70.2684C72.869 70.2683 75.2029 69.4545 77.0401 67.835C79.1204 66.0013 80.3375 63.361 80.3794 60.5912C80.4212 57.8199 79.2863 55.145 77.2658 53.2525C73.5724 49.7932 67.7322 49.731 63.9701 53.1111C62.9351 54.0409 62.1083 55.1814 61.548 56.4416C61.5002 56.4423 61.4525 56.4409 61.4046 56.442C60.619 56.4624 59.8433 56.5477 59.0835 56.6944C59.6669 54.8997 60.662 53.2707 62.0156 51.917C66.1948 47.7378 72.7172 47.1904 77.5242 50.6154C77.9553 50.9226 78.5456 50.8734 78.9198 50.4989L82.8973 46.5201C83.2071 46.21 83.2999 45.7438 83.132 45.3388C82.9642 44.9338 82.569 44.6697 82.1305 44.6697H80.1635C79.9555 44.6697 79.7862 44.5012 79.7862 44.294V42.8342C79.7862 42.6269 79.9555 42.4584 80.1635 42.4584H81.4946C82.0932 42.4584 82.5786 41.973 82.5786 41.3744C82.5786 40.7757 82.0932 40.2904 81.4946 40.2904H80.1635C78.7601 40.2904 77.6183 41.4315 77.6183 42.8342V44.294C77.6183 45.4965 78.4574 46.5068 79.5813 46.7705L78.0133 48.3392C75.4571 46.76 72.4391 46.0255 69.4184 46.2628C66.0493 46.527 62.8758 47.9906 60.4825 50.3839C58.5457 52.3208 57.2294 54.7349 56.6496 57.397C54.8116 58.1123 53.124 59.2133 51.6933 60.6562C49.0927 63.2789 47.6246 66.7403 47.5594 70.4034C47.5273 72.2608 47.8459 74.0691 48.5065 75.7778C48.6727 76.2077 49.0831 76.4711 49.5178 76.4711C49.6477 76.4711 49.78 76.4475 49.9085 76.3978C50.4668 76.1819 50.7446 75.5543 50.5285 74.9958C49.9693 73.5495 49.6996 72.017 49.727 70.4413C49.782 67.3397 51.027 64.4068 53.2326 62.1826C55.4381 59.9584 58.3602 58.6892 61.4606 58.6092C64.3434 58.5333 67.1578 59.4921 69.3859 61.3065C71.3635 62.9169 72.7759 65.1101 73.4263 67.5479C72.7359 67.8249 72.0116 67.9995 71.2781 68.0695C70.1264 63.8143 66.2752 60.8168 61.7806 60.8168C56.3527 60.8168 51.9367 65.2327 51.9367 70.6608C51.9367 76.0889 56.3525 80.5049 61.7806 80.5049C65.6919 80.5049 69.2154 78.1799 70.7811 74.6443C71.6168 74.6307 72.441 74.5465 73.2463 74.3933C71.8788 78.6126 68.2589 81.7998 63.791 82.549C63.2688 82.6366 62.8862 83.0886 62.8862 83.6181V87.7936C62.8862 88.3922 63.3715 88.8776 63.9702 88.8776H67.9636C68.1708 88.8776 68.3394 89.0461 68.3394 89.2534V90.7146C68.3394 90.9219 68.1708 91.0904 67.9636 91.0904H63.9702C63.3715 91.0904 62.8862 91.5757 62.8862 92.1744V96.1664C62.8862 96.3737 62.7177 96.5422 62.5104 96.5422H61.0507C60.8434 96.5422 60.6749 96.3735 60.6749 96.1664V92.1744C60.6749 91.5757 60.1896 91.0904 59.5909 91.0904H55.599C55.3917 91.0904 55.2232 90.9219 55.2232 90.7146V89.2534C55.2232 89.0461 55.3917 88.8776 55.599 88.8776H59.5909C60.1896 88.8776 60.6749 88.3922 60.6749 87.7936V83.6181C60.6749 83.0887 60.2925 82.6366 59.7701 82.549C57.2001 82.1182 54.7965 80.8302 53.0023 78.9225C52.5921 78.4865 51.906 78.4654 51.4701 78.8755C51.0339 79.2857 51.013 79.9717 51.4232 80.4077C53.3281 82.4332 55.8163 83.8667 58.5069 84.5043V86.7096H55.599C54.1964 86.7096 53.0552 87.8507 53.0552 89.2534V90.7146C53.0552 92.1172 54.1963 93.2584 55.599 93.2584H58.5069V96.1664C58.5069 97.569 59.648 98.7102 61.0507 98.7102H62.5104C63.913 98.7102 65.054 97.5691 65.054 96.1664V93.2584H67.9634C69.366 93.2584 70.507 92.1173 70.507 90.7146V89.2534C70.507 87.8508 69.366 86.7096 67.9634 86.7096H65.054V84.5051C70.3676 83.2555 74.5149 79.0478 75.6763 73.7012ZM70.7549 59.6254C68.774 58.0124 66.4019 56.9743 63.8978 56.5973C64.301 55.901 64.8144 55.2667 65.4188 54.7237C68.3517 52.0891 72.9045 52.1377 75.7837 54.8347C77.3594 56.3104 78.2442 58.3966 78.2116 60.5582C78.1785 62.7502 77.2533 64.7569 75.6065 66.2085C75.5242 66.281 75.4403 66.3511 75.3555 66.4196C74.528 63.7713 72.932 61.3981 70.7549 59.6254ZM68.9623 67.9446C67.7751 67.6999 66.6369 67.1752 65.6612 66.3673C64.6204 65.5056 63.833 64.3928 63.3646 63.1488C65.9274 63.6833 68.0409 65.4907 68.9623 67.9446ZM61.7807 78.3366C57.5482 78.3366 54.1048 74.8931 54.1048 70.6605C54.1048 68.2512 55.2216 66.0986 56.9636 64.6903C57.6626 66.9333 58.9068 68.9637 60.6151 70.6287C62.7651 72.7248 65.4852 74.0597 68.4287 74.4927C67.0757 76.8372 64.5535 78.3366 61.7807 78.3366Z" fill="white"/>
<path d="M103.829 91.5111C102.852 90.9472 101.726 90.7688 100.651 90.9817C100.771 90.3484 100.831 89.7047 100.831 89.0569C100.831 88.4091 100.771 87.7657 100.651 87.1322C101.727 87.3451 102.852 87.1669 103.829 86.6028C104.89 85.9899 105.649 85.0006 105.967 83.8169C106.284 82.6331 106.121 81.3968 105.508 80.3355C104.243 78.1445 101.432 77.3912 99.2413 78.6563C98.2635 79.2208 97.5459 80.108 97.193 81.1466C96.2104 80.3051 95.0753 79.6484 93.8605 79.2187C94.5822 78.3942 94.9908 77.33 94.9908 76.2021C94.9908 73.6723 92.9326 71.6142 90.4029 71.6142C87.873 71.6142 85.8149 73.6723 85.8149 76.2021C85.8149 77.3302 86.2235 78.3941 86.9451 79.2187C85.7304 79.6484 84.5952 80.305 83.6127 81.1466C83.2597 80.1081 82.5421 79.2208 81.5643 78.6563C79.3733 77.3912 76.5619 78.1448 75.2971 80.3355C74.0323 82.5265 74.7856 85.3379 76.9764 86.6028C77.9533 87.1667 79.0789 87.3448 80.1541 87.1322C80.035 87.7655 79.975 88.4091 79.975 89.0569C79.975 89.7047 80.035 90.3482 80.1541 90.9817C79.0792 90.7694 77.9533 90.9473 76.9764 91.5111C74.7856 92.7759 74.0323 95.5876 75.2971 97.7784C75.9099 98.8397 76.8992 99.5988 78.0829 99.9161C79.2668 100.233 80.503 100.07 81.5643 99.4577C82.5421 98.8932 83.2597 98.006 83.6127 96.9674C84.5951 97.8089 85.7304 98.4657 86.9451 98.8954C86.2236 99.7198 85.8149 100.784 85.8149 101.912C85.8149 104.442 87.873 106.5 90.4029 106.5C92.9326 106.5 94.9908 104.442 94.9908 101.912C94.9908 100.784 94.582 99.7199 93.8605 98.8954C95.0753 98.4657 96.2104 97.809 97.193 96.9674C97.5459 98.0059 98.2635 98.8932 99.2413 99.4577C100.303 100.071 101.539 100.233 102.723 99.9161C103.906 99.5988 104.896 98.8397 105.508 97.7784C106.121 96.7171 106.284 95.4807 105.967 94.297C105.649 93.1133 104.89 92.1239 103.829 91.5111ZM103.631 96.6944C102.964 97.8499 101.481 98.2474 100.325 97.5802C99.6107 97.1679 99.1598 96.4282 99.1184 95.6017C99.1001 95.2342 98.8964 94.901 98.5779 94.717L97.9175 94.3358C97.4728 94.0789 96.9085 94.1695 96.5667 94.5527C95.3735 95.8901 93.8225 96.7868 92.0815 97.1461C91.5779 97.25 91.2166 97.6934 91.2166 98.2077V98.967C91.2166 99.335 91.4033 99.6779 91.7125 99.8776C92.4076 100.327 92.8226 101.087 92.8226 101.912C92.8226 103.246 91.7371 104.332 90.4028 104.332C89.0683 104.332 87.9827 103.246 87.9827 101.912C87.9827 101.087 88.3978 100.327 89.0929 99.8776C89.402 99.6779 89.5888 99.335 89.5888 98.967V98.2077C89.5888 97.6934 89.2274 97.25 88.7239 97.1461C86.9829 96.7869 85.4319 95.8901 84.2387 94.5528C84.0269 94.3155 83.7302 94.1905 83.4293 94.1905C83.2441 94.1905 83.0573 94.2379 82.8879 94.3358L82.2275 94.717C81.9088 94.901 81.7052 95.2342 81.6868 95.6017C81.6456 96.4282 81.1945 97.1677 80.4803 97.5801C79.3246 98.2473 77.8417 97.8498 77.1744 96.6943C76.5073 95.5387 76.9046 94.0556 78.0601 93.3885C78.7745 92.9763 79.6404 92.9553 80.3768 93.3328C80.7043 93.5008 81.0947 93.4911 81.4134 93.307L82.0724 92.9264C82.5173 92.6696 82.7208 92.1357 82.5598 91.6479C82.2831 90.81 82.1428 89.9383 82.1428 89.0569C82.1428 88.1756 82.2831 87.3037 82.5598 86.466C82.7208 85.9782 82.5173 85.4443 82.0724 85.1875L81.4134 84.8069C81.0945 84.6228 80.7041 84.6131 80.3768 84.7811C79.6407 85.1584 78.7745 85.1378 78.0601 84.7254C76.9046 84.0582 76.5071 82.5752 77.1743 81.4195C77.8416 80.2639 79.3246 79.8668 80.4801 80.5338C81.1944 80.9461 81.6455 81.6859 81.6867 82.5122C81.705 82.8797 81.9087 83.213 82.2274 83.3969L82.8877 83.7781C83.3326 84.035 83.8965 83.9442 84.2385 83.561C85.4318 82.2238 86.9826 81.327 88.7237 80.9677C89.2273 80.8638 89.5886 80.4203 89.5886 79.9061V79.1467C89.5886 78.7787 89.4019 78.4357 89.0927 78.2361C88.3977 77.7872 87.9826 77.0268 87.9826 76.202C87.9826 74.8676 89.0682 73.782 90.4026 73.782C91.7369 73.782 92.8225 74.8676 92.8225 76.202C92.8225 77.0268 92.4076 77.7872 91.7124 78.2361C91.4032 78.4357 91.2165 78.7787 91.2165 79.1467V79.9061C91.2165 80.4203 91.5777 80.8638 92.0813 80.9677C93.8224 81.327 95.3733 82.2237 96.5666 83.561C96.9085 83.9441 97.4724 84.035 97.9174 83.778L98.5777 83.3967C98.8964 83.2127 99.0999 82.8796 99.1183 82.512C99.1596 81.6856 99.6105 80.9458 100.325 80.5335C101.48 79.8663 102.964 80.2637 103.631 81.4192C103.954 81.979 104.04 82.6313 103.872 83.2555C103.705 83.8799 103.305 84.4018 102.745 84.725C102.031 85.1372 101.165 85.1581 100.428 84.7806C100.101 84.6127 99.7103 84.6224 99.3916 84.8065L98.7325 85.187C98.2877 85.4439 98.0842 85.9778 98.2452 86.4656C98.5219 87.3036 98.6621 88.1753 98.6621 89.0565C98.6621 89.9377 98.5218 90.8096 98.2452 91.6474C98.0842 92.1352 98.2877 92.6691 98.7325 92.926L99.3916 93.3065C99.7103 93.4905 100.101 93.5002 100.428 93.3324C101.164 92.955 102.031 92.976 102.745 93.388C103.305 93.7112 103.705 94.2331 103.872 94.8575C104.04 95.4825 103.954 96.1346 103.631 96.6944Z" fill="white"/>
<path d="M94.7027 86.9258C94.1198 87.0624 93.7582 87.6457 93.8946 88.2285C93.9581 88.4993 93.9903 88.778 93.9903 89.0564C93.9903 91.0352 92.3811 92.6451 90.4032 92.6451C88.4244 92.6451 86.8145 91.0353 86.8145 89.0564C86.8145 87.0784 88.4243 85.4692 90.4032 85.4692C90.6817 85.4692 90.9602 85.5014 91.2312 85.5649C91.814 85.7016 92.3973 85.3395 92.5339 84.7568C92.6705 84.1739 92.3087 83.5907 91.7258 83.4541C91.2929 83.3526 90.8479 83.3012 90.4032 83.3012C87.229 83.3012 84.6467 85.883 84.6467 89.0564C84.6467 92.2306 87.229 94.813 90.4032 94.813C93.5765 94.813 96.1583 92.2306 96.1583 89.0564C96.1583 88.6115 96.1068 88.1665 96.0054 87.7337C95.8688 87.1508 95.2857 86.7889 94.7027 86.9258Z" fill="white"/>
<path d="M36.7131 43.7199H37.7478C37.8412 44.4133 38.0217 45.0792 38.2797 45.7059L37.3837 46.2232C36.8653 46.5225 36.6876 47.1855 36.987 47.7039C37.1877 48.0517 37.5521 48.2461 37.9267 48.2461C38.1106 48.2461 38.297 48.1993 38.4677 48.1007L39.367 47.5815C39.7878 48.1248 40.2761 48.6131 40.8194 49.0339L40.3002 49.9331C40.0009 50.4515 40.1785 51.1145 40.6969 51.4138C40.8676 51.5124 41.0541 51.5592 41.2379 51.5592C41.6125 51.5592 41.9769 51.3647 42.1777 51.0171L42.6949 50.1213C43.3216 50.3793 43.9875 50.5598 44.6809 50.6532V51.6879C44.6809 52.2865 45.1663 52.7719 45.7649 52.7719C46.3636 52.7719 46.8489 52.2865 46.8489 51.6879V50.6532C47.5424 50.5598 48.2082 50.3793 48.8349 50.1213L49.3522 51.0171C49.5529 51.3648 49.9173 51.5592 50.2919 51.5592C50.4758 51.5592 50.6622 51.5124 50.8329 51.4138C51.3513 51.1145 51.529 50.4515 51.2296 49.9331L50.7105 49.0339C51.2538 48.6131 51.742 48.1248 52.1629 47.5815L53.0621 48.1007C53.2328 48.1993 53.4193 48.2461 53.6031 48.2461C53.9778 48.2461 54.3421 48.0517 54.5429 47.7039C54.8422 47.1855 54.6646 46.5225 54.1461 46.2232L53.2502 45.7059C53.5082 45.0792 53.6888 44.4133 53.7821 43.7199H54.8168C55.4154 43.7199 55.9007 43.2345 55.9007 42.6359C55.9007 42.0372 55.4154 41.5519 54.8168 41.5519H53.7821C53.6887 40.8584 53.5082 40.1925 53.2502 39.5658L54.146 39.0485C54.6644 38.7492 54.8421 38.0862 54.5427 37.5678C54.2434 37.0493 53.5803 36.8716 53.062 37.171L52.1629 37.6902C51.742 37.1469 51.2538 36.6587 50.7103 36.2376L51.2295 35.3385C51.5288 34.8201 51.3512 34.1571 50.8328 33.8578C50.3143 33.5583 49.6514 33.7359 49.352 34.2545L48.8348 35.1503C48.2081 34.8923 47.5422 34.7118 46.8488 34.6184V33.584C46.8488 32.9853 46.3634 32.5 45.7648 32.5C45.1661 32.5 44.6808 32.9853 44.6808 33.584V34.6187C43.9873 34.7119 43.3215 34.8926 42.6948 35.1506L42.1775 34.2546C41.8783 33.7362 41.2154 33.5586 40.6969 33.8579C40.1785 34.1572 40.0009 34.8202 40.3002 35.3386L40.8194 36.2379C40.2761 36.6588 39.7878 37.1471 39.367 37.6904L38.4678 37.1712C37.9494 36.8717 37.2864 37.0495 36.9871 37.5679C36.6878 38.0864 36.8654 38.7494 37.3839 39.0487L38.2797 39.566C38.0217 40.1927 37.8412 40.8585 37.7478 41.552H36.7131C36.1144 41.552 35.6291 42.0374 35.6291 42.636C35.6291 43.2345 36.1144 43.7199 36.7131 43.7199ZM45.7648 36.7119C49.0312 36.7119 51.6887 39.3694 51.6887 42.6359C51.6887 45.9023 49.0312 48.5599 45.7648 48.5599C42.4984 48.5599 39.8409 45.9025 39.8409 42.6359C39.8409 39.3693 42.4984 36.7119 45.7648 36.7119Z" fill="white"/>
<path d="M91.6079 59.6033H92.6718C92.8215 60.3856 93.1292 61.1125 93.5618 61.7484L92.8086 62.5017C92.3853 62.9251 92.3853 63.6115 92.8086 64.0347C93.0202 64.2464 93.2977 64.3522 93.5751 64.3522C93.8524 64.3522 94.1299 64.2464 94.3415 64.0347L95.0947 63.2814C95.7306 63.714 96.4575 64.0217 97.2399 64.1714V65.2352C97.2399 65.8338 97.7253 66.3192 98.3239 66.3192C98.9226 66.3192 99.4079 65.8338 99.4079 65.2352V64.1714C100.19 64.0217 100.917 63.714 101.553 63.2814L102.306 64.0347C102.518 64.2464 102.795 64.3522 103.073 64.3522C103.35 64.3522 103.628 64.2464 103.839 64.0347C104.263 63.6113 104.263 62.9251 103.839 62.5017L103.086 61.7484C103.519 61.1125 103.826 60.3856 103.976 59.6033H105.04C105.639 59.6033 106.124 59.1179 106.124 58.5193C106.124 57.9206 105.639 57.4353 105.04 57.4353H103.976C103.826 56.6529 103.519 55.9259 103.086 55.2901L103.839 54.5368C104.263 54.1134 104.263 53.427 103.839 53.0039C103.416 52.5804 102.73 52.5805 102.306 53.0039L101.553 53.7572C100.917 53.3246 100.191 53.017 99.4082 52.8671V51.8032C99.4082 51.2046 98.9229 50.7192 98.3242 50.7192C97.7256 50.7192 97.2402 51.2046 97.2402 51.8032V52.8671C96.4579 53.0169 95.7309 53.3246 95.0951 53.7572L94.3418 53.0039C93.9186 52.5804 93.2322 52.5805 92.8089 53.0039C92.3856 53.4272 92.3856 54.1134 92.8089 54.5368L93.5621 55.2901C93.1295 55.926 92.8218 56.6529 92.672 57.4353H91.6081C91.0095 57.4353 90.5242 57.9206 90.5242 58.5193C90.5242 59.1179 91.0092 59.6033 91.6079 59.6033ZM98.3238 54.9314C100.302 54.9314 101.912 56.541 101.912 58.5194C101.912 60.4978 100.302 62.1075 98.3238 62.1075C96.3454 62.1075 94.7358 60.4978 94.7358 58.5194C94.7358 56.541 96.3454 54.9314 98.3238 54.9314Z" fill="white"/>
<path d="M46.6408 88.5639H45.5769C45.4272 87.7816 45.1194 87.0546 44.6869 86.4188L45.4402 85.6655C45.8635 85.2421 45.8635 84.5559 45.4402 84.1325C45.0168 83.709 44.3305 83.7092 43.9073 84.1325L43.154 84.8858C42.518 84.4533 41.7912 84.1455 41.0087 83.9958V82.932C41.0087 82.3334 40.5234 81.848 39.9247 81.848C39.3261 81.848 38.8407 82.3334 38.8407 82.932V83.9958C38.0584 84.1455 37.3315 84.4533 36.6956 84.8858L35.9423 84.1327C35.519 83.7092 34.8326 83.7093 34.4094 84.1327C33.9861 84.556 33.9861 85.2424 34.4094 85.6656L35.1627 86.4188C34.7301 87.0547 34.4224 87.7816 34.2727 88.5639H33.2091C32.6104 88.5639 32.1251 89.0493 32.1251 89.6479C32.1251 90.2466 32.6104 90.7319 33.2091 90.7319H34.2728C34.4226 91.5143 34.7303 92.2413 35.1628 92.8771L34.4095 93.6303C33.9862 94.0536 33.9862 94.7399 34.4095 95.1632C34.6211 95.3749 34.8986 95.4807 35.176 95.4807C35.4534 95.4807 35.7309 95.3749 35.9424 95.1632L36.6957 94.41C37.3317 94.8426 38.0585 95.1502 38.8409 95.3001V96.364C38.8409 96.9627 39.3262 97.448 39.9249 97.448C40.5235 97.448 41.0088 96.9627 41.0088 96.364V95.3001C41.7912 95.1503 42.5182 94.8426 43.1541 94.41L43.9074 95.1633C44.119 95.3751 44.3965 95.4809 44.6739 95.4809C44.9512 95.4809 45.2287 95.3751 45.4403 95.1633C45.8636 94.74 45.8636 94.0536 45.4403 93.6304L44.687 92.8771C45.1196 92.2412 45.4272 91.5143 45.577 90.7319H46.6409C47.2396 90.7319 47.7249 90.2466 47.7249 89.6479C47.7248 89.0493 47.2394 88.5639 46.6408 88.5639ZM39.9249 93.2358C37.9465 93.2358 36.3369 91.6262 36.3369 89.6478C36.3369 87.6694 37.9465 86.0597 39.9249 86.0597C41.9032 86.0597 43.5128 87.6694 43.5128 89.6478C43.5128 91.6263 41.9032 93.2358 39.9249 93.2358Z" fill="white"/>
<path d="M45.3624 41.7058C45.9611 41.7058 46.4464 41.2205 46.4464 40.6218C46.4464 40.0231 45.9611 39.5378 45.3624 39.5378C44.7637 39.5378 44.2784 40.0231 44.2784 40.6218C44.2784 41.2205 44.7637 41.7058 45.3624 41.7058Z" fill="white"/>
<path d="M43.6685 45.7345C44.2672 45.7345 44.7525 45.2492 44.7525 44.6505C44.7525 44.0518 44.2672 43.5665 43.6685 43.5665C43.0698 43.5665 42.5845 44.0518 42.5845 44.6505C42.5845 45.2492 43.0698 45.7345 43.6685 45.7345Z" fill="white"/>
<path d="M47.8613 44.2841C48.46 44.2841 48.9453 43.7988 48.9453 43.2001C48.9453 42.6014 48.46 42.1161 47.8613 42.1161C47.2627 42.1161 46.7774 42.6014 46.7774 43.2001C46.7774 43.7988 47.2627 44.2841 47.8613 44.2841Z" fill="white"/>
</svg>
