<svg width="98" height="98" viewBox="0 0 98 98" fill="none" xmlns="http://www.w3.org/2000/svg">
<rect x="0.432495" y="0.540527" width="97.1351" height="97.1351" rx="48.5676" fill="#FD8413"/>
<path d="M23.9882 36.4863H25.6863V38.1846H23.9882V36.4863Z" fill="white"/>
<path d="M23.9882 39.8829H25.6863V41.5812H23.9882V39.8829Z" fill="white"/>
<path d="M59.5364 76.3399C45.1484 76.381 37.4711 59.0174 47.1706 48.4166L45.9134 47.2749C42.8351 50.6653 41.1396 55.0565 41.1396 59.6399C41.0929 75.4901 60.2227 83.9523 71.9004 73.264L70.7588 72.0067C67.6818 74.801 63.6962 76.3399 59.5364 76.3399Z" fill="white"/>
<path d="M60.3855 41.2618V39.5999C60.3855 37.8831 58.9888 36.4863 57.2722 36.4863H48.3151C47.9098 32.1049 45.3351 22.0318 40.7025 22.2207C39.49 22.2206 37.9447 22.8679 36.8376 25.6024V20.1826H31.7431V25.6027C30.6371 22.8689 29.0921 22.2206 27.8782 22.2206C22.5112 22.0297 19.9114 35.3331 20.0825 39.301C20.0824 41.9279 20.9931 43.7057 22.7895 44.5852C24.2735 45.3117 26.1424 45.3175 27.7976 45.3175C32.106 45.541 33.4774 38.8642 33.0389 32.407L34.2903 31.7332L35.5418 32.4072C35.1031 38.869 36.476 45.5417 40.7831 45.3175C45.8271 45.4845 48.8876 44.0479 48.4639 38.1847H57.272C58.0523 38.1847 58.6871 38.8196 58.6871 39.6V41.2612C54.4132 41.457 50.3524 43.1278 47.1722 46.0159L48.3138 47.2732C51.3908 44.4788 55.3764 42.94 59.5362 42.94C73.9218 42.8974 81.6025 60.2629 71.902 70.8633L73.1592 72.005C83.6101 60.6067 75.766 41.8953 60.3855 41.2618ZM46.8002 39.301C46.7709 43.7978 43.9024 43.5514 40.7837 43.6192C37.0561 43.5385 37.1604 35.7579 37.1997 33.2997L38.1798 33.8276C38.8883 34.209 39.3284 34.9458 39.3284 35.7503H41.0265C41.0265 34.3201 40.2444 33.0105 38.9851 32.3323L34.2905 29.8042L29.5956 32.3323C28.3365 33.0105 27.5543 34.3202 27.5543 35.7503H29.2525C29.2525 34.9458 29.6925 34.209 30.4009 33.8276L31.3813 33.2996C31.4214 35.7541 31.5235 43.5404 27.7974 43.6192C24.6869 43.5569 21.8021 43.787 21.7806 39.301C21.7806 36.9792 22.3328 33.0543 23.5666 29.5198C25.6555 23.3778 29.0869 21.6235 30.6431 27.6923L28.7422 28.6972C28.0381 29.0695 27.1748 28.9963 26.5436 28.5106L25.5081 29.8567C26.6672 30.7487 28.2503 30.8791 29.536 30.1987L31.7831 29.0107C32.8058 28.47 33.4412 27.4151 33.4412 26.2581V21.881H35.1393V26.2581C35.1393 27.4151 35.7747 28.4699 36.7975 29.0107L39.0444 30.1985C40.3347 30.8808 41.9155 30.7466 43.0724 29.8566L42.0369 28.5105C41.4055 28.9962 40.5427 29.0695 39.8382 28.697L37.9372 27.692C39.4946 21.6278 42.9227 23.3723 45.0142 29.5198C45.8326 31.8642 46.3507 34.38 46.607 36.4862H43.0075V38.1845H46.7638C46.788 38.5866 46.8002 38.9613 46.8002 39.301Z" fill="white"/>
<path d="M65.9894 57.4321C67.4564 57.4321 68.6499 56.2385 68.6499 54.7714C68.5037 51.2417 63.4746 51.2427 63.329 54.7714C63.329 56.2385 64.5225 57.4321 65.9894 57.4321ZM65.9894 53.809C66.5201 53.809 66.9517 54.2408 66.9517 54.7714C66.8989 56.0481 65.0799 56.0478 65.0272 54.7714C65.0272 54.2408 65.4588 53.809 65.9894 53.809Z" fill="white"/>
<path d="M53.9891 62.527C52.5221 62.527 51.3286 63.7206 51.3286 65.1877C51.4748 68.7175 56.504 68.7164 56.6495 65.1877C56.6495 63.7206 55.4561 62.527 53.9891 62.527ZM53.9891 66.1501C53.4585 66.1501 53.0268 65.7184 53.0268 65.1877C53.0797 63.911 54.8986 63.9114 54.9514 65.1877C54.9514 65.7183 54.5196 66.1501 53.9891 66.1501Z" fill="white"/>
<path d="M58.9138 54.2619C60.5992 54.2619 61.9705 52.8906 61.9705 51.205C61.8026 47.1495 56.0244 47.1507 55.8571 51.205C55.8571 52.8905 57.2283 54.2619 58.9138 54.2619ZM58.9138 49.8463C59.6629 49.8463 60.2723 50.4558 60.2723 51.205C60.1977 53.0074 57.6295 53.0069 57.5552 51.205C57.5552 50.4557 58.1645 49.8463 58.9138 49.8463Z" fill="white"/>
<path d="M57.7817 68.188C57.7817 69.8737 59.1529 71.245 60.8383 71.245C64.8935 71.0771 64.8923 65.2984 60.8383 65.1311C59.1529 65.1311 57.7817 66.5024 57.7817 68.188ZM62.1969 68.188C62.1969 68.9372 61.5875 69.5467 60.8383 69.5467C59.036 69.4721 59.0366 66.9037 60.8383 66.8294C61.5875 66.8294 62.1969 67.4387 62.1969 68.188Z" fill="white"/>
<path d="M59.9893 56.7528C58.5223 56.7528 57.3288 57.9464 57.3288 59.4135C57.475 62.9432 62.5041 62.9422 62.6497 59.4135C62.6497 57.9464 61.4563 56.7528 59.9893 56.7528ZM59.9893 60.3758C59.4586 60.3758 59.027 59.9441 59.027 59.4135C59.0798 58.1368 60.8988 58.1371 60.9516 59.4135C60.9516 59.944 60.5198 60.3758 59.9893 60.3758Z" fill="white"/>
<path d="M55.9703 57.1491C55.9703 55.12 54.3198 53.4694 52.2909 53.4694C47.4097 53.6715 47.4112 60.6274 52.2909 60.8287C54.3197 60.8287 55.9703 59.1781 55.9703 57.1491ZM50.3097 57.1491C50.3097 56.0566 51.1985 55.1677 52.2909 55.1677C54.9192 55.2765 54.9184 59.0219 52.2909 59.1304C51.1984 59.1304 50.3097 58.2415 50.3097 57.1491Z" fill="white"/>
<path d="M63.7818 62.5836C63.7818 64.6127 65.4323 66.2633 67.4612 66.2633C72.3424 66.0612 72.3409 59.1053 67.4612 58.904C65.4323 58.904 63.7818 60.5546 63.7818 62.5836ZM69.4424 62.5836C69.4424 63.6761 68.5536 64.565 67.4612 64.565C64.8329 64.4562 64.8337 60.7107 67.4612 60.6023C68.5536 60.6023 69.4424 61.4911 69.4424 62.5836Z" fill="white"/>
<path d="M59.5364 74.6416C67.8077 74.6416 74.5369 67.9119 74.5369 59.6399C73.7128 39.7381 45.357 39.7439 44.536 59.64C44.536 67.9118 51.2651 74.6416 59.5364 74.6416ZM59.5364 46.3365C66.8714 46.3365 72.8387 52.3044 72.8387 59.6399C72.108 77.2887 46.9621 77.2835 46.2341 59.6398C46.2341 52.3043 52.2015 46.3365 59.5364 46.3365Z" fill="white"/>
</svg>
