<svg width="98" height="98" viewBox="0 0 98 98" fill="none" xmlns="http://www.w3.org/2000/svg">
<rect x="0.432495" width="97.1351" height="97.1351" rx="48.5676" fill="#FD8413"/>
<path d="M59.2863 66.0977C56.7094 66.0977 54.5063 65.3555 52.9386 63.8158C48.5083 59.4644 50.5491 50.1455 57.7915 41.6576C58.5488 40.7722 59.6633 40.235 60.8506 40.1838C62.0504 40.1415 63.2269 40.5801 64.0737 41.4118L64.9304 42.2541C65.2619 42.5796 65.2619 43.1078 64.9304 43.4325C64.599 43.758 64.0621 43.758 63.7307 43.4325L62.8739 42.5902C62.3619 42.0881 61.6526 41.8146 60.9243 41.8496C60.201 41.8806 59.5497 42.1922 59.0915 42.7285C52.5351 50.4125 50.4057 58.9712 54.1384 62.6374C57.8653 66.2979 66.5751 64.2048 74.4001 57.7709C74.9494 57.3176 75.2692 56.6771 75.3007 55.9675C75.3322 55.2538 75.0555 54.5547 74.5401 54.0485L73.6834 53.2071C73.352 52.8815 73.352 52.3542 73.6834 52.0287C74.0148 51.7031 74.5517 51.7031 74.8831 52.0287L75.7399 52.8701C76.5908 53.7059 77.0482 54.8607 76.996 56.0399C76.9446 57.2045 76.3961 58.3006 75.4905 59.0477C69.9101 63.6359 63.9792 66.0977 59.2863 66.0977Z" fill="white"/>
<path d="M72.7852 54.064C71.9898 54.064 71.2433 53.758 70.6848 53.2038C70.1288 52.6642 69.8181 51.9351 69.8156 51.1579C69.8132 50.3775 70.123 49.6418 70.6881 49.0868C71.2433 48.5358 71.989 48.2307 72.7844 48.2307C73.5806 48.2307 74.3272 48.5358 74.8856 49.0892C75.4474 49.6418 75.7573 50.3775 75.7548 51.1579C75.7531 51.9335 75.4432 52.661 74.8831 53.2071C74.3247 53.7596 73.5798 54.064 72.7852 54.064ZM72.7852 49.8973C72.4455 49.8973 72.1282 50.0267 71.8912 50.2619C71.6451 50.5036 71.5117 50.8194 71.5125 51.1538C71.5134 51.4834 71.6459 51.7935 71.8846 52.0254C72.1282 52.2671 72.4455 52.3973 72.7852 52.3973C73.1249 52.3973 73.4423 52.2671 73.6801 52.0319L73.6867 52.0254C73.9253 51.7935 74.0571 51.4834 74.0579 51.1538C74.0587 50.8194 73.9261 50.5036 73.6834 50.2652C73.4431 50.0267 73.1249 49.8973 72.7852 49.8973Z" fill="white"/>
<path d="M65.8303 47.2281C65.0705 47.2281 64.3115 46.9473 63.734 46.3858C63.1681 45.8299 62.8582 45.0967 62.8582 44.3179C62.8582 43.5391 63.1681 42.8058 63.7307 42.2541C64.8923 41.1262 66.774 41.1262 67.9307 42.2508C67.9331 42.2533 67.9348 42.2549 67.9373 42.2573C69.0824 43.3934 69.0824 45.2424 67.9373 46.3793C67.3548 46.9457 66.5917 47.2281 65.8303 47.2281ZM65.8319 43.072C65.5046 43.072 65.1773 43.1932 64.9271 43.4357C64.6885 43.6701 64.5551 43.9842 64.5551 44.3179C64.5551 44.6516 64.6885 44.9665 64.9304 45.2041C65.4276 45.6851 66.2387 45.6851 66.7375 45.2009C67.2239 44.7183 67.2247 43.9232 66.7342 43.4325C66.4856 43.1916 66.1592 43.072 65.8319 43.072Z" fill="white"/>
<path d="M51.8922 68.0085C51.0404 68.0085 50.2334 67.6765 49.6169 67.0726C48.3484 65.8267 48.3484 63.8011 49.6161 62.556L51.5607 60.646C51.8922 60.3205 52.4291 60.3205 52.7605 60.646C53.0919 60.9715 53.0919 61.4989 52.7605 61.8244L50.8159 63.7344C50.5217 64.0241 50.3593 64.4074 50.3593 64.8135C50.3593 65.2204 50.5217 65.6037 50.8159 65.8934C51.1108 66.1831 51.4936 66.3418 51.893 66.3418H51.9071C52.3305 66.3386 52.7232 66.1791 53.0157 65.8926L54.9595 63.9834C55.2909 63.6579 55.8278 63.6579 56.1593 63.9834C56.4907 64.3089 56.4907 64.8363 56.1593 65.1618L54.2146 67.0718C53.6056 67.6691 52.792 68.0012 51.922 68.0085C51.912 68.0085 51.9021 68.0085 51.8922 68.0085Z" fill="white"/>
<path d="M38.9119 72.4966C36.4726 72.4966 34.2703 71.7414 32.6687 70.1683C29.3494 66.9082 29.4919 61.1074 33.0249 55.7347C33.2793 55.3474 33.8046 55.2367 34.1974 55.4865C34.5918 55.7363 34.7044 56.2515 34.4501 56.638C31.3628 61.3353 31.1284 66.2987 33.8684 68.9899C37.3418 72.4014 44.4061 71.0122 49.6178 65.895C49.9492 65.5695 50.4861 65.5695 50.8175 65.895C51.1489 66.2206 51.1489 66.7479 50.8175 67.0734C47.2199 70.607 42.7697 72.4966 38.9119 72.4966Z" fill="white"/>
<path d="M37.7353 58.6579C36.0666 58.6579 34.3979 58.0337 33.1277 56.7862C30.5873 54.291 30.5873 50.231 33.1277 47.7359C35.6689 45.2416 39.8026 45.2424 42.3421 47.7367C43.5709 48.9435 44.2478 50.5508 44.2478 52.2614C44.2478 53.9728 43.5709 55.5793 42.3421 56.7862C41.072 58.0337 39.4032 58.6579 37.7353 58.6579ZM37.7345 47.5308C36.5008 47.5308 35.267 47.9922 34.3274 48.9142C32.4483 50.76 32.4483 53.7621 34.3274 55.6078C36.2075 57.4543 39.264 57.4527 41.1424 55.6078C42.0505 54.7158 42.5509 53.5277 42.5509 52.2614C42.5509 50.996 42.0505 49.8078 41.1424 48.9151C40.2028 47.9922 38.9682 47.5308 37.7345 47.5308Z" fill="white"/>
<path d="M37.7345 54.9494C37.0037 54.9494 36.316 54.6703 35.799 54.1625C34.7318 53.1143 34.7318 51.4085 35.799 50.3604C36.8338 49.3439 38.6385 49.3456 39.67 50.3604C40.7372 51.4085 40.7372 53.1143 39.67 54.1625C39.1538 54.6703 38.4661 54.9494 37.7345 54.9494ZM37.7345 51.2401C37.4569 51.2401 37.1951 51.3459 36.9987 51.5388C36.5927 51.9375 36.5927 52.5853 36.9987 52.9841C37.3915 53.3698 38.0775 53.369 38.4703 52.9841C38.8763 52.5853 38.8763 51.9375 38.4703 51.5388C38.2739 51.3459 38.0129 51.2401 37.7345 51.2401Z" fill="white"/>
<path d="M55.1758 76.0676H23.5967C22.165 76.0676 21 74.9242 21 73.5179V29.676C21 28.2697 22.165 27.1263 23.5967 27.1263H30.7232C31.1922 27.1263 31.5716 27.499 31.5716 27.9597C31.5716 28.4203 31.1922 28.793 30.7232 28.793H23.5967C23.1004 28.793 22.6969 29.1893 22.6969 29.676V73.5179C22.6969 73.9964 23.1087 74.4009 23.5967 74.4009H55.1758C55.6629 74.4009 56.0747 73.9964 56.0747 73.5179V65.0096C56.0747 64.549 56.4542 64.1763 56.9232 64.1763C57.3922 64.1763 57.7716 64.549 57.7716 65.0096V73.5179C57.7716 74.9242 56.6075 76.0676 55.1758 76.0676Z" fill="white"/>
<path d="M56.9232 44.9266C56.4542 44.9266 56.0747 44.5539 56.0747 44.0933V29.676C56.0747 29.1893 55.6712 28.793 55.1758 28.793H48.0485C47.5795 28.793 47.2 28.4203 47.2 27.9597C47.2 27.499 47.5795 27.1263 48.0485 27.1263H55.1758C56.6075 27.1263 57.7716 28.2697 57.7716 29.676V44.0933C57.7716 44.5539 57.3922 44.9266 56.9232 44.9266Z" fill="white"/>
<path d="M46.4792 31.4704H32.2908C30.9593 31.4704 29.8756 30.4059 29.8756 29.0982V26.822C29.8756 25.5142 30.9593 24.4505 32.2908 24.4505H35.1809C35.5753 22.5235 37.3086 21.0676 39.3809 21.0676C41.4572 21.0676 43.1939 22.5235 43.5883 24.4505H46.4792C47.8107 24.4505 48.8944 25.5142 48.8944 26.822V29.0982C48.8944 30.4059 47.8107 31.4704 46.4792 31.4704ZM32.2908 26.1172C31.8948 26.1172 31.5725 26.433 31.5725 26.822V29.0982C31.5725 29.4872 31.8948 29.8037 32.2908 29.8037H46.4792C46.8752 29.8037 47.1975 29.4872 47.1975 29.0982V26.822C47.1975 26.433 46.8752 26.1172 46.4792 26.1172H42.8244C42.3554 26.1172 41.9759 25.7445 41.9759 25.2839C41.9759 23.8776 40.8118 22.7342 39.3809 22.7342C37.9549 22.7342 36.7941 23.8776 36.7941 25.2839C36.7941 25.7445 36.4146 26.1172 35.9456 26.1172H32.2908Z" fill="white"/>
<path d="M39.3858 35.9683H26.4304C25.9614 35.9683 25.582 35.5956 25.582 35.1349C25.582 34.6743 25.9614 34.3016 26.4304 34.3016H39.3858C39.8548 34.3016 40.2343 34.6743 40.2343 35.1349C40.2343 35.5956 39.8548 35.9683 39.3858 35.9683Z" fill="white"/>
<path d="M52.3421 39.6939H26.4304C25.9614 39.6939 25.582 39.3211 25.582 38.8605C25.582 38.3999 25.9614 38.0272 26.4304 38.0272H52.3421C52.811 38.0272 53.1905 38.3999 53.1905 38.8605C53.1905 39.3211 52.811 39.6939 52.3421 39.6939Z" fill="white"/>
<path d="M52.3421 43.4195H26.4304C25.9614 43.4195 25.582 43.0467 25.582 42.5861C25.582 42.1255 25.9614 41.7528 26.4304 41.7528H52.3421C52.811 41.7528 53.1905 42.1255 53.1905 42.5861C53.1905 43.0467 52.811 43.4195 52.3421 43.4195Z" fill="white"/>
</svg>
