<svg width="197" height="81" viewBox="0 0 197 81" fill="none" xmlns="http://www.w3.org/2000/svg">
<g clip-path="url(#clip0_2020_4438)">
<path d="M15.7169 50.7847C16.7834 48.9961 18.4732 45.562 19.5986 42.383C21.0356 38.3271 23.3348 32.9891 26.1256 30.5926C26.4027 30.3551 26.7385 30.1105 27.1125 29.866H9.60193C8.19609 29.866 7.05688 31.0153 7.05688 32.4337V53.0695H14.5916L15.7135 50.7847H15.7169Z" fill="#9DD8DE"/>
<path d="M74.4398 23.962H63.0547C62.9993 23.962 62.9473 23.9934 62.9196 24.0424L61.261 27.1795C60.011 29.2197 58.1758 32.9017 56.8739 36.5769C55.1391 41.4747 53.1619 45.2057 51.583 46.5611C50.1563 47.7838 45.416 49.7402 43.1099 50.5996L43.0129 50.6205C42.8744 50.6275 42.7047 50.6205 42.5524 50.5996L41.8114 50.5122L42.3931 50.0406C43.0856 49.4747 44.4049 48.6118 45.3675 47.983C48.5705 45.8869 50.7242 44.4022 51.5726 42.8231C53.1307 39.9236 52.3586 33.0485 51.7353 32.8633C49.211 32.1122 45.2706 39.6406 43.4838 37.6913C43.148 37.3245 52.8156 27.176 56.2817 23.686C56.95 23.0118 57.3898 22.5856 57.4798 22.5262V6.85808C57.4798 3.34716 54.6578 0.5 51.1778 0.5H29.5502C26.0702 0.5 23.2482 3.34716 23.2482 6.85808V23.8083C23.2482 23.8921 23.1789 23.962 23.0958 23.962H6.30201C2.82205 23.962 0 26.8092 0 30.3201V50.6764C0 54.1873 2.82205 57.0345 6.30201 57.0345H17.6872C17.7426 57.0345 17.7945 57.0031 17.8222 56.9541L19.4808 53.817C20.7308 51.7769 22.566 48.0948 23.868 44.4197C25.6028 39.5218 27.5799 35.7908 29.1589 34.4354C30.5855 33.2127 35.3259 31.2563 37.632 30.3969L37.7289 30.376C37.8674 30.369 38.0371 30.376 38.1895 30.3969L38.9305 30.4843L38.3487 30.9559C37.6562 31.5218 36.3369 32.3847 35.3743 33.0135C32.1714 35.1096 30.0176 36.5943 29.1693 38.1734C27.6111 41.0729 28.3833 47.948 29.0065 48.1332C31.5308 48.8843 35.4713 41.3559 37.258 43.3052C37.5939 43.6721 27.9262 53.8205 24.4601 57.3105C23.7918 57.9847 23.352 58.4109 23.262 58.4703V74.1384C23.262 77.6493 26.0841 80.4965 29.564 80.4965H51.1917C54.6716 80.4965 57.4937 77.6493 57.4937 74.1384V57.1882C57.4937 57.1044 57.5629 57.0345 57.646 57.0345H74.4468C77.9267 57.0345 80.7488 54.1873 80.7488 50.6764V30.3201C80.7488 26.8092 77.9267 23.962 74.4468 23.962H74.4398ZM76.8083 50.6764C76.8083 51.9969 75.7487 53.0659 74.4398 53.0659H53.7056C53.6224 53.0659 53.5532 53.1358 53.5532 53.2197V74.1384C53.5532 75.4589 52.4936 76.5279 51.1847 76.5279H29.5571C28.2482 76.5279 27.1886 75.4589 27.1886 74.1384V59.2738L27.2718 59.183C29.6194 56.6432 37.3688 48.245 38.4907 46.7323C39.4949 45.3838 41.0115 43.3437 39.0759 41.3943C37.7843 40.0913 36.1465 40.3952 35.3813 40.783L31.2503 43.7L31.2711 43.0677C31.323 41.5236 31.5412 40.3847 31.9186 39.6825C32.4068 38.7742 34.7234 37.2092 37.0537 35.6825C40.1943 33.6284 41.5863 32.6677 41.7664 31.3332C41.9776 29.7751 41.3959 28.8214 40.873 28.2974C39.5572 26.9769 38.2275 27.0537 37.8293 27.1131L36.9256 27.2808L36.7732 27.3367C36.0218 27.6127 29.3597 30.1 27.1194 32.0214C24.5051 34.2642 22.2994 39.4205 20.9074 43.3507C19.4877 47.3611 17.2613 51.6371 16.2883 52.9402L16.1948 53.0659H6.30201C4.99313 53.0659 3.93356 51.9969 3.93356 50.6764V30.3201C3.93356 28.9996 4.99313 27.9306 6.30201 27.9306H27.0363C27.1194 27.9306 27.1886 27.8607 27.1886 27.7769V6.85808C27.1886 5.53755 28.2482 4.46856 29.5571 4.46856H51.1847C52.4936 4.46856 53.5532 5.53755 53.5532 6.85808V21.7227L53.4701 21.8135C51.1224 24.3533 43.373 32.7515 42.2511 34.2642C41.247 35.6127 39.7303 37.6528 41.6659 39.6022C42.9575 40.9052 44.5953 40.6013 45.3606 40.2135L49.4915 37.2965L49.4707 37.9288C49.4188 39.4729 49.2007 40.6118 48.8232 41.314C48.335 42.2223 46.0185 43.7873 43.6881 45.314C40.5475 47.3681 39.1555 48.3288 38.9755 49.6633C38.7643 51.2214 39.3945 52.1297 39.8688 52.6991C41.1639 54.2502 44.0482 53.6284 44.0482 53.6284C44.0482 53.6284 51.3821 50.8965 53.6259 48.9751C56.2402 46.7323 58.4459 41.576 59.8379 37.6459C61.2576 33.6354 63.484 29.3594 64.457 28.0563L64.5505 27.9306H74.4433C75.7522 27.9306 76.8117 28.9996 76.8117 30.3201V50.6764H76.8083Z" fill="white"/>
<path d="M44.3495 76.5315H51.1848C52.4936 76.5315 53.5532 75.4625 53.5532 74.142V53.2232C53.5532 53.1393 53.6225 53.0695 53.7056 53.0695H74.4399C75.7487 53.0695 76.8083 52.0005 76.8083 50.6799V30.3236C76.8083 30.2293 76.791 30.1385 76.7806 30.0476C76.4101 29.9323 76.0223 29.866 75.6137 29.866H65.3712L65.1392 30.3411C64.0727 32.1297 62.3829 35.5638 61.2576 38.7428C59.8206 42.7987 58.0269 48.1053 55.2326 50.5018C52.8953 52.507 44.2179 55.5428 44.2179 55.5428C41.1847 56.5524 40.6099 53.859 39.9831 52.8249C39.9416 52.783 39.9 52.7446 39.8619 52.7027C39.81 52.6433 39.7581 52.5734 39.7061 52.507C39.6853 52.493 39.668 52.4756 39.6472 52.4651H39.6749C39.2387 51.8922 38.7851 51.0293 38.9686 49.6669C39.1486 48.3358 40.5441 47.3716 43.6812 45.3175C46.0116 43.7944 48.3281 42.2293 48.8163 41.3175C49.1937 40.6153 49.4084 39.4765 49.4638 37.9324L49.4846 37.3L45.3537 40.2171C44.5884 40.6013 42.9506 40.9053 41.659 39.6057C39.7269 37.6564 41.2435 35.6162 42.2442 34.2677C43.3661 32.7551 51.1155 24.3568 53.4632 21.8171L53.5463 21.7262V7.26685H31.8736C30.537 7.26685 29.4498 8.3603 29.4498 9.71226V28.5489C32.1299 27.204 34.8792 25.5131 37.5385 25.5201C39.6161 25.5236 40.1736 27.2703 40.7345 28.1716C40.7795 28.2136 40.8245 28.252 40.8696 28.2974C40.9665 28.3917 41.06 28.507 41.1535 28.6328C41.1673 28.6398 41.1812 28.6537 41.1985 28.6607H41.1708C41.5863 29.2197 41.9326 30.0756 41.7629 31.3332C41.5829 32.6642 40.1874 33.6284 37.0503 35.6826C34.7199 37.2057 32.4034 38.7708 31.9152 39.6826C31.5377 40.3848 31.3231 41.5236 31.2677 43.0677L31.2469 43.7L35.3778 40.783C36.1431 40.3987 37.7809 40.0948 39.0724 41.3944C41.0046 43.3437 39.488 45.3839 38.4873 46.7323C37.5108 48.0424 31.5516 54.5437 28.456 57.8974H29.4532V76.5175C29.4879 76.5175 29.519 76.528 29.5537 76.528H44.3461L44.3495 76.5315Z" fill="#9DD8DE"/>
<path d="M96.2614 36.1367C94.4643 35.1411 93.0585 33.7577 92.037 31.99C91.0121 30.2223 90.5031 28.2415 90.5031 26.0477C90.5031 23.8538 91.0121 21.8765 92.037 20.1088C93.0585 18.3411 94.4712 16.9577 96.2787 15.9586C98.0862 14.9594 100.105 14.4634 102.345 14.4634C104.025 14.4634 105.569 14.7429 106.989 15.3088C108.408 15.8747 109.613 16.6992 110.6 17.7822L109.087 19.3123C107.321 17.5097 105.095 16.6118 102.408 16.6118C100.621 16.6118 99.0004 17.0241 97.5357 17.8485C96.0744 18.673 94.9248 19.8014 94.0973 21.2337C93.2697 22.6625 92.8542 24.273 92.8542 26.0477C92.8542 27.8223 93.2697 29.4328 94.0973 30.8651C94.9248 32.2939 96.071 33.4258 97.5357 34.2503C98.9969 35.0747 100.621 35.487 102.408 35.487C105.115 35.487 107.342 34.5752 109.087 32.7551L110.6 34.2817C109.613 35.3682 108.401 36.1961 106.971 36.7726C105.541 37.349 103.987 37.6354 102.307 37.6354C100.07 37.6354 98.0551 37.1359 96.258 36.1367H96.2614Z" fill="white"/>
<path d="M131.992 35.3577V37.4398H116.023V14.6555H131.508V16.7411H118.408V24.8459H130.088V26.8966H118.408V35.3612H131.989L131.992 35.3577Z" fill="white"/>
<path d="M153.156 16.7411C154.79 18.128 155.608 20.0389 155.608 22.4704C155.608 24.9018 154.787 26.8022 153.156 28.1822C151.522 29.5586 149.264 30.2468 146.38 30.2468H140.313V37.4398H137.927V14.6555H146.38C149.264 14.6555 151.522 15.3507 153.156 16.7411ZM151.446 26.652C152.626 25.6634 153.218 24.2695 153.218 22.4704C153.218 20.6712 152.626 19.211 151.446 18.2223C150.261 17.2337 148.551 16.7411 146.314 16.7411H140.313V28.1332H146.314C148.551 28.1332 150.261 27.6372 151.446 26.652Z" fill="white"/>
<path d="M174.126 31.3542H161.546L158.838 37.4398H156.356L166.678 14.6555H169.032L179.354 37.4398H176.837L174.129 31.3542H174.126ZM173.253 29.4014L167.834 17.1638L162.415 29.4014H173.253Z" fill="white"/>
<path d="M186.674 16.7411H178.738V14.6555H196.997V16.7411H189.06V37.4433H186.674V16.7411Z" fill="white"/>
<path d="M93.6436 67.2668C92.0301 66.7952 90.735 66.1803 89.7551 65.4223L91.4726 61.5795C92.4109 62.2712 93.5225 62.8266 94.814 63.2493C96.1056 63.6685 97.3937 63.8816 98.6852 63.8816C100.122 63.8816 101.185 63.6651 101.871 63.2354C102.556 62.8057 102.899 62.2327 102.899 61.5166C102.899 60.9926 102.695 60.5559 102.293 60.21C101.888 59.8642 101.365 59.5882 100.732 59.3751C100.098 59.1655 99.2358 58.9349 98.1555 58.6799C96.4899 58.2816 95.1257 57.8834 94.0626 57.4851C92.9996 57.0834 92.0889 56.4441 91.3306 55.5637C90.5688 54.6834 90.1879 53.5061 90.1879 52.0354C90.1879 50.7533 90.5307 49.5934 91.2198 48.5524C91.9054 47.5113 92.9407 46.6869 94.3258 46.079C95.7108 45.4712 97.4041 45.1672 99.402 45.1672C100.797 45.1672 102.158 45.3349 103.495 45.6738C104.828 46.0092 105.995 46.4913 106.992 47.1236L105.43 50.9978C103.408 49.845 101.39 49.2651 99.3709 49.2651C97.9546 49.2651 96.9089 49.4991 96.2337 49.9602C95.5585 50.4214 95.2157 51.0327 95.2157 51.7873C95.2157 52.5419 95.607 53.1078 96.3861 53.4747C97.1651 53.8415 98.3598 54.2048 99.963 54.5611C101.628 54.9594 102.993 55.3576 104.056 55.7594C105.119 56.1576 106.03 56.7864 106.788 57.6493C107.546 58.5122 107.931 59.679 107.931 61.1463C107.931 62.4039 107.581 63.5568 106.885 64.5943C106.185 65.6354 105.14 66.4598 103.748 67.0677C102.352 67.679 100.655 67.9795 98.6576 67.9795C96.9297 67.9795 95.2607 67.7419 93.6471 67.2703L93.6436 67.2668Z" fill="white"/>
<path d="M128.325 63.5009V67.5952H111.4V45.5376H127.92V49.6354H116.428V54.4249H126.58V58.3935H116.428V63.4974H128.325V63.5009Z" fill="white"/>
<path d="M152.405 45.541V67.5987H147.346V58.5541H137.415V67.5987H132.356V45.541H137.415V54.2397H147.346V45.541H152.405Z" fill="white"/>
<path d="M171.982 62.872H161.83L159.894 67.5987H154.711L164.455 45.541H169.451L179.226 67.5987H173.918L171.982 62.872ZM170.39 58.9943L166.923 50.5506L163.457 58.9943H170.39Z" fill="white"/>
<path d="M184.947 49.6983H177.949V45.5376H197V49.6983H190.002V67.5952H184.943V49.6983H184.947Z" fill="white"/>
</g>
<defs>
<clipPath id="clip0_2020_4438">
<rect width="197" height="80" fill="white" transform="translate(0 0.5)"/>
</clipPath>
</defs>
</svg>
