<svg width="117" height="48" viewBox="0 0 117 48" fill="none" xmlns="http://www.w3.org/2000/svg">
<rect width="117" height="48" fill="#1E1E1E"/>
<g id="Mobile" clip-path="url(#clip0_0_1)">
<rect width="390" height="5298" transform="translate(-38 -4253)" fill="white"/>
<g id="Frame 758531280">
<g id="Frame 758531238">
<rect width="390" height="1043" transform="translate(-38 -41)" fill="#00B2AE"/>
<g id="Frame 758531237">
<g id="Frame 758531236">
<g id="Frame 58">
<g id="logo-white" clip-path="url(#clip1_0_1)">
<g id="Group">
<path id="Vector" d="M10.2401 29.7668C10.8681 28.716 11.8631 26.6985 12.5257 24.8308C13.3718 22.448 14.7257 19.3119 16.3691 17.904C16.5322 17.7644 16.7299 17.6207 16.9501 17.4771H6.63935C5.81155 17.4771 5.14075 18.1523 5.14075 18.9856V31.1091H9.57743L10.238 29.7668H10.2401Z" fill="#9DD8DE"/>
<path id="Vector_2" d="M44.8181 14.0085H38.1141C38.0815 14.0085 38.0509 14.027 38.0346 14.0557L37.058 15.8988C36.3219 17.0974 35.2413 19.2606 34.4747 21.4198C33.4532 24.2972 32.2889 26.4892 31.3592 27.2855C30.5192 28.0039 27.7279 29.1532 26.37 29.6581L26.3129 29.6704C26.2313 29.6745 26.1314 29.6704 26.0417 29.6581L25.6054 29.6068L25.9479 29.3297C26.3557 28.9972 27.1325 28.4903 27.6993 28.1209C29.5853 26.8894 30.8535 26.0171 31.3531 25.0895C32.2706 23.386 31.8159 19.3468 31.4489 19.2381C29.9625 18.7968 27.6423 23.2197 26.5902 22.0745C26.3924 21.859 32.085 15.8967 34.126 13.8464C34.5195 13.4503 34.7785 13.1999 34.8315 13.165V3.95998C34.8315 1.89732 33.1698 0.224609 31.1206 0.224609H18.3856C16.3365 0.224609 14.6748 1.89732 14.6748 3.95998V13.9182C14.6748 13.9675 14.634 14.0085 14.585 14.0085H4.6963C2.64719 14.0085 0.985474 15.6812 0.985474 17.7439V29.7033C0.985474 31.7659 2.64719 33.4386 4.6963 33.4386H11.4003C11.4329 33.4386 11.4635 33.4202 11.4798 33.3914L12.4564 31.5484C13.1925 30.3498 14.2731 28.1865 15.0397 26.0274C16.0612 23.1499 17.2254 20.958 18.1552 20.1616C18.9952 19.4433 21.7865 18.294 23.1444 17.7891L23.2015 17.7767C23.2831 17.7726 23.383 17.7767 23.4727 17.7891L23.909 17.8404L23.5665 18.1174C23.1587 18.4499 22.3818 18.9569 21.815 19.3263C19.929 20.5578 18.6608 21.43 18.1613 22.3577C17.2438 24.0612 17.6985 28.1003 18.0655 28.2091C19.5518 28.6504 21.8721 24.2274 22.9242 25.3727C23.122 25.5882 17.4293 31.5504 15.3884 33.6008C14.9949 33.9969 14.7359 34.2473 14.6829 34.2822V43.4872C14.6829 45.5498 16.3446 47.2226 18.3937 47.2226H31.1288C33.1779 47.2226 34.8396 45.5498 34.8396 43.4872V33.5289C34.8396 33.4797 34.8804 33.4386 34.9293 33.4386H44.8222C46.8713 33.4386 48.533 31.7659 48.533 29.7033V17.7439C48.533 15.6812 46.8713 14.0085 44.8222 14.0085H44.8181ZM46.2127 29.7033C46.2127 30.4791 45.5888 31.1071 44.8181 31.1071H32.609C32.5601 31.1071 32.5193 31.1481 32.5193 31.1974V43.4872C32.5193 44.263 31.8954 44.891 31.1247 44.891H18.3897C17.6189 44.891 16.995 44.263 16.995 43.4872V34.7542L17.044 34.7009C18.4264 33.2088 22.9894 28.2748 23.6501 27.3861C24.2413 26.5939 25.1344 25.3953 23.9946 24.25C23.2341 23.4845 22.2697 23.663 21.8191 23.8909L19.3867 25.6046L19.3989 25.2331C19.4295 24.326 19.558 23.6569 19.7802 23.2443C20.0677 22.7107 21.4317 21.7912 22.8039 20.8943C24.6532 19.6875 25.4728 19.1231 25.5789 18.3391C25.7032 17.4237 25.3607 16.8634 25.0528 16.5556C24.278 15.7798 23.4951 15.8249 23.2606 15.8598L22.7285 15.9583L22.6388 15.9912C22.1963 16.1533 18.2734 17.6146 16.9543 18.7434C15.4149 20.0611 14.1161 23.0904 13.2964 25.3994C12.4605 27.7555 11.1495 30.2677 10.5765 31.0332L10.5215 31.1071H4.6963C3.92559 31.1071 3.30168 30.4791 3.30168 29.7033V17.7439C3.30168 16.9681 3.92559 16.3401 4.6963 16.3401H16.9053C16.9543 16.3401 16.995 16.299 16.995 16.2498V3.95998C16.995 3.18417 17.6189 2.55614 18.3897 2.55614H31.1247C31.8954 2.55614 32.5193 3.18417 32.5193 3.95998V12.6929L32.4704 12.7463C31.088 14.2384 26.5249 19.1724 25.8643 20.0611C25.273 20.8533 24.38 22.0519 25.5197 23.1971C26.2803 23.9627 27.2447 23.7841 27.6953 23.5563L30.1277 21.8426L30.1155 22.214C30.0849 23.1212 29.9564 23.7903 29.7342 24.2028C29.4467 24.7364 28.0827 25.6559 26.7105 26.5528C24.8612 27.7596 24.0415 28.324 23.9355 29.1081C23.8111 30.0234 24.1822 30.5571 24.4615 30.8916C25.2241 31.8029 26.9225 31.4375 26.9225 31.4375C26.9225 31.4375 31.2409 29.8326 32.5622 28.7037C34.1015 27.3861 35.4003 24.3567 36.22 22.0478C37.0559 19.6916 38.3669 17.1795 38.9399 16.414L38.9949 16.3401H44.8201C45.5908 16.3401 46.2147 16.9681 46.2147 17.7439V29.7033H46.2127Z" fill="white"/>
<path id="Vector_3" d="M27.1 44.893H31.1248C31.8955 44.893 32.5194 44.265 32.5194 43.4892V31.1994C32.5194 31.1502 32.5602 31.1091 32.6091 31.1091H44.8181C45.5888 31.1091 46.2127 30.4811 46.2127 29.7053V17.7459C46.2127 17.6905 46.2026 17.6371 46.1964 17.5838C45.9783 17.5161 45.7499 17.4771 45.5093 17.4771H39.4782L39.3416 17.7562C38.7136 18.807 37.7186 20.8245 37.056 22.6922C36.2098 25.0751 35.1537 28.1926 33.5083 29.6006C32.132 30.7787 27.0225 32.5622 27.0225 32.5622C25.2364 33.1554 24.8979 31.573 24.5289 30.9654C24.5044 30.9408 24.4799 30.9182 24.4575 30.8936C24.4269 30.8587 24.3964 30.8177 24.3658 30.7787C24.3535 30.7705 24.3433 30.7602 24.3311 30.754H24.3474C24.0905 30.4175 23.8234 29.9105 23.9315 29.1101C24.0375 28.3281 24.8592 27.7616 26.7064 26.5548C28.0786 25.66 29.4427 24.7405 29.7302 24.2048C29.9524 23.7923 30.0788 23.1232 30.1114 22.2161L30.1237 21.8446L27.6912 23.5583C27.2406 23.7841 26.2762 23.9627 25.5157 23.1992C24.378 22.0539 25.271 20.8553 25.8603 20.0631C26.5209 19.1744 31.084 14.2404 32.4664 12.7483L32.5153 12.695V4.20007H19.7537C18.9667 4.20007 18.3265 4.84247 18.3265 5.63675V16.7033C19.9046 15.9131 21.5235 14.9198 23.0894 14.9239C24.3128 14.9259 24.641 15.9521 24.9713 16.4816C24.9978 16.5063 25.0243 16.5288 25.0508 16.5555C25.1079 16.6109 25.163 16.6787 25.218 16.7526C25.2262 16.7567 25.2343 16.7649 25.2445 16.769H25.2282C25.4729 17.0974 25.6768 17.6002 25.5769 18.3391C25.4709 19.121 24.6492 19.6875 22.8019 20.8943C21.4297 21.7892 20.0657 22.7086 19.7782 23.2443C19.556 23.6568 19.4296 24.3259 19.3969 25.2331L19.3847 25.6046L21.8171 23.8908C22.2677 23.6651 23.2321 23.4865 23.9926 24.25C25.1304 25.3952 24.2373 26.5938 23.6481 27.3861C23.0731 28.1557 19.5641 31.9752 17.7413 33.9455H18.3285V44.8848C18.3489 44.8848 18.3673 44.891 18.3877 44.891H27.0979L27.1 44.893Z" fill="#9DD8DE"/>
</g>
<g id="Group_2">
<path id="Vector_4" d="M57.6673 21.1612C56.6091 20.5763 55.7813 19.7635 55.1798 18.725C54.5763 17.6865 54.2766 16.5228 54.2766 15.2339C54.2766 13.945 54.5763 12.7833 55.1798 11.7448C55.7813 10.7063 56.6132 9.89352 57.6775 9.30653C58.7418 8.71954 59.9305 8.4281 61.2497 8.4281C62.2386 8.4281 63.1479 8.59229 63.9839 8.92478C64.8198 9.25727 65.5294 9.74164 66.1105 10.3779L65.2195 11.2768C64.1796 10.2178 62.8686 9.69033 61.2864 9.69033C60.2343 9.69033 59.2801 9.93251 58.4176 10.4169C57.5572 10.9012 56.8803 11.5642 56.393 12.4057C55.9057 13.2451 55.661 14.1912 55.661 15.2339C55.661 16.2765 55.9057 17.2226 56.393 18.0641C56.8803 18.9036 57.5552 19.5685 58.4176 20.0529C59.2781 20.5373 60.2343 20.7795 61.2864 20.7795C62.8808 20.7795 64.1919 20.2438 65.2195 19.1745L66.1105 20.0714C65.5294 20.7097 64.8158 21.1961 63.9737 21.5347C63.1316 21.8734 62.2161 22.0417 61.2273 22.0417C59.9101 22.0417 58.7235 21.7482 57.6653 21.1612H57.6673Z" fill="white"/>
<path id="Vector_5" d="M78.7069 20.7035V21.9268H69.3035V8.54102H78.4215V9.7663H70.7083V14.5279H77.5855V15.7326H70.7083V20.7056H78.7049L78.7069 20.7035Z" fill="white"/>
<path id="Vector_6" d="M91.1687 9.7663C92.1311 10.5811 92.6122 11.7038 92.6122 13.1322C92.6122 14.5607 92.129 15.6772 91.1687 16.4879C90.2063 17.2966 88.8769 17.7009 87.1785 17.7009H83.6064V21.9268H82.2015V8.54102H87.1785C88.8769 8.54102 90.2063 8.94944 91.1687 9.7663ZM90.1615 15.589C90.8567 15.0081 91.2054 14.1892 91.2054 13.1322C91.2054 12.0753 90.8567 11.2173 90.1615 10.6365C89.4642 10.0557 88.4569 9.7663 87.1398 9.7663H83.6064V16.4592H87.1398C88.4569 16.4592 89.4642 16.1677 90.1615 15.589Z" fill="white"/>
<path id="Vector_7" d="M103.516 18.3515H96.1091L94.5146 21.9268H93.0527L99.1307 8.54102H100.517L106.595 21.9268H105.113L103.518 18.3515H103.516ZM103.003 17.2042L99.8117 10.0146L96.6208 17.2042H103.003Z" fill="white"/>
<path id="Vector_8" d="M110.905 9.7663H106.232V8.54102H116.983V9.7663H112.31V21.9288H110.905V9.7663Z" fill="white"/>
</g>
<g id="Group_3">
<path id="Vector_9" d="M56.1259 39.4502C55.1758 39.1731 54.4132 38.8119 53.8362 38.3665L54.8475 36.1089C55.4 36.5152 56.0545 36.8416 56.815 37.0899C57.5756 37.3362 58.334 37.4614 59.0945 37.4614C59.9407 37.4614 60.5666 37.3341 60.9704 37.0817C61.3741 36.8293 61.5759 36.4927 61.5759 36.0719C61.5759 35.7641 61.4556 35.5075 61.2191 35.3043C60.9805 35.1011 60.6727 34.939 60.2995 34.8138C59.9264 34.6906 59.4187 34.5552 58.7826 34.4054C57.8019 34.1714 56.9985 33.9374 56.3726 33.7034C55.7466 33.4674 55.2104 33.0918 54.7639 32.5746C54.3153 32.0574 54.091 31.3658 54.091 30.5017C54.091 29.7485 54.2929 29.0671 54.6986 28.4555C55.1024 27.8438 55.712 27.3595 56.5276 27.0024C57.3431 26.6452 58.3401 26.4667 59.5166 26.4667C60.3383 26.4667 61.1396 26.5652 61.9266 26.7643C62.7116 26.9613 63.3987 27.2445 63.9859 27.616L63.0664 29.8921C61.8756 29.2148 60.6869 28.8741 59.4983 28.8741C58.6643 28.8741 58.0486 29.0117 57.651 29.2826C57.2534 29.5535 57.0516 29.9127 57.0516 30.356C57.0516 30.7993 57.2819 31.1318 57.7407 31.3473C58.1995 31.5628 58.9029 31.7762 59.8469 31.9856C60.8276 32.2196 61.631 32.4535 62.2569 32.6896C62.8829 32.9235 63.4191 33.293 63.8656 33.7999C64.3121 34.3068 64.5385 34.9924 64.5385 35.8544C64.5385 36.5932 64.3325 37.2705 63.9227 37.8801C63.5108 38.4917 62.8951 38.9761 62.0754 39.3332C61.2538 39.6924 60.2547 39.8689 59.0782 39.8689C58.0608 39.8689 57.0781 39.7293 56.1279 39.4522L56.1259 39.4502Z" fill="white"/>
<path id="Vector_10" d="M76.5476 37.2377V39.6431H66.5814V26.6842H76.3091V29.0917H69.5419V31.9055H75.52V34.237H69.5419V37.2356H76.5476V37.2377Z" fill="white"/>
<path id="Vector_11" d="M90.7262 26.6863V39.6451H87.7474V34.3315H81.8998V39.6451H78.9209V26.6863H81.8998V31.7968H87.7474V26.6863H90.7262Z" fill="white"/>
<path id="Vector_12" d="M102.254 36.8682H96.2762L95.1365 39.6451H92.0842L97.8217 26.6863H100.764L106.52 39.6451H103.394L102.254 36.8682ZM101.316 34.5901L99.2755 29.6294L97.2345 34.5901H101.316Z" fill="white"/>
<path id="Vector_13" d="M109.888 29.1286H105.767V26.6842H116.985V29.1286H112.865V39.6431H109.886V29.1286H109.888Z" fill="white"/>
</g>
</g>
</g>
</g>
</g>
</g>
</g>
</g>
<defs>
<clipPath id="clip0_0_1">
<rect width="390" height="5298" fill="white" transform="translate(-38 -4253)"/>
</clipPath>
<clipPath id="clip1_0_1">
<rect width="116" height="47" fill="white" transform="translate(0.985474 0.224609)"/>
</clipPath>
</defs>
</svg>
