<svg width="82" height="34" viewBox="0 0 82 34" fill="none" xmlns="http://www.w3.org/2000/svg">
<g id="Layer_1" clip-path="url(#clip0_2018_1390)">
<g id="Group">
<path id="Vector" d="M6.54207 21.2425C6.986 20.5047 7.68935 19.0882 8.15777 17.7768C8.75592 16.1037 9.71294 13.9018 10.8746 12.9133C10.9899 12.8153 11.1297 12.7144 11.2854 12.6135H3.99674C3.41157 12.6135 2.93738 13.0876 2.93738 13.6727V22.185H6.07365L6.54063 21.2425H6.54207Z" fill="#9DD8DE"/>
<path id="Vector_2" d="M30.9851 10.1781H26.2461C26.2231 10.1781 26.2014 10.191 26.1899 10.2112L25.4995 11.5053C24.9792 12.3469 24.2153 13.8657 23.6734 15.3817C22.9513 17.4021 22.1283 18.9411 21.4711 19.5002C20.8773 20.0046 18.9041 20.8116 17.9442 21.1661L17.9039 21.1747C17.8462 21.1776 17.7756 21.1747 17.7122 21.1661L17.4037 21.13L17.6459 20.9355C17.9341 20.7021 18.4833 20.3461 18.8839 20.0867C20.2171 19.2221 21.1136 18.6097 21.4668 17.9583C22.1153 16.7622 21.7939 13.9262 21.5345 13.8499C20.4838 13.54 18.8436 16.6455 18.0999 15.8414C17.9601 15.6901 21.9842 11.5038 23.4269 10.0642C23.7051 9.78611 23.8881 9.61031 23.9256 9.58581V3.12271C23.9256 1.67445 22.751 0.5 21.3024 0.5H12.3001C10.8516 0.5 9.6769 1.67445 9.6769 3.12271V10.1147C9.6769 10.1493 9.64808 10.1781 9.61349 10.1781H2.62317C1.17466 10.1781 0 11.3525 0 12.8008V21.1978C0 22.646 1.17466 23.8205 2.62317 23.8205H7.36217C7.38523 23.8205 7.40685 23.8075 7.41838 23.7873L8.10877 22.4933C8.62908 21.6517 9.39297 20.1328 9.9349 18.6169C10.657 16.5965 11.48 15.0575 12.1372 14.4983C12.731 13.994 14.7042 13.187 15.6641 12.8325L15.7044 12.8238C15.7621 12.821 15.8327 12.8238 15.8961 12.8325L16.2046 12.8685L15.9624 13.0631C15.6742 13.2965 15.125 13.6524 14.7243 13.9118C13.3911 14.7765 12.4946 15.3889 12.1415 16.0403C11.4929 17.2363 11.8144 20.0723 12.0738 20.1487C13.1245 20.4585 14.7647 17.3531 15.5084 18.1572C15.6482 18.3085 11.6241 22.4947 10.1814 23.9343C9.90319 24.2124 9.72014 24.3883 9.68267 24.4128V30.8759C9.68267 32.3241 10.8573 33.4986 12.3058 33.4986H21.3082C22.7567 33.4986 23.9314 32.3241 23.9314 30.8759V23.8839C23.9314 23.8493 23.9602 23.8205 23.9948 23.8205H30.988C32.4365 23.8205 33.6112 22.646 33.6112 21.1978V12.8008C33.6112 11.3525 32.4365 10.1781 30.988 10.1781H30.9851ZM31.9724 21.1978C31.9724 21.7425 31.5314 22.1835 30.9866 22.1835H22.356C22.3214 22.1835 22.2926 22.2123 22.2926 22.2469V30.8759C22.2926 31.4206 21.8516 31.8615 21.3068 31.8615H12.3044C11.7596 31.8615 11.3185 31.4206 11.3185 30.8759V24.7442L11.3531 24.7067C12.3303 23.6591 15.556 20.1948 16.023 19.5708C16.4409 19.0146 17.0722 18.173 16.2665 17.3689C15.7289 16.8314 15.0472 16.9568 14.7287 17.1167L13.0092 18.32L13.0178 18.0592C13.0395 17.4222 13.1303 16.9524 13.2874 16.6628C13.4906 16.2881 14.4548 15.6425 15.4248 15.0128C16.7321 14.1655 17.3115 13.7692 17.3864 13.2187C17.4743 12.576 17.2322 12.1826 17.0146 11.9664C16.4669 11.4217 15.9134 11.4534 15.7477 11.4779L15.3715 11.5471L15.3081 11.5701C14.9953 11.684 12.2222 12.71 11.2897 13.5026C10.2015 14.4277 9.28343 16.5547 8.70402 18.1759C8.11309 19.8302 7.18633 21.5941 6.78133 22.1316L6.74241 22.1835H2.62461C2.0798 22.1835 1.63876 21.7425 1.63876 21.1978V12.8008C1.63876 12.2561 2.0798 11.8151 2.62461 11.8151H11.2551C11.2897 11.8151 11.3185 11.7863 11.3185 11.7517V3.12271C11.3185 2.57799 11.7596 2.13703 12.3044 2.13703H21.3068C21.8516 2.13703 22.2926 2.57799 22.2926 3.12271V9.25437L22.258 9.29183C21.2808 10.3395 18.0552 13.8038 17.5882 14.4277C17.1702 14.984 16.5389 15.8255 17.3446 16.6297C17.8822 17.1672 18.564 17.0418 18.8825 16.8818L20.602 15.6786L20.5933 15.9394C20.5717 16.5763 20.4809 17.0461 20.3238 17.3358C20.1206 17.7104 19.1563 18.356 18.1863 18.9858C16.8791 19.8331 16.2997 20.2294 16.2247 20.7799C16.1368 21.4226 16.3991 21.7972 16.5966 22.0321C17.1356 22.672 18.3362 22.4155 18.3362 22.4155C18.3362 22.4155 21.3889 21.2886 22.3229 20.496C23.4111 19.5708 24.3292 17.4438 24.9086 15.8227C25.4995 14.1683 26.4263 12.4045 26.8313 11.867L26.8702 11.8151H30.988C31.5328 11.8151 31.9738 12.2561 31.9738 12.8008V21.1978H31.9724Z" fill="white"/>
<path id="Vector_3" d="M18.4602 31.8629H21.3053C21.8501 31.8629 22.2912 31.422 22.2912 30.8772V22.2482C22.2912 22.2137 22.32 22.1848 22.3546 22.1848H30.9851C31.5299 22.1848 31.9709 21.7439 31.9709 21.1992V12.8022C31.9709 12.7633 31.9637 12.7258 31.9594 12.6883C31.8052 12.6408 31.6438 12.6134 31.4737 12.6134H27.2103L27.1138 12.8094C26.6698 13.5472 25.9665 14.9637 25.4981 16.2751C24.8999 17.9482 24.1533 20.1371 22.9902 21.1257C22.0173 21.9528 18.4054 23.2051 18.4054 23.2051C17.1428 23.6216 16.9036 22.5105 16.6427 22.084C16.6254 22.0667 16.6081 22.0508 16.5923 22.0335C16.5706 22.009 16.549 21.9802 16.5274 21.9528C16.5187 21.9471 16.5115 21.9399 16.5029 21.9355H16.5144C16.3328 21.6992 16.144 21.3433 16.2204 20.7813C16.2953 20.2322 16.8762 19.8345 18.182 18.9872C19.152 18.3589 20.1162 17.7133 20.3195 17.3372C20.4766 17.0475 20.5659 16.5777 20.589 15.9408L20.5976 15.6799L18.8782 16.8832C18.5596 17.0417 17.8779 17.1671 17.3403 16.631C16.536 15.8269 17.1673 14.9854 17.5839 14.4291C18.0509 13.8051 21.2765 10.3409 22.2537 9.29322L22.2883 9.25576V3.29126H13.2672C12.7108 3.29126 12.2583 3.74231 12.2583 4.29999V12.0701C13.3738 11.5153 14.5182 10.8179 15.6251 10.8207C16.4899 10.8222 16.722 11.5427 16.9555 11.9145C16.9742 11.9318 16.9929 11.9476 17.0117 11.9664C17.052 12.0053 17.0909 12.0528 17.1299 12.1047C17.1356 12.1076 17.1414 12.1134 17.1486 12.1162H17.1371C17.31 12.3468 17.4542 12.6999 17.3835 13.2186C17.3086 13.7677 16.7277 14.1654 15.4219 15.0127C14.4519 15.641 13.4877 16.2866 13.2845 16.6627C13.1274 16.9524 13.038 17.4222 13.0149 18.0591L13.0063 18.3199L14.7258 17.1167C15.0443 16.9582 15.726 16.8328 16.2636 17.3689C17.0679 18.173 16.4366 19.0145 16.0201 19.5708C15.6136 20.1112 13.1331 22.793 11.8446 24.1764H12.2597V31.8572C12.2741 31.8572 12.2871 31.8615 12.3015 31.8615H18.4587L18.4602 31.8629Z" fill="#9DD8DE"/>
</g>
<g id="Group_2">
<path id="Vector_4" d="M40.0682 15.2C39.3201 14.7893 38.7349 14.2187 38.3098 13.4895C37.8831 12.7603 37.6713 11.9433 37.6713 11.0383C37.6713 10.1333 37.8831 9.31767 38.3098 8.5885C38.7349 7.85933 39.323 7.28867 40.0754 6.87653C40.8277 6.46439 41.668 6.25977 42.6005 6.25977C43.2996 6.25977 43.9424 6.37505 44.5333 6.6085C45.1242 6.84195 45.6258 7.18204 46.0366 7.62876L45.4067 8.25994C44.6717 7.51636 43.7449 7.14601 42.6265 7.14601C41.8828 7.14601 41.2082 7.31605 40.5985 7.65614C39.9903 7.99623 39.5118 8.46169 39.1673 9.05252C38.8229 9.6419 38.6499 10.3062 38.6499 11.0383C38.6499 11.7703 38.8229 12.4347 39.1673 13.0255C39.5118 13.6149 39.9889 14.0818 40.5985 14.4219C41.2068 14.7619 41.8828 14.932 42.6265 14.932C43.7536 14.932 44.6803 14.5559 45.4067 13.8051L46.0366 14.4348C45.6258 14.883 45.1214 15.2245 44.5261 15.4623C43.9308 15.7001 43.2837 15.8182 42.5847 15.8182C41.6536 15.8182 40.8147 15.6122 40.0667 15.2H40.0682Z" fill="white"/>
<path id="Vector_5" d="M54.941 14.8788V15.7376H48.2937V6.33911H54.7392V7.19942H49.2868V10.5426H54.1483V11.3885H49.2868V14.8802H54.9395L54.941 14.8788Z" fill="white"/>
<path id="Vector_6" d="M63.7502 7.19942C64.4305 7.77151 64.7707 8.55977 64.7707 9.56274C64.7707 10.5657 64.4291 11.3496 63.7502 11.9188C63.0699 12.4866 62.1302 12.7705 60.9296 12.7705H58.4044V15.7376H57.4114V6.33911H60.9296C62.1302 6.33911 63.0699 6.62588 63.7502 7.19942ZM63.0397 11.2877C63.5311 10.8799 63.7776 10.3049 63.7776 9.56274C63.7776 8.8206 63.5311 8.21824 63.0397 7.81042C62.5467 7.4026 61.8347 7.19942 60.9037 7.19942H58.4059V11.8987H60.9037C61.8347 11.8987 62.5467 11.694 63.0397 11.2877Z" fill="white"/>
<path id="Vector_7" d="M72.4787 13.2273H67.2424L66.1153 15.7376H65.0819L69.3784 6.33911H70.3585L74.655 15.7376H73.6072L72.4801 13.2273H72.4787ZM72.1155 12.4218L69.8598 7.37378L67.6042 12.4218H72.1155Z" fill="white"/>
<path id="Vector_8" d="M77.702 7.19942H74.3986V6.33911H81.9985V7.19942H78.6951V15.7391H77.702V7.19942Z" fill="white"/>
</g>
<g id="Group_3">
<path id="Vector_9" d="M38.9786 28.0414C38.3069 27.8468 37.7679 27.5932 37.36 27.2805L38.0749 25.6953C38.4655 25.9807 38.9281 26.2098 39.4657 26.3842C40.0033 26.5571 40.5395 26.645 41.0771 26.645C41.6752 26.645 42.1177 26.5556 42.4031 26.3784C42.6885 26.2011 42.8312 25.9648 42.8312 25.6694C42.8312 25.4532 42.7461 25.2731 42.5789 25.1304C42.4103 24.9878 42.1927 24.8739 41.9289 24.786C41.6652 24.6996 41.3063 24.6045 40.8566 24.4993C40.1633 24.335 39.5954 24.1707 39.153 24.0064C38.7105 23.8407 38.3314 23.577 38.0158 23.2139C37.6987 22.8507 37.5401 22.3651 37.5401 21.7584C37.5401 21.2295 37.6828 20.7511 37.9697 20.3217C38.255 19.8922 38.686 19.5521 39.2625 19.3014C39.839 19.0507 40.5438 18.9253 41.3755 18.9253C41.9563 18.9253 42.5227 18.9945 43.0791 19.1342C43.634 19.2726 44.1197 19.4715 44.5348 19.7323L43.8848 21.3304C43.043 20.8549 42.2028 20.6156 41.3625 20.6156C40.773 20.6156 40.3377 20.7122 40.0567 20.9024C39.7756 21.0926 39.6329 21.3448 39.6329 21.6561C39.6329 21.9673 39.7958 22.2008 40.1201 22.3521C40.4444 22.5034 40.9416 22.6533 41.6089 22.8003C42.3022 22.9646 42.8701 23.1288 43.3126 23.2945C43.755 23.4588 44.1341 23.7182 44.4498 24.0742C44.7654 24.4301 44.9254 24.9114 44.9254 25.5166C44.9254 26.0354 44.7798 26.511 44.4901 26.939C44.199 27.3684 43.7637 27.7085 43.1843 27.9592C42.6034 28.2114 41.8972 28.3353 41.0656 28.3353C40.3464 28.3353 39.6517 28.2373 38.98 28.0428L38.9786 28.0414Z" fill="white"/>
<path id="Vector_10" d="M53.4146 26.488V28.1769H46.3695V19.0781H53.246V20.7685H48.4623V22.7442H52.6882V24.3812H48.4623V26.4866H53.4146V26.488Z" fill="white"/>
<path id="Vector_11" d="M63.4374 19.0796V28.1784H61.3317V24.4475H57.198V28.1784H55.0923V19.0796H57.198V22.6678H61.3317V19.0796H63.4374Z" fill="white"/>
<path id="Vector_12" d="M71.5866 26.2286H67.3607L66.555 28.1784H64.3973L68.4532 19.0796H70.533L74.6018 28.1784H72.3922L71.5866 26.2286ZM70.9236 24.6291L69.4808 21.1461L68.0381 24.6291H70.9236Z" fill="white"/>
<path id="Vector_13" d="M76.9828 20.7944H74.0699V19.0781H82V20.7944H79.0871V28.1769H76.9814V20.7944H76.9828Z" fill="white"/>
</g>
</g>
<defs>
<clipPath id="clip0_2018_1390">
<rect width="82" height="33" fill="white" transform="translate(0 0.5)"/>
</clipPath>
</defs>
</svg>
