<svg width="25" height="24" viewBox="0 0 25 24" fill="none" xmlns="http://www.w3.org/2000/svg">
<path d="M6.27746 15.9839C8.13609 15.9839 9.64843 14.884 9.64843 13.5323C9.64843 12.1805 8.13609 11.0807 6.27746 11.0807C4.41883 11.0807 2.90649 12.1805 2.90649 13.5323C2.90649 14.884 4.41883 15.9839 6.27746 15.9839ZM6.27746 11.6936C7.79807 11.6936 9.03552 12.5182 9.03552 13.5323C9.03552 14.5463 7.79807 15.371 6.27746 15.371C4.75685 15.371 3.5194 14.5463 3.5194 13.5323C3.5194 12.5182 4.75685 11.6936 6.27746 11.6936Z" fill="#128894"/>
<path d="M6.0847 14.7581C6.66215 14.7575 7.23161 14.6231 7.74843 14.3655L8.25346 14.113L7.97949 13.5644L7.47262 13.8173C6.80862 14.146 6.04971 14.2293 5.33022 14.0523L4.51199 13.8479L4.36306 14.4424L5.18159 14.6471C5.47697 14.7208 5.78027 14.7581 6.0847 14.7581Z" fill="#128894"/>
<path d="M10.2613 15.371C8.90957 15.371 7.80972 16.7457 7.80972 18.4355C7.80972 20.1253 8.90957 21.5 10.2613 21.5C11.6131 21.5 12.7129 20.1253 12.7129 18.4355C12.7129 16.7457 11.6131 15.371 10.2613 15.371ZM10.2613 20.8871C9.24728 20.8871 8.42262 19.7872 8.42262 18.4355C8.42262 17.0837 9.24728 15.9839 10.2613 15.9839C11.2754 15.9839 12.1 17.0837 12.1 18.4355C12.1 19.7872 11.2754 20.8871 10.2613 20.8871Z" fill="#128894"/>
<path d="M11.1651 16.8064L10.5828 17.0001L10.7054 17.3678C10.817 17.7022 10.8741 18.0523 10.8742 18.4048C10.8732 18.7745 10.7445 19.1326 10.51 19.4184C10.2755 19.7042 9.94951 19.9003 9.58714 19.9736L9.70726 20.5742C10.2085 20.473 10.6593 20.2019 10.9836 19.8066C11.308 19.4113 11.4858 18.9161 11.4871 18.4048C11.4872 17.986 11.4198 17.5699 11.2873 17.1726L11.1651 16.8064Z" fill="#128894"/>
<path d="M10.2488 4.26272C9.72543 4.039 9.14709 3.9771 8.58826 4.08499C8.02943 4.19287 7.5157 4.46561 7.11325 4.86806C6.7108 5.27051 6.43807 5.78424 6.33018 6.34307C6.22229 6.9019 6.28419 7.48023 6.50791 8.00357C6.99516 9.14634 7.90532 10.0565 9.04809 10.5437C9.57142 10.7675 10.1498 10.8294 10.7086 10.7215C11.2674 10.6136 11.7811 10.3409 12.1836 9.93841C12.5861 9.53596 12.8588 9.02223 12.9667 8.4634C13.0746 7.90457 13.0127 7.32623 12.7889 6.80289C12.3017 5.66013 11.3915 4.74997 10.2488 4.26272ZM10.1694 10.1613C9.86656 10.1616 9.56686 10.1001 9.28865 9.98049C8.29066 9.55494 7.4958 8.76008 7.07025 7.76209C6.89461 7.35124 6.84603 6.89721 6.93076 6.4585C7.01548 6.01978 7.22965 5.6165 7.54564 5.3006C7.86164 4.9847 8.26499 4.77067 8.70373 4.68607C9.14247 4.60148 9.59649 4.65021 10.0073 4.82598C11.0053 5.25153 11.8001 6.04639 12.2257 7.04438C12.3712 7.38459 12.4301 7.75558 12.397 8.12412C12.3639 8.49267 12.24 8.84725 12.0362 9.15612C11.8324 9.46499 11.5552 9.71849 11.2294 9.89391C10.9036 10.0693 10.5394 10.1612 10.1694 10.1613Z" fill="#128894"/>
<path d="M8.89333 8.05352C8.64616 7.80774 8.4502 7.51537 8.3168 7.19333C8.1834 6.8713 8.1152 6.526 8.11617 6.17743H7.50327C7.50203 6.60652 7.58596 7.03159 7.75019 7.42802C7.91442 7.82444 8.15569 8.18433 8.46001 8.48685L8.56481 8.59165C8.86732 8.89597 9.22722 9.13724 9.62364 9.30147C10.0201 9.4657 10.4451 9.54963 10.8742 9.54839V8.93549C10.5257 8.93645 10.1804 8.86826 9.85833 8.73486C9.53629 8.60146 9.24392 8.4055 8.99814 8.15833L8.89333 8.05352Z" fill="#128894"/>
<path d="M4.43875 18.4355C4.43875 18.6779 4.51064 18.9149 4.64534 19.1165C4.78003 19.3181 4.97147 19.4752 5.19546 19.568C5.41945 19.6608 5.66592 19.685 5.9037 19.6377C6.14148 19.5904 6.3599 19.4737 6.53133 19.3023C6.70276 19.1308 6.81951 18.9124 6.86681 18.6746C6.91411 18.4368 6.88983 18.1904 6.79705 17.9664C6.70428 17.7424 6.54716 17.551 6.34558 17.4163C6.144 17.2816 5.907 17.2097 5.66456 17.2097C5.33945 17.2097 5.02766 17.3388 4.79778 17.5687C4.5679 17.7986 4.43875 18.1104 4.43875 18.4355ZM6.27746 18.4355C6.27746 18.5567 6.24151 18.6752 6.17417 18.776C6.10682 18.8768 6.0111 18.9553 5.8991 19.0017C5.78711 19.0481 5.66388 19.0603 5.54499 19.0366C5.42609 19.013 5.31689 18.9546 5.23117 18.8689C5.14545 18.7832 5.08708 18.674 5.06343 18.5551C5.03978 18.4362 5.05192 18.3129 5.09831 18.2009C5.1447 18.0889 5.22326 17.9932 5.32405 17.9259C5.42484 17.8585 5.54334 17.8226 5.66456 17.8226C5.82711 17.8226 5.983 17.8872 6.09794 18.0021C6.21289 18.117 6.27746 18.2729 6.27746 18.4355Z" fill="#128894"/>
<path d="M13.3258 19.9677C13.3258 20.1496 13.3798 20.3273 13.4808 20.4785C13.5818 20.6297 13.7254 20.7475 13.8934 20.8171C14.0614 20.8867 14.2462 20.9049 14.4246 20.8694C14.6029 20.834 14.7667 20.7464 14.8953 20.6178C15.0239 20.4893 15.1114 20.3254 15.1469 20.1471C15.1824 19.9688 15.1642 19.7839 15.0946 19.6159C15.025 19.4479 14.9072 19.3043 14.756 19.2033C14.6048 19.1023 14.427 19.0484 14.2452 19.0484C14.0014 19.0484 13.7675 19.1453 13.5951 19.3177C13.4227 19.4901 13.3258 19.7239 13.3258 19.9677ZM14.2452 19.6613C14.3058 19.6613 14.3651 19.6793 14.4155 19.7129C14.4658 19.7466 14.5051 19.7945 14.5283 19.8505C14.5515 19.9065 14.5576 19.9681 14.5458 20.0275C14.5339 20.087 14.5047 20.1416 14.4619 20.1844C14.419 20.2273 14.3644 20.2565 14.305 20.2683C14.2455 20.2801 14.1839 20.2741 14.1279 20.2509C14.0719 20.2277 14.0241 20.1884 13.9904 20.138C13.9567 20.0876 13.9387 20.0284 13.9387 19.9677C13.9387 19.8865 13.971 19.8085 14.0285 19.751C14.086 19.6936 14.1639 19.6613 14.2452 19.6613Z" fill="#128894"/>
<path d="M19.7613 12.9194C19.7613 12.7375 19.7074 12.5598 19.6064 12.4086C19.5054 12.2574 19.3618 12.1396 19.1938 12.07C19.0258 12.0004 18.8409 11.9822 18.6626 12.0177C18.4843 12.0531 18.3205 12.1407 18.1919 12.2693C18.0633 12.3979 17.9758 12.5617 17.9403 12.74C17.9048 12.9183 17.923 13.1032 17.9926 13.2712C18.0622 13.4392 18.18 13.5828 18.3312 13.6838C18.4824 13.7848 18.6601 13.8387 18.842 13.8387C19.0858 13.8387 19.3196 13.7419 19.4921 13.5694C19.6645 13.397 19.7613 13.1632 19.7613 12.9194ZM18.5355 12.9194C18.5355 12.8587 18.5535 12.7995 18.5872 12.7491C18.6208 12.6987 18.6687 12.6594 18.7247 12.6362C18.7807 12.613 18.8423 12.607 18.9018 12.6188C18.9612 12.6306 19.0158 12.6598 19.0587 12.7027C19.1015 12.7455 19.1307 12.8001 19.1425 12.8596C19.1544 12.919 19.1483 12.9806 19.1251 13.0366C19.1019 13.0926 19.0626 13.1405 19.0122 13.1742C18.9618 13.2078 18.9026 13.2258 18.842 13.2258C18.7607 13.2258 18.6827 13.1935 18.6253 13.1361C18.5678 13.0786 18.5355 13.0006 18.5355 12.9194Z" fill="#128894"/>
<path d="M4.43875 9.85484C4.43875 10.0367 4.49267 10.2144 4.59369 10.3656C4.69471 10.5168 4.83829 10.6346 5.00628 10.7042C5.17427 10.7738 5.35913 10.792 5.53746 10.7565C5.7158 10.7211 5.87961 10.6335 6.00819 10.5049C6.13676 10.3764 6.22432 10.2125 6.25979 10.0342C6.29527 9.85586 6.27706 9.67101 6.20748 9.50302C6.13789 9.33503 6.02006 9.19145 5.86887 9.09043C5.71768 8.98941 5.53994 8.93549 5.35811 8.93549C5.11428 8.93549 4.88044 9.03235 4.70802 9.20476C4.53561 9.37718 4.43875 9.61102 4.43875 9.85484ZM5.66456 9.85484C5.66456 9.91545 5.64658 9.9747 5.61291 10.0251C5.57924 10.0755 5.53138 10.1148 5.47538 10.138C5.41938 10.1612 5.35777 10.1672 5.29832 10.1554C5.23887 10.1436 5.18427 10.1144 5.14141 10.0715C5.09855 10.0287 5.06937 9.97408 5.05754 9.91463C5.04572 9.85519 5.05179 9.79357 5.07498 9.73757C5.09818 9.68157 5.13745 9.63371 5.18785 9.60004C5.23825 9.56637 5.2975 9.54839 5.35811 9.54839C5.43938 9.54839 5.51733 9.58068 5.5748 9.63815C5.63227 9.69562 5.66456 9.77357 5.66456 9.85484Z" fill="#128894"/>
<path d="M13.0194 12.3065C12.7163 12.3065 12.4201 12.3963 12.1681 12.5647C11.9161 12.7331 11.7197 12.9724 11.6038 13.2523C11.4878 13.5323 11.4575 13.8404 11.5166 14.1376C11.5757 14.4349 11.7216 14.7079 11.9359 14.9222C12.1502 15.1365 12.4232 15.2824 12.7205 15.3415C13.0177 15.4007 13.3258 15.3703 13.6058 15.2543C13.8857 15.1384 14.1251 14.942 14.2934 14.69C14.4618 14.438 14.5516 14.1418 14.5516 13.8387C14.5512 13.4325 14.3896 13.043 14.1023 12.7558C13.8151 12.4685 13.4256 12.3069 13.0194 12.3065ZM13.0194 14.7581C12.8376 14.7581 12.6598 14.7041 12.5086 14.6031C12.3574 14.5021 12.2396 14.3585 12.17 14.1905C12.1004 14.0225 12.0822 13.8377 12.1177 13.6594C12.1532 13.481 12.2407 13.3172 12.3693 13.1886C12.4979 13.0601 12.6617 12.9725 12.84 12.937C13.0184 12.9016 13.2032 12.9198 13.3712 12.9893C13.5392 13.0589 13.6828 13.1768 13.7838 13.3279C13.8848 13.4791 13.9387 13.6569 13.9387 13.8387C13.9387 14.0825 13.8419 14.3164 13.6695 14.4888C13.4971 14.6612 13.2632 14.7581 13.0194 14.7581Z" fill="#128894"/>
<path d="M17.6162 2.50001C16.7682 2.49909 15.939 2.74973 15.2336 3.22022C14.5281 3.69072 13.9781 4.35991 13.6531 5.14312C13.328 5.92633 13.2427 6.78835 13.4078 7.62009C13.5729 8.45183 13.981 9.2159 14.5805 9.81562L13.9516 11.9121C13.9329 11.9743 13.9345 12.0409 13.9561 12.1022C13.9777 12.1635 14.0183 12.2164 14.0719 12.2531C14.1255 12.2899 14.1894 12.3086 14.2544 12.3066C14.3194 12.3046 14.3821 12.282 14.4334 12.2421L16.2273 10.8465C16.817 11.0498 17.444 11.122 18.0645 11.0581C18.685 10.9942 19.2841 10.7958 19.82 10.4767C20.356 10.1576 20.8159 9.72551 21.1678 9.21046C21.5196 8.69541 21.755 8.10984 21.8573 7.49454C21.9597 6.87923 21.9267 6.24901 21.7606 5.64777C21.5945 5.04654 21.2993 4.48875 20.8955 4.01329C20.4918 3.53782 19.9892 3.15611 19.4228 2.89476C18.8565 2.63341 18.2399 2.49869 17.6162 2.50001ZM17.6162 10.4677C17.1603 10.4672 16.7086 10.3815 16.2843 10.2149C16.2349 10.1957 16.1814 10.1895 16.1289 10.1972C16.0764 10.2048 16.0268 10.2259 15.9849 10.2584L14.8143 11.1692L15.2216 9.81225C15.238 9.75708 15.2386 9.69838 15.2233 9.64288C15.208 9.58737 15.1773 9.53732 15.1348 9.49844C14.5043 8.91866 14.0963 8.13676 13.9813 7.28798C13.8664 6.4392 14.0516 5.57693 14.5051 4.8503C14.9586 4.12368 15.6518 3.57841 16.4648 3.3088C17.2778 3.03919 18.1595 3.06221 18.9573 3.37387C19.7551 3.68553 20.4189 4.26623 20.8339 5.01553C21.2489 5.76482 21.3889 6.63559 21.2298 7.47722C21.0707 8.31884 20.6224 9.07839 19.9626 9.62448C19.3027 10.1706 18.4727 10.4689 17.6162 10.4677Z" fill="#128894"/>
<path d="M18.5355 14.1452C16.6769 14.1452 15.1646 15.245 15.1646 16.5968C15.1646 17.9485 16.6769 19.0484 18.5355 19.0484C20.3941 19.0484 21.9065 17.9485 21.9065 16.5968C21.9065 15.245 20.3941 14.1452 18.5355 14.1452ZM18.5355 18.4355C17.0149 18.4355 15.7775 17.6108 15.7775 16.5968C15.7775 15.5827 17.0149 14.7581 18.5355 14.7581C20.0561 14.7581 21.2936 15.5827 21.2936 16.5968C21.2936 17.6108 20.0561 18.4355 18.5355 18.4355Z" fill="#128894"/>
<path d="M19.7307 16.8818C19.0666 17.2102 18.3078 17.2935 17.5883 17.1168L16.7701 16.9124L16.6211 17.5069L17.4396 17.7116C18.301 17.9268 19.2108 17.8269 20.005 17.43L20.51 17.1775L20.236 16.629L19.7307 16.8818Z" fill="#128894"/>
<path d="M19.5689 6.81209L18.842 6.52157V4.95162C18.842 4.89037 18.8237 4.83051 18.7894 4.77976C18.7551 4.72902 18.7064 4.68971 18.6495 4.66693L17.1173 4.05402C17.044 4.02523 16.9625 4.02523 16.8893 4.05402L15.357 4.66693C15.3001 4.68971 15.2514 4.72902 15.2171 4.77976C15.1828 4.83051 15.1645 4.89037 15.1646 4.95162V6.79033C15.1646 6.85153 15.1829 6.91133 15.2172 6.96201C15.2515 7.0127 15.3002 7.05195 15.357 7.07472L16.0839 7.36554V8.93549C16.0839 8.99674 16.1022 9.0566 16.1365 9.10735C16.1708 9.1581 16.2195 9.1974 16.2764 9.22018L17.8086 9.83309C17.8818 9.8621 17.9634 9.8621 18.0366 9.83309L19.5689 9.22018C19.6257 9.1974 19.6745 9.1581 19.7088 9.10735C19.7431 9.0566 19.7614 8.99674 19.7613 8.93549V7.09678C19.7614 7.03553 19.7431 6.97567 19.7088 6.92492C19.6745 6.87418 19.6257 6.83487 19.5689 6.81209ZM17.9226 7.37964L17.2156 7.09678L17.9226 6.81393L18.6296 7.09678L17.9226 7.37964ZM18.0366 6.19919C17.9633 6.17039 17.8819 6.17039 17.8086 6.19919L17.3097 6.39899V5.77199L18.2291 5.40425V6.27641L18.0366 6.19919ZM17.0033 4.66877L17.7102 4.95162L17.0033 5.23448L16.2963 4.95162L17.0033 4.66877ZM15.7775 5.40425L16.6968 5.77199V6.64415L16.3134 6.79738L15.7775 6.58286V5.40425ZM16.6968 7.54941L17.6162 7.91715V9.09576L16.6968 8.72802V7.54941ZM18.2291 9.09576V7.91715L19.1484 7.54941V8.72802L18.2291 9.09576Z" fill="#128894"/>
</svg>
