<svg width="25" height="24" viewBox="0 0 25 24" fill="none" xmlns="http://www.w3.org/2000/svg">
<path d="M9.31703 21.9993C9.3477 21.9993 9.3777 22 9.4077 22C11.2614 22 13.0051 21.2847 14.3261 19.98C15.6704 18.6523 16.4111 16.88 16.4111 14.9897C16.4111 14.3717 16.3444 13.775 16.2084 13.1807C16.5944 13.2767 16.9958 13.333 17.4111 13.333C20.1681 13.333 22.4111 11.09 22.4111 8.333C22.4111 5.576 20.1681 3.333 17.4111 3.333C15.1234 3.333 13.1941 4.87933 12.6021 6.98C11.502 5.55933 10.4244 4.075 9.86037 2.33733C9.80004 2.13667 9.6177 2.00067 9.4067 2H9.40503C9.1957 2 9.01436 2.13333 8.95436 2.32767C8.32869 4.26 7.07168 5.87633 5.85567 7.43933C4.46566 9.22633 3.02865 11.074 2.56165 13.3803C2.12364 15.5353 2.65198 17.737 4.01099 19.421C5.31234 21.034 7.24635 21.9737 9.31703 21.9993ZM17.4111 4C19.8004 4 21.7445 5.944 21.7445 8.33333C21.7445 10.7227 19.8004 12.6667 17.4111 12.6667C15.0217 12.6667 13.0777 10.7227 13.0777 8.33333C13.0777 5.944 15.0217 4 17.4111 4ZM3.21499 13.5127C3.65099 11.3597 4.97733 9.65433 6.38201 7.84867C7.52602 6.37833 8.70536 4.862 9.4057 3.04767C10.1067 4.86267 11.2874 6.38067 12.4354 7.852C12.4201 8.01067 12.4111 8.171 12.4111 8.33333C12.4111 10.3953 13.6661 12.1693 15.4521 12.9327C15.6457 13.61 15.7444 14.2847 15.7444 14.9897C15.7444 16.7003 15.0744 18.304 13.8577 19.5057C12.6431 20.7053 11.0287 21.356 9.32537 21.3323C7.45402 21.3093 5.70601 20.4597 4.52966 19.002C3.29599 17.473 2.81632 15.4727 3.21499 13.5127Z" fill="#128894"/>
<path d="M15.2901 10.9257C15.4204 10.7957 15.4204 10.5847 15.2901 10.4543C14.1207 9.285 14.1207 7.382 15.2901 6.21233C16.2348 5.26767 17.6581 5.08733 18.7868 5.66867L17.6541 7.36667C17.5758 7.347 17.4954 7.33333 17.4111 7.33333C16.8598 7.33333 16.4111 7.782 16.4111 8.33333C16.4111 8.88467 16.8598 9.33333 17.4111 9.33333C17.9624 9.33333 18.4111 8.88467 18.4111 8.33333C18.4111 8.10867 18.3341 7.90367 18.2088 7.73667L19.3408 6.03967C19.4061 6.09467 19.4708 6.151 19.5321 6.21267C20.7015 7.382 20.7015 9.285 19.5321 10.4547C19.4018 10.585 19.4018 10.796 19.5321 10.926C19.5971 10.991 19.6824 11.0237 19.7678 11.0237C19.8531 11.0237 19.9384 10.991 20.0034 10.926C21.4328 9.49667 21.4328 7.17067 20.0034 5.74133C19.9081 5.646 19.8084 5.55833 19.7058 5.47567C19.7764 5.32867 19.7358 5.14933 19.5958 5.05633C19.4558 4.96233 19.2741 4.994 19.1654 5.117C17.7744 4.35933 15.9941 4.566 14.8184 5.74167C13.3891 7.171 13.3891 9.497 14.8184 10.9263C14.9487 11.0567 15.1594 11.0567 15.2897 10.9263L15.2901 10.9257ZM17.4111 8.66667C17.2271 8.66667 17.0778 8.517 17.0778 8.33333C17.0778 8.14967 17.2271 8 17.4111 8C17.5951 8 17.7444 8.14967 17.7444 8.33333C17.7444 8.517 17.5951 8.66667 17.4111 8.66667Z" fill="#128894"/>
<path d="M5.411 15H7.07768C7.21668 15 7.34102 14.9137 7.39002 14.784L8.01402 13.1197L9.08803 17.4143C9.12403 17.5597 9.2527 17.6627 9.40237 17.667H9.41103C9.55703 17.667 9.68637 17.572 9.7297 17.4317L10.7854 14.0003L11.1014 14.7907C11.152 14.9173 11.2747 15.0003 11.411 15.0003H13.4111C13.5954 15.0003 13.7444 14.8513 13.7444 14.667C13.7444 14.4827 13.5954 14.3337 13.4111 14.3337H11.6367L11.054 12.8767C11.0017 12.7453 10.871 12.6613 10.7307 12.6673C10.5894 12.6733 10.4674 12.7673 10.4257 12.9023L9.44437 16.092L8.40103 11.9193C8.36603 11.778 8.24236 11.6757 8.09669 11.6673C7.94936 11.6603 7.81702 11.7467 7.76569 11.883L6.84668 14.3333H5.411C5.22667 14.3333 5.07767 14.4823 5.07767 14.6667C5.07767 14.851 5.22667 15 5.411 15Z" fill="#128894"/>
</svg>
