<svg width="25" height="24" viewBox="0 0 25 24" fill="none" xmlns="http://www.w3.org/2000/svg">
<path d="M21.8648 11.8259C21.6236 11.7786 21.3786 11.8281 21.1747 11.9651C21.0058 12.0786 20.8818 12.241 20.8173 12.4304L19.7693 11.9727C19.7715 11.901 19.7726 11.8303 19.7726 11.7615C19.7726 11.1453 19.6954 10.5335 19.5432 9.94076L20.0133 9.62187C20.3113 9.88285 20.7443 9.96088 21.1235 9.79616C21.6337 9.57446 21.878 8.98406 21.6798 8.45205L21.4585 7.85814C21.2578 7.31963 20.6807 7.0359 20.1446 7.21183C19.8734 7.30091 19.6551 7.49097 19.53 7.74695C19.4588 7.89255 19.4229 8.04872 19.4229 8.20564L18.8895 8.28012C18.8165 8.14618 18.7366 8.01044 18.6514 7.87523C18.5632 7.73538 18.3783 7.69351 18.2386 7.78163C18.0987 7.8698 18.0568 8.05462 18.1449 8.19447C18.2455 8.35407 18.3377 8.51399 18.419 8.66989C18.5005 8.82618 18.6724 8.91482 18.8464 8.89055L19.8082 8.75629C19.8974 8.74384 19.9763 8.69184 20.023 8.61473C20.0696 8.53762 20.079 8.44359 20.0486 8.35878C20.0073 8.24368 20.0141 8.11976 20.0678 8.00984C20.1214 7.90025 20.215 7.81887 20.3314 7.78064C20.5572 7.70656 20.811 7.83511 20.8975 8.06724L21.1188 8.66115C21.2044 8.89099 21.0995 9.15388 20.8849 9.24719C20.6794 9.33643 20.4375 9.25992 20.3219 9.06927C20.2793 8.99915 20.2099 8.94954 20.1298 8.93206C20.0497 8.91454 19.9658 8.93078 19.8979 8.9768L19.1002 9.51787C18.9522 9.6182 18.8849 9.80167 18.9326 9.9744C19.0927 10.5542 19.1739 11.1555 19.1739 11.7615C19.1739 11.8608 19.1714 11.9646 19.1665 12.07C19.1586 12.2417 19.2589 12.4032 19.416 12.4718L20.9116 13.1249C20.9947 13.1612 21.0899 13.1578 21.1703 13.1157C21.2507 13.0736 21.3076 12.9973 21.3251 12.9082L21.3725 12.6668C21.389 12.5826 21.4374 12.5099 21.5086 12.462C21.5797 12.4142 21.6653 12.3969 21.7495 12.4135C21.9233 12.4475 22.037 12.6167 22.0029 12.7905L21.7576 14.0403C21.7406 14.1273 21.69 14.2015 21.6152 14.2493C21.5405 14.297 21.4516 14.3114 21.3651 14.2903C21.2014 14.2501 21.0963 14.0748 21.1306 13.8995L21.1372 13.8661C21.1548 13.776 21.1301 13.6827 21.0701 13.6131C21.0102 13.5435 20.9209 13.505 20.8298 13.5095L19.2121 13.5833C19.0408 13.5911 18.8893 13.706 18.8352 13.8693C18.6854 14.3218 18.4864 14.759 18.2439 15.1687C18.1536 15.3213 18.1695 15.5147 18.2833 15.65L18.999 16.5002C19.0522 16.5634 19.1291 16.6017 19.2115 16.6063C19.2939 16.6108 19.3746 16.5812 19.4343 16.5243C19.5948 16.3717 19.8386 16.3587 20.0142 16.4931C20.1093 16.5658 20.1703 16.6711 20.1861 16.7897C20.2019 16.9084 20.1705 17.026 20.0978 17.121L19.8904 17.3921C19.7414 17.5867 19.4632 17.6368 19.2701 17.5037C19.1061 17.3907 19.0359 17.18 19.0995 16.9913C19.1491 16.8444 19.0782 16.6839 18.9362 16.6216L17.9053 16.1688C17.7413 16.0967 17.5499 16.1374 17.4289 16.2702C16.9692 16.775 16.4384 17.2051 15.8511 17.5485C15.7028 17.6351 15.6218 17.8069 15.6495 17.976L15.9134 19.5854C15.9281 19.675 15.9826 19.753 16.0617 19.7977C16.1407 19.8423 16.2357 19.8486 16.32 19.8149L16.5484 19.7235C16.6307 19.6906 16.7205 19.6927 16.8012 19.7296C16.8819 19.7664 16.9423 19.8331 16.9715 19.9174C17.0267 20.0766 16.9366 20.2601 16.7707 20.3265L15.6045 20.793C15.5221 20.826 15.4324 20.8238 15.3516 20.787C15.271 20.7502 15.2105 20.6835 15.1813 20.5992C15.1262 20.44 15.2162 20.2565 15.382 20.1901L15.4135 20.1775C15.4989 20.1434 15.5637 20.072 15.5896 19.9838C15.6154 19.8957 15.5994 19.8005 15.546 19.7257L14.6051 18.4074C14.5056 18.2678 14.3268 18.2031 14.1606 18.2462C13.612 18.3884 13.0449 18.4605 12.475 18.4605C12.0238 18.4605 11.5714 18.4149 11.1305 18.325C10.9622 18.2907 10.7873 18.3647 10.695 18.5092L9.75324 19.9863C9.70443 20.0628 9.69301 20.1573 9.72219 20.2433C9.75128 20.3293 9.81785 20.3973 9.90314 20.4284L9.93647 20.4406C10.0508 20.4823 10.1421 20.566 10.1935 20.6764C10.2448 20.7867 10.2501 20.9104 10.2085 21.0248C10.1964 21.0576 10.1903 21.0924 10.1903 21.1273C10.1903 21.2405 10.1569 21.3263 10.0963 21.3687C10.0356 21.4112 9.94369 21.4133 9.83725 21.3744L8.68032 20.9525C8.44864 20.8681 8.32531 20.6098 8.40533 20.3767C8.44353 20.2656 8.52574 20.1752 8.63686 20.1222C8.75423 20.0662 8.89069 20.0593 9.0111 20.1032L9.0376 20.1128C9.12385 20.1444 9.21987 20.1344 9.29794 20.086C9.37604 20.0375 9.42753 19.9559 9.43762 19.8646L9.62935 18.1335C9.64823 17.9632 9.55835 17.7959 9.40573 17.7171C8.7059 17.3556 8.07974 16.8776 7.54482 16.2964C7.42708 16.1683 7.24014 16.1266 7.07962 16.1924L5.66778 16.7714C5.58944 16.8036 5.52838 16.8673 5.49972 16.947C5.47102 17.0267 5.47745 17.1147 5.51732 17.1894C5.60692 17.357 5.55444 17.5624 5.39527 17.667C5.2312 17.775 5.00148 17.7245 4.88334 17.5545L4.52171 17.0339C4.40573 16.867 4.43335 16.6429 4.58457 16.5237C4.66275 16.4621 4.75978 16.4351 4.85756 16.4477C4.9561 16.4604 5.04326 16.5109 5.10309 16.59C5.15721 16.6616 5.24062 16.7051 5.33034 16.7086C5.41974 16.712 5.50654 16.6751 5.56601 16.6078L6.56042 15.4839C6.67712 15.352 6.69804 15.1596 6.61243 15.005C6.50551 14.8121 6.40605 14.6091 6.31689 14.4014C6.2516 14.2495 6.07563 14.1792 5.92369 14.2445C5.77179 14.3097 5.70155 14.4857 5.76676 14.6376C5.8467 14.8237 5.93423 15.0065 6.0277 15.1825L5.31545 15.9876C5.20091 15.9174 5.07168 15.8716 4.93403 15.8538C4.67513 15.8206 4.41962 15.8915 4.21404 16.0534C3.81457 16.3682 3.73379 16.9489 4.03013 17.3754L4.39176 17.896C4.69352 18.3303 5.29123 18.4519 5.7243 18.1671C6.04817 17.9541 6.20426 17.5826 6.14978 17.2207L7.19065 16.7938C7.72522 17.3551 8.33984 17.8243 9.02072 18.1907L8.87831 19.4765C8.70742 19.4716 8.53548 19.5071 8.37911 19.5817C8.12177 19.7045 7.93 19.9177 7.83916 20.1821C7.6539 20.7215 7.93926 21.3194 8.47526 21.5149L9.63219 21.9367C9.74829 21.9791 9.86495 22 9.97729 22C10.1465 22 10.306 21.9525 10.4395 21.8591C10.649 21.7125 10.7742 21.4669 10.7878 21.1797C10.8654 20.9294 10.8476 20.6628 10.7362 20.4235C10.6648 20.2701 10.56 20.139 10.4304 20.0378L11.1333 18.9353C12.1426 19.1231 13.1951 19.0955 14.1897 18.8558L14.8728 19.8128C14.6039 20.0561 14.4923 20.439 14.6156 20.7951C14.699 21.0355 14.872 21.226 15.1029 21.3315C15.3307 21.4354 15.5944 21.4417 15.8268 21.3488L16.9931 20.8823C17.4591 20.6958 17.6981 20.1859 17.5372 19.7214C17.4539 19.481 17.2809 19.2905 17.0499 19.185C16.8605 19.0985 16.6459 19.0795 16.4453 19.1293L16.2603 18.0014C16.8206 17.6609 17.3319 17.247 17.7829 16.7689L18.4795 17.0748C18.46 17.4326 18.6259 17.7868 18.9305 17.9967C19.3898 18.3133 20.0203 18.2074 20.3659 17.7559L20.5733 17.4849C20.7432 17.2628 20.8164 16.9879 20.7795 16.7108C20.7427 16.4337 20.6001 16.1875 20.378 16.0176C20.0541 15.7697 19.6312 15.7363 19.283 15.9079L18.8237 15.3622C19.0384 14.9843 19.2194 14.5862 19.3633 14.1757L20.5373 14.1221C20.5956 14.48 20.8563 14.7817 21.2224 14.8716C21.4694 14.9323 21.7234 14.8904 21.9374 14.7538C22.1483 14.6191 22.297 14.4011 22.3451 14.1555L22.5904 12.9056C22.688 12.4079 22.3625 11.9236 21.8648 11.8259Z" fill="#128894"/>
<path d="M4.14292 12.6344L5.26489 12.8936C5.28931 13.0496 5.31952 13.208 5.35504 13.366C5.38629 13.5052 5.50986 13.5998 5.64683 13.5998C5.66854 13.5998 5.69061 13.5974 5.71268 13.5925C5.87396 13.5562 5.97537 13.3961 5.93914 13.2348C5.89791 13.0511 5.86442 12.867 5.83968 12.6878C5.81609 12.5173 5.68782 12.3767 5.52055 12.3382L3.93151 11.9712C3.84319 11.9508 3.75012 11.9716 3.67888 12.0277C3.6076 12.0839 3.56565 12.1694 3.56485 12.2602L3.56322 12.4462C3.56134 12.6544 3.3904 12.8239 3.18211 12.8239C3.08293 12.8239 2.98982 12.7851 2.92002 12.7147C2.85017 12.6442 2.81222 12.5508 2.81309 12.4516L2.82347 11.2972C2.82439 11.1914 2.86937 11.0878 2.94684 11.0131C3.01963 10.9429 3.11163 10.9052 3.20881 10.9081C3.411 10.9134 3.57463 11.0825 3.57351 11.285C3.57299 11.3766 3.61454 11.4635 3.68626 11.5207C3.75798 11.5779 3.85201 11.599 3.94117 11.578L5.51904 11.208C5.68618 11.1688 5.8139 11.0279 5.83692 10.8573C5.95334 9.99396 6.23348 9.1732 6.6695 8.41777C6.75746 8.26523 6.74014 8.07278 6.6262 7.93884L5.87376 7.05514C5.81493 6.9861 5.72845 6.9473 5.63721 6.94998C5.54649 6.95261 5.46184 6.99623 5.40709 7.06859L5.34187 7.1548C5.29314 7.21921 5.2221 7.25972 5.1418 7.26894C5.06178 7.27812 4.98312 7.25457 4.92074 7.20261C4.80284 7.10439 4.78696 6.91865 4.88534 6.78858L5.38653 6.1259C5.48383 5.99727 5.66766 5.97173 5.7963 6.06907C5.91675 6.16015 5.9476 6.33124 5.86658 6.4586C5.81956 6.53255 5.80731 6.62335 5.83305 6.70712C5.8588 6.79089 5.91994 6.85918 6.00032 6.89394L7.05248 7.349C7.2156 7.41961 7.40601 7.37866 7.5263 7.24695C8.00531 6.72225 8.56055 6.27908 9.17677 5.92978C9.32603 5.84509 9.40925 5.67443 9.38386 5.50497L9.14149 3.89226C9.128 3.8025 9.07448 3.72372 8.99605 3.67806C8.91755 3.63236 8.82256 3.62478 8.73799 3.65735L8.50838 3.74567C8.42561 3.77744 8.33589 3.77413 8.25571 3.73621C8.17557 3.69834 8.11602 3.63085 8.08796 3.5462C8.03492 3.38624 8.1274 3.20396 8.29418 3.13983L9.4666 2.68888C9.54937 2.65703 9.63909 2.66042 9.71927 2.69834C9.79941 2.73621 9.859 2.8037 9.88706 2.88835C9.94006 3.04831 9.84758 3.23058 9.6808 3.29476L9.64911 3.30697C9.56338 3.33998 9.49753 3.4105 9.47051 3.4983C9.44353 3.58611 9.4583 3.68146 9.5107 3.75693L10.4337 5.08747C10.5313 5.22819 10.7089 5.29536 10.8757 5.25453C11.3959 5.12714 11.934 5.06252 12.4757 5.06252C12.6523 5.06252 12.8108 4.95121 12.8698 4.7857L13.1754 3.93058C13.2028 3.85387 13.1978 3.76926 13.1614 3.69638C13.1251 3.62346 13.0606 3.56847 12.9828 3.54416C12.7603 3.47456 12.6187 3.25601 12.6462 3.02453C12.6608 2.90136 12.7255 2.78925 12.8284 2.70883C12.9363 2.62438 13.0744 2.58555 13.2075 2.60235L13.6272 2.65519C13.8993 2.68944 14.0974 2.93006 14.069 3.19155C14.047 3.39342 13.9057 3.55713 13.7089 3.60862C13.5649 3.64633 13.4704 3.78426 13.4874 3.93225L13.5936 4.8589C13.6138 5.03574 13.7445 5.1803 13.9188 5.21865C14.5874 5.36552 15.2281 5.61445 15.8229 5.9584C15.9719 6.0446 16.1614 6.02976 16.2947 5.9216L17.561 4.8937C17.6315 4.83651 17.6722 4.75042 17.6717 4.65966C17.6712 4.56895 17.6296 4.4833 17.5585 4.42687L17.3659 4.27389C17.2964 4.21877 17.2537 4.13975 17.2457 4.05135C17.2376 3.9631 17.2655 3.87754 17.3242 3.81037C17.435 3.68341 17.639 3.67056 17.779 3.78163L18.7628 4.56272C18.8323 4.61784 18.875 4.69686 18.883 4.78522C18.8911 4.87347 18.8632 4.95903 18.8045 5.02624C18.6936 5.15312 18.4895 5.16597 18.3497 5.05502L18.3232 5.03395C18.2512 4.97675 18.1569 4.95584 18.0677 4.97715C17.9783 4.99847 17.9036 5.05965 17.8652 5.1431L17.1869 6.61549C17.1152 6.77122 17.1477 6.95848 17.2677 7.08144C17.3103 7.12502 17.3523 7.17012 17.4023 7.22444C17.5143 7.34609 17.7036 7.35391 17.8253 7.24192C17.9469 7.12993 17.9547 6.9406 17.8428 6.81895C17.8216 6.79592 17.8017 6.77437 17.7824 6.75374L18.275 5.68437C18.6196 5.79708 19.0074 5.70405 19.2554 5.42016C19.4227 5.22855 19.5022 4.98378 19.4792 4.73094C19.4565 4.48166 19.331 4.2495 19.135 4.09393L18.1512 3.31288C17.7582 3.00082 17.1969 3.04628 16.8733 3.41661C16.7059 3.60822 16.6264 3.85299 16.6495 4.10582C16.6684 4.31328 16.7584 4.50892 16.9012 4.65839L16.0141 5.37858C15.4346 5.05654 14.8166 4.81623 14.1739 4.66294L14.1081 4.08874C14.4124 3.92048 14.6258 3.61061 14.6644 3.25641C14.7279 2.67219 14.2963 2.13608 13.7022 2.06124L13.2825 2.0084C12.9925 1.97192 12.6925 2.05534 12.4598 2.23729C12.2304 2.41669 12.0855 2.6712 12.052 2.95396C12.0031 3.36504 12.1928 3.75784 12.5222 3.97999L12.3488 4.46494C11.8444 4.47356 11.3431 4.53379 10.855 4.64438L10.1852 3.6787C10.4572 3.43908 10.574 3.05773 10.4554 2.69997C10.3753 2.45847 10.2048 2.2657 9.97534 2.15715C9.74904 2.05015 9.4854 2.04029 9.2518 2.13013L8.07942 2.58104C7.61091 2.7612 7.3651 3.2679 7.51984 3.73458C7.5999 3.97608 7.77036 4.16884 7.99988 4.2774C8.18818 4.36644 8.4023 4.38827 8.60369 4.34122L8.77355 5.47141C8.18251 5.81987 7.64484 6.24875 7.17237 6.74851L6.49657 6.45624C6.55148 6.13628 6.42924 5.79708 6.15753 5.59154C5.96767 5.44794 5.73336 5.38676 5.49748 5.4196C5.26169 5.45229 5.05276 5.5749 4.9092 5.76475L4.40796 6.42743C4.11466 6.81512 4.17161 7.35766 4.53759 7.66254C4.72697 7.82031 4.96575 7.89179 5.21017 7.86369C5.36426 7.84601 5.51065 7.78778 5.63446 7.69746L6.08788 8.23007C5.6689 8.98586 5.39124 9.80003 5.26137 10.6536L4.10313 10.9252C3.96252 10.5743 3.62232 10.3201 3.22465 10.3096C2.96575 10.3031 2.72042 10.3997 2.53109 10.5823C2.33888 10.7678 2.22721 11.0264 2.22477 11.2918L2.21439 12.4463C2.21208 12.7064 2.31166 12.9514 2.49473 13.1361C2.6778 13.3209 2.92193 13.4226 3.18207 13.4226C3.65501 13.4226 4.05312 13.0828 4.14292 12.6344Z" fill="#128894"/>
<path d="M10.9932 11.0005C11.1392 10.9231 11.1949 10.7419 11.1175 10.5958C11.0401 10.4498 10.859 10.394 10.7128 10.4715C9.99745 10.8507 9.18211 10.7505 8.77435 10.2331C8.54554 9.94284 8.46684 9.55822 8.55272 9.15013C8.64276 8.72221 8.90027 8.32266 9.27778 8.02513C9.65522 7.72755 10.1039 7.57071 10.541 7.58284C10.9578 7.59461 11.3134 7.76096 11.5422 8.05123C11.8858 8.48709 11.8814 9.13768 11.5311 9.70868C11.4446 9.8496 11.4887 10.0339 11.6297 10.1204C11.7706 10.2068 11.9549 10.1627 12.0414 10.0218C12.5244 9.23458 12.5129 8.31564 12.0123 7.68062C11.6718 7.24855 11.1552 7.0013 10.5579 6.98446C9.98061 6.9677 9.39456 7.17076 8.90717 7.55498C8.4197 7.9392 8.08581 8.46195 7.96688 9.02685C7.84379 9.61162 7.9636 10.1716 8.30416 10.6037C8.66276 11.0586 9.22426 11.2979 9.82835 11.2978C10.2132 11.2978 10.6153 11.2008 10.9932 11.0005Z" fill="#128894"/>
<path d="M16.8013 8.31604C16.8013 7.69547 16.2238 7.1906 15.5139 7.1906C14.8041 7.1906 14.2265 7.69547 14.2265 8.31604C14.2265 8.93661 14.8041 9.44148 15.5139 9.44148C16.2238 9.44148 16.8013 8.93661 16.8013 8.31604ZM14.8252 8.31604C14.8252 8.02557 15.1342 7.78926 15.514 7.78926C15.8937 7.78926 16.2027 8.02557 16.2027 8.31604C16.2027 8.60651 15.8937 8.84282 15.514 8.84282C15.1342 8.84282 14.8252 8.60651 14.8252 8.31604Z" fill="#128894"/>
<path d="M13.3277 13.4606C13.3277 12.7 12.7089 12.0813 11.9484 12.0813C11.1878 12.0813 10.5691 12.7 10.5691 13.4606C10.5691 14.2211 11.1878 14.8398 11.9484 14.8398C12.7089 14.8398 13.3277 14.2211 13.3277 13.4606ZM11.1678 13.4606C11.1678 13.0301 11.518 12.6799 11.9484 12.6799C12.3788 12.6799 12.7291 13.0301 12.7291 13.4606C12.7291 13.891 12.3789 14.2412 11.9484 14.2412C11.518 14.2412 11.1678 13.891 11.1678 13.4606Z" fill="#128894"/>
<path d="M17.2299 12.8979C17.2299 12.3065 16.7487 11.8253 16.1573 11.8253C15.5659 11.8253 15.0847 12.3065 15.0847 12.8979C15.0847 13.4894 15.5659 13.9705 16.1573 13.9705C16.7487 13.9705 17.2299 13.4894 17.2299 12.8979ZM15.6834 12.8979C15.6834 12.6366 15.896 12.424 16.1573 12.424C16.4186 12.424 16.6312 12.6366 16.6312 12.8979C16.6312 13.1593 16.4186 13.3719 16.1573 13.3719C15.896 13.3718 15.6834 13.1593 15.6834 12.8979Z" fill="#128894"/>
<path d="M13.3016 17.7225C13.8812 17.7225 14.3527 17.251 14.3527 16.6714C14.3527 16.0919 13.8812 15.6203 13.3016 15.6203C12.722 15.6203 12.2505 16.0918 12.2505 16.6714C12.2505 17.251 12.722 17.7225 13.3016 17.7225ZM13.3016 16.219C13.5511 16.219 13.754 16.4219 13.754 16.6714C13.754 16.9209 13.5511 17.1238 13.3016 17.1238C13.0521 17.1238 12.8491 16.9209 12.8491 16.6714C12.8491 16.4219 13.0521 16.219 13.3016 16.219Z" fill="#128894"/>
<path d="M8.59766 15.9556C9.19453 15.9556 9.68012 15.47 9.68012 14.8732C9.68012 14.2763 9.19453 13.7907 8.59766 13.7907C8.0008 13.7907 7.51521 14.2763 7.51521 14.8732C7.51521 15.47 8.0008 15.9556 8.59766 15.9556ZM8.59766 14.3894C8.86447 14.3894 9.08146 14.6064 9.08146 14.8732C9.08146 15.1399 8.86443 15.357 8.59766 15.357C8.3309 15.357 8.11387 15.1399 8.11387 14.8732C8.11387 14.6064 8.3309 14.3894 8.59766 14.3894Z" fill="#128894"/>
<path d="M14.6929 11.127C14.6929 10.9617 14.559 10.8277 14.3936 10.8277H14.129C13.9636 10.8277 13.8297 10.9617 13.8297 11.127C13.8297 11.2923 13.9636 11.4264 14.129 11.4264H14.3936C14.559 11.4264 14.6929 11.2923 14.6929 11.127Z" fill="#128894"/>
<path d="M10.5966 16.6586H10.8685C11.0338 16.6586 11.1678 16.5246 11.1678 16.3593C11.1678 16.194 11.0338 16.06 10.8685 16.06H10.5966C10.4312 16.06 10.2973 16.194 10.2973 16.3593C10.2973 16.5246 10.4313 16.6586 10.5966 16.6586Z" fill="#128894"/>
<path d="M8.07643 12.2995C8.24178 12.2995 8.37576 12.1655 8.37576 12.0002C8.37576 11.8349 8.24178 11.7009 8.07643 11.7009H7.81454C7.64919 11.7009 7.51521 11.8349 7.51521 12.0002C7.51521 12.1655 7.64919 12.2995 7.81454 12.2995H8.07643Z" fill="#128894"/>
<path d="M13.3928 7.06256C13.5582 7.06256 13.6921 6.92854 13.6921 6.76323C13.6921 6.59792 13.5582 6.4639 13.3928 6.4639H13.0283C12.863 6.4639 12.729 6.59792 12.729 6.76323C12.729 6.92854 12.863 7.06256 13.0283 7.06256H13.3928Z" fill="#128894"/>
<path d="M15.384 15.0855C15.2187 15.0855 15.0847 15.2195 15.0847 15.3849C15.0847 15.5502 15.2187 15.6842 15.384 15.6842H15.7865C15.9518 15.6842 16.0858 15.5502 16.0858 15.3849C16.0858 15.2195 15.9518 15.0855 15.7865 15.0855H15.384Z" fill="#128894"/>
</svg>
