<svg width="25" height="24" viewBox="0 0 25 24" fill="none" xmlns="http://www.w3.org/2000/svg">
<path fill-rule="evenodd" clip-rule="evenodd" d="M12.4245 15.1418C12.4026 15.1418 12.3811 15.1414 12.3595 15.141C10.6673 15.1084 9.10253 13.8285 8.1734 11.717C8.17191 11.714 8.1708 11.711 8.16968 11.7077C7.63063 10.319 6.65543 9.43354 5.27194 9.07587C4.22392 8.80511 3.32042 8.95293 3.31113 8.95441C3.19002 8.97521 3.07523 8.8935 3.05442 8.77242C3.03399 8.65134 3.11498 8.5362 3.23609 8.5154C3.27621 8.50872 4.22912 8.3505 5.3663 8.64057C6.42398 8.90984 7.83979 9.63224 8.5828 11.542C9.4406 13.4879 10.8553 14.6667 12.3681 14.6957C13.801 14.7239 15.135 13.6903 16.0319 11.8607C16.0742 11.7036 16.3265 10.8653 17.0568 10.0389C17.7872 9.21255 19.1525 8.24539 21.5078 8.32821C21.6308 8.3323 21.727 8.43555 21.7226 8.55849C21.7181 8.68143 21.6163 8.77762 21.4922 8.77316C19.7413 8.71151 18.3605 9.23632 17.3905 10.3338C16.6697 11.1495 16.4598 11.9829 16.458 11.9915C16.4539 12.0067 16.4487 12.0215 16.4416 12.036C15.4791 14.0134 14.0176 15.1414 12.4245 15.1418Z" fill="#128894"/>
<path fill-rule="evenodd" clip-rule="evenodd" d="M3.9126 15.0415C3.5437 15.0415 3.30705 15.0058 3.28736 15.0029C3.16587 14.9839 3.08266 14.8703 3.1016 14.7488C3.12055 14.6274 3.23423 14.5438 3.35571 14.5627C3.37466 14.5657 4.2763 14.6961 5.31392 14.4105C6.69183 14.0313 7.65292 13.1302 8.16968 11.7333C8.1708 11.7304 8.17228 11.727 8.1734 11.724C9.0691 9.59807 10.6134 8.29367 12.3049 8.23424C13.9221 8.17742 15.4282 9.28571 16.4357 11.2746C16.4427 11.2887 16.4483 11.3036 16.4524 11.3188C16.4546 11.3266 16.685 12.1723 17.425 12.9764C18.4113 14.048 19.7948 14.5464 21.5368 14.4573C21.6598 14.4513 21.7646 14.5453 21.7709 14.6682C21.7772 14.7912 21.6825 14.8955 21.5599 14.9018C21.4224 14.9089 21.2883 14.9122 21.1575 14.9122C19.0466 14.9126 17.782 14.0287 17.0821 13.2617C16.3387 12.4468 16.0735 11.6126 16.0285 11.4563C15.1027 9.64079 13.7527 8.62868 12.3205 8.6792C10.8085 8.73231 9.41237 9.93346 8.58577 11.8927C7.87285 13.814 6.46856 14.5583 5.41534 14.8443C4.83468 15.0021 4.30045 15.0415 3.9126 15.0415Z" fill="#128894"/>
<path fill-rule="evenodd" clip-rule="evenodd" d="M5.13077 14.9018C5.00854 14.9018 4.90935 14.8034 4.90824 14.6809L4.8618 8.80585C4.86068 8.68291 4.95987 8.58226 5.08284 8.58114C5.20618 8.5804 5.30612 8.6792 5.30723 8.80213L5.35367 14.6775C5.35441 14.8005 5.25559 14.9011 5.13262 14.9018C5.13225 14.9018 5.13151 14.9018 5.13077 14.9018Z" fill="#128894"/>
<path fill-rule="evenodd" clip-rule="evenodd" d="M6.50942 14.3618C6.3872 14.3618 6.28764 14.263 6.28652 14.1408L6.24863 9.32397C6.24751 9.20103 6.34633 9.10075 6.46967 9.09964H6.47116C6.59338 9.09964 6.69295 9.19806 6.69406 9.32063L6.73196 14.1375C6.73307 14.2604 6.63388 14.3607 6.51091 14.3618C6.51054 14.3618 6.5098 14.3618 6.50942 14.3618Z" fill="#128894"/>
<path fill-rule="evenodd" clip-rule="evenodd" d="M19.8803 14.7852C19.7581 14.7852 19.6585 14.6868 19.6574 14.5646L19.6109 8.69071C19.6102 8.56777 19.709 8.46712 19.832 8.46601H19.8338C19.9561 8.46601 20.0556 8.5648 20.0564 8.687L20.1028 14.5609C20.1039 14.6838 20.0051 14.7845 19.8821 14.7856C19.8814 14.7852 19.8807 14.7852 19.8803 14.7852Z" fill="#128894"/>
<path fill-rule="evenodd" clip-rule="evenodd" d="M18.4935 14.2964C18.3716 14.2964 18.272 14.198 18.2709 14.0755L18.2323 9.20029C18.2315 9.07735 18.3304 8.9767 18.4533 8.97596H18.4552C18.5774 8.97596 18.677 9.07438 18.6777 9.19695L18.7164 14.0721C18.7175 14.1951 18.6183 14.2957 18.4953 14.2964C18.4949 14.2964 18.4942 14.2964 18.4935 14.2964Z" fill="#128894"/>
<path fill-rule="evenodd" clip-rule="evenodd" d="M10.0476 14.1962C9.92542 14.1962 9.82585 14.0977 9.82474 13.9755L9.78908 9.43985C9.78796 9.31691 9.88678 9.21663 10.0101 9.21552C10.1327 9.21255 10.2334 9.31357 10.2345 9.43651L10.2702 13.9718C10.2713 14.0948 10.1725 14.1954 10.0491 14.1962C10.0488 14.1962 10.048 14.1962 10.0476 14.1962Z" fill="#128894"/>
<path fill-rule="evenodd" clip-rule="evenodd" d="M11.7005 15.0582C11.5782 15.0582 11.4787 14.9598 11.4779 14.8376L11.4282 8.5518C11.427 8.42886 11.5262 8.32821 11.6492 8.32747H11.6511C11.7733 8.32747 11.8725 8.42589 11.8736 8.54809L11.9234 14.8339C11.9241 14.9568 11.8253 15.0575 11.7023 15.0582C11.7016 15.0582 11.7012 15.0582 11.7005 15.0582Z" fill="#128894"/>
<path fill-rule="evenodd" clip-rule="evenodd" d="M14.8103 14.1494C14.6881 14.1494 14.5886 14.0509 14.5874 13.9287L14.5518 9.41125C14.551 9.28831 14.6499 9.18803 14.7728 9.18692H14.7747C14.8969 9.18692 14.9965 9.28571 14.9972 9.40791L15.0329 13.925C15.034 14.048 14.9348 14.1486 14.8122 14.1497C14.8115 14.1494 14.8107 14.1494 14.8103 14.1494Z" fill="#128894"/>
<path fill-rule="evenodd" clip-rule="evenodd" d="M13.1709 15.0519C13.0487 15.0519 12.9495 14.9535 12.9484 14.8309L12.8986 8.53509C12.8975 8.41215 12.9967 8.3115 13.1196 8.31038H13.1215C13.2437 8.31038 13.3433 8.40918 13.344 8.53137L13.3938 14.8276C13.3945 14.9505 13.2957 15.0508 13.1727 15.0519C13.1724 15.0519 13.1716 15.0519 13.1709 15.0519Z" fill="#128894"/>
<path fill-rule="evenodd" clip-rule="evenodd" d="M16.1545 4.74742C15.5348 4.74742 15.0306 4.24341 15.0306 3.6239C15.0306 3.00401 15.5348 2.5 16.1545 2.5C16.7741 2.5 17.2786 3.00401 17.2786 3.6239C17.2786 4.24341 16.7741 4.74742 16.1545 4.74742ZM16.1545 2.94532C15.7803 2.94532 15.4761 3.24988 15.4761 3.6239C15.4761 3.99791 15.7803 4.3021 16.1545 4.3021C16.5286 4.3021 16.8332 3.99791 16.8332 3.6239C16.8332 3.24951 16.5286 2.94532 16.1545 2.94532Z" fill="#128894"/>
<path fill-rule="evenodd" clip-rule="evenodd" d="M13.1865 6.94581C12.5668 6.94581 12.0627 6.44181 12.0627 5.82229C12.0627 5.20277 12.5668 4.69839 13.1865 4.69839C13.8062 4.69839 14.3103 5.20277 14.3103 5.82229C14.3103 6.44181 13.8062 6.94581 13.1865 6.94581ZM13.1865 5.14372C12.8124 5.14372 12.5081 5.44828 12.5081 5.82229C12.5081 6.1963 12.8124 6.50049 13.1865 6.50049C13.5606 6.50049 13.8649 6.1963 13.8649 5.82229C13.8649 5.44828 13.5606 5.14372 13.1865 5.14372Z" fill="#128894"/>
<path fill-rule="evenodd" clip-rule="evenodd" d="M19.1224 7.67861C18.5027 7.67861 17.9986 7.1746 17.9986 6.55509C17.9986 5.93557 18.5027 5.43119 19.1224 5.43119C19.7425 5.43119 20.2466 5.93557 20.2466 6.55509C20.2466 7.1746 19.7425 7.67861 19.1224 7.67861ZM19.1224 5.87651C18.7483 5.87651 18.444 6.18107 18.444 6.55509C18.444 6.9291 18.7483 7.23329 19.1224 7.23329C19.4969 7.23329 19.8012 6.9291 19.8012 6.55509C19.8012 6.18107 19.4969 5.87651 19.1224 5.87651Z" fill="#128894"/>
<path fill-rule="evenodd" clip-rule="evenodd" d="M13.8552 5.44085C13.7846 5.44085 13.7155 5.40742 13.6721 5.34502C13.6018 5.244 13.6271 5.10509 13.7282 5.03526L15.2866 3.95408C15.3877 3.88388 15.5262 3.90877 15.5965 4.00979C15.6667 4.11082 15.6418 4.24973 15.5404 4.31955L13.9819 5.40111C13.9433 5.42785 13.899 5.44085 13.8552 5.44085Z" fill="#128894"/>
<path fill-rule="evenodd" clip-rule="evenodd" d="M18.5072 6.11942C18.4474 6.11942 18.3883 6.09602 18.3445 6.04885L16.7177 4.31027C16.6337 4.22038 16.6382 4.07962 16.7281 3.99568C16.818 3.91174 16.9588 3.9162 17.0427 4.00608L18.6695 5.74466C18.7539 5.83455 18.749 5.97568 18.6591 6.05962C18.616 6.09973 18.5614 6.11942 18.5072 6.11942Z" fill="#128894"/>
<path fill-rule="evenodd" clip-rule="evenodd" d="M10.434 19.4502C10.3957 19.4502 10.3571 19.4401 10.3229 19.4205L9.13894 18.7371C9.07021 18.6973 9.02749 18.6238 9.02749 18.5443V17.1779C9.02749 17.0984 9.07021 17.0248 9.13894 16.9851L10.3229 16.3017C10.3917 16.262 10.4767 16.262 10.5455 16.3017L11.7291 16.9851C11.7982 17.0248 11.8405 17.0984 11.8405 17.1779V18.5443C11.8405 18.6238 11.7982 18.6973 11.7291 18.7371L10.5455 19.4205C10.5109 19.4401 10.4726 19.4502 10.434 19.4502ZM9.47292 18.4158L10.434 18.9703L11.3951 18.4158V17.3064L10.434 16.7515L9.47292 17.3064V18.4158Z" fill="#128894"/>
<path fill-rule="evenodd" clip-rule="evenodd" d="M11.6176 21.5C11.5794 21.5 11.5411 21.49 11.5065 21.4699L10.3229 20.7869C10.2538 20.7471 10.2115 20.6736 10.2115 20.5941V19.2273C10.2115 19.1478 10.2538 19.0743 10.3229 19.0346L11.5065 18.3515C11.5753 18.3118 11.6603 18.3118 11.7291 18.3515L12.9127 19.0346C12.9818 19.0743 13.0241 19.1478 13.0241 19.2273V20.5941C13.0241 20.6736 12.9818 20.7471 12.9127 20.7869L11.7291 21.4699C11.6945 21.49 11.6563 21.5 11.6176 21.5ZM10.6569 20.4656L11.6176 21.0201L12.5787 20.4656V19.3558L11.6176 18.8013L10.6569 19.3558V20.4656Z" fill="#128894"/>
<path fill-rule="evenodd" clip-rule="evenodd" d="M9.25039 17.4003C9.19318 17.4003 9.13634 17.3788 9.09287 17.3353L7.46196 15.7048C7.37503 15.6179 7.37503 15.4768 7.46196 15.3899C7.54927 15.303 7.69007 15.303 7.777 15.3899L9.40791 17.0204C9.49484 17.1073 9.49484 17.2484 9.40791 17.3353C9.36444 17.3788 9.30723 17.4003 9.25039 17.4003Z" fill="#128894"/>
<path fill-rule="evenodd" clip-rule="evenodd" d="M12.8012 19.4502C12.7032 19.4502 12.6133 19.3844 12.5865 19.2853C12.5546 19.1664 12.6251 19.0442 12.744 19.0123L14.6432 18.5038C14.7617 18.4719 14.8839 18.5424 14.9159 18.6613C14.9474 18.7798 14.8772 18.902 14.7583 18.9339L12.8592 19.4427C12.8399 19.4476 12.8206 19.4502 12.8012 19.4502Z" fill="#128894"/>
<path fill-rule="evenodd" clip-rule="evenodd" d="M9.25039 21.5C9.21176 21.5 9.17349 21.49 9.13894 21.4699L7.95532 20.7869C7.88622 20.7471 7.84387 20.6736 7.84387 20.5941V19.2273C7.84387 19.1478 7.88622 19.0743 7.95532 19.0346L9.13894 18.3515C9.20804 18.3118 9.29274 18.3118 9.36184 18.3515L10.5455 19.0346C10.6142 19.0743 10.6569 19.1478 10.6569 19.2273V20.5941C10.6569 20.6736 10.6142 20.7471 10.5455 20.7869L9.36184 21.4699C9.32729 21.49 9.28866 21.5 9.25039 21.5ZM8.28931 20.4656L9.25039 21.0201L10.2115 20.4656V19.3558L9.25039 18.8013L8.28931 19.3558V20.4656Z" fill="#128894"/>
</svg>
