<svg width="25" height="24" viewBox="0 0 25 24" fill="none" xmlns="http://www.w3.org/2000/svg">
<path d="M20.9224 13.2241C21.2324 13.1837 21.5251 13.0581 21.768 12.8613C22.0109 12.6646 22.1945 12.4044 22.2985 12.1096C22.4026 11.8149 22.4229 11.497 22.3572 11.1914C22.2916 10.8858 22.1425 10.6044 21.9266 10.3783C21.3016 9.72831 21.3349 9.88248 14.4766 9.51998C14.4766 9.24498 14.0849 9.54915 17.1849 7.77831C17.4766 7.61165 17.3933 7.59081 17.3933 3.87415L18.8933 2.74915C18.9817 2.68284 19.0401 2.58414 19.0558 2.47474C19.0714 2.36534 19.0429 2.25422 18.9766 2.16581C18.9103 2.07741 18.8116 2.01896 18.7022 2.00333C18.5928 1.98771 18.4817 2.01618 18.3933 2.08248L16.7266 3.33248C16.4891 3.50748 16.5599 3.46165 16.5599 7.17415L14.3599 8.42415C14.3006 8.23255 14.2121 8.05125 14.0974 7.88665C14.307 7.68917 14.4419 7.4254 14.4795 7.13992C14.517 6.85444 14.4548 6.56475 14.3035 6.31981C14.1521 6.07487 13.9208 5.8897 13.6487 5.7956C13.3766 5.70149 13.0803 5.70422 12.8099 5.80331V2.41581C12.8099 2.30531 12.766 2.19933 12.6879 2.12119C12.6098 2.04305 12.5038 1.99915 12.3933 1.99915C12.2828 1.99915 12.1768 2.04305 12.0986 2.12119C12.0205 2.19933 11.9766 2.30531 11.9766 2.41581V5.82415C11.7063 5.72505 11.41 5.72232 11.1379 5.81643C10.8657 5.91054 10.6344 6.09571 10.4831 6.34065C10.3317 6.58558 10.2695 6.87527 10.3071 7.16075C10.3446 7.44623 10.4796 7.71 10.6891 7.90748C10.5745 8.07208 10.4859 8.25338 10.4266 8.44498L8.2266 7.19498C8.2266 3.46581 8.29327 3.52831 8.05994 3.35331L6.39327 2.10331C6.30707 2.06071 6.20879 2.04923 6.11509 2.07082C6.02139 2.09241 5.93804 2.14574 5.87918 2.22177C5.82032 2.2978 5.78956 2.39185 5.79213 2.48797C5.7947 2.58409 5.83043 2.67637 5.89327 2.74915L7.39327 3.87415C7.39327 7.53665 7.3016 7.62415 7.6016 7.77831C10.6974 9.54498 10.3099 9.24498 10.3099 9.51998L4.0016 9.85331C3.56398 9.88334 3.1549 10.0814 2.85989 10.406C2.56487 10.7306 2.40675 11.1567 2.41859 11.5952C2.43043 12.0337 2.6113 12.4506 2.9234 12.7589C3.2355 13.0671 3.65467 13.2428 4.09327 13.2491C9.29327 13.2491 8.42244 13.545 10.3433 11.9991C10.396 12.2486 10.4949 12.486 10.6349 12.6991L6.70994 15.8408C6.53077 15.9825 6.58494 15.9241 6.16827 18.4408L4.20994 20.0075C4.13403 20.0791 4.08778 20.1767 4.08034 20.2808C4.0729 20.3849 4.10482 20.488 4.16977 20.5697C4.23473 20.6515 4.32799 20.7058 4.4311 20.7221C4.53422 20.7383 4.63967 20.7153 4.7266 20.6575L6.80994 18.9908C6.98911 18.8491 6.93494 18.9075 7.3516 16.3908L9.77661 14.4533L8.26827 17.2158C8.19744 17.345 8.21827 17.2158 8.21827 19.745L6.67244 21.2866C6.59398 21.3651 6.5499 21.4715 6.5499 21.5825C6.5499 21.6934 6.59398 21.7999 6.67244 21.8783C6.7509 21.9568 6.85731 22.0009 6.96827 22.0009C7.07923 22.0009 7.18565 21.9568 7.2641 21.8783C9.05994 20.1116 9.05994 20.1533 9.05994 19.9158V17.52L10.8058 14.32C10.8058 14.5533 10.7599 13.845 11.0974 19.9408C11.0974 20.2845 11.234 20.6141 11.477 20.8571C11.72 21.1001 12.0496 21.2366 12.3933 21.2366C12.7369 21.2366 13.0665 21.1001 13.3096 20.8571C13.5526 20.6141 13.6891 20.2845 13.6891 19.9408L13.7558 18.7158C14.0648 19.3091 14.4999 19.8275 15.0306 20.2348C15.5613 20.642 16.1747 20.9281 16.8278 21.073C17.4808 21.2179 18.1577 21.2182 18.8108 21.0737C19.4639 20.9292 20.0775 20.6434 20.6085 20.2366C21.1395 19.8297 21.5749 19.3115 21.8844 18.7185C22.1938 18.1254 22.3696 17.4718 22.3995 16.8035C22.4294 16.1353 22.3127 15.4685 22.0575 14.8502C21.8024 14.2318 21.4149 13.6768 20.9224 13.2241ZM20.7266 10.6866C20.9457 10.7055 21.1494 10.8069 21.2964 10.9704C21.4435 11.1338 21.523 11.347 21.5188 11.5668C21.5145 11.7866 21.4269 11.9966 21.2736 12.1543C21.1203 12.3119 20.9129 12.4054 20.6933 12.4158H19.7099C19.1633 12.1633 18.5718 12.0226 17.97 12.0018C17.3683 11.9811 16.7685 12.0808 16.2058 12.295C15.9891 12.1991 16.0849 12.2533 14.4766 10.9658V10.3533L20.7266 10.6866ZM11.1433 11.5825V9.08248C11.1433 8.75096 11.275 8.43302 11.5094 8.1986C11.7438 7.96418 12.0618 7.83248 12.3933 7.83248C12.7248 7.83248 13.0427 7.96418 13.2772 8.1986C13.5116 8.43302 13.6433 8.75096 13.6433 9.08248V11.5825C13.6433 11.914 13.5116 12.2319 13.2772 12.4664C13.0427 12.7008 12.7248 12.8325 12.3933 12.8325C12.0618 12.8325 11.7438 12.7008 11.5094 12.4664C11.275 12.2319 11.1433 11.914 11.1433 11.5825ZM11.7016 15.7491H13.0891L13.0391 16.5825H11.7474L11.7016 15.7491ZM12.9516 13.9075C13.2474 14.2158 13.1558 14.5616 13.1391 14.9158H11.6516V14.4741C11.6472 14.3222 11.6883 14.1724 11.7697 14.044C11.8511 13.9156 11.969 13.8144 12.1083 13.7535C12.2476 13.6926 12.4019 13.6747 12.5514 13.7021C12.7009 13.7296 12.8389 13.8011 12.9474 13.9075H12.9516ZM11.7933 17.4158H12.9933L12.9474 18.2491H11.8391L11.7933 17.4158ZM13.5391 13.32C13.7679 13.1695 13.9648 12.9754 14.1185 12.7487C14.2722 12.5221 14.3798 12.2674 14.4349 11.9991L15.3433 12.7241C14.7851 13.0816 14.3116 13.5566 13.9558 14.1158C13.8964 13.816 13.7517 13.5396 13.5391 13.32ZM13.2266 6.58248C13.3111 6.58414 13.393 6.61145 13.4616 6.66077C13.5302 6.71009 13.5822 6.7791 13.6107 6.85864C13.6392 6.93819 13.6428 7.02451 13.6211 7.10616C13.5994 7.1878 13.5533 7.26092 13.4891 7.31581C12.9266 6.96581 12.8099 7.11998 12.8099 6.99915C12.8099 6.88864 12.8538 6.78266 12.932 6.70452C13.0101 6.62638 13.1161 6.58248 13.2266 6.58248ZM11.5599 6.58248C11.6183 6.58219 11.6762 6.59418 11.7296 6.61767C11.7831 6.64117 11.831 6.67564 11.8703 6.71886C11.9096 6.76208 11.9394 6.81308 11.9577 6.86854C11.976 6.92401 11.9824 6.9827 11.9766 7.04081C11.7372 7.0921 11.5087 7.18519 11.3016 7.31581C11.2376 7.26116 11.1917 7.18842 11.1698 7.10715C11.148 7.02588 11.1512 6.9399 11.1792 6.86053C11.2072 6.78115 11.2585 6.71211 11.3265 6.66248C11.3944 6.61284 11.4758 6.58496 11.5599 6.58248ZM8.83911 12.1408C8.3891 12.5033 8.42244 12.4158 4.09327 12.4158C3.87365 12.4054 3.6662 12.3119 3.51292 12.1543C3.35965 11.9966 3.27202 11.7866 3.26779 11.5668C3.26355 11.347 3.34302 11.1338 3.4901 10.9704C3.63718 10.8069 3.84088 10.7055 4.05994 10.6866L10.3099 10.3533V10.9658L8.83911 12.1408ZM11.9308 19.9158L11.8849 19.0825H12.9016L12.8558 19.9158C12.8558 20.0385 12.807 20.1561 12.7203 20.2429C12.6336 20.3296 12.5159 20.3783 12.3933 20.3783C12.2706 20.3783 12.153 20.3296 12.0662 20.2429C11.9795 20.1561 11.9308 20.0385 11.9308 19.9158ZM17.8099 20.3325C17.0683 20.3325 16.3432 20.1125 15.7266 19.7005C15.1099 19.2884 14.6292 18.7028 14.3454 18.0175C14.0616 17.3323 13.9873 16.5783 14.132 15.8509C14.2767 15.1235 14.6338 14.4553 15.1583 13.9308C15.6827 13.4064 16.3509 13.0492 17.0784 12.9045C17.8058 12.7598 18.5598 12.8341 19.245 13.1179C19.9302 13.4018 20.5159 13.8824 20.9279 14.4991C21.34 15.1158 21.5599 15.8408 21.5599 16.5825C21.5599 17.577 21.1649 18.5309 20.4616 19.2341C19.7583 19.9374 18.8045 20.3325 17.8099 20.3325Z" fill="#128894"/>
<path d="M19.8516 16.1658C19.6558 15.1991 19.2891 15.695 19.8724 15.1116C19.9113 15.0728 19.9421 15.0267 19.9631 14.9759C19.9842 14.9252 19.995 14.8708 19.995 14.8158C19.995 14.7609 19.9842 14.7065 19.9631 14.6557C19.9421 14.605 19.9113 14.5588 19.8724 14.52C19.8336 14.4811 19.7875 14.4503 19.7367 14.4293C19.6859 14.4083 19.6315 14.3974 19.5766 14.3974C19.5217 14.3974 19.4673 14.4083 19.4165 14.4293C19.3657 14.4503 19.3196 14.4811 19.2808 14.52C18.6891 15.1116 19.2183 14.745 18.2266 14.5408V14.0825C18.2266 13.972 18.1827 13.866 18.1046 13.7879C18.0264 13.7097 17.9204 13.6658 17.8099 13.6658C17.6994 13.6658 17.5935 13.7097 17.5153 13.7879C17.4372 13.866 17.3933 13.972 17.3933 14.0825V14.5408C16.4266 14.7366 16.9224 15.1033 16.3391 14.52C16.2606 14.4415 16.1542 14.3974 16.0433 14.3974C15.9323 14.3974 15.8259 14.4415 15.7474 14.52C15.669 14.5984 15.6249 14.7049 15.6249 14.8158C15.6249 14.9268 15.669 15.0332 15.7474 15.1116C16.3391 15.7033 15.9724 15.1741 15.7683 16.1658H15.3099C15.1994 16.1658 15.0935 16.2097 15.0153 16.2879C14.9372 16.366 14.8933 16.472 14.8933 16.5825C14.8933 16.693 14.9372 16.799 15.0153 16.8771C15.0935 16.9552 15.1994 16.9991 15.3099 16.9991H15.7683C15.9641 17.9658 16.3308 17.47 15.7474 18.0533C15.6887 18.1116 15.6486 18.1861 15.6323 18.2672C15.616 18.3483 15.6243 18.4325 15.656 18.5089C15.6878 18.5854 15.7415 18.6506 15.8105 18.6964C15.8795 18.7421 15.9605 18.7663 16.0433 18.7658C16.2474 18.7658 16.3016 18.6783 16.6641 18.32C17.4683 18.8533 17.3933 18.2825 17.3933 19.0825C17.3933 19.193 17.4372 19.299 17.5153 19.3771C17.5935 19.4552 17.6994 19.4991 17.8099 19.4991C17.9204 19.4991 18.0264 19.4552 18.1046 19.3771C18.1827 19.299 18.2266 19.193 18.2266 19.0825C18.2266 18.2491 18.1183 18.8741 18.9558 18.32C19.2599 18.6241 19.3724 18.7658 19.5766 18.7658C19.6611 18.7707 19.7452 18.7497 19.8175 18.7056C19.8898 18.6615 19.9469 18.5964 19.9813 18.5191C20.0157 18.4417 20.0257 18.3557 20.01 18.2724C19.9942 18.1892 19.9535 18.1128 19.8933 18.0533C19.3016 17.4616 19.6683 17.9908 19.8724 16.9991H20.3099C20.4204 16.9991 20.5264 16.9552 20.6046 16.8771C20.6827 16.799 20.7266 16.693 20.7266 16.5825C20.7266 16.472 20.6827 16.366 20.6046 16.2879C20.5264 16.2097 20.4204 16.1658 20.3099 16.1658H19.8516ZM17.8099 17.8325C17.5627 17.8325 17.321 17.7592 17.1155 17.6218C16.9099 17.4845 16.7497 17.2892 16.6551 17.0608C16.5605 16.8324 16.5357 16.5811 16.584 16.3386C16.6322 16.0961 16.7512 15.8734 16.9261 15.6986C17.1009 15.5238 17.3236 15.4047 17.5661 15.3565C17.8086 15.3083 18.0599 15.333 18.2883 15.4276C18.5167 15.5222 18.7119 15.6825 18.8493 15.888C18.9866 16.0936 19.0599 16.3353 19.0599 16.5825C19.0599 16.914 18.9282 17.2319 18.6938 17.4664C18.4594 17.7008 18.1415 17.8325 17.8099 17.8325Z" fill="#128894"/>
<path d="M17.3933 15.7491C17.2828 15.7491 17.1768 15.793 17.0986 15.8712C17.0205 15.9493 16.9766 16.0553 16.9766 16.1658C16.9766 16.2763 17.0205 16.3823 17.0986 16.4604C17.1768 16.5386 17.2828 16.5825 17.3933 16.5825C17.5038 16.5825 17.6098 16.5386 17.6879 16.4604C17.766 16.3823 17.8099 16.2763 17.8099 16.1658C17.8099 16.0553 17.766 15.9493 17.6879 15.8712C17.6098 15.793 17.5038 15.7491 17.3933 15.7491Z" fill="#128894"/>
<path d="M18.2266 16.5825C18.1161 16.5825 18.0101 16.6264 17.932 16.7045C17.8538 16.7827 17.8099 16.8886 17.8099 16.9991C17.8099 17.1097 17.8538 17.2156 17.932 17.2938C18.0101 17.3719 18.1161 17.4158 18.2266 17.4158C18.3371 17.4158 18.4431 17.3719 18.5212 17.2938C18.5994 17.2156 18.6433 17.1097 18.6433 16.9991C18.6433 16.8886 18.5994 16.7827 18.5212 16.7045C18.4431 16.6264 18.3371 16.5825 18.2266 16.5825Z" fill="#128894"/>
</svg>
