<svg width="25" height="24" viewBox="0 0 25 24" fill="none" xmlns="http://www.w3.org/2000/svg">
<path d="M12.6839 16.296H13.2414V16.8536H12.6839V16.296Z" fill="#128894"/>
<path d="M11.5687 16.296H12.1263V16.8536H11.5687V16.296Z" fill="#128894"/>
<path d="M9.89605 20.4777V16.9465H9.33848V19.0095H6.45774C5.99656 19.0095 5.6214 18.6343 5.6214 18.1731V15.8038C8.67722 15.4661 8.67491 11.1403 5.6214 10.8037V8.50871C5.6214 8.04757 5.99656 7.67236 6.45774 7.67236H9.00926C7.93588 9.38416 8.59076 11.7305 10.3147 12.7465C12.0348 13.8358 14.5899 13.3222 15.6873 11.6076L15.2248 11.2963C13.8936 13.3589 10.5417 13.2122 9.42026 11.023C8.86961 10.002 8.92306 8.81117 9.56326 7.8374L10.4985 6.4145L10.0325 6.10829L9.37097 7.11484H6.45774C5.68912 7.11484 5.06384 7.74013 5.06384 8.50875V10.8201C2.20424 11.2923 2.20632 15.3164 5.06384 15.7875V18.1732C5.06384 18.9418 5.68912 19.5671 6.45774 19.5671H9.33848V20.4778C9.33848 21.0414 9.79702 21.5 10.3607 21.5H12.9998V20.9424H10.3607C10.1045 20.9424 9.89605 20.7339 9.89605 20.4777ZM3.46549 13.3037C3.46549 12.2277 4.3409 11.3523 5.41696 11.3523C8.00584 11.4595 8.00509 15.1484 5.41696 15.2552C4.34094 15.2552 3.46549 14.3798 3.46549 13.3037Z" fill="#128894"/>
<path d="M14.3566 14.995H10.4536V18.1545H14.3566V14.995ZM13.799 17.597H11.0112V15.5526H13.799V17.597Z" fill="#128894"/>
<path d="M11.29 20.3848H11.8475V19.8272H11.29C11.1362 19.8272 11.0112 19.7022 11.0112 19.5485C11.0112 19.3947 11.1362 19.2697 11.29 19.2697H11.8475V18.7121H11.29C10.1804 18.7581 10.1809 20.3391 11.29 20.3848Z" fill="#128894"/>
<path d="M14.3566 19.5485C14.3566 19.0873 13.9813 18.7121 13.5202 18.7121H12.9626V19.2697H13.5202C13.6739 19.2697 13.799 19.3947 13.799 19.5485C13.799 19.7022 13.6739 19.8272 13.5202 19.8272H12.9626V20.3848H13.5202C13.9814 20.3848 14.3566 20.0096 14.3566 19.5485Z" fill="#128894"/>
<path d="M12.1981 5.85099L10.1261 9.86544H11.8501L11.4784 11.9842H12.4634L14.5354 7.96973H12.8114L13.1831 5.85099H12.1981ZM13.6202 8.52729L12.1519 11.3721L12.514 9.30788H11.0413L12.5096 6.46305L12.1474 8.52729H13.6202Z" fill="#128894"/>
<path d="M5.69574 14.6047V13.5825H6.71794V13.025H5.69574V12.0028H5.13818V13.025H4.11598V13.5825H5.13818V14.6047H5.69574Z" fill="#128894"/>
<path d="M21.9022 13.3037C21.9022 12.0402 20.9632 10.9923 19.7463 10.8201V8.50871C19.7463 7.74009 19.121 7.1148 18.3524 7.1148H15.4531V7.13614L12.4051 2.5L10.3452 5.6328L10.8111 5.93909L12.4051 3.51484L15.2469 7.8374C15.849 8.75325 15.9359 9.84437 15.4854 10.8309L15.9926 11.0625C16.5014 9.94811 16.4297 8.72181 15.801 7.67233H18.3525C18.8136 7.67233 19.1888 8.04753 19.1888 8.50867V10.8037C16.133 11.1414 16.1353 15.4672 19.1888 15.8037V18.1731C19.1888 18.6342 18.8136 19.0094 18.3525 19.0094H15.4717V14.9021C15.4717 14.3384 15.0131 13.8799 14.4495 13.8799H10.3607C9.79706 13.8799 9.33852 14.3384 9.33852 14.9021V16.1584H9.89608V14.9021C9.89608 14.6458 10.1045 14.4374 10.3607 14.4374H14.4495C14.7057 14.4374 14.9142 14.6458 14.9142 14.9021V20.4777C14.9142 20.7339 14.7057 20.9423 14.4495 20.9423H13.7886V21.4999H14.4495C15.0131 21.4999 15.4717 21.0413 15.4717 20.4777V19.567H18.3525C19.1211 19.567 19.7464 18.9417 19.7464 18.1731V15.7875C20.9632 15.6153 21.9022 14.5674 21.9022 13.3037ZM19.3932 15.2552C18.3172 15.2552 17.4417 14.3798 17.4417 13.3037C17.5489 10.7149 21.2378 10.7156 21.3447 13.3037C21.3447 14.3798 20.4693 15.2552 19.3932 15.2552Z" fill="#128894"/>
<path d="M18.0922 13.025H20.6942V13.5825H18.0922V13.025Z" fill="#128894"/>
</svg>
