<svg width="25" height="24" viewBox="0 0 25 24" fill="none" xmlns="http://www.w3.org/2000/svg">
<path d="M19.8584 14.6735C20.0986 14.6735 20.2932 14.4788 20.2932 14.2387C20.2932 13.9985 20.0986 13.8039 19.8584 13.8039C19.6183 13.8039 19.4236 13.9985 19.4236 14.2387C19.4236 14.4788 19.6183 14.6735 19.8584 14.6735Z" fill="#128894"/>
<path d="M15.9452 20.7608C16.1853 20.7608 16.38 20.5661 16.38 20.326C16.38 20.0858 16.1853 19.8912 15.9452 19.8912C15.705 19.8912 15.5104 20.0858 15.5104 20.326C15.5104 20.5661 15.705 20.7608 15.9452 20.7608Z" fill="#128894"/>
<path d="M13.3363 15.9779C13.5765 15.9779 13.7711 15.7832 13.7711 15.5431C13.7711 15.303 13.5765 15.1083 13.3363 15.1083C13.0962 15.1083 12.9015 15.303 12.9015 15.5431C12.9015 15.7832 13.0962 15.9779 13.3363 15.9779Z" fill="#128894"/>
<path d="M18.1192 13.3691C18.3593 13.3691 18.554 13.1744 18.554 12.9343C18.554 12.6941 18.3593 12.4994 18.1192 12.4994C17.8791 12.4994 17.6844 12.6941 17.6844 12.9343C17.6844 13.1744 17.8791 13.3691 18.1192 13.3691Z" fill="#128894"/>
<path d="M16.38 17.2823C16.6201 17.2823 16.8148 17.0877 16.8148 16.8475C16.8148 16.6074 16.6201 16.4127 16.38 16.4127C16.1398 16.4127 15.9452 16.6074 15.9452 16.8475C15.9452 17.0877 16.1398 17.2823 16.38 17.2823Z" fill="#128894"/>
<path d="M18.9888 19.8912C19.229 19.8912 19.4236 19.6965 19.4236 19.4564C19.4236 19.2162 19.229 19.0215 18.9888 19.0215C18.7487 19.0215 18.554 19.2162 18.554 19.4564C18.554 19.6965 18.7487 19.8912 18.9888 19.8912Z" fill="#128894"/>
<path fill-rule="evenodd" clip-rule="evenodd" d="M9.01278 2.34635C8.63647 2.41943 8.28838 2.5992 8.01052 2.86509C7.71139 3.15135 7.50839 3.52334 7.4295 3.92979C7.3506 4.33624 7.3997 4.75716 7.57002 5.13454C7.74035 5.51192 8.02351 5.82719 8.3805 6.03692C8.41382 6.05649 8.44341 6.07997 8.46904 6.10644L16.0872 5.80887C16.4515 5.79464 16.815 5.8541 17.1557 5.9837C17.4965 6.11329 17.8076 6.31035 18.0704 6.56307C18.3331 6.81578 18.5422 7.11894 18.685 7.45439C18.8278 7.78984 18.9014 8.15066 18.9014 8.51524C18.9014 8.74537 18.7148 8.93193 18.4847 8.93193C18.2546 8.93193 18.068 8.74537 18.068 8.51524C18.068 8.26284 18.0171 8.01304 17.9182 7.78081C17.8193 7.54858 17.6746 7.3387 17.4927 7.16374C17.3108 6.98879 17.0954 6.85236 16.8595 6.76264C16.6236 6.67292 16.372 6.63176 16.1198 6.64161L6.78715 7.00615L6.77803 7.00611C6.35603 7.00409 5.94981 7.16639 5.64538 7.45863C5.34277 7.74912 5.16435 8.14533 5.14726 8.56426C5.14936 8.94639 5.31224 9.34453 5.58285 9.64781C5.85445 9.95221 6.2065 10.1316 6.56551 10.1316C6.63928 10.1316 6.70857 10.1507 6.76868 10.1844L9.9073 10.1316C10.1374 10.1278 10.3271 10.3112 10.3309 10.5413C10.3348 10.7714 10.1514 10.961 9.9213 10.9649L5.30686 11.0424L5.29672 11.0421C4.96993 11.0317 4.64433 11.0864 4.33889 11.203C4.03344 11.3196 3.75426 11.4959 3.5176 11.7215C3.28094 11.9471 3.09154 12.2175 2.96041 12.517C2.82929 12.8165 2.75908 13.1391 2.75386 13.466C2.74864 13.793 2.80852 14.1176 2.93001 14.4212C3.05151 14.7247 3.23218 15.0011 3.46152 15.2341C3.69086 15.4671 3.96427 15.6522 4.26583 15.7785C4.5674 15.9049 4.89108 15.9699 5.21804 15.9699H8.30872C8.53885 15.9699 8.72541 16.1565 8.72541 16.3866C8.72541 16.6167 8.53885 16.8033 8.30872 16.8033H5.21802C4.78051 16.8033 4.34737 16.7162 3.94383 16.5472C3.5403 16.3781 3.17443 16.1305 2.86754 15.8187C2.56065 15.5068 2.31888 15.137 2.15631 14.7309C1.99373 14.3247 1.9136 13.8902 1.92059 13.4527C1.92757 13.0153 2.02153 12.5836 2.19699 12.1828C2.37245 11.782 2.6259 11.4201 2.94259 11.1183C3.25927 10.8164 3.63286 10.5805 4.04159 10.4245C4.34108 10.3101 4.65505 10.2402 4.97351 10.2165C4.96933 10.2119 4.96517 10.2073 4.96102 10.2027C4.56664 9.76065 4.31387 9.16628 4.31387 8.55681V8.54929L4.31414 8.54178C4.33717 7.90369 4.60763 7.29961 5.06825 6.85743C5.52658 6.41746 6.13737 6.17215 6.77245 6.17271L7.2405 6.15443C7.06679 5.95145 6.92163 5.72375 6.81043 5.47737C6.56919 4.94285 6.49965 4.34668 6.61139 3.77099C6.72313 3.19531 7.01065 2.66844 7.43434 2.26299C7.85803 1.85754 8.39703 1.59346 8.97707 1.50715L8.98261 1.50632L8.98817 1.50565C9.10535 1.49141 9.22423 1.50417 9.33572 1.54295C9.44722 1.58172 9.54836 1.64548 9.63143 1.72935C9.7145 1.81321 9.77728 1.91497 9.81498 2.02683C9.85245 2.13802 9.86415 2.25627 9.8492 2.37262L9.77441 2.98101C9.77248 2.99673 9.77378 3.01269 9.77825 3.0279C9.78271 3.0431 9.79024 3.05724 9.80036 3.06942C9.81049 3.08161 9.823 3.0916 9.83713 3.09878C9.85126 3.10595 9.8667 3.11015 9.88251 3.11114L14.8626 3.42026C15.2851 3.43809 15.6845 3.6181 15.9777 3.92297C16.2721 4.22907 16.4365 4.63726 16.4365 5.06194C16.4365 5.29207 16.2499 5.47863 16.0198 5.47863C15.7897 5.47863 15.6031 5.29207 15.6031 5.06194C15.6031 4.85265 15.5221 4.65149 15.377 4.50064C15.2319 4.34979 15.0341 4.26097 14.825 4.2528L14.8202 4.25261L9.83088 3.94291C9.70161 3.93489 9.57534 3.9005 9.45986 3.84187C9.34437 3.78323 9.2421 3.7016 9.15934 3.60197C9.07657 3.50235 9.01507 3.38685 8.97859 3.26257C8.94212 3.1383 8.93146 3.00788 8.94726 2.87932L9.01278 2.34635ZM15.6525 9.83272C12.6608 9.83272 10.2356 12.258 10.2356 15.2497C10.2356 18.2414 12.6608 20.6666 15.6525 20.6666C18.6442 20.6666 21.0695 18.2414 21.0695 15.2497C21.0695 12.258 18.6442 9.83272 15.6525 9.83272ZM9.40217 15.2497C9.40217 11.7977 12.2005 8.99934 15.6525 8.99934C19.1045 8.99934 21.9028 11.7977 21.9028 15.2497C21.9028 18.7016 19.1045 21.5 15.6525 21.5C12.2005 21.5 9.40217 18.7016 9.40217 15.2497ZM16.0692 11.9162C16.0692 11.4559 16.4423 11.0828 16.9026 11.0828C17.3628 11.0828 17.7359 11.4559 17.7359 11.9162C17.7359 12.3764 17.3628 12.7495 16.9026 12.7495C16.4423 12.7495 16.0692 12.3764 16.0692 11.9162ZM14.4024 11.4995C14.6326 11.4995 14.8191 11.686 14.8191 11.9162V12.3328H15.2358C15.4659 12.3328 15.6525 12.5194 15.6525 12.7495C15.6525 12.9797 15.4659 13.1662 15.2358 13.1662H14.8191V13.5829C14.8191 13.813 14.6326 13.9996 14.4024 13.9996C14.1723 13.9996 13.9857 13.813 13.9857 13.5829V13.1662H13.5691C13.3389 13.1662 13.1524 12.9797 13.1524 12.7495C13.1524 12.5194 13.3389 12.3328 13.5691 12.3328H13.9857V11.9162C13.9857 11.686 14.1723 11.4995 14.4024 11.4995ZM17.7359 13.1662C17.7359 12.706 18.1091 12.3328 18.5693 12.3328C19.0296 12.3328 19.4027 12.706 19.4027 13.1662C19.4027 13.6265 19.0296 13.9996 18.5693 13.9996C18.1091 13.9996 17.7359 13.6265 17.7359 13.1662ZM11.4856 14.4163C11.4856 13.956 11.8587 13.5829 12.319 13.5829C12.7793 13.5829 13.1524 13.956 13.1524 14.4163C13.1524 14.8766 12.7793 15.2497 12.319 15.2497C11.8587 15.2497 11.4856 14.8766 11.4856 14.4163ZM18.1526 14.4163C18.3828 14.4163 18.5693 14.6028 18.5693 14.833V15.2497H18.986C19.2161 15.2497 19.4027 15.4362 19.4027 15.6664C19.4027 15.8965 19.2161 16.083 18.986 16.083H18.5693V16.4997C18.5693 16.7299 18.3828 16.9164 18.1526 16.9164C17.9225 16.9164 17.7359 16.7299 17.7359 16.4997V16.083H17.3193C17.0891 16.083 16.9026 15.8965 16.9026 15.6664C16.9026 15.4362 17.0891 15.2497 17.3193 15.2497H17.7359V14.833C17.7359 14.6028 17.9225 14.4163 18.1526 14.4163ZM14.4024 15.6664C14.4024 15.2061 14.7756 14.833 15.2358 14.833C15.6961 14.833 16.0692 15.2061 16.0692 15.6664C16.0692 16.1266 15.6961 16.4997 15.2358 16.4997C14.7756 16.4997 14.4024 16.1266 14.4024 15.6664ZM13.1524 16.083C13.3825 16.083 13.5691 16.2696 13.5691 16.4997V16.9164H13.9857C14.2159 16.9164 14.4024 17.103 14.4024 17.3331C14.4024 17.5632 14.2159 17.7498 13.9857 17.7498H13.5691V18.1665C13.5691 18.3966 13.3825 18.5832 13.1524 18.5832C12.9222 18.5832 12.7357 18.3966 12.7357 18.1665V17.7498H12.319C12.0889 17.7498 11.9023 17.5632 11.9023 17.3331C11.9023 17.103 12.0889 16.9164 12.319 16.9164H12.7357V16.4997C12.7357 16.2696 12.9222 16.083 13.1524 16.083ZM16.9026 18.1665C16.9026 17.7062 17.2757 17.3331 17.7359 17.3331C18.1962 17.3331 18.5693 17.7062 18.5693 18.1665C18.5693 18.6267 18.1962 18.9999 17.7359 18.9999C17.2757 18.9999 16.9026 18.6267 16.9026 18.1665ZM13.9857 18.9999C13.9857 18.5396 14.3589 18.1665 14.8191 18.1665C15.2794 18.1665 15.6525 18.5396 15.6525 18.9999C15.6525 19.4601 15.2794 19.8332 14.8191 19.8332C14.3589 19.8332 13.9857 19.4601 13.9857 18.9999Z" fill="#128894"/>
</svg>
