<svg width="25" height="24" viewBox="0 0 25 24" fill="none" xmlns="http://www.w3.org/2000/svg">
<path d="M9.94458 16.977C9.58041 16.977 9.28416 17.2726 9.28416 17.6359C9.28416 18.0001 9.58041 18.2963 9.94458 18.2963C10.3088 18.2963 10.605 18.0001 10.605 17.6359C10.605 17.2726 10.3088 16.977 9.94458 16.977Z" fill="#128894"/>
<path d="M13.2794 17.3747C13.1891 16.9659 13.0147 16.7053 12.7758 16.6211C12.311 16.4558 11.9232 16.7157 11.7023 16.9259C11.5218 16.4703 11.2453 16.2883 11.2315 16.2796C11.1581 16.2329 11.0613 16.2544 11.0138 16.3276C10.9663 16.4006 10.9873 16.4986 11.0599 16.5468C11.0718 16.5547 11.355 16.7479 11.4809 17.2765C11.5139 17.4131 11.5326 17.5629 11.5371 17.7267C11.5385 17.7505 11.5383 17.7761 11.5383 17.8013C11.5383 17.9066 11.5323 18.0055 11.5202 18.0974C11.5007 18.2673 11.4607 18.4252 11.4015 18.5668C11.2638 18.8944 11.0743 19.0103 11.0679 19.014C10.9916 19.0572 10.9649 19.1542 11.0081 19.2304C11.0373 19.2819 11.091 19.3109 11.1464 19.3109C11.1729 19.3109 11.1997 19.3043 11.2245 19.2903C11.2483 19.2768 11.425 19.1674 11.5868 18.899C11.7825 19.0854 12.1321 19.3576 12.5074 19.3576C12.6034 19.3576 12.7014 19.3397 12.7986 19.2978C13.158 19.142 13.2745 18.6302 13.3118 18.3405C13.3126 18.3342 13.3128 18.3275 13.3136 18.3211C13.3136 18.3204 13.314 18.3195 13.314 18.3188C13.314 18.3184 13.3139 18.3183 13.3139 18.318C13.3546 18.0032 13.3429 17.6608 13.2794 17.3747ZM11.8555 17.8184C12.2042 17.659 12.5848 17.5757 12.9905 17.5684C13.0203 17.7594 13.0267 17.968 13.0089 18.1725C12.5939 18.2058 12.2118 18.1534 11.8473 18.012C11.852 17.9498 11.855 17.8854 11.8555 17.8184ZM12.6699 16.9204C12.7642 16.9535 12.8511 17.0734 12.9151 17.2522C12.5347 17.2666 12.1737 17.3428 11.8369 17.4803C11.8292 17.4116 11.8173 17.3459 11.8041 17.2811C11.9176 17.1444 12.2694 16.7774 12.6699 16.9204ZM12.6728 19.0061C12.3456 19.1471 11.9258 18.802 11.7302 18.594C11.7599 18.5102 11.7842 18.4225 11.803 18.332C12.112 18.4422 12.4372 18.5007 12.7769 18.5007C12.8379 18.5007 12.8995 18.4986 12.9613 18.4949C12.9001 18.7599 12.7942 18.9536 12.6728 19.0061Z" fill="#128894"/>
<path d="M21.4666 19.9651C21.8755 19.5586 21.7806 19.1499 21.6666 18.8705C21.6663 18.8696 21.6658 18.8688 21.6653 18.8678C21.6652 18.8674 21.665 18.867 21.6647 18.8666C21.6139 18.7412 21.5485 18.6171 21.485 18.4971C21.3564 18.2539 21.2351 18.0242 21.2351 17.801C21.2351 17.7051 21.2583 17.6005 21.3049 17.4787H21.324C21.6339 17.4787 21.9138 17.3589 22.1122 17.141C22.3358 16.8958 22.444 16.5406 22.4094 16.1698L21.9158 9.61386C21.8943 9.31239 21.7963 9.04695 21.6204 8.80784C21.7957 8.69497 21.9162 8.47892 21.9162 8.22823C21.9162 7.86136 21.6626 7.56306 21.351 7.56306H17.94L22.3619 3.13965C22.424 3.07759 22.424 2.97725 22.3619 2.91516L21.4935 2.04678C21.4315 1.98472 21.3311 1.98472 21.2691 2.04678L15.7517 7.56286H15.1772C14.8655 7.56286 14.612 7.86132 14.612 8.22803C14.612 8.36375 14.6485 8.49316 14.7119 8.60252L13.342 9.97209V8.28199C13.342 7.62983 13.0398 7.00606 12.4186 6.37518C12.1715 6.12388 12.0354 5.79922 12.0354 5.4609V4.91339C12.1675 4.88385 12.2894 4.81879 12.3875 4.72067C12.5239 4.58412 12.5991 4.40284 12.5991 4.20994C12.5991 3.81066 12.2751 3.48603 11.8768 3.48603H5.00269C4.99794 3.48603 4.99346 3.48682 4.98872 3.48699L3.54769 2.04644C3.48577 1.98452 3.38529 1.98452 3.3232 2.04644L2.45483 2.91485C2.39277 2.97677 2.39277 3.07725 2.45483 3.13934L4.8406 5.52559C4.82502 5.83946 4.69247 6.13918 4.46085 6.37494C3.83933 7.00422 3.53721 7.62796 3.53721 8.28202V17.1193C3.41463 17.1668 3.31764 17.2376 3.24779 17.3322C3.19288 17.4085 3.1508 17.4923 3.12286 17.5798C3.12143 17.5844 3.12081 17.5893 3.11938 17.594C3.11921 17.5946 3.11907 17.5952 3.1189 17.5959C3.08113 17.7178 3.06842 17.8502 3.08017 17.9864C2.85759 18.0182 2.68837 18.1053 2.58024 18.2518C2.37084 18.539 2.34974 18.9439 2.52371 19.3357C2.60705 19.5225 2.73089 19.6962 2.88997 19.85C2.91473 19.8748 2.94171 19.8972 2.96839 19.9188L2.97901 19.9274L2.98567 19.9328C3.06091 19.9913 3.14411 20.0407 3.23331 20.082L2.455 20.8604C2.39294 20.9225 2.39294 21.0228 2.455 21.0848L3.32338 21.9534C3.35323 21.9832 3.39356 21.9999 3.4356 21.9999C3.47768 21.9999 3.51815 21.9832 3.54783 21.9534L4.55467 20.9467C4.63103 21.0205 4.71279 21.0855 4.80313 21.1411C4.96078 21.2384 5.12857 21.3149 5.30036 21.3687C5.3018 21.3694 5.30323 21.3695 5.30467 21.3702C5.30928 21.3716 5.31372 21.3733 5.31816 21.3748C5.51249 21.4364 5.70074 21.4664 5.87349 21.4664C6.15464 21.4664 6.39405 21.3864 6.54805 21.2314C6.70222 21.0737 6.77855 20.8171 6.76458 20.5257C6.95174 20.494 7.10669 20.4217 7.21656 20.3106C7.2207 20.3065 7.22401 20.3011 7.228 20.2968C7.22879 20.2959 7.22958 20.2949 7.23039 20.294C7.27944 20.2398 7.32025 20.1738 7.35232 20.0992C7.48313 20.1278 7.60984 20.1422 7.72889 20.1422C8.0126 20.1422 8.25311 20.0624 8.40441 19.9087C8.54379 19.7693 8.62033 19.5451 8.62381 19.2868C8.74621 19.3154 8.85574 19.3716 8.93577 19.4516C9.47822 19.9925 10.9961 21.2505 13.366 21.2505C15.7544 21.2505 17.6975 19.929 18.4214 19.3613C18.4723 19.3218 18.5223 19.2878 18.5725 19.2565L21.2693 21.9534C21.3313 22.0155 21.4317 22.0155 21.4937 21.9534L22.3621 21.0849C22.4242 21.0228 22.4242 20.9225 22.3621 20.8604L21.4666 19.9651ZM7.25147 18.9546C7.1694 18.8023 7.06301 18.6698 6.93839 18.5636L7.35386 18.1483C7.56499 18.1944 7.73692 18.2655 7.86537 18.3595C7.84918 18.4163 7.83839 18.4703 7.83125 18.5222C7.61025 18.6054 7.4099 18.7551 7.25147 18.9546ZM6.58374 20.2271C6.50181 20.2311 6.41181 20.2239 6.31782 20.208C6.42069 20.0409 6.5253 19.8966 6.63312 19.7742C6.74013 19.9216 6.83108 20.0612 6.89047 20.1561C6.8098 20.1968 6.70645 20.2223 6.58374 20.2271ZM5.89586 20.0842C5.80535 20.0452 5.72093 20.0013 5.63964 19.9512C5.62137 19.9396 5.60457 19.9269 5.58708 19.9147L6.21813 19.2836C6.28814 19.3492 6.36181 19.429 6.43674 19.5197C6.28435 19.6846 6.13954 19.8847 5.99873 20.1241C5.96536 20.1121 5.93124 20.0991 5.89586 20.0842ZM3.73168 17.3906C3.86187 17.3603 4.02618 17.3624 4.20063 17.3919C4.12905 17.439 4.06347 17.4919 4.00138 17.5484C3.83977 17.4939 3.6896 17.4698 3.56511 17.4622C3.60849 17.4312 3.66327 17.4067 3.73168 17.3906ZM20.0471 14.1718C20.2951 14.4393 20.492 14.8604 20.5897 15.3222C19.7923 15.3924 18.8911 16.1234 18.611 16.3671C18.5739 16.3452 18.538 16.322 18.5028 16.2976C18.5182 16.1839 18.5283 16.0662 18.5283 15.9435C18.5283 15.7111 18.5005 15.4731 18.4477 15.2359C18.6023 14.5971 18.9293 14.087 19.2867 13.9333C19.3594 13.9021 19.434 13.886 19.508 13.886C19.7336 13.8861 19.9258 14.0417 20.0471 14.1718ZM21.1567 15.7821C21.4764 16.0447 21.4899 16.2823 21.3945 16.5497L19.7669 17.2C19.7236 17.1289 19.6718 17.0612 19.6131 16.9971L21.0138 15.6967C21.0643 15.7192 21.1125 15.7461 21.1567 15.7821ZM6.72233 18.7951C6.81823 18.8742 6.90061 18.9763 6.96632 19.0953C6.8625 19.1517 6.76216 19.2198 6.66612 19.2988C6.60006 19.2201 6.52465 19.1366 6.44275 19.0591L6.71328 18.7888C6.71612 18.791 6.71946 18.7929 6.72233 18.7951ZM4.81105 18.1834C4.7893 18.1557 4.76706 18.1276 4.74439 18.0993C4.84568 18.022 4.96174 17.9572 5.08937 17.9037C5.11034 17.9399 5.12905 17.9777 5.14541 18.0175C5.16051 18.0525 5.17875 18.0851 5.19797 18.1169L4.95586 18.359C4.9076 18.3058 4.85996 18.2461 4.81105 18.1834ZM3.92444 18.8115C3.90159 18.7972 3.87823 18.7837 3.85664 18.7675C3.82918 18.7478 3.80442 18.7253 3.7798 18.7019C3.77392 18.6963 3.7687 18.69 3.76282 18.6843C3.81569 18.3736 3.92143 18.1245 4.08239 17.9272C4.15828 17.9678 4.23004 18.0191 4.30084 18.084C4.12796 18.2855 4.0022 18.5294 3.92444 18.8115ZM3.41689 18.0925C3.39038 17.9827 3.38529 17.8757 3.40118 17.7768C3.48564 17.7729 3.61644 17.7765 3.76757 17.8107C3.65818 17.9661 3.57324 18.1455 3.5131 18.3476C3.47037 18.2652 3.43751 18.18 3.41689 18.0925ZM4.31955 17.6972C4.41368 17.6281 4.51894 17.5697 4.63499 17.5225C4.69626 17.5489 4.75484 17.5771 4.80771 17.609C4.82946 17.6219 4.85088 17.6365 4.87249 17.6527C4.74818 17.7124 4.63438 17.7829 4.53165 17.8638C4.46259 17.7991 4.39274 17.744 4.31955 17.6972ZM18.2259 16.4895V16.4892C18.2278 16.4906 18.2297 16.4916 18.2317 16.4932C18.2333 16.4946 18.2341 16.4965 18.2357 16.4978C18.3359 16.5754 18.4449 16.6446 18.5589 16.7024C18.5613 16.7037 18.5639 16.7045 18.5662 16.7058C18.5667 16.7059 18.5672 16.7062 18.5677 16.7064C18.6216 16.734 18.6772 16.7602 18.7315 16.782C18.9523 16.876 19.1365 16.9874 19.2805 17.1149C19.4019 17.2197 19.4921 17.3372 19.5488 17.4642C19.5499 17.4667 19.5518 17.4685 19.5531 17.4708C19.5988 17.5739 19.6225 17.6848 19.6225 17.8012C19.6225 17.895 19.6061 17.9843 19.5742 18.0723L17.4507 15.9485C17.769 16.1477 18.0312 16.3373 18.2259 16.4895ZM19.3756 16.7843C19.2457 16.6865 19.0935 16.5986 18.9215 16.5204C19.2562 16.2433 19.9946 15.6895 20.6112 15.6373L19.3756 16.7843ZM19.9272 17.9597H20.932C20.9698 18.195 21.083 18.4155 21.1962 18.6299L19.8947 18.1102C19.9091 18.0607 19.9201 18.0106 19.9272 17.9597ZM21.054 17.2549C21.0536 17.2557 21.0533 17.2564 21.053 17.2574C21.0527 17.2581 21.0525 17.2587 21.0522 17.2593C20.9893 17.3997 20.9509 17.5243 20.932 17.6424H19.9276C19.9204 17.5908 19.9097 17.5402 19.8955 17.4905L21.1957 16.971C21.1471 17.0632 21.0973 17.1584 21.054 17.2549ZM18.2841 14.7022C18.1192 14.2915 17.8847 13.9597 17.6189 13.7661C17.8278 13.4495 18.0785 13.2703 18.3205 13.2703C18.6156 13.2703 18.8499 13.5179 18.9979 13.7306C18.7106 13.9193 18.4588 14.2647 18.2841 14.7022ZM17.3297 13.9572C17.6715 14.1347 17.9854 14.6475 18.1295 15.2641C18.1828 15.4894 18.2109 15.7242 18.2109 15.9434C18.2109 15.9894 18.2079 16.0326 18.2055 16.0764C17.8306 15.8011 17.3024 15.4576 16.6494 15.1469L16.1917 14.6891C16.4215 14.1925 16.7485 13.8859 17.0617 13.8859C17.1492 13.8861 17.2392 13.9101 17.3297 13.9572ZM13.5029 12.0001L14.3198 11.1826V12.8172L13.5029 12.0001ZM5.43244 17.8826C5.39149 17.7861 5.3394 17.6951 5.27718 17.6137C5.27448 17.61 5.27147 17.607 5.2686 17.6033C5.2683 17.603 5.26812 17.6027 5.26782 17.6024C5.25829 17.59 5.24797 17.5782 5.23797 17.5664C5.38435 17.3697 5.58008 17.2188 5.82458 17.1187C5.88363 17.1449 5.94207 17.1735 5.99494 17.2049C6.01874 17.2192 6.04033 17.236 6.06208 17.2527L5.43244 17.8826ZM5.00016 17.3563C4.99015 17.35 4.98032 17.3425 4.97031 17.3366C4.89189 17.2892 4.80409 17.247 4.71279 17.2108C4.70931 17.2088 4.70549 17.2076 4.70183 17.206C4.69992 17.2052 4.69801 17.2043 4.69613 17.2035C4.6477 17.1836 4.5977 17.1658 4.54657 17.1493C4.56197 17.1201 4.57833 17.0919 4.59531 17.0682C4.69865 16.9281 5.03728 16.9009 5.4075 16.982C5.24941 17.084 5.11334 17.209 5.00016 17.3563ZM4.22256 18.9391C4.28304 18.7005 4.381 18.4947 4.5172 18.3257C4.53134 18.3436 4.54722 18.3616 4.56102 18.3792C4.61737 18.4511 4.67229 18.5198 4.73137 18.5839L4.35053 18.9648C4.30685 18.9578 4.26385 18.9501 4.22256 18.9391ZM6.86219 19.549C6.93285 19.4903 7.00601 19.44 7.08111 19.3963C7.12145 19.5624 7.1278 19.733 7.09412 19.8738C7.09347 19.8765 7.09255 19.8788 7.0919 19.8815C7.02968 19.7854 6.95126 19.6695 6.86219 19.549ZM7.97743 17.5427C8.05092 17.7048 8.05123 17.8904 7.97917 18.0525C7.87312 17.9863 7.75041 17.932 7.61339 17.8886L7.97217 17.53C7.97394 17.5341 7.97569 17.5389 7.97743 17.5427ZM12.4085 13.0947L12.9439 13.63C12.6099 13.7514 12.3854 14.0509 12.3496 14.4314C11.6112 14.5489 10.98 14.7791 10.461 15.0417L12.4085 13.0947ZM13.1981 13.8913C13.2006 13.891 13.2037 13.891 13.2062 13.8907L13.6719 14.3573C13.332 14.3417 13 14.3542 12.6768 14.3887C12.726 14.1506 12.8909 13.9269 13.1981 13.8913ZM19.9931 18.4916L21.3945 19.051C21.4799 19.2903 21.4754 19.5063 21.2416 19.7403L19.9931 18.4916ZM22.0932 16.1964C22.1197 16.4814 22.0411 16.7478 21.8776 16.9274C21.7679 17.0477 21.6253 17.1217 21.4613 17.1485C21.4697 17.1325 21.478 17.1164 21.4864 17.1005C21.5493 16.9811 21.6142 16.858 21.665 16.7337C21.6652 16.7335 21.6652 16.7332 21.6653 16.733C21.6656 16.7322 21.6661 16.7314 21.6664 16.7306C21.7896 16.4282 21.8919 15.9751 21.3576 15.5365C21.2638 15.4601 21.1616 15.4064 21.0473 15.369C21.0448 15.3678 21.0424 15.3669 21.0399 15.366C21.0343 15.3642 21.0297 15.3612 21.0241 15.3596C20.9887 15.3493 20.9519 15.3409 20.9146 15.3342C20.8168 14.8166 20.6027 14.3347 20.3252 14.0104L20.5015 10.5104C20.523 10.034 20.6363 9.63937 20.8384 9.33756C20.8872 9.26468 20.8676 9.16611 20.7949 9.1172C20.7222 9.06864 20.6233 9.088 20.5745 9.16071C20.3397 9.5114 20.2083 9.96086 20.1843 10.4952L20.0211 13.7362C19.7858 13.5827 19.5326 13.5357 19.2905 13.5984C19.0163 13.1825 18.6758 12.9529 18.3203 12.9529C17.9569 12.9529 17.6124 13.1893 17.3383 13.6178C17.2465 13.5864 17.1539 13.5689 17.0614 13.5689C16.6413 13.5689 16.2373 13.8946 15.9526 14.4507L14.6372 13.1351V10.8651L16.6096 8.89176H21.2803C21.4759 9.11133 21.5784 9.34945 21.5991 9.63712L22.0932 16.1964ZM21.5988 8.22806C21.5988 8.4157 21.4854 8.57413 21.3512 8.57413C21.2169 8.57413 21.1035 8.4157 21.1035 8.22806C21.1035 8.14042 21.0324 8.06932 20.9448 8.06932C20.8571 8.06932 20.786 8.14042 20.786 8.22806C20.786 8.35521 20.8183 8.47301 20.8713 8.57413H16.9284L17.621 7.88038H21.351C21.4854 7.88038 21.5988 8.0396 21.5988 8.22806ZM14.9295 8.22806C14.9295 8.03947 15.0428 7.88038 15.1771 7.88038H15.4342L14.9509 8.36348C14.9377 8.32123 14.9295 8.27584 14.9295 8.22806ZM12.1921 6.59796C12.752 7.16661 13.0243 7.7175 13.0243 8.28202V10.2911L12.4085 10.9058L6.43401 4.93231H11.7177V5.46097C11.7179 5.88293 11.8863 6.28662 12.1921 6.59796ZM11.8766 3.80355C12.0999 3.80355 12.2814 3.98579 12.2814 4.20997C12.2814 4.31793 12.2392 4.41968 12.1629 4.49621C12.0863 4.57272 11.9848 4.61479 11.8766 4.61479H6.11652L5.30511 3.80355H11.8766ZM4.68708 6.59779C4.90822 6.37283 5.05617 6.09964 5.12191 5.80704L11.314 12.0001L6.28924 17.0256C6.24795 16.9915 6.2043 16.9604 6.15826 16.9328C6.07127 16.881 5.97872 16.8358 5.88442 16.7983C5.42513 16.6115 4.63486 16.4791 4.33878 16.881C4.29718 16.9385 4.26003 17.0068 4.23004 17.0754C4.09875 17.055 3.97191 17.0481 3.85459 17.0555V8.28202C3.85473 7.71559 4.12683 7.16487 4.68708 6.59779ZM2.83632 18.4397C2.90394 18.3479 3.0273 18.3096 3.14557 18.2957C3.16842 18.3628 3.19766 18.4286 3.23113 18.4932C3.0327 18.6064 2.86613 18.7434 2.73089 18.9019C2.71234 18.7256 2.74742 18.5614 2.83632 18.4397ZM2.84964 19.2763C2.97805 19.0655 3.16033 18.8948 3.40449 18.7594C3.42686 18.7875 3.4494 18.8145 3.47228 18.8394C3.48912 18.8585 3.5091 18.8781 3.52833 18.8979C3.30179 19.1147 3.13669 19.3251 3.02792 19.5342C2.95633 19.4527 2.8968 19.3655 2.84964 19.2763ZM3.27686 19.7475C3.36972 19.5395 3.53659 19.3247 3.78106 19.0963C3.8422 19.1328 3.90586 19.1663 3.97444 19.1934C4.01033 19.2076 4.04906 19.2173 4.08666 19.2287L3.47751 19.838C3.40514 19.8137 3.33782 19.7835 3.27686 19.7475ZM4.78059 20.7211L5.35911 20.1426C5.395 20.1696 5.4323 20.1958 5.47181 20.2206C5.50262 20.2395 5.53404 20.2563 5.56533 20.2736C5.39213 20.4741 5.28052 20.7175 5.23274 21.004C5.14271 20.9661 5.05446 20.9232 4.97 20.8712C4.90108 20.8288 4.8395 20.7772 4.78059 20.7211ZM6.32178 21.0088C6.18049 21.151 5.87472 21.186 5.53643 21.1055C5.57325 20.8221 5.68295 20.5944 5.86792 20.4138C5.91461 20.4311 5.95983 20.4465 6.00334 20.4592C6.00874 20.4617 6.01461 20.4626 6.02031 20.4646C6.02206 20.465 6.0238 20.4658 6.02554 20.4662C6.17001 20.5092 6.31321 20.5343 6.44737 20.5421C6.45642 20.7416 6.41116 20.9174 6.32178 21.0088ZM8.17873 19.6851C8.04252 19.8235 7.75629 19.8614 7.42814 19.791C7.44259 19.6398 7.42783 19.478 7.38876 19.3193C7.50656 19.1102 7.672 18.9485 7.86107 18.855C7.87138 18.8804 7.88296 18.9046 7.89741 18.927C7.97821 19.0548 8.11981 19.1502 8.30557 19.2109C8.31592 19.4146 8.26971 19.5944 8.17873 19.6851ZM18.2256 19.1112C17.527 19.6591 15.6552 20.9332 13.3656 20.9332C11.1141 20.9332 9.67422 19.74 9.15984 19.2273C9.0176 19.085 8.81995 18.9894 8.60482 18.9588C8.56879 18.9532 8.53242 18.9463 8.49399 18.9378C8.49194 18.9374 8.49034 18.9358 8.48829 18.9353C8.33016 18.8999 8.21571 18.8369 8.16506 18.7569C8.14792 18.73 8.13918 18.6905 8.13918 18.6394C8.13918 18.5625 8.15998 18.4652 8.20079 18.3535C8.20079 18.3533 8.20079 18.3533 8.20096 18.3531C8.20096 18.3531 8.20096 18.3531 8.20096 18.353C8.21985 18.2966 8.24304 18.2401 8.26636 18.189C8.37845 17.9418 8.37845 17.6586 8.26684 17.4127C8.2497 17.3741 8.23207 17.3309 8.21524 17.2868L9.12777 16.3744C9.12825 16.3741 9.12873 16.3739 9.12904 16.3735C9.45161 16.0521 10.6499 14.9832 12.5219 14.7243C13.0017 14.6578 13.4983 14.6497 14.0169 14.7018L18.3424 19.0274C18.304 19.0539 18.2651 19.0806 18.2256 19.1112Z" fill="#128894"/>
</svg>
