<svg width="25" height="24" viewBox="0 0 25 24" fill="none" xmlns="http://www.w3.org/2000/svg">
<path d="M12.2579 7.79319C12.2579 5.73312 10.5808 4.05604 8.52073 4.05604C6.46066 4.05604 4.78358 5.73312 4.78358 7.79319C4.78358 9.86132 6.42437 11.5061 8.51669 11.5303H8.52073C10.5808 11.5303 12.2579 9.85325 12.2579 7.79319ZM8.52476 10.9055C6.77914 10.8813 5.41248 9.51461 5.41248 7.79319C5.41248 6.07579 6.80736 4.68091 8.52476 4.68091C10.2422 4.68091 11.637 6.07579 11.637 7.79319C11.633 9.50655 10.2381 10.9055 8.52476 10.9055Z" fill="#128894"/>
<path d="M11.7983 15.3159H9.83095V13.4372C12.4433 12.8325 14.3139 10.5023 14.3139 7.79319C14.3179 4.60028 11.7177 2 8.52073 2C5.32379 2 2.72754 4.60028 2.72754 7.79319C2.72754 10.4701 4.57394 12.7962 7.15003 13.4211V15.3199H5.18672C4.31593 15.3199 3.86038 15.9931 3.86038 16.6624C3.86038 17.3276 4.31593 18.0048 5.18672 18.0048H7.15003V20.6737C7.15003 21.5444 7.82329 22 8.49251 22C9.15769 22 9.83498 21.5444 9.83498 20.6737V18.0048H11.7983C12.6691 18.0048 13.1246 17.3316 13.1246 16.6624C13.1246 15.9931 12.6691 15.3159 11.7983 15.3159ZM11.7983 17.3759H9.52052C9.34717 17.3759 9.2101 17.517 9.2101 17.6864V20.6696C9.2101 21.2219 8.75858 21.3711 8.49251 21.3711C8.22643 21.3711 7.77491 21.2219 7.77491 20.6696V17.6864C7.77491 17.513 7.63381 17.3759 7.46449 17.3759H5.18672C4.63441 17.3759 4.48525 16.9244 4.48525 16.6583C4.48525 16.3923 4.63441 15.9407 5.18672 15.9407H7.46449C7.63784 15.9407 7.77491 15.7996 7.77491 15.6303V13.1711C7.77491 13.022 7.67009 12.893 7.52093 12.8647C5.10609 12.389 3.35241 10.2564 3.35241 7.79319C3.35241 4.94296 5.67049 2.62487 8.52073 2.62487C11.371 2.62487 13.6931 4.94296 13.6931 7.79319C13.6931 10.2887 11.9152 12.4253 9.46408 12.8768C9.31492 12.9051 9.2101 13.0341 9.2101 13.1832V15.6303C9.2101 15.8037 9.3512 15.9407 9.52052 15.9407H11.7983C12.3506 15.9407 12.4998 16.3923 12.4998 16.6583C12.4998 16.9244 12.3506 17.3759 11.7983 17.3759Z" fill="#128894"/>
<path d="M7.99664 7.10381C7.77894 7.10381 7.60559 7.27716 7.60559 7.49486V7.96654C7.60559 8.18424 7.77894 8.35759 7.99664 8.35759C8.21434 8.35759 8.38769 8.18424 8.38769 7.96654V7.49486C8.38366 7.27716 8.2103 7.10381 7.99664 7.10381Z" fill="#128894"/>
<path d="M9.04885 7.10381C8.83115 7.10381 8.65779 7.27716 8.65779 7.49486V7.96654C8.65779 8.18424 8.83115 8.35759 9.04885 8.35759C9.26654 8.35759 9.4399 8.18424 9.4399 7.96654V7.49486C9.4399 7.27716 9.26654 7.10381 9.04885 7.10381Z" fill="#128894"/>
<path d="M20.7038 13.8928L22.0946 11.3771L20.7965 9.22032L22.014 7.01915L21.2722 5.78553L21.1835 5.64039C21.377 5.43479 21.4939 5.15259 21.4859 4.8462C21.4738 4.22133 20.9577 3.72546 20.3329 3.73352C19.708 3.74562 19.2121 4.26164 19.2202 4.88651C19.2323 5.50333 19.7402 5.99919 20.353 5.99919H20.3732C20.4659 5.99919 20.5586 5.98307 20.6473 5.95888L21.2883 7.02721L20.2442 8.91393L18.0914 8.95424L17.4544 7.88591C17.656 7.66821 17.7648 7.39004 17.7568 7.09575C17.7527 6.79339 17.6278 6.51119 17.4101 6.30155C17.1924 6.09192 16.9061 5.97904 16.6038 5.98307C15.9789 5.99516 15.479 6.51119 15.4911 7.13606C15.5032 7.75287 16.0112 8.24874 16.6239 8.24874H16.6441C16.7368 8.24874 16.8295 8.23261 16.9182 8.21246L17.5592 9.28079L16.5151 11.1675L13.9995 11.2119L13.3061 12.4697L13.2254 12.6188C13.1367 12.5987 13.044 12.5866 12.9513 12.5906C12.3264 12.6027 11.8305 13.1187 11.8386 13.7436C11.8507 14.3604 12.3587 14.8563 12.9714 14.8563H12.9916C13.6165 14.8442 14.1164 14.3282 14.1043 13.7033C14.1002 13.3969 13.9712 13.1228 13.7737 12.9252L13.8584 12.7761L14.3784 11.8327L16.5312 11.7964L17.6439 13.6428L17.0392 14.7313C16.9505 14.7111 16.8578 14.7031 16.765 14.7031C16.4627 14.7071 16.1805 14.8321 15.9708 15.0498C15.7612 15.2675 15.6483 15.5537 15.6524 15.8561C15.6564 16.1584 15.7814 16.4406 15.9991 16.6503C16.2127 16.8559 16.4909 16.9688 16.7852 16.9688H16.8053C17.4302 16.9567 17.9301 16.4406 17.918 15.8158C17.914 15.5215 17.7971 15.2433 17.5874 15.0337L18.1922 13.9411L20.7038 13.8928ZM20.3691 5.37835C20.091 5.38238 19.8571 5.16065 19.8531 4.87845C19.8491 4.60028 20.0708 4.36646 20.353 4.36243C20.6312 4.3584 20.865 4.58012 20.869 4.86233C20.8731 5.1405 20.6473 5.37432 20.3691 5.37835ZM12.9795 14.2274C12.6973 14.2314 12.4675 14.0097 12.4635 13.7275C12.4594 13.4493 12.6812 13.2155 12.9634 13.2114C13.2456 13.2074 13.4754 13.4291 13.4794 13.7113C13.4834 13.9895 13.2617 14.2193 12.9795 14.2274ZM16.636 7.62387C16.3538 7.6279 16.124 7.40617 16.12 7.12397C16.116 6.8458 16.3377 6.61197 16.6199 6.60794C16.757 6.60391 16.8819 6.65632 16.9827 6.74904C17.0795 6.84177 17.1359 6.97077 17.1359 7.10381C17.14 7.24088 17.0875 7.36585 16.9948 7.46664C16.8981 7.56743 16.7691 7.61983 16.636 7.62387ZM18.1075 9.57912L20.2603 9.5388L21.3689 11.3852L20.3248 13.2679L18.172 13.3082L17.0593 11.4618L18.1075 9.57912ZM16.7933 16.3358C16.6562 16.3399 16.5312 16.2874 16.4304 16.1947C16.3337 16.102 16.2772 15.973 16.2772 15.84C16.2732 15.5618 16.4949 15.328 16.7771 15.3239H16.7852C16.9182 15.3239 17.0432 15.3723 17.14 15.465C17.2367 15.5577 17.2931 15.6868 17.2931 15.8238C17.2972 16.098 17.0714 16.3318 16.7933 16.3358Z" fill="#128894"/>
</svg>
