<svg width="25" height="24" viewBox="0 0 25 24" fill="none" xmlns="http://www.w3.org/2000/svg">
<path d="M9.18756 4.98504C8.4777 4.95223 7.89628 5.2763 7.50854 5.92403C7.42841 6.05812 7.25527 6.10146 7.1216 6.02044C6.98832 5.93942 6.94524 5.76524 7.02577 5.63115C7.51981 4.8064 8.29691 4.37539 9.21374 4.41873C10.7764 4.49165 12.0798 5.11791 13.088 6.27929C13.1902 6.39717 13.1782 6.57622 13.061 6.67952C13.0075 6.72651 12.9414 6.7496 12.8758 6.7496C12.7973 6.7496 12.7192 6.71679 12.6632 6.65238C11.7601 5.61171 10.5908 5.05067 9.18756 4.98504ZM10.6995 11.8205C11.5889 11.7909 11.8539 11.2416 12.0669 10.8005C12.3145 10.2868 12.5106 9.88132 13.6416 9.99393C13.7958 10.0093 13.9347 9.8955 13.95 9.73954C13.9653 9.58358 13.8522 9.44464 13.6972 9.42924C12.1748 9.27734 11.8337 9.98421 11.5595 10.5525C11.3614 10.9633 11.2302 11.2351 10.6806 11.2533C10.5251 11.2586 10.4031 11.3899 10.4084 11.5462C10.4136 11.6997 10.5384 11.8205 10.6898 11.8205C10.6931 11.8209 10.6963 11.8209 10.6995 11.8205ZM22.3564 16.2558C22.3564 19.1473 20.0179 21.5 17.1438 21.5C15.6528 21.5 14.306 20.8668 13.3553 19.8537C12.1695 20.7068 10.8062 21.1646 9.29869 21.2152C9.19964 21.2185 9.1014 21.2201 9.00476 21.2201C7.24883 21.2201 5.94104 20.6728 5.39184 19.6994C5.26863 19.4806 5.15991 19.2668 5.06489 19.0581L5.07053 21.2156C5.07053 21.291 5.04113 21.3635 4.98798 21.417C4.93524 21.47 4.86357 21.5 4.78868 21.5C4.78827 21.5 4.78787 21.5 4.78747 21.5L2.74646 21.4919C2.59104 21.4915 2.46582 21.3647 2.46582 21.2083V11.304C2.46582 10.4679 3.14186 9.78774 3.97292 9.78774H6.57843C6.27121 9.69133 5.99178 9.5451 5.75341 9.36321C5.15548 8.90628 4.77499 8.21884 4.68157 7.42731C4.5789 6.55678 4.82572 5.59389 5.39546 4.64234C6.2543 3.20793 7.67885 2.42895 9.30232 2.5051C11.5454 2.61002 13.4548 3.60896 14.8246 5.39377C15.9645 6.87963 16.6904 8.86901 16.8809 11.0176C16.9683 11.0131 17.0556 11.0111 17.1442 11.0111C20.0179 11.0115 22.3564 13.3642 22.3564 16.2558ZM12.9893 19.4199C12.3254 18.5396 11.9308 17.4435 11.9308 16.2562C11.9308 15.8292 11.9819 15.4144 12.0781 15.017C11.9223 14.829 11.8201 14.6192 11.7282 14.4296C11.5301 14.0189 11.3989 13.7471 10.8493 13.7288C10.6939 13.7236 10.5719 13.5923 10.5771 13.4359C10.5823 13.2796 10.7112 13.1556 10.8682 13.1621C11.7576 13.1917 12.0226 13.741 12.2356 14.1821C12.2573 14.2275 12.2791 14.272 12.3008 14.3158C12.5372 13.7211 12.879 13.1795 13.3026 12.7149C13.0759 12.7441 12.8508 12.7923 12.6294 12.8583C12.6024 12.8664 12.5754 12.87 12.5488 12.87C12.4272 12.87 12.3153 12.7902 12.2787 12.6675C12.2344 12.5172 12.3193 12.3596 12.4683 12.3147C12.9519 12.1697 13.4496 12.1032 13.9484 12.1154C14.6257 11.5855 15.4358 11.2197 16.3192 11.0779C16.0007 7.47146 13.9839 3.293 9.27534 3.07263C7.86528 3.00701 6.62634 3.68593 5.87783 4.93603C4.72184 6.86586 5.27185 8.28406 6.09405 8.91235C6.90658 9.53335 8.33114 9.61599 9.53867 8.32984C9.64537 8.21601 9.82374 8.21074 9.93729 8.3185C10.0504 8.42584 10.0557 8.6053 9.94856 8.71953C9.4215 9.28098 8.85498 9.62085 8.29933 9.78896H9.85072C10.0065 9.78896 10.1326 9.91575 10.1326 10.0725C10.1326 10.2293 10.0065 10.3561 9.85072 10.3561H3.97292C3.4527 10.3553 3.02952 10.781 3.02952 11.3044V20.926L4.50602 20.9317L4.49434 16.3898C4.49313 15.8977 4.66748 15.4715 5.01255 15.1231C5.35761 14.7748 5.78039 14.5977 6.2696 14.5969L9.83421 14.5909H9.83461C9.99003 14.5909 10.1161 14.7176 10.1165 14.874C10.1169 15.0308 9.99084 15.1576 9.83502 15.158L7.81455 15.1612C8.47408 15.4213 8.98624 15.9313 9.21333 16.5863C9.26447 16.7342 9.18716 16.8958 9.0402 16.9476C8.89323 16.9991 8.73258 16.9213 8.68104 16.7735C8.41046 15.9933 7.68369 15.6339 7.09381 15.5578C6.39523 15.4679 5.75542 15.719 5.42526 16.2144C4.95295 16.9221 5.11522 18.0604 5.88226 19.4199C6.55346 20.6096 8.48173 20.6756 9.27977 20.6489C10.6572 20.6023 11.9042 20.1891 12.9893 19.4199ZM21.7927 16.2558C21.7927 13.6766 19.707 11.5786 17.1438 11.5786C14.5806 11.5786 12.4949 13.677 12.4949 16.2558C12.4949 18.8345 14.5806 20.9329 17.1438 20.9329C19.707 20.9329 21.7927 18.8349 21.7927 16.2558ZM16.2367 13.758C16.2367 13.0714 16.7919 12.5128 17.4744 12.5128C18.1569 12.5128 18.7121 13.0714 18.7121 13.758C18.7121 14.4446 18.1569 15.0032 17.4744 15.0032C16.7919 15.0032 16.2367 14.4446 16.2367 13.758ZM16.8004 13.758C16.8004 14.1319 17.1027 14.4361 17.4744 14.4361C17.846 14.4361 18.1484 14.1319 18.1484 13.758C18.1484 13.3841 17.846 13.0799 17.4744 13.0799C17.1027 13.0795 16.8004 13.3837 16.8004 13.758ZM20.3787 17.9203C20.3787 18.6069 19.8234 19.1655 19.1409 19.1655C18.4584 19.1655 17.9032 18.6069 17.9032 17.9203C17.9032 17.2336 18.4584 16.675 19.1409 16.675C19.8234 16.675 20.3787 17.2336 20.3787 17.9203ZM19.815 17.9203C19.815 17.5464 19.5126 17.2421 19.1409 17.2421C18.7693 17.2421 18.4669 17.5464 18.4669 17.9203C18.4669 18.2941 18.7693 18.5984 19.1409 18.5984C19.5126 18.5984 19.815 18.2941 19.815 17.9203ZM16.3277 18.2382C16.3277 18.9249 15.7724 19.4835 15.0899 19.4835C14.4074 19.4835 13.8522 18.9249 13.8522 18.2382C13.8522 17.5516 14.4074 16.993 15.0899 16.993C15.7724 16.993 16.3277 17.5516 16.3277 18.2382ZM15.764 18.2382C15.764 17.8644 15.4616 17.5601 15.0899 17.5601C14.7183 17.5601 14.4159 17.8644 14.4159 18.2382C14.4159 18.6121 14.7183 18.9164 15.0899 18.9164C15.4616 18.9164 15.764 18.6121 15.764 18.2382ZM17.7421 16.2578C17.7421 16.7617 17.3347 17.1717 16.8338 17.1717C16.3329 17.1717 15.9258 16.7617 15.9258 16.2578C15.9258 15.7539 16.3333 15.3443 16.8338 15.3443C17.3347 15.3443 17.7421 15.7543 17.7421 16.2578ZM17.1784 16.2578C17.1784 16.0666 17.0238 15.9114 16.8338 15.9114C16.6437 15.9114 16.4895 16.067 16.4895 16.2578C16.4895 16.449 16.6441 16.6045 16.8338 16.6045C17.0238 16.6045 17.1784 16.449 17.1784 16.2578ZM13.6018 15.0984C13.6018 14.5945 14.0092 14.185 14.5101 14.185C15.011 14.185 15.4185 14.5949 15.4185 15.0984C15.4185 15.6024 15.011 16.0123 14.5101 16.0123C14.0092 16.0123 13.6018 15.6024 13.6018 15.0984ZM14.1655 15.0984C14.1655 15.2896 14.3201 15.4452 14.5101 15.4452C14.7002 15.4452 14.8548 15.2896 14.8548 15.0984C14.8548 14.9072 14.7002 14.7521 14.5101 14.7521C14.3201 14.7521 14.1655 14.9072 14.1655 15.0984ZM20.7946 15.0081C20.7946 15.512 20.3871 15.9216 19.8862 15.9216C19.3853 15.9216 18.9779 15.5116 18.9779 15.0081C18.9779 14.5042 19.3853 14.0942 19.8862 14.0942C20.3871 14.0942 20.7946 14.5042 20.7946 15.0081ZM20.2309 15.0081C20.2309 14.8169 20.0763 14.6613 19.8862 14.6613C19.6962 14.6613 19.5416 14.8169 19.5416 15.0081C19.5416 15.1993 19.6962 15.3544 19.8862 15.3544C20.0763 15.3544 20.2309 15.1993 20.2309 15.0081Z" fill="#128894"/>
</svg>
