<svg width="25" height="24" viewBox="0 0 25 24" fill="none" xmlns="http://www.w3.org/2000/svg">
<path d="M7.88241 4.43371C7.20359 4.77481 6.58914 5.23132 6.06647 5.78286C6.00856 5.84375 5.9772 5.92515 5.97928 6.00918C5.98136 6.0932 6.01671 6.17295 6.07755 6.23089C6.13839 6.28884 6.21975 6.32022 6.30371 6.31814C6.38768 6.31606 6.46738 6.28069 6.52528 6.2198C6.99729 5.72117 7.55255 5.30869 8.16612 5.00087C8.24128 4.96306 8.29835 4.89691 8.32478 4.81699C8.3512 4.73707 8.34482 4.64992 8.30703 4.57471C8.26924 4.4995 8.20314 4.44239 8.12327 4.41595C8.0434 4.3895 7.9563 4.39589 7.88114 4.43371H7.88241Z" fill="#128894"/>
<path d="M9.24397 4.71888C9.41884 4.71888 9.56061 4.57702 9.56061 4.40202C9.56061 4.22703 9.41884 4.08517 9.24397 4.08517C9.06909 4.08517 8.92733 4.22703 8.92733 4.40202C8.92733 4.57702 9.06909 4.71888 9.24397 4.71888Z" fill="#128894"/>
<path d="M20.3898 2.50946C17.9773 2.52531 13.5278 2.54527 10.8326 2.50091C9.81573 2.48521 8.80601 2.67292 7.86266 3.05303C6.91931 3.43315 6.06136 3.998 5.33914 4.71444C4.56963 5.47984 3.95895 6.38996 3.54226 7.39242C3.12557 8.39487 2.91108 9.46989 2.91113 10.5556C2.98491 11.2001 3.66379 16.5498 5.40374 17.7919C5.55337 17.9051 5.72599 17.984 5.90943 18.0232C6.09286 18.0624 6.28265 18.0609 6.46544 18.0187C7.28111 17.8286 7.76114 17.3695 8.42545 16.7326C8.66356 16.5058 8.92733 16.2523 9.24017 15.9773C9.51232 16.7797 9.9603 17.5112 10.5514 18.1181C11.1424 18.7249 11.8616 19.1919 12.6562 19.4849C13.4509 19.7778 14.3009 19.8892 15.1442 19.811C15.9874 19.7329 16.8025 19.467 17.5299 19.033L19.6134 21.1179C19.8668 21.365 20.2073 21.5023 20.5611 21.5C20.9149 21.4977 21.2536 21.356 21.5038 21.1056C21.754 20.8552 21.8955 20.5163 21.8977 20.1622C21.9 19.8081 21.7627 19.4674 21.5157 19.2139L19.4557 17.1528C20.1296 16.0851 20.4278 14.8228 20.3031 13.5661C20.1784 12.3095 19.6379 11.1305 18.7673 10.2163C19.771 9.6529 20.3863 8.11743 20.9372 6.73754C21.0538 6.44509 21.1864 6.1501 21.314 5.86493C21.6323 5.15486 21.9071 4.54175 21.9096 4.08866C21.9187 3.88377 21.8861 3.67916 21.8137 3.4873C21.7413 3.29543 21.6306 3.1203 21.4885 2.97258C21.3463 2.82486 21.1756 2.70762 20.9867 2.62801C20.7978 2.54839 20.5947 2.50806 20.3898 2.50946ZM9.0505 15.3062C8.62303 15.668 8.28486 15.9896 7.98722 16.2751C7.35203 16.8841 6.9689 17.2516 6.32263 17.4009C6.22653 17.4226 6.12677 17.4225 6.03071 17.4006C5.93465 17.3787 5.84472 17.3355 5.76756 17.2741C4.50574 16.3873 3.73757 12.1291 3.54442 10.5366C3.54659 9.53813 3.74546 8.54989 4.12964 7.6284C4.51383 6.7069 5.07579 5.87024 5.78339 5.16627C6.44442 4.50721 7.23103 3.98776 8.09654 3.63876C8.96204 3.28976 9.8888 3.11832 10.8218 3.13461C11.9528 3.15299 13.391 3.16028 14.8577 3.16155C14.5979 4.90454 14.5447 6.67215 14.6994 8.42763C13.845 8.41627 12.9991 8.59738 12.2242 8.95754C11.4492 9.3177 10.7652 9.84769 10.2227 10.5083C9.68027 11.1688 9.29324 11.943 9.09032 12.7736C8.8874 13.6041 8.87379 14.4697 9.0505 15.3062ZM21.068 19.6619C21.2002 19.7959 21.274 19.9766 21.2734 20.1648C21.2728 20.353 21.1979 20.5334 21.0649 20.6664C20.932 20.7995 20.7518 20.8746 20.5637 20.8752C20.3756 20.8759 20.1949 20.802 20.0611 20.6698L18.0662 18.6737C18.4459 18.3853 18.7884 18.0509 19.0858 17.6781L21.068 19.6619ZM19.6976 14.1294C19.6976 15.1325 19.4003 16.1131 18.8434 16.9472C18.2865 17.7812 17.4949 18.4313 16.5687 18.8152C15.6426 19.199 14.6235 19.2995 13.6403 19.1038C12.6571 18.9081 11.754 18.425 11.0451 17.7157C10.3363 17.0064 9.85357 16.1027 9.658 15.1189C9.46243 14.135 9.5628 13.1152 9.94643 12.1885C10.33 11.2617 10.9797 10.4696 11.8132 9.91229C12.6467 9.35499 13.6266 9.05753 14.6291 9.05753C15.9729 9.05913 17.2611 9.59399 18.2113 10.5448C19.1615 11.4956 19.696 12.7847 19.6976 14.1294ZM20.7362 5.60606C20.6051 5.89883 20.4689 6.20238 20.3489 6.50275C19.7983 7.88264 19.1773 9.43427 18.274 9.747C17.4379 9.04952 16.4189 8.60736 15.3387 8.47326C15.1745 6.70289 15.2285 4.91904 15.4995 3.16186C17.3272 3.16186 19.1368 3.15204 20.3936 3.14349C20.5146 3.14235 20.6347 3.16632 20.746 3.21389C20.8574 3.26147 20.9577 3.33161 21.0406 3.4199C21.1236 3.50819 21.1873 3.61272 21.2279 3.72689C21.2685 3.84106 21.285 3.9624 21.2764 4.08327C21.2764 4.40456 21.0009 5.01513 20.7362 5.60606Z" fill="#128894"/>
<path d="M14.6269 9.78851C13.7689 9.78851 12.9302 10.0431 12.2168 10.5201C11.5034 10.9971 10.9474 11.675 10.6191 12.4682C10.2908 13.2614 10.2049 14.1342 10.3722 14.9762C10.5396 15.8183 10.9528 16.5918 11.5595 17.1988C12.1661 17.8059 12.9391 18.2194 13.7806 18.3868C14.6221 18.5543 15.4943 18.4684 16.287 18.1398C17.0796 17.8113 17.7571 17.2549 18.2338 16.541C18.7105 15.8272 18.9649 14.9879 18.9649 14.1294C18.9635 12.9785 18.5061 11.8752 17.6928 11.0614C16.8796 10.2476 15.777 9.78985 14.6269 9.78851ZM14.6269 17.8366C13.8942 17.8366 13.1779 17.6191 12.5687 17.2118C11.9594 16.8044 11.4846 16.2255 11.2042 15.5481C10.9238 14.8707 10.8504 14.1253 10.9934 13.4062C11.1363 12.687 11.4891 12.0265 12.0073 11.508C12.5254 10.9896 13.1855 10.6365 13.9041 10.4934C14.6228 10.3504 15.3677 10.4238 16.0446 10.7044C16.7216 10.985 17.3002 11.4601 17.7072 12.0698C18.1143 12.6794 18.3316 13.3962 18.3316 14.1294C18.3304 15.1122 17.9397 16.0545 17.2452 16.7495C16.5507 17.4444 15.6091 17.8354 14.6269 17.8366Z" fill="#128894"/>
<path d="M15.6981 12.3642L13.9936 14.0685L13.5569 13.6316C13.376 13.4588 13.1355 13.3624 12.8853 13.3624C12.6352 13.3624 12.3947 13.4588 12.2138 13.6316C12.0357 13.8099 11.9356 14.0516 11.9356 14.3037C11.9356 14.5557 12.0357 14.7974 12.2138 14.9757L13.322 16.0847C13.5007 16.2619 13.7421 16.3613 13.9938 16.3613C14.2454 16.3613 14.4868 16.2619 14.6655 16.0847L17.0403 13.7083C17.2184 13.53 17.3184 13.2883 17.3184 13.0362C17.3184 12.7842 17.2184 12.5425 17.0403 12.3642C16.8594 12.1917 16.6191 12.0954 16.3692 12.0954C16.1193 12.0954 15.879 12.1917 15.6981 12.3642ZM16.5935 13.2603L14.2187 15.6367C14.1586 15.6945 14.0784 15.7267 13.995 15.7267C13.9116 15.7267 13.8315 15.6945 13.7713 15.6367L12.6631 14.5277C12.6054 14.4679 12.5735 14.3879 12.5742 14.3048C12.5749 14.2217 12.6082 14.1422 12.6669 14.0835C12.7256 14.0248 12.805 13.9914 12.8881 13.9907C12.9711 13.99 13.0511 14.0219 13.1108 14.0796L13.7719 14.7406C13.8313 14.8 13.9118 14.8334 13.9958 14.8334C14.0798 14.8334 14.1603 14.8 14.2197 14.7406L16.1468 12.8122C16.207 12.7544 16.2872 12.7221 16.3706 12.7221C16.4541 12.7221 16.5343 12.7544 16.5945 12.8122C16.6537 12.8718 16.6869 12.9524 16.6867 13.0364C16.6865 13.1205 16.653 13.201 16.5935 13.2603Z" fill="#128894"/>
</svg>
