<svg width="25" height="24" viewBox="0 0 25 24" fill="none" xmlns="http://www.w3.org/2000/svg">
<path d="M14.4727 18.714H15.0299V19.2712H14.4727V18.714Z" fill="#128894"/>
<path d="M15.6057 18.714H16.1629V19.2712H15.6057V18.714Z" fill="#128894"/>
<path d="M19.7892 18.5284C19.4937 17.5146 18.2057 17.0725 17.3517 17.7155C17.0475 17.4917 16.6624 17.3849 16.2804 17.4203C15.5572 16.2467 13.769 16.5153 13.4126 17.8394C13.1631 17.9063 12.9343 18.0334 12.7451 18.2103C12.2271 18.0679 11.6462 18.2139 11.2592 18.5818C10.3796 18.3322 9.43928 18.9471 9.29723 19.8284H6.43036V20.3856H21.9208V19.8284H21.3199C21.1891 19.0976 20.5544 18.5393 19.7892 18.5284ZM10.8509 19.0854C11.0483 19.0787 11.2442 19.1607 11.4226 19.2365L11.5529 19.0807C11.7478 18.8476 12.0335 18.714 12.3368 18.714C12.5339 18.7072 12.7305 18.7893 12.9085 18.865L13.0388 18.7093C13.2033 18.5127 13.4331 18.3858 13.6858 18.352L13.8968 18.3237L13.925 18.1127C14.0716 17.0956 15.4513 16.9005 15.8725 17.8388L15.9655 18.0503C16.1 18.0206 16.2865 17.9661 16.423 17.971C16.6997 17.971 16.9588 18.08 17.1527 18.278L17.3517 18.4812L17.5507 18.278C17.7446 18.0801 18.0037 17.971 18.2804 17.971C18.7911 17.971 19.2264 18.3524 19.2928 18.858L19.3298 19.14L19.6109 19.0972C20.1205 19.0141 20.6187 19.3491 20.7489 19.8284H9.86826C9.98988 19.4001 10.3842 19.0854 10.8509 19.0854Z" fill="#128894"/>
<path d="M19.2687 12.5847H21.9208V12.0275H19.6602C21.1257 9.78469 20.8429 6.49782 18.9652 4.53407L18.5547 4.91082C22.5998 9.45719 17.7949 16.2449 12.161 13.9546L9.35351 14.9318L9.86035 12.1572C5.89254 6.54838 12.9385 0.0945251 18.1764 4.53537L18.55 4.12196C13.0926 -0.581184 5.43566 5.83292 9.09675 12.0275H2.90137V12.5847H9.21581L9.11402 13.1419H2.90137V13.6991H9.01224L8.63352 15.7724L12.1476 14.5493C14.0996 15.334 16.5298 14.9617 18.1333 13.699H21.9208V13.1418H18.7732C18.9491 12.9662 19.1147 12.7802 19.2687 12.5847Z" fill="#128894"/>
<path d="M5.96602 16.0208C5.96602 15.4575 5.50773 14.9992 4.94447 14.9992C3.58926 15.0554 3.58963 16.9864 4.94447 17.0423C5.50773 17.0423 5.96602 16.584 5.96602 16.0208ZM4.48013 16.0208C4.48013 15.7647 4.68841 15.5564 4.94447 15.5564C5.56048 15.582 5.56029 16.4597 4.94447 16.4851C4.68841 16.4851 4.48013 16.2768 4.48013 16.0208Z" fill="#128894"/>
<path d="M9.08639 17.7296C9.08639 17.1663 8.6281 16.708 8.06484 16.708C6.70963 16.7641 6.71 18.6952 8.06484 18.7511C8.6281 18.7511 9.08639 18.2928 9.08639 17.7296ZM7.6005 17.7296C7.6005 17.4735 7.80878 17.2652 8.06484 17.2652C8.68085 17.2907 8.68066 18.1685 8.06484 18.1939C7.80878 18.1939 7.6005 17.9856 7.6005 17.7296Z" fill="#128894"/>
<path d="M20.8992 15.6865C20.8992 15.1232 20.4409 14.6649 19.8777 14.6649C18.5225 14.721 18.5228 16.6521 19.8777 16.708C20.4409 16.708 20.8992 16.2497 20.8992 15.6865ZM19.4133 15.6865C19.4133 15.4304 19.6216 15.2221 19.8777 15.2221C20.4937 15.2476 20.4935 16.1254 19.8777 16.1508C19.6216 16.1508 19.4133 15.9425 19.4133 15.6865Z" fill="#128894"/>
<path d="M14.3799 13.8105C15.0456 13.8105 15.5872 13.2689 15.5872 12.6032V6.19533H16.1444V4.15223H12.6154V6.19533H13.1726V12.6032C13.1726 13.2689 13.7142 13.8105 14.3799 13.8105ZM14.3799 13.2533C14.0214 13.2533 13.7298 12.9617 13.7298 12.6032V8.79564H15.0299V12.6032C15.0299 12.9617 14.7383 13.2533 14.3799 13.2533ZM15.0299 8.23843H13.7298V6.19533H15.0299V8.23843ZM13.1726 4.70944H15.5872V5.63812H13.1726V4.70944Z" fill="#128894"/>
<path d="M9.62502 8.83279H11.4917L12.1882 9.76147L12.6339 9.42714L11.7703 8.27558H9.62502V8.83279Z" fill="#128894"/>
<path d="M9.62502 7.16116H11.631V7.71837H9.62502V7.16116Z" fill="#128894"/>
<path d="M17.2681 10.3558H19.1347V9.79861H16.9895L16.1258 10.9502L16.5716 11.2845L17.2681 10.3558Z" fill="#128894"/>
<path d="M17.1288 8.6842H19.1347V9.24141H17.1288V8.6842Z" fill="#128894"/>
<path d="M2.90137 19.8284H5.87315V20.3856H2.90137V19.8284Z" fill="#128894"/>
<path d="M2.90137 20.9428H21.9208V21.5H2.90137V20.9428Z" fill="#128894"/>
</svg>
