<svg width="25" height="24" viewBox="0 0 25 24" fill="none" xmlns="http://www.w3.org/2000/svg">
<path d="M6.86407 5.99504V7.07074H7.45221V6.82698H7.98325C8.02764 7.08474 8.12923 7.32305 8.27457 7.5285L7.89852 7.90456L7.72616 7.73219L7.31027 8.14804L8.07088 8.9087L8.48677 8.49285L8.31441 8.32048L8.69046 7.94443C8.89592 8.08978 9.13419 8.19137 9.39195 8.23575V8.7668H9.14815V9.35493H10.2239V8.7668H9.98008V8.23575C10.2378 8.19137 10.4762 8.08978 10.6816 7.94443L11.0577 8.32045L10.8853 8.49285L11.3011 8.9087L12.0618 8.14804L11.6459 7.73219L11.4735 7.90456L11.0975 7.52854C11.2428 7.32309 11.3444 7.08478 11.3889 6.82702H11.9199V7.07078H12.508V5.99508H11.9199V6.23888H11.3889C11.3445 5.98109 11.2429 5.74281 11.0975 5.53732L11.4735 5.16131L11.6459 5.33367L12.0618 4.91782L11.3011 4.15717L10.8853 4.57302L11.0577 4.74542L10.6816 5.12143C10.4762 4.97608 10.2378 4.87449 9.98008 4.83011V4.29906H10.2239V3.71093H9.14815V4.29906H9.39195V4.83011C9.13419 4.87449 8.89588 4.97608 8.69046 5.12143L8.31441 4.74538L8.48677 4.57302L8.07088 4.15717L7.31027 4.91782L7.72616 5.33367L7.89852 5.16131L8.27457 5.53736C8.12923 5.74281 8.02764 5.98113 7.98325 6.23888H7.45221V5.99508L6.86407 5.99504ZM9.68606 5.39268C10.3148 5.39268 10.8263 5.90416 10.8263 6.53291C10.7636 8.04551 8.60824 8.04512 8.54586 6.53291C8.54586 5.9042 9.05734 5.39268 9.68606 5.39268Z" fill="#128894"/>
<path d="M22.1921 11.8409C22.1251 11.8008 21.132 11.2165 19.7013 10.84V7.70918C19.7013 6.89842 19.0417 6.23885 18.231 6.23885H14.2077C14.0021 2.67127 9.76404 0.725172 6.92814 2.93742L7.28663 3.40369C9.82799 1.41223 13.6571 3.30135 13.6294 6.53279C13.6295 8.70728 11.8605 10.4764 9.68617 10.4764C6.21379 10.4846 4.43042 6.22928 6.87619 3.76668L6.4572 3.35389C3.64639 6.18474 5.69632 11.0741 9.68621 11.0644C12.0859 11.0645 14.0556 9.18912 14.2077 6.82694H18.231C18.7174 6.82694 19.1132 7.22267 19.1132 7.70914V10.7036C18.6063 10.6019 18.0588 10.5338 17.4884 10.5259C18.2729 9.68962 18.1008 8.33801 17.332 7.48686L17.1373 7.26643L15.4375 8.76754L15.8269 9.20837L17.0712 8.10942C17.5311 8.7668 17.5656 9.7671 16.9082 10.2589L11.3333 13.9548C11.1925 13.8185 11.0339 13.698 10.8604 13.5941L15.3862 9.59736L14.9968 9.15654L10.2734 13.3279C9.49225 13.0693 8.61769 13.1235 7.8092 13.4682C6.99554 13.8164 6.40839 14.6311 6.19117 15.6873C4.03692 14.9676 2.54635 17.7262 4.30232 19.1345L2.44629 21.6291L2.91817 21.9802L4.8196 19.4246C5.93349 19.8643 7.22515 19.1419 7.46232 17.9975C8.09014 17.9175 8.47211 18.0669 8.84177 18.2126C9.1236 18.3237 9.41112 18.437 9.76883 18.437C10.6044 18.4438 11.7032 17.7283 11.988 17.0216C12.4922 16.7047 13.115 16.6686 13.8236 16.7338C13.8254 16.742 14.6379 20.8488 14.6398 20.8564C14.7933 21.5297 15.3828 22 16.0734 22H17.0052V21.4119H16.0734C15.6604 21.4119 15.3076 21.1315 15.2141 20.7295L14.4379 16.8082C15.1282 16.9072 15.787 17.0303 16.5193 17.0804C16.521 17.0887 17.2649 20.8488 17.2668 20.8564C17.4203 21.5297 18.0098 22 18.7004 22H19.6322V21.4119H18.7004C18.2874 21.4119 17.9346 21.1315 17.8412 20.7295L17.1228 17.1005C17.452 17.0991 17.7849 17.0756 18.1177 17.0194C20.4781 16.6899 21.9967 13.814 22.376 11.9508L22.1921 11.8409ZM17.0323 12.6447C16.6574 12.1365 16.2828 11.7731 16.0241 11.5506L16.6234 11.1533C16.989 11.1138 17.3507 11.1058 17.7029 11.1219C18.0298 11.5671 19.2856 13.4349 19.3363 15.9038C19.041 16.1034 18.7142 16.2632 18.3534 16.3645C18.268 14.6657 17.5994 13.4134 17.0323 12.6447ZM5.52023 18.9641C4.74679 18.9641 4.11761 18.3349 4.11761 17.5614C4.19465 15.7006 6.84615 15.7012 6.92293 17.5614C6.92289 18.3349 6.29362 18.9641 5.52023 18.9641ZM10.3802 17.7047C9.29797 18.1878 8.92725 17.2451 7.50396 17.4007C7.45778 16.8258 7.16649 16.3192 6.73464 15.9856C6.88262 15.0311 7.3632 14.2988 8.04062 14.0089C8.70023 13.7265 9.4105 13.6772 10.0406 13.8701C10.6528 14.0575 11.1149 14.4526 11.3418 14.9826C11.8963 16.2782 11.5727 17.1941 10.3802 17.7047ZM12.5956 16.1761L13.1459 15.6441C13.2574 15.5363 13.3846 15.5589 13.4341 15.5736C13.4832 15.5882 13.6007 15.6382 13.6362 15.7866L13.705 16.1348C13.3192 16.108 12.9474 16.1129 12.5956 16.1761ZM15.0835 16.3107L15.7729 15.6441C15.9404 15.485 16.2078 15.5641 16.2632 15.7867L16.4008 16.4821C15.957 16.4443 15.517 16.3776 15.0835 16.3107ZM16.8391 15.6677C16.7701 15.3497 16.5408 15.1026 16.2287 15.0099C15.9195 14.9179 15.5961 14.9969 15.3641 15.2213L14.3494 16.2023C14.3387 16.2009 14.3279 16.1995 14.3171 16.1981L14.2122 15.6677L14.2104 15.6595C14.1387 15.3447 13.9112 15.1019 13.6018 15.0099C13.2925 14.9179 12.9691 14.9969 12.7371 15.2213L12.1679 15.7716C12.1166 15.3498 11.9555 14.8169 11.7051 14.414L15.5119 11.8902C16.0262 12.3027 17.6691 13.8236 17.7694 16.4744C17.5147 16.5044 17.2602 16.5154 17.0064 16.5124L16.8391 15.6677ZM19.9028 15.4404C19.7571 13.4908 18.9559 11.963 18.4652 11.1936C19.9875 11.4079 21.2341 11.9977 21.6971 12.24C21.532 12.8061 20.998 14.3766 19.9028 15.4404Z" fill="#128894"/>
<path d="M8.26277 15.3802H8.85091V15.9683H8.26277V15.3802Z" fill="#128894"/>
<path d="M9.43904 15.3802H10.0272V15.9683H9.43904V15.3802Z" fill="#128894"/>
</svg>
