<svg width="25" height="24" viewBox="0 0 25 24" fill="none" xmlns="http://www.w3.org/2000/svg">
<path d="M17.0676 2.29501L16.976 2.35332C16.2554 2.83231 15.9889 3.76528 16.3512 4.55248L15.7931 4.73991C14.5686 5.14809 13.7397 6.29349 13.7439 7.58466V11.5665C13.5523 11.6165 13.369 11.6956 13.2024 11.7956L13.1566 11.8205C12.6984 12.0954 12.1237 12.0954 11.6613 11.8205L11.6155 11.7956C11.4448 11.6956 11.2657 11.6165 11.0741 11.5665V7.58466C11.0741 6.29349 10.2494 5.14809 9.02485 4.73991L8.46673 4.55248C8.82492 3.76528 8.56252 2.83231 7.84196 2.35332L7.75033 2.29501C6.93814 1.75772 5.84689 1.9743 5.30543 2.78232C4.14754 4.515 4.14754 6.77664 5.30543 8.50931L5.39706 8.65092C5.93436 9.46311 7.02977 9.68803 7.84196 9.15073C8.65415 8.61343 8.87907 7.51802 8.34177 6.70583C8.33761 6.70166 8.33761 6.6975 8.33344 6.69333L8.30012 6.64335L8.50838 6.71416C8.84991 6.82662 9.07899 7.14733 9.07899 7.50552V12.0746C8.65415 12.4745 8.41258 13.0326 8.41258 13.6199V13.8364C8.40841 14.6695 8.74162 15.4692 9.33306 16.0564C9.90368 16.6312 10.6242 17.0311 11.4114 17.2185V17.3351C10.6742 17.8849 10.5243 18.9303 11.0782 19.6676C11.174 19.7925 11.2865 19.905 11.4114 20.0008V21.6668C11.4114 21.8501 11.5614 22 11.7446 22H13.0775C13.2607 22 13.4107 21.8501 13.4107 21.6668V20.0008C14.1479 19.451 14.2978 18.4055 13.7439 17.6683C13.6481 17.5434 13.5356 17.4309 13.4107 17.3351V17.2185C14.1979 17.0352 14.9184 16.6312 15.489 16.0564C16.0805 15.4692 16.4095 14.6695 16.4095 13.8364V13.6199C16.4095 13.0367 16.168 12.4786 15.7431 12.0746V7.50552C15.7431 7.14733 15.9722 6.82662 16.3137 6.71416L16.522 6.64335L16.4887 6.69333C15.9514 7.50552 16.1763 8.60094 16.9885 9.13823C17.7965 9.67136 18.8836 9.45478 19.425 8.65092L19.5167 8.50931C20.6746 6.77664 20.6746 4.515 19.5167 2.78232C18.9752 1.9743 17.8798 1.75772 17.0676 2.29501ZM7.92943 7.95535C7.77532 8.54263 7.17139 8.88833 6.58827 8.73422C6.33004 8.66758 6.10513 8.50514 5.95518 8.28439L5.86355 8.14278C4.85144 6.63502 4.85144 4.66494 5.86355 3.15302C6.20092 2.64904 6.87983 2.51159 7.38797 2.84897L7.4796 2.90728C7.98358 3.24465 8.12102 3.92356 7.78365 4.42753C7.76699 4.45252 7.74617 4.48168 7.72534 4.50667C7.18805 5.17308 7.1464 6.11022 7.62538 6.82245L7.78365 7.05986C7.95442 7.32643 8.00857 7.6513 7.92943 7.95535ZM8.7208 6.08107L7.96275 5.827C7.94609 5.58542 7.99607 5.34801 8.10853 5.13559L8.82076 5.373C9.77456 5.68955 10.416 6.58088 10.416 7.58466V11.4998C10.2286 11.5123 10.0411 11.5457 9.86619 11.604C9.82871 11.6165 9.78706 11.6331 9.74957 11.6456V7.50136C9.74541 6.85994 9.33306 6.28516 8.7208 6.08107ZM12.9109 17.7933C13.3898 18.0682 13.5523 18.6804 13.2774 19.1594C13.1899 19.3135 13.065 19.4385 12.9109 19.5259C12.8067 19.5843 12.7443 19.6967 12.7443 19.8133V21.3253H12.0778V19.8133C12.0778 19.6925 12.0154 19.5843 11.9112 19.5259C11.4323 19.251 11.2698 18.6388 11.5447 18.1598C11.6322 18.0057 11.7571 17.8807 11.9112 17.7933C12.0154 17.735 12.0778 17.6225 12.0778 17.5059V17.3143C12.1861 17.3226 12.2986 17.3268 12.4111 17.3268C12.5235 17.3268 12.636 17.3226 12.7443 17.3143V17.5059C12.7443 17.6225 12.8067 17.735 12.9109 17.7933ZM15.7431 13.8323C15.7431 14.4862 15.4849 15.1151 15.0184 15.5774C13.5773 17.0186 11.2407 17.0186 9.79955 15.5774C9.33723 15.1193 9.07899 14.4904 9.07899 13.8323V13.6157C9.07899 12.9909 9.47884 12.437 10.0703 12.2371C10.5868 12.1371 10.7534 12.1288 11.2782 12.3703C11.9696 12.8077 12.8567 12.8077 13.544 12.3703C13.948 12.1496 14.1937 12.1246 14.7518 12.2371C15.3433 12.4328 15.7431 12.9909 15.7431 13.6157V13.8323ZM16.1013 6.08107C15.489 6.28516 15.0767 6.85994 15.0767 7.50552V11.6498C15.0392 11.6331 15.0017 11.6206 14.9601 11.6081C14.781 11.5498 14.5977 11.5123 14.4103 11.504V7.58883C14.4103 6.58504 15.0517 5.69371 16.0055 5.37717L16.7177 5.13976C16.8302 5.35218 16.8802 5.59375 16.8635 5.83116L16.1013 6.08107ZM18.9627 8.14278L18.8711 8.28439C18.5337 8.78837 17.8548 8.92582 17.3467 8.58844C16.8427 8.25107 16.7053 7.57217 17.0426 7.06819L17.2009 6.83078C17.6757 6.11855 17.6382 5.18141 17.1009 4.515C16.7219 4.04018 16.7969 3.34878 17.2717 2.97392C17.2967 2.95309 17.3217 2.93643 17.3508 2.91561L17.4425 2.8573C17.9464 2.51992 18.6295 2.65737 18.9669 3.16135C19.9707 4.66494 19.9665 6.63086 18.9627 8.14278Z" fill="#128894"/>
<path d="M15.7431 18.3264H15.0767C14.8934 18.3264 14.7435 18.4763 14.7435 18.6596C14.7435 18.8429 14.8934 18.9928 15.0767 18.9928H15.7431C15.9264 18.9928 16.0763 18.8429 16.0763 18.6596C16.0763 18.4763 15.9264 18.3264 15.7431 18.3264Z" fill="#128894"/>
<path d="M15.0767 17.9932C15.1267 17.9932 15.1808 17.9807 15.2267 17.9599L15.8931 17.6267C16.0597 17.5475 16.1263 17.3476 16.0472 17.181C15.968 17.0144 15.7681 16.9478 15.6015 17.0269C15.6015 17.0269 15.5973 17.0269 15.5973 17.0311L14.9309 17.3643C14.7643 17.4476 14.6977 17.6475 14.781 17.8099C14.8351 17.9224 14.9518 17.9932 15.0767 17.9932Z" fill="#128894"/>
<path d="M15.8931 19.6925L15.2267 19.3593C15.0642 19.276 14.8601 19.3427 14.7768 19.5051C14.6935 19.6676 14.7602 19.8716 14.9226 19.9549C14.9226 19.9549 14.9268 19.9549 14.9268 19.9591L15.5932 20.2923C15.7598 20.3715 15.9597 20.3048 16.0388 20.1382C16.1221 19.9758 16.0555 19.7758 15.8931 19.6925Z" fill="#128894"/>
<path d="M9.7454 18.3264H9.07899C8.89573 18.3264 8.74579 18.4763 8.74579 18.6596C8.74579 18.8429 8.89573 18.9928 9.07899 18.9928H9.7454C9.92867 18.9928 10.0786 18.8429 10.0786 18.6596C10.0786 18.4763 9.92867 18.3264 9.7454 18.3264Z" fill="#128894"/>
<path d="M8.92905 17.6267L9.59546 17.9599C9.76207 18.039 9.96199 17.9724 10.0411 17.8058C10.1203 17.6433 10.0536 17.4434 9.89535 17.3643L9.22894 17.0311C9.0665 16.9478 8.86241 17.0144 8.77911 17.1768C8.69581 17.3393 8.76245 17.5434 8.92488 17.6267C8.92488 17.6225 8.92905 17.6225 8.92905 17.6267Z" fill="#128894"/>
<path d="M9.59546 19.3593L8.92905 19.6925C8.76245 19.7717 8.69581 19.9716 8.77494 20.1382C8.85408 20.3048 9.054 20.3715 9.2206 20.2923C9.2206 20.2923 9.22477 20.2923 9.22477 20.2882L9.89118 19.9549C10.0578 19.8758 10.1244 19.6759 10.0453 19.5093C9.96615 19.3427 9.76623 19.276 9.59963 19.3552C9.59963 19.3593 9.59963 19.3593 9.59546 19.3593Z" fill="#128894"/>
</svg>
