<svg width="25" height="24" viewBox="0 0 25 24" fill="none" xmlns="http://www.w3.org/2000/svg">
<path d="M14.1817 13.1355C14.6548 12.9538 15.09 12.6784 15.4628 12.3186C16.1309 11.6735 16.543 10.81 16.6231 9.88701C16.695 9.05923 16.4975 8.23241 16.0647 7.53225L16.4884 7.10845C16.5597 7.41201 16.8327 7.63865 17.1577 7.63865H17.5522C17.9313 7.63865 18.2398 7.33025 18.2398 6.95114V4.79298C18.2398 4.41391 17.9314 4.10547 17.5522 4.10547H17.1214C16.9596 4.10547 16.8284 4.23664 16.8284 4.39844C16.8284 4.56024 16.9596 4.69141 17.1214 4.69141H17.5522C17.6083 4.69141 17.6538 4.73696 17.6538 4.79298V6.95118C17.6538 7.0072 17.6083 7.05274 17.5522 7.05274H17.1577C17.1017 7.05274 17.0561 7.0072 17.0561 6.95118V6.41914C17.0561 6.30062 16.9847 6.19382 16.8753 6.14847C16.7657 6.10312 16.6398 6.12816 16.556 6.21203L15.481 7.28744C15.3798 7.38861 15.3665 7.54803 15.4496 7.66455C15.8969 8.29245 16.1064 9.06376 16.0393 9.83635C15.9715 10.6184 15.6222 11.3502 15.0558 11.897C14.4489 12.4828 13.6461 12.8051 12.7943 12.8051C12.7915 12.8051 12.7885 12.8051 12.7856 12.8051C11.9307 12.8029 11.1261 12.4763 10.52 11.8855C10.095 11.4712 9.79559 10.9585 9.64523 10.3921C9.82793 10.3176 10.0234 10.2683 10.2275 10.2488C10.3706 10.7771 10.6748 11.2517 11.1012 11.6047C11.5875 12.0073 12.1898 12.2077 12.7921 12.2077C13.423 12.2076 14.0537 11.9877 14.5503 11.55C15.1126 11.0544 15.4415 10.3408 15.4528 9.5922C15.4641 8.84321 15.1574 8.12026 14.6113 7.60877C13.6131 6.67383 12.0346 6.65703 11.0178 7.57057C10.7381 7.82186 10.5146 8.13011 10.3632 8.4707C10.3502 8.47089 10.3374 8.4705 10.3244 8.47082C10.1121 8.47632 9.90243 8.49937 9.69707 8.53902C9.85477 8.05397 10.1237 7.61369 10.4895 7.24783C11.6191 6.11831 13.3819 5.97038 14.6811 6.89606C14.7977 6.97907 14.9572 6.96579 15.0583 6.86458L16.1334 5.78921C16.2171 5.70542 16.2422 5.5794 16.1968 5.46994C16.1514 5.36049 16.0446 5.28912 15.9261 5.28912H15.3945C15.3383 5.28912 15.2925 5.24357 15.2925 5.18756V4.79302C15.2925 4.737 15.3383 4.69145 15.3945 4.69145H15.7542C15.916 4.69145 16.0472 4.56028 16.0472 4.39848C16.0472 4.23668 15.916 4.10551 15.7542 4.10551H15.3945C15.0152 4.10551 14.7066 4.41391 14.7066 4.79302V5.18756C14.7066 5.51256 14.9334 5.78561 15.2371 5.8569L14.8133 6.28086C14.1225 5.85405 13.3068 5.65553 12.4904 5.71967C11.5798 5.79108 10.7221 6.18664 10.0752 6.83348C9.55172 7.35697 9.19597 8.00944 9.03925 8.72891C8.54248 8.92223 8.08638 9.21981 7.69969 9.60978C6.99683 10.3186 6.60002 11.2541 6.58241 12.2442C6.57374 12.7462 6.65983 13.2349 6.83839 13.6967C6.88331 13.8129 6.99421 13.8841 7.11171 13.8841C7.14683 13.8841 7.18257 13.8777 7.2173 13.8643C7.3682 13.8059 7.44328 13.6363 7.38488 13.4854C7.23375 13.0945 7.16085 12.6803 7.16824 12.2544C7.18312 11.4161 7.51961 10.6235 8.11572 10.0223C8.71182 9.42118 9.5016 9.07817 10.3395 9.05653C11.1187 9.03602 11.8794 9.29517 12.4816 9.78553C13.0161 10.2208 13.3978 10.8136 13.5736 11.4724C13.387 11.5473 13.1912 11.5945 12.993 11.6134C12.6817 10.4633 11.6408 9.65318 10.426 9.65318C8.95901 9.65318 7.76547 10.8467 7.76547 12.3137C7.76547 13.7808 8.95897 14.9743 10.426 14.9743C11.4832 14.9743 12.4355 14.3459 12.8587 13.3904C13.0845 13.3867 13.3073 13.3639 13.525 13.3225C13.1553 14.4629 12.177 15.3243 10.9694 15.5268C10.8283 15.5504 10.7249 15.6726 10.7249 15.8157V16.9442C10.7249 17.106 10.856 17.2372 11.0178 17.2372H12.0972C12.1532 17.2372 12.1987 17.2827 12.1987 17.3387V17.7337C12.1987 17.7897 12.1532 17.8352 12.0972 17.8352H11.0178C10.856 17.8352 10.7249 17.9664 10.7249 18.1282V19.2071C10.7249 19.2632 10.6793 19.3087 10.6233 19.3087H10.2288C10.1727 19.3087 10.1272 19.2631 10.1272 19.2071V18.1282C10.1272 17.9664 9.99602 17.8352 9.83422 17.8352H8.7553C8.69928 17.8352 8.65373 17.7897 8.65373 17.7337V17.3387C8.65373 17.2827 8.69928 17.2372 8.7553 17.2372H9.83422C9.99602 17.2372 10.1272 17.106 10.1272 16.9442V15.8157C10.1272 15.6726 10.0238 15.5504 9.88266 15.5268C9.18804 15.4103 8.53842 15.0622 8.05349 14.5466C7.94263 14.4288 7.75719 14.4231 7.63938 14.5339C7.52149 14.6448 7.51582 14.8302 7.62668 14.948C8.14154 15.4955 8.81405 15.8829 9.54125 16.0552V16.6512H8.7553C8.37623 16.6512 8.06778 16.9596 8.06778 17.3387V17.7337C8.06778 18.1127 8.37619 18.4212 8.7553 18.4212H9.54125V19.2071C9.54125 19.5862 9.84965 19.8946 10.2288 19.8946H10.6233C11.0024 19.8946 11.3108 19.5862 11.3108 19.2071V18.4212H12.0971C12.4762 18.4212 12.7846 18.1128 12.7846 17.7337V17.3387C12.7846 16.9597 12.4762 16.6512 12.0971 16.6512H11.3108V16.0554C12.7469 15.7177 13.8678 14.5805 14.1817 13.1355ZM12.8516 9.33118C12.3162 8.89524 11.6751 8.61469 10.9983 8.51277C11.1073 8.3246 11.246 8.15315 11.4094 8.00639C12.202 7.29435 13.4326 7.30748 14.2107 8.03639C14.6366 8.43523 14.8758 8.99907 14.8669 9.5833C14.858 10.1757 14.6079 10.7181 14.1629 11.1104C14.1406 11.13 14.1179 11.1489 14.095 11.1675C13.8714 10.4517 13.44 9.81029 12.8516 9.33118ZM12.3671 11.5796C12.0462 11.5135 11.7386 11.3717 11.4749 11.1533C11.1936 10.9204 10.9808 10.6197 10.8542 10.2835C11.5468 10.4279 12.1181 10.9164 12.3671 11.5796ZM10.4261 14.3883C9.28214 14.3883 8.35146 13.4576 8.35146 12.3137C8.35146 11.6625 8.6533 11.0807 9.12413 10.7001C9.31304 11.3063 9.64934 11.8551 10.111 12.3051C10.6921 12.8716 11.4273 13.2323 12.2229 13.3494C11.8572 13.983 11.1755 14.3883 10.4261 14.3883Z" fill="#128894"/>
<path d="M21.7907 17.949C21.5267 17.7965 21.2224 17.7483 20.9319 17.8059C20.9641 17.6347 20.9803 17.4607 20.9803 17.2857C20.9803 17.1106 20.9641 16.9367 20.9319 16.7655C21.2225 16.823 21.5267 16.7748 21.7907 16.6224C22.0776 16.4567 22.2827 16.1894 22.3685 15.8694C22.4542 15.5495 22.4102 15.2153 22.2446 14.9285C21.9027 14.3363 21.1428 14.1328 20.5507 14.4747C20.2865 14.6273 20.0925 14.867 19.9971 15.1477C19.7316 14.9203 19.4248 14.7428 19.0965 14.6267C19.2915 14.4039 19.4019 14.1162 19.4019 13.8114C19.4019 13.1277 18.8457 12.5714 18.1619 12.5714C17.4782 12.5714 16.9219 13.1277 16.9219 13.8114C16.9219 14.1163 17.0324 14.4038 17.2274 14.6267C16.8991 14.7428 16.5923 14.9203 16.3267 15.1477C16.2313 14.8671 16.0374 14.6273 15.7731 14.4747C15.1809 14.1328 14.4211 14.3364 14.0792 14.9285C13.7374 15.5207 13.941 16.2805 14.5331 16.6224C14.7971 16.7748 15.1013 16.8229 15.3919 16.7655C15.3597 16.9366 15.3435 17.1106 15.3435 17.2857C15.3435 17.4607 15.3597 17.6346 15.3919 17.8059C15.1014 17.7485 14.7971 17.7966 14.5331 17.949C13.941 18.2908 13.7374 19.0507 14.0792 19.6428C14.2448 19.9297 14.5122 20.1348 14.8322 20.2206C15.1521 20.3063 15.4862 20.2622 15.7731 20.0967C16.0374 19.9441 16.2313 19.7043 16.3267 19.4236C16.5922 19.6511 16.8991 19.8286 17.2274 19.9447C17.0324 20.1675 16.9219 20.4551 16.9219 20.76C16.9219 21.4437 17.4782 22 18.1619 22C18.8457 22 19.4019 21.4437 19.4019 20.76C19.4019 20.4551 19.2915 20.1675 19.0965 19.9447C19.4248 19.8286 19.7316 19.6511 19.9971 19.4236C20.0925 19.7043 20.2865 19.9441 20.5507 20.0967C20.8376 20.2623 21.1717 20.3063 21.4917 20.2206C21.8116 20.1348 22.079 19.9297 22.2446 19.6428C22.4102 19.356 22.4542 19.0218 22.3685 18.7019C22.2827 18.382 22.0776 18.1146 21.7907 17.949ZM21.7371 19.3498C21.5568 19.6621 21.156 19.7696 20.8436 19.5893C20.6506 19.4778 20.5287 19.2779 20.5175 19.0545C20.5126 18.9552 20.4575 18.8651 20.3714 18.8154L20.193 18.7124C20.0728 18.6429 19.9203 18.6674 19.8279 18.771C19.5054 19.1324 19.0862 19.3748 18.6156 19.4719C18.4795 19.5 18.3819 19.6198 18.3819 19.7588V19.9641C18.3819 20.0635 18.4323 20.1562 18.5159 20.2102C18.7038 20.3315 18.8159 20.537 18.8159 20.7599C18.8159 21.1206 18.5225 21.414 18.1619 21.414C17.8012 21.414 17.5078 21.1206 17.5078 20.7599C17.5078 20.537 17.62 20.3315 17.8079 20.2102C17.8914 20.1562 17.9419 20.0635 17.9419 19.9641V19.7588C17.9419 19.6198 17.8442 19.5 17.7081 19.4719C17.2376 19.3748 16.8184 19.1324 16.4959 18.771C16.4387 18.7069 16.3585 18.6731 16.2771 18.6731C16.2271 18.6731 16.1766 18.6859 16.1308 18.7124L15.9523 18.8154C15.8662 18.8651 15.8112 18.9552 15.8062 19.0545C15.7951 19.2779 15.6732 19.4778 15.4801 19.5892C15.1678 19.7695 14.767 19.6621 14.5866 19.3498C14.4063 19.0375 14.5137 18.6367 14.826 18.4563C15.0191 18.3449 15.2531 18.3393 15.4521 18.4413C15.5407 18.4867 15.6462 18.4841 15.7323 18.4343L15.9104 18.3315C16.0307 18.262 16.0857 18.1177 16.0421 17.9859C15.9674 17.7595 15.9294 17.5239 15.9294 17.2857C15.9294 17.0475 15.9674 16.8118 16.0421 16.5854C16.0857 16.4536 16.0307 16.3093 15.9104 16.2399L15.7323 16.137C15.6461 16.0872 15.5406 16.0846 15.4521 16.13C15.2532 16.232 15.0191 16.2264 14.826 16.115C14.5137 15.9347 14.4063 15.5338 14.5866 15.2215C14.7669 14.9092 15.1678 14.8018 15.4801 14.9821C15.6731 15.0935 15.795 15.2935 15.8062 15.5168C15.8111 15.6161 15.8662 15.7062 15.9523 15.7559L16.1308 15.859C16.251 15.9284 16.4034 15.9038 16.4959 15.8003C16.8184 15.4389 17.2375 15.1965 17.7081 15.0994C17.8442 15.0713 17.9419 14.9514 17.9419 14.8125V14.6072C17.9419 14.5078 17.8914 14.4151 17.8078 14.3611C17.62 14.2398 17.5078 14.0343 17.5078 13.8113C17.5078 13.4507 17.8012 13.1573 18.1619 13.1573C18.5225 13.1573 18.8159 13.4507 18.8159 13.8113C18.8159 14.0343 18.7038 14.2398 18.5159 14.3611C18.4323 14.4151 18.3818 14.5078 18.3818 14.6072V14.8125C18.3818 14.9514 18.4795 15.0713 18.6156 15.0994C19.0861 15.1965 19.5053 15.4388 19.8278 15.8003C19.9203 15.9038 20.0726 15.9284 20.1929 15.8589L20.3714 15.7559C20.4575 15.7061 20.5125 15.6161 20.5175 15.5168C20.5287 15.2934 20.6505 15.0935 20.8436 14.982C21.1559 14.8017 21.5568 14.9091 21.7371 15.2214C21.8244 15.3727 21.8476 15.549 21.8024 15.7177C21.7572 15.8865 21.649 16.0275 21.4977 16.1149C21.3047 16.2263 21.0706 16.2319 20.8715 16.1299C20.783 16.0845 20.6775 16.0871 20.5914 16.1369L20.4132 16.2397C20.293 16.3092 20.238 16.4535 20.2815 16.5853C20.3563 16.8118 20.3942 17.0474 20.3942 17.2855C20.3942 17.5237 20.3563 17.7593 20.2815 17.9858C20.238 18.1176 20.293 18.2619 20.4132 18.3313L20.5914 18.4342C20.6775 18.4839 20.783 18.4865 20.8715 18.4412C21.0705 18.3392 21.3047 18.3449 21.4977 18.4562C21.649 18.5436 21.7572 18.6846 21.8024 18.8534C21.8477 19.0223 21.8245 19.1985 21.7371 19.3498Z" fill="#128894"/>
<path d="M19.3241 16.7097C19.1665 16.7466 19.0688 16.9042 19.1057 17.0617C19.1228 17.135 19.1315 17.2103 19.1315 17.2855C19.1315 17.8203 18.6966 18.2554 18.162 18.2554C17.6272 18.2554 17.1921 17.8204 17.1921 17.2855C17.1921 16.7509 17.6272 16.316 18.162 16.316C18.2373 16.316 18.3126 16.3247 18.3858 16.3419C18.5433 16.3788 18.701 16.281 18.7379 16.1235C18.7748 15.9659 18.677 15.8083 18.5195 15.7714C18.4025 15.744 18.2822 15.73 18.162 15.73C17.3041 15.73 16.6062 16.4278 16.6062 17.2855C16.6062 18.1434 17.3041 18.8413 18.162 18.8413C19.0197 18.8413 19.7175 18.1434 19.7175 17.2855C19.7175 17.1653 19.7036 17.045 19.6762 16.928C19.6392 16.7705 19.4817 16.6727 19.3241 16.7097Z" fill="#128894"/>
<path d="M3.65091 5.0324H3.93056C3.9558 5.21982 4.00459 5.39979 4.07432 5.56916L3.83216 5.70897C3.69204 5.78987 3.64404 5.96905 3.72494 6.10917C3.77919 6.20316 3.87767 6.2557 3.97892 6.2557C4.02861 6.2557 4.079 6.24304 4.12514 6.2164L4.36819 6.07609C4.48194 6.22293 4.6139 6.35488 4.76073 6.46863L4.62042 6.71165C4.53952 6.85177 4.58753 7.03095 4.72765 7.11185C4.77378 7.13849 4.82417 7.15114 4.87386 7.15114C4.97511 7.15114 5.07359 7.09857 5.12785 7.00462L5.26766 6.76251C5.43704 6.83223 5.617 6.88102 5.80442 6.90626V7.18591C5.80442 7.34771 5.9356 7.47888 6.0974 7.47888C6.2592 7.47888 6.39037 7.34771 6.39037 7.18591V6.90626C6.5778 6.88102 6.75776 6.83223 6.92714 6.76251L7.06695 7.00462C7.12121 7.09861 7.21968 7.15114 7.32094 7.15114C7.37062 7.15114 7.42102 7.13849 7.46715 7.11185C7.60727 7.03095 7.65528 6.85177 7.57438 6.71165L7.43406 6.46863C7.5809 6.35488 7.71286 6.22293 7.82661 6.07609L8.06966 6.2164C8.11579 6.24304 8.16618 6.2557 8.21587 6.2557C8.31712 6.2557 8.4156 6.20316 8.46986 6.10917C8.55076 5.96905 8.50275 5.78987 8.36263 5.70897L8.12048 5.56916C8.19021 5.39979 8.23904 5.21982 8.26423 5.0324H8.54389C8.70569 5.0324 8.83686 4.90122 8.83686 4.73942C8.83686 4.57762 8.70569 4.44645 8.54389 4.44645H8.26423C8.239 4.25902 8.19021 4.07906 8.12048 3.90968L8.36259 3.76987C8.50271 3.68897 8.55072 3.50979 8.46982 3.36967C8.38892 3.22955 8.2097 3.18151 8.06962 3.26244L7.82661 3.40276C7.71286 3.25592 7.5809 3.12397 7.43402 3.01017L7.57434 2.76716C7.65524 2.62704 7.60723 2.44786 7.46711 2.36696C7.32699 2.28602 7.14781 2.33403 7.06691 2.47419L6.9271 2.7163C6.75772 2.64657 6.57776 2.59778 6.39033 2.57255V2.29297C6.39033 2.13117 6.25916 2 6.09736 2C5.93556 2 5.80439 2.13117 5.80439 2.29297V2.57263C5.61696 2.59782 5.437 2.64665 5.26762 2.71638L5.12781 2.47423C5.04695 2.33411 4.86777 2.2861 4.72765 2.367C4.58753 2.4479 4.53952 2.62708 4.62042 2.7672L4.76073 3.01025C4.6139 3.124 4.48194 3.25596 4.36819 3.4028L4.12518 3.26248C3.98506 3.18154 3.80587 3.22959 3.72497 3.36971C3.64407 3.50983 3.69208 3.68901 3.8322 3.76991L4.07432 3.90972C4.00459 4.0791 3.9558 4.25906 3.93056 4.44649H3.65091C3.48911 4.44649 3.35794 4.57766 3.35794 4.73946C3.35794 4.90122 3.48911 5.0324 3.65091 5.0324ZM6.09736 3.13834C6.98019 3.13834 7.69844 3.8566 7.69844 4.73942C7.69844 5.62225 6.98019 6.34051 6.09736 6.34051C5.21453 6.34051 4.49628 5.62229 4.49628 4.73942C4.49628 3.85656 5.21453 3.13834 6.09736 3.13834Z" fill="#128894"/>
<path d="M18.4876 9.32521H18.7752C18.8156 9.53666 18.8988 9.73311 19.0157 9.90498L18.8122 10.1086C18.6977 10.223 18.6977 10.4085 18.8122 10.5229C18.8693 10.5801 18.9443 10.6087 19.0193 10.6087C19.0943 10.6087 19.1693 10.5801 19.2265 10.5229L19.43 10.3193C19.6019 10.4362 19.7983 10.5194 20.0098 10.5598V10.8473C20.0098 11.0091 20.141 11.1403 20.3028 11.1403C20.4646 11.1403 20.5958 11.0091 20.5958 10.8473V10.5598C20.8072 10.5194 21.0037 10.4362 21.1756 10.3193L21.3792 10.5229C21.4363 10.5801 21.5113 10.6087 21.5863 10.6087C21.6613 10.6087 21.7363 10.5801 21.7935 10.5229C21.9079 10.4085 21.9079 10.223 21.7935 10.1086L21.5899 9.90498C21.7068 9.73311 21.7899 9.53666 21.8304 9.32521H22.118C22.2798 9.32521 22.4109 9.19403 22.4109 9.03223C22.4109 8.87043 22.2798 8.73926 22.118 8.73926H21.8304C21.79 8.52781 21.7068 8.33132 21.5899 8.15948L21.7935 7.95589C21.9079 7.84147 21.9079 7.65596 21.7935 7.54158C21.6791 7.42713 21.4936 7.42717 21.3792 7.54158L21.1756 7.74518C21.0038 7.62826 20.8073 7.54514 20.5959 7.50463V7.21708C20.5959 7.05528 20.4647 6.92411 20.3029 6.92411C20.1411 6.92411 20.0099 7.05528 20.0099 7.21708V7.50463C19.7985 7.5451 19.602 7.62826 19.4301 7.74518L19.2265 7.54158C19.1122 7.42713 18.9266 7.42717 18.8122 7.54158C18.6978 7.656 18.6978 7.84147 18.8122 7.95589L19.0158 8.15948C18.8989 8.33136 18.8157 8.52781 18.7752 8.73926H18.4877C18.3259 8.73926 18.1947 8.87043 18.1947 9.03223C18.1947 9.19403 18.3258 9.32521 18.4876 9.32521ZM20.3028 8.06253C20.8375 8.06253 21.2725 8.49758 21.2725 9.03227C21.2725 9.56697 20.8375 10.002 20.3028 10.002C19.7681 10.002 19.333 9.56697 19.333 9.03227C19.333 8.49758 19.7681 8.06253 20.3028 8.06253Z" fill="#128894"/>
<path d="M6.33412 17.1524H6.04658C6.00611 16.941 5.92294 16.7445 5.80603 16.5726L6.00962 16.369C6.12404 16.2546 6.12404 16.0692 6.00962 15.9547C5.89521 15.8403 5.7097 15.8403 5.59532 15.9547L5.39172 16.1583C5.21984 16.0414 5.0234 15.9583 4.81191 15.9178V15.6303C4.81191 15.4685 4.68073 15.3373 4.51893 15.3373C4.35713 15.3373 4.22596 15.4685 4.22596 15.6303V15.9178C4.01451 15.9583 3.81806 16.0414 3.64618 16.1583L3.44259 15.9548C3.32817 15.8403 3.14266 15.8404 3.02828 15.9548C2.91387 16.0692 2.91387 16.2547 3.02828 16.3691L3.23188 16.5726C3.11496 16.7445 3.0318 16.941 2.99133 17.1524H2.70386C2.54206 17.1524 2.41089 17.2836 2.41089 17.4454C2.41089 17.6072 2.54206 17.7384 2.70386 17.7384H2.99137C3.03184 17.9498 3.115 18.1463 3.23192 18.3181L3.02832 18.5217C2.91391 18.6361 2.91391 18.8216 3.02832 18.936C3.08551 18.9932 3.16051 19.0218 3.23547 19.0218C3.31044 19.0218 3.38544 18.9932 3.44263 18.936L3.64622 18.7324C3.8181 18.8494 4.01455 18.9325 4.226 18.973V19.2605C4.226 19.4223 4.35717 19.5535 4.51897 19.5535C4.68077 19.5535 4.81195 19.4223 4.81195 19.2605V18.973C5.0234 18.9325 5.21988 18.8494 5.39176 18.7324L5.59536 18.936C5.65255 18.9933 5.72755 19.0219 5.80251 19.0219C5.87747 19.0219 5.95247 18.9933 6.00966 18.936C6.12408 18.8216 6.12408 18.6361 6.00966 18.5217L5.80607 18.3181C5.92298 18.1463 6.00611 17.9498 6.04662 17.7384H6.33416C6.49596 17.7384 6.62713 17.6072 6.62713 17.4454C6.6271 17.2836 6.49592 17.1524 6.33412 17.1524ZM4.51897 18.4151C3.98428 18.4151 3.54923 17.98 3.54923 17.4453C3.54923 16.9107 3.98428 16.4756 4.51897 16.4756C5.05367 16.4756 5.48872 16.9107 5.48872 17.4453C5.48872 17.9801 5.05367 18.4151 4.51897 18.4151Z" fill="#128894"/>
<path d="M5.98861 4.48805C6.15041 4.48805 6.28158 4.35688 6.28158 4.19508C6.28158 4.03327 6.15041 3.9021 5.98861 3.9021C5.8268 3.9021 5.69563 4.03327 5.69563 4.19508C5.69563 4.35688 5.8268 4.48805 5.98861 4.48805Z" fill="#128894"/>
<path d="M5.53079 5.5769C5.69259 5.5769 5.82376 5.44573 5.82376 5.28392C5.82376 5.12212 5.69259 4.99095 5.53079 4.99095C5.36898 4.99095 5.23781 5.12212 5.23781 5.28392C5.23781 5.44573 5.36898 5.5769 5.53079 5.5769Z" fill="#128894"/>
<path d="M6.66401 5.1849C6.82582 5.1849 6.95698 5.05373 6.95698 4.89193C6.95698 4.73012 6.82582 4.59895 6.66401 4.59895C6.5022 4.59895 6.37104 4.73012 6.37104 4.89193C6.37104 5.05373 6.5022 5.1849 6.66401 5.1849Z" fill="#128894"/>
</svg>
