<svg width="25" height="24" viewBox="0 0 25 24" fill="none" xmlns="http://www.w3.org/2000/svg">
<path d="M8.50216 4.93103C8.44096 4.77716 8.51552 4.60131 8.66939 4.54011C8.82455 4.47761 8.99911 4.55218 9.0616 4.70734C9.40511 5.56374 9.31072 6.53608 8.8086 7.31102C8.71809 7.45023 8.53147 7.49075 8.39182 7.40024C8.25261 7.30973 8.21339 7.1231 8.3039 6.98346C8.69999 6.3723 8.77326 5.60641 8.50216 4.93103ZM15.7594 4.70734C15.8206 4.55218 15.9964 4.47761 16.1503 4.54011C16.3042 4.60131 16.3787 4.77716 16.3175 4.93103C16.0464 5.60684 16.1197 6.37273 16.5153 6.98346C16.6059 7.12267 16.5666 7.30973 16.4274 7.40024C16.2882 7.49075 16.1012 7.45023 16.0106 7.31102C15.509 6.53737 15.415 5.56374 15.7594 4.70734ZM5.5054 14.5777C6.35577 14.4126 6.79539 14.7402 7.20829 15.0471C7.52723 15.2854 7.82419 15.5052 8.42027 15.2583C8.57284 15.1949 8.74999 15.2682 8.81377 15.4208C8.87713 15.5746 8.80515 15.7505 8.65129 15.8156C8.13322 16.0293 7.77161 16.0194 7.4712 15.9074C7.38069 16.2948 8.06254 16.7198 7.49448 17.4443C7.3919 17.5749 7.20355 17.5982 7.07296 17.4969C6.94236 17.3943 6.91909 17.2051 7.02038 17.0741C7.33544 16.672 6.57687 16.2724 6.93245 15.591C6.57084 15.3246 6.23595 15.035 5.53471 15.1889C5.78986 17.003 7.43586 18.3154 9.18056 18.9606C9.21374 18.3192 8.97152 17.8744 8.45475 17.6253C8.30433 17.5534 8.24227 17.3723 8.31424 17.2232C8.38622 17.0728 8.56595 17.0107 8.71637 17.0827C9.00212 17.2206 9.23055 17.3956 9.40166 17.6081C9.51415 17.3956 9.59949 17.1672 9.66328 16.9215C9.70466 16.7603 9.86973 16.6638 10.0296 16.7051C10.1908 16.7465 10.2874 16.9116 10.246 17.0715C10.1361 17.4956 9.96369 17.89 9.71802 18.2421C9.7887 18.511 9.80594 18.814 9.76931 19.1537C12.1894 19.8515 15.1534 19.5605 17.2304 18.1529C17.0519 17.8413 16.9627 17.5029 16.958 17.1448C16.8714 17.1999 16.8028 17.2779 16.7796 17.4111C16.7515 17.5762 16.5951 17.6848 16.4313 17.6568C16.2662 17.6288 16.1563 17.4723 16.1856 17.3085C16.2848 16.7465 16.6119 16.6181 16.9369 16.4914C17.1627 16.4021 17.3864 16.3142 17.2851 15.6483C17.2606 15.4833 17.3743 15.3307 17.5394 15.3061C17.7032 15.2802 17.8571 15.394 17.8816 15.5591C17.9976 16.3228 17.8351 16.6539 17.5799 16.8431C17.5312 17.1792 17.5687 17.493 17.7166 17.7861C18.6622 16.9982 19.2522 15.9974 19.3134 14.9066C19.1643 14.8307 19.0277 14.7527 18.9018 14.6721C18.9277 15.0531 18.8772 15.4074 18.7234 15.719C18.6501 15.8681 18.4691 15.9293 18.3204 15.8548C18.1713 15.7815 18.1101 15.6018 18.1838 15.4526C18.2682 15.2828 18.3083 15.0798 18.307 14.8454C18.3057 14.6057 18.2605 14.332 18.1713 14.0269C17.9161 13.6886 17.8157 13.3244 17.8683 12.9347C17.8915 12.7697 18.042 12.6537 18.2066 12.6757C18.3717 12.6977 18.4876 12.8494 18.4643 13.014C18.3924 13.5455 18.8479 13.9338 19.2768 14.198C19.0018 12.4546 17.4442 11.1866 15.7801 10.5366C15.7934 10.6026 15.8081 10.6672 15.8227 10.7332C16.7071 11.1719 17.5342 11.9059 17.5342 12.8921C17.5342 13.7179 16.9403 14.451 15.98 14.9691C16.0154 15.3001 16.0007 15.5923 15.9361 15.8474C16.0887 16.0358 16.2417 16.0992 16.4714 16.0013C16.624 15.9354 16.8002 16.0073 16.8662 16.1604C16.9308 16.3129 16.8602 16.4901 16.7063 16.5552C16.3253 16.7176 15.9637 16.6711 15.6607 16.422C15.4797 16.6504 15.2292 16.8168 14.9094 16.9193C14.7517 16.9693 14.5819 16.8827 14.5319 16.7237C14.4806 16.5659 14.5672 16.3961 14.7263 16.3461C15.2676 16.1724 15.4128 15.7535 15.3969 15.2406C13.4643 16.0091 10.6942 15.9604 8.85946 14.979C7.88712 14.4596 7.28587 13.723 7.28587 12.8921C7.28587 11.9059 8.11297 11.1719 8.99738 10.7332C9.01333 10.6672 9.02669 10.6026 9.04005 10.5366C8.15779 10.881 7.39578 11.3564 6.80531 11.9245C7.07641 12.6537 7.0471 13.3782 6.65014 14.048C6.56567 14.1911 6.3812 14.2385 6.23724 14.1545C6.09415 14.07 6.04674 13.8847 6.13208 13.7416C6.37646 13.3274 6.43766 12.9024 6.33379 12.4451C5.83512 13.0821 5.53816 13.8079 5.5054 14.5777ZM6.22604 11.6516C6.23078 11.6456 6.23724 11.6396 6.24328 11.6344C6.97512 10.8793 7.97073 10.2647 9.1353 9.8604C9.14996 9.69662 9.15728 9.53154 9.15728 9.36561C7.8048 9.52077 6.82599 9.07123 7.02425 7.62479C7.0708 7.28516 7.17467 7.01406 7.27208 6.75632C7.44577 6.30549 7.59835 5.90337 7.2182 5.2866C6.98503 4.9862 6.80401 4.65001 6.67471 4.27849C6.54627 3.90826 6.47085 3.50613 6.44757 3.07039C6.43551 2.85532 6.43421 2.66094 6.51222 2.47561C6.60403 2.26312 6.77384 2.10538 7.09752 2.02349C7.70825 1.87091 8.06986 2.50018 8.28278 3.0691C8.31812 3.16435 8.28881 3.29624 8.44527 3.43933C8.70042 3.6725 9.15125 3.55182 9.1978 3.13504C9.31891 2.24933 10.3805 1.84117 11.0623 2.43639C11.2588 2.6075 11.4205 2.88247 11.4425 3.15832C11.5011 3.90826 12.2708 4.22849 12.8561 3.94877C13.1479 3.80956 13.335 3.55182 13.3828 3.13504H13.3815C13.5035 2.24933 14.5655 1.84117 15.2473 2.43639C15.4452 2.60879 15.6029 2.87989 15.6262 3.15832C15.6555 3.49665 16.093 3.69965 16.3774 3.43933C16.5339 3.29537 16.502 3.16564 16.5412 3.06306C16.7589 2.50104 17.108 1.86962 17.7252 2.02349C18.0476 2.10538 18.2187 2.26312 18.3092 2.47561C18.3872 2.66137 18.3863 2.85575 18.3751 3.07039C18.3506 3.50657 18.2751 3.90869 18.1467 4.27849C18.0174 4.65001 17.8364 4.98576 17.6041 5.2866C17.2231 5.90337 17.3769 6.30549 17.5489 6.75632C17.648 7.01406 17.7519 7.28516 17.7967 7.62479C17.926 8.56782 17.5476 9.2376 16.5628 9.37207C16.3037 9.40612 16.0046 9.40526 15.6637 9.36604C15.665 9.53197 15.6723 9.69705 15.6857 9.86083C16.917 10.2884 17.9618 10.9517 18.7035 11.768C19.4746 12.6158 19.9229 13.6299 19.9229 14.7221C19.9229 16.2332 19.0664 17.5943 17.6821 18.5731C16.8145 19.1851 15.7383 19.648 14.5362 19.9023V21.1302C14.5362 21.6104 14.1466 22 13.6664 22H11.1558C10.6757 22 10.2861 21.6104 10.2861 21.1302V19.9023C9.08401 19.648 8.00737 19.1851 7.14019 18.5731C5.75452 17.5943 4.89941 16.2332 4.89941 14.7217C4.89941 13.5722 5.3942 12.5167 6.22604 11.6516ZM15.5077 14.535L15.6788 14.4484C17.1705 13.6519 17.3536 12.4865 16.0943 11.5909C16.2141 11.8891 16.3567 12.1822 16.5257 12.4705C17.1304 13.5054 15.7378 14.5208 14.5353 14.1127V14.8945C14.8896 14.7962 15.2167 14.6756 15.5077 14.535ZM10.8882 14.2148H13.9315V13.7627C13.8961 13.7308 13.8608 13.698 13.8276 13.6627C13.1531 14.0989 11.6687 14.089 10.9955 13.6601C10.9602 13.6955 10.9248 13.7299 10.8882 13.7627V14.2148ZM13.9315 14.8182H10.8882V15.032C11.8679 15.2117 12.9531 15.2117 13.9315 15.032V14.8182ZM10.8882 20.1622H13.9315V20.0096C12.9307 20.1575 11.8885 20.1575 10.8882 20.0096V20.1622ZM13.9315 20.7647H10.8882V21.1302C10.8882 21.2768 11.008 21.3966 11.1545 21.3966H13.6651C13.8117 21.3966 13.9315 21.2768 13.9315 21.1302V20.7647ZM9.4564 8.71221L9.50769 8.70359C10.3628 8.47386 10.7429 8.8928 11.1584 9.35225C11.4554 9.6811 11.7778 10.0375 12.4023 10.0181H12.4182C13.0428 10.0375 13.3652 9.6811 13.6634 9.35225C14.0789 8.8928 14.4577 8.47386 15.3141 8.70359C15.7882 8.79281 16.1779 8.81608 16.4822 8.77557C17.1295 8.68635 17.2838 8.31138 17.2006 7.70539C17.1653 7.44032 17.0722 7.19939 16.9856 6.97096C16.7558 6.3723 16.5533 5.83958 17.0929 4.96852C17.1002 4.95387 17.1101 4.93792 17.1209 4.92456C17.5424 4.38322 17.7342 3.74189 17.7734 3.03936C17.7894 2.73895 17.7941 2.6618 17.5778 2.60793C17.5338 2.59672 17.4825 2.62129 17.4252 2.6812C17.32 2.78981 17.2162 2.97686 17.1149 3.24452C17.0817 3.49751 16.9597 3.71991 16.7826 3.8824C16.1718 4.43968 15.1417 4.11686 15.028 3.21779C14.9741 2.80101 14.4707 2.6131 14.1543 2.88808C14.0604 2.96997 13.9953 3.08461 13.9785 3.21564H13.9772C13.8561 4.43106 12.6368 4.93706 11.7058 4.49097C11.2588 4.2759 10.9067 3.8518 10.8434 3.21779C10.7908 2.80231 10.2861 2.6131 9.97101 2.88808C9.87706 2.96997 9.81198 3.08461 9.79387 3.21564C9.68655 4.10738 8.65517 4.44572 8.03926 3.88283C7.86083 3.72034 7.74015 3.49795 7.70567 3.24495C7.60438 2.97729 7.50051 2.79067 7.39535 2.68163C7.33802 2.62172 7.28673 2.59715 7.24277 2.60836C7.02641 2.66223 7.03158 2.73895 7.04839 3.03979C7.08632 3.74232 7.27941 4.38365 7.69963 4.92499C7.70438 4.93232 7.71084 4.94094 7.71687 4.94956C8.50992 6.20938 7.74489 6.78692 7.62033 7.70582C7.53715 8.31181 7.69231 8.68678 8.33881 8.776C8.63189 8.81479 9.00557 8.7941 9.4564 8.71221ZM10.1016 9.28027C10.6197 9.99142 11.0546 10.7547 11.3282 11.5516C11.3688 11.6676 11.4356 11.7422 11.5481 11.7921C11.9036 11.9512 12.5195 11.9512 12.8747 11.7921C12.9872 11.7422 13.0544 11.6676 13.0945 11.5516C13.2609 11.0689 13.4901 10.5841 13.7785 10.0992C13.4608 10.3961 13.0613 10.6379 12.4101 10.6198C11.5157 10.6444 11.0981 10.1824 10.7119 9.75609C10.524 9.54792 10.346 9.35095 10.1016 9.28027ZM15.0607 9.29966C14.4668 10.0569 13.9634 10.878 13.6656 11.7469C13.5729 12.0158 13.382 12.2244 13.1208 12.3408C12.5406 12.5998 11.4274 12.6046 10.9679 12.1025C10.874 11.9999 10.8041 11.8814 10.7576 11.7469C10.5253 11.0711 10.1701 10.425 9.74215 9.81299C9.66888 10.8659 9.35253 11.8559 8.81507 12.7744C8.72844 12.9248 8.72585 13.0528 8.82369 13.1946C8.98359 13.4205 9.33787 13.5769 9.59949 13.6002C10.0391 13.6407 10.4693 13.4291 10.7063 13.0602C10.8201 12.8817 11.0839 12.8684 11.2132 13.0602C11.2339 13.0908 11.2692 13.1214 11.3144 13.1507C11.7911 13.4584 13.0346 13.467 13.5074 13.1533C13.5526 13.1227 13.588 13.0908 13.6087 13.0593C13.7272 12.8748 13.997 12.8783 14.1134 13.0606C14.3517 13.4295 14.7806 13.6407 15.2202 13.6006C15.5417 13.5726 16.0999 13.3015 16.0693 12.9567C16.0645 12.9028 16.0434 12.8421 16.0046 12.7748C15.3771 11.7003 15.0543 10.5397 15.0607 9.29966ZM10.2848 14.1122C9.08272 14.5204 7.69101 13.505 8.29442 12.4701C8.46294 12.1818 8.60732 11.8887 8.72585 11.5904C7.4712 12.4835 7.64576 13.6489 9.14134 14.448C9.47493 14.6264 9.85982 14.7768 10.2848 14.8941V14.1122Z" fill="#128894"/>
</svg>
