<svg width="25" height="24" viewBox="0 0 25 24" fill="none" xmlns="http://www.w3.org/2000/svg">
<path d="M15.6181 14.2045V4.6794C15.4819 1.1068 10.3078 1.10692 10.1717 4.67944V9.01361L8.85914 6.7455C8.35909 5.88138 7.04888 5.87528 6.54532 6.7455L5.24606 8.99061C5.06247 9.33272 5.54926 9.61363 5.75373 9.28443L7.05299 7.03932C7.33703 6.5485 8.06746 6.5485 8.35151 7.03932L10.6636 11.0346C10.9481 11.5262 10.5804 12.1549 10.0143 12.1549H5.39019C4.82403 12.1549 4.45646 11.5261 4.74093 11.0345L4.97313 10.6333C5.05426 10.4931 5.0064 10.3137 4.86618 10.2325C4.72608 10.1515 4.54663 10.1993 4.46546 10.3395L4.23327 10.7407C3.73232 11.6062 4.38475 12.7414 5.39011 12.7414H10.0142C10.0674 12.7414 10.1199 12.7382 10.1717 12.7323V14.2045C9.11369 15.025 8.48645 16.2974 8.48645 17.6385C8.46142 21.4108 13.1221 23.4144 15.8816 20.8459C16.0011 20.7368 16.0095 20.5513 15.9003 20.4317C15.7911 20.312 15.6056 20.3037 15.486 20.4129C13.0952 22.6383 9.05144 20.9061 9.07299 17.6385C9.07295 16.4347 9.65741 15.2948 10.6363 14.5893C10.7128 14.5341 10.7581 14.4456 10.7581 14.3514V12.5181C11.3232 12.1396 11.5131 11.3316 11.1711 10.7408L10.7581 10.0271V4.6794C10.7581 3.51559 11.7167 2.5688 12.8949 2.5688C14.073 2.5688 15.0315 3.51559 15.0315 4.6794V5.13991H14.769C14.607 5.13991 14.4757 5.27122 14.4757 5.43318C14.4757 5.59515 14.607 5.72645 14.769 5.72645H15.0315V6.68098H14.769C14.607 6.68098 14.4757 6.81229 14.4757 6.97425C14.4757 7.13621 14.607 7.26752 14.769 7.26752H15.0315V8.22205H14.769C14.607 8.22205 14.4757 8.35336 14.4757 8.51532C14.4757 8.67728 14.607 8.80859 14.769 8.80859H15.0315V9.76312H14.769C14.607 9.76312 14.4757 9.89443 14.4757 10.0564C14.4757 10.2184 14.607 10.3497 14.769 10.3497H15.0315V11.3042H14.769C14.607 11.3042 14.4757 11.4355 14.4757 11.5975C14.4757 11.7594 14.607 11.8907 14.769 11.8907H15.0315V12.8453H14.769C14.607 12.8453 14.4757 12.9766 14.4757 13.1385C14.4757 13.3005 14.607 13.4318 14.769 13.4318H15.0315V14.3513C15.0315 14.4456 15.0769 14.5341 15.1534 14.5892C16.5819 15.5923 17.1264 17.5964 16.3854 19.1768C16.3186 19.3243 16.384 19.4981 16.5315 19.5649C16.681 19.6272 16.8104 19.5785 16.9197 19.4188C17.7536 17.6406 17.1816 15.3865 15.6181 14.2045Z" fill="#128894"/>
<path d="M13.9361 4.71377C13.8841 3.34565 11.906 3.34483 11.8537 4.71377V15.1427C9.1167 16.2926 9.93062 20.309 12.895 20.3388C15.8595 20.3088 16.6729 16.2921 13.9361 15.1427L13.9361 4.71377ZM12.4403 4.71377C12.4403 4.46751 12.6442 4.26714 12.8949 4.26714C13.1456 4.26714 13.3496 4.46751 13.3496 4.71377V8.2637H12.4403V4.71377ZM15.0348 17.6385C14.9278 20.4381 10.862 20.4384 10.7551 17.6384C10.7551 16.7775 11.2764 16.0097 12.0831 15.6826C12.3001 15.5946 12.4403 15.3872 12.4403 15.1542V8.8502H13.3496V15.1542C13.3496 15.3872 13.4897 15.5946 13.7066 15.6826C14.5134 16.0098 15.0348 16.7775 15.0348 17.6385Z" fill="#128894"/>
<path d="M12.3944 16.4221C11.8937 16.6251 11.5702 17.1026 11.5702 17.6385C11.5702 17.8005 11.7015 17.9318 11.8635 17.9318C12.0254 17.9318 12.1567 17.8005 12.1567 17.6385C12.1567 17.3426 12.3365 17.0785 12.6148 16.9656C12.9694 16.8092 12.7582 16.2875 12.3944 16.4221Z" fill="#128894"/>
<path d="M7.99548 7.99768C7.99548 7.83572 7.86417 7.70441 7.70221 7.70441C7.54025 7.70441 7.40894 7.83572 7.40894 7.99768V10.0527C7.42067 10.4398 7.98343 10.4407 7.99548 10.0527V7.99768Z" fill="#128894"/>
<path d="M7.70221 10.8462C7.32479 10.8462 7.32417 11.4327 7.70221 11.4327C8.07959 11.4327 8.08021 10.8462 7.70221 10.8462Z" fill="#128894"/>
<path d="M18.4913 5.71073L17.6797 5.00955C17.5713 4.91574 17.4047 4.91574 17.2962 5.00955L16.4846 5.71073C16.3621 5.81662 16.3486 6.00181 16.4545 6.1244C16.5603 6.24698 16.7455 6.26048 16.8681 6.15459L17.1947 5.87242V11.5082C17.1947 11.6701 17.326 11.8014 17.488 11.8014C17.6499 11.8014 17.7812 11.6701 17.7812 11.5082V5.87242L18.1078 6.15459C18.2498 6.25891 18.3877 6.24882 18.5215 6.1244C18.6273 6.00181 18.6138 5.81662 18.4913 5.71073Z" fill="#128894"/>
<path d="M20.6602 8.70196L19.8486 8.00077C19.7402 7.90696 19.5736 7.90696 19.4651 8.00077L18.6535 8.70196C18.531 8.80785 18.5175 8.99304 18.6234 9.11562C18.7292 9.23817 18.9144 9.2517 19.037 9.14581L19.3636 8.86365V14.4994C19.3636 14.6613 19.4949 14.7926 19.6569 14.7926C19.8188 14.7926 19.9501 14.6613 19.9501 14.4994V8.86361L20.2767 9.14577C20.4187 9.2501 20.5566 9.24001 20.6904 9.11559C20.7962 8.99304 20.7827 8.80785 20.6602 8.70196Z" fill="#128894"/>
</svg>
