<svg width="25" height="24" viewBox="0 0 25 24" fill="none" xmlns="http://www.w3.org/2000/svg">
<path d="M4.5522 9.89215C4.69517 9.89215 4.81445 9.99119 4.84632 10.1251C4.9023 10.3288 5.11589 10.4864 5.34671 10.4864V10.4877C5.35532 10.4864 5.36393 10.4864 5.37254 10.4864C5.61929 10.4864 5.80704 10.334 5.88025 10.1019C5.97068 9.81636 6.40518 9.81377 6.49303 10.1251C6.54901 10.3288 6.7626 10.4864 6.99342 10.4864V10.4877C7.00203 10.4864 7.01064 10.4864 7.01925 10.4864C7.266 10.4864 7.45375 10.334 7.52696 10.1019C7.61739 9.81636 8.05189 9.81377 8.13845 10.1251C8.19572 10.3288 8.40931 10.4864 8.64012 10.4864V10.4877C8.64874 10.4864 8.65735 10.4864 8.66596 10.4864C8.91271 10.4864 9.10046 10.334 9.17367 10.1019C9.2641 9.81636 9.6986 9.81377 9.78516 10.1251C9.84243 10.3288 10.056 10.4864 10.2868 10.4864V10.4877C10.2954 10.4864 10.3041 10.4864 10.3127 10.4864C10.5594 10.4864 10.7459 10.334 10.8204 10.1019C10.9108 9.81636 11.3453 9.81377 11.4319 10.1251C11.4891 10.3288 11.7027 10.4864 11.9323 10.4864V10.4877C11.9409 10.4864 11.9508 10.4864 11.959 10.4864C12.2057 10.4864 12.3922 10.334 12.4667 10.1019C12.5571 9.81636 12.9929 9.81507 13.0781 10.1264C13.1526 10.3753 13.3456 10.4877 13.6057 10.4864C14.3257 10.4817 14.1917 8.29754 14.1917 7.55299C14.1917 7.48323 14.1319 7.42725 14.0673 7.42725L3.2121 7.38462V7.38591H3.21081V7.38462C3.14234 7.38462 3.08636 7.44318 3.08636 7.50907H3.08765C3.07688 8.34534 2.9731 10.4864 3.72713 10.4864C3.97474 10.4864 4.16421 10.3508 4.22751 10.1264C4.27359 9.96191 4.38727 9.89215 4.5522 9.89215ZM4.5423 10.7504C4.41311 10.8869 4.25077 10.9872 4.06603 11.0419L4.47125 12.9328C4.94364 12.8863 5.40872 12.9741 5.82513 13.1869V12.8243C5.82513 12.4776 6.10848 12.1956 6.45384 12.1956H10.481C10.8277 12.1956 11.1098 12.4776 11.1098 12.8243V14.7543C11.521 14.9447 11.9986 14.9339 12.4025 14.7212C12.4245 14.71 12.4464 14.7018 12.4684 14.6953L13.2508 11.0445C13.0626 10.992 12.8956 10.8895 12.7638 10.7504C12.5549 10.9627 12.2681 11.0897 11.9594 11.0897C11.9508 11.0897 11.9409 11.0884 11.9327 11.0884V11.0897C11.6213 11.0897 11.332 10.9605 11.1235 10.7456C10.9147 10.9605 10.6244 11.0897 10.3131 11.0897C10.3045 11.0897 10.2959 11.0884 10.2873 11.0884V11.0897C9.97463 11.0897 9.68525 10.9605 9.47683 10.7456C9.26798 10.9605 8.97774 11.0897 8.66639 11.0897C8.65778 11.0897 8.64917 11.0884 8.64056 11.0884V11.0897C8.32921 11.0897 8.03897 10.9605 7.83012 10.7456C7.62127 10.9605 7.33189 11.0897 7.01968 11.0897C7.01107 11.0897 7.00246 11.0884 6.99385 11.0884V11.0897C6.6825 11.0897 6.39226 10.9605 6.18341 10.7456C5.97456 10.9605 5.68518 11.0897 5.37297 11.0897C5.36436 11.0897 5.35575 11.0884 5.34714 11.0884V11.0897C5.03795 11.0897 4.75115 10.9627 4.5423 10.7504ZM3.45368 11.0518C2.3685 10.7431 2.47229 8.6274 2.48434 7.5095H2.48563C2.48693 7.10902 2.81162 6.78433 3.21081 6.78433V6.78304H3.2121V6.78433L14.0673 6.82696C14.4712 6.82825 14.7946 7.15294 14.7946 7.55342L14.8067 8.38108C14.8067 9.4176 14.693 10.8176 13.8645 11.0544L12.9903 15.1303L12.418 18.7604C12.3448 19.2242 11.9323 19.539 11.4745 19.539H5.85312C5.39407 19.539 4.99015 19.2229 4.90833 18.7665L3.94158 13.3298L3.45368 11.0518ZM20.2498 8.79707L18.1918 8.24544L17.8426 9.54808L19.9005 10.0997L20.2498 8.79707ZM18.3468 7.66323L20.4061 8.21486L21.7402 3.2334C21.7475 3.20756 21.7427 3.18344 21.7315 3.16277V3.16148L21.6743 3.11756L19.798 2.61588C19.7468 2.60124 19.6956 2.63181 19.6822 2.68177L18.3468 7.66323ZM17.4765 21.4738C17.3766 21.8437 16.993 22.0646 16.6243 21.9669L14.7468 21.4639C14.3782 21.3649 14.156 20.9803 14.255 20.6108L17.6876 7.79888C17.6949 7.77218 17.7048 7.74764 17.7181 7.72567C17.7181 7.69984 17.7216 7.67314 17.728 7.64644L19.1 2.52674C19.1999 2.15554 19.5836 1.93463 19.9531 2.03368L21.8293 2.53665C22.0136 2.58531 22.1613 2.70631 22.2517 2.86134C22.3409 3.01636 22.3715 3.20454 22.3224 3.38885L17.4765 21.4738ZM17.3375 11.4338L19.3954 11.9841L19.7446 10.6815L17.6867 10.1299L17.3375 11.4338ZM17.8805 17.6395L18.2297 16.336L16.1718 15.7844L15.8225 17.0879L17.8805 17.6395ZM15.317 18.9727L17.3749 19.5244L17.7242 18.2209L15.6662 17.6692L15.317 18.9727ZM16.3268 15.2035L18.386 15.7551L18.7353 14.4516L16.676 13.9L16.3268 15.2035ZM19.2404 12.5668L17.1811 12.0151L16.8319 13.3186L18.8911 13.8703L19.2404 12.5668ZM7.4671 14.1049C7.30131 14.1049 7.16567 13.9706 7.16567 13.8035C7.16567 13.6373 7.30131 13.5021 7.4671 13.5021H9.46779C9.63487 13.5021 9.76922 13.6377 9.76922 13.8035C9.76922 13.9706 9.63487 14.1049 9.46779 14.1049H7.4671ZM7.4671 15.0838C7.30131 15.0838 7.16567 14.9494 7.16567 14.7823C7.16567 14.6161 7.30131 14.4809 7.4671 14.4809H9.46779C9.63487 14.4809 9.76922 14.6165 9.76922 14.7823C9.76922 14.9494 9.63487 15.0838 9.46779 15.0838H7.4671ZM11.1093 15.3964V15.7616C11.1093 16.1082 10.8273 16.3916 10.4806 16.3916H6.45341C6.10805 16.3916 5.8247 16.1082 5.8247 15.7616V13.8927C5.46599 13.6252 5.0302 13.4973 4.58838 13.5275L5.5013 18.6627C5.53187 18.8311 5.68432 18.9361 5.85269 18.9361H11.4741C11.639 18.9361 11.7975 18.8336 11.8246 18.6687L12.3409 15.3947C11.9396 15.5221 11.5098 15.5208 11.1093 15.3964ZM10.481 12.7984H6.45384L6.42801 12.8243V15.7611L6.45384 15.7878H10.481L10.5077 15.7611V12.8243L10.481 12.7984ZM17.1079 20.5256L17.2203 20.1057L15.1611 19.5541L14.8364 20.7663C14.823 20.8175 14.851 20.8688 14.9023 20.8821L16.7798 21.3851C16.8297 21.3984 16.881 21.3705 16.8943 21.3192L17.1079 20.5256Z" fill="#128894"/>
</svg>
