<svg width="25" height="24" viewBox="0 0 25 24" fill="none" xmlns="http://www.w3.org/2000/svg">
<path d="M13.7105 9.81982H13.0143C12.8385 9.81982 12.6961 9.96225 12.6961 10.1379V12.468C12.6961 12.6437 12.8385 12.7861 13.0143 12.7861H13.7105C14.3455 12.7861 14.862 12.2695 14.862 11.6345V10.9714C14.862 10.3364 14.3455 9.81982 13.7105 9.81982ZM14.2258 11.6345C14.2258 11.9187 13.9946 12.1499 13.7105 12.1499H13.3324V10.4561H13.7105C13.9946 10.4561 14.2258 10.6872 14.2258 10.9714V11.6345Z" fill="#128894"/>
<path d="M22.9915 7.1192C22.6582 6.40431 22.0664 5.86202 21.3252 5.59221L16.7599 3.93059C16.5436 3.8519 16.3096 3.86208 16.1011 3.95934C15.8925 4.05661 15.7343 4.22928 15.6555 4.44552L14.2249 8.37617C14.2198 8.39004 14.2163 8.40404 14.212 8.41799C14.0412 8.38741 13.8675 8.37151 13.6924 8.37151C13.3932 8.37151 13.0959 8.41774 12.8123 8.50669C12.8125 8.49583 12.8132 8.4851 12.8132 8.4742C12.8132 6.85779 11.4981 5.54275 9.88171 5.54275C9.78072 5.54275 9.68091 5.54788 9.58251 5.55789L9.16513 4.41108C9.00263 3.96469 8.50721 3.73365 8.06077 3.8961L5.74102 4.74044C5.57589 4.80055 5.4908 4.98311 5.55086 5.14819C5.61097 5.31332 5.79344 5.39836 5.95861 5.33835L8.27837 4.494C8.39501 4.45142 8.52477 4.5119 8.56727 4.62872L8.95491 5.69375C7.79151 6.08263 6.95031 7.18164 6.95031 8.47415C6.95031 8.94867 7.06437 9.3968 7.26538 9.79373L5.29789 10.5098C4.09746 10.9468 2.76529 10.3255 2.3284 9.12512C2.11674 8.54359 2.14423 7.91447 2.40577 7.35355C2.66731 6.79268 3.1316 6.36724 3.71309 6.15558L4.65537 5.81265C4.82049 5.75254 4.90558 5.56998 4.84552 5.4049C4.78542 5.23977 4.60281 5.1546 4.43777 5.21474L3.49549 5.55768C1.96536 6.11461 1.17361 7.81254 1.7305 9.34267C2.1665 10.5406 3.30173 11.286 4.50844 11.2859C4.84306 11.2859 5.18328 11.2286 5.51549 11.1077L7.62304 10.3406C8.16117 10.9906 8.97387 11.4055 9.88175 11.4055C10.1883 11.4055 10.4838 11.358 10.7617 11.2704C10.7616 11.2812 10.761 11.292 10.761 11.3028C10.761 12.9192 12.076 14.2342 13.6924 14.2342C14.1918 14.2342 14.6857 14.1057 15.1205 13.8627C15.2739 13.7769 15.3287 13.5831 15.243 13.4298C15.1573 13.2764 14.9634 13.2215 14.8101 13.3073C14.4699 13.4975 14.0834 13.598 13.6924 13.598C12.4268 13.598 11.3972 12.5684 11.3972 11.3028C11.3972 11.1902 11.4057 11.0776 11.4219 10.9668C12.0501 10.5773 12.5207 9.95741 12.715 9.22586C13.0189 9.08296 13.354 9.00758 13.6924 9.00758C13.892 9.00758 14.089 9.03337 14.2798 9.08376C14.3768 9.26123 14.5353 9.40596 14.7398 9.4804L15.33 9.6952C15.7541 10.1269 15.9876 10.6969 15.9876 11.3028C15.9876 11.7046 15.8816 12.1006 15.6811 12.4479C15.5933 12.6 15.6454 12.7946 15.7976 12.8825C15.8477 12.9114 15.9024 12.9251 15.9563 12.9251C16.0663 12.9251 16.1732 12.868 16.2321 12.766C16.4884 12.3221 16.6238 11.8161 16.6238 11.3028C16.6238 10.8688 16.5298 10.4493 16.352 10.0671L19.3051 11.142C19.6347 11.262 19.9762 11.3217 20.3169 11.3217C20.7422 11.3217 21.1661 11.2286 21.5632 11.0434C22.2781 10.7101 22.8203 10.1182 23.0901 9.37699C23.3599 8.63597 23.3249 7.83409 22.9915 7.1192ZM9.88175 10.7694C8.61617 10.7694 7.58656 9.73982 7.58656 8.47424C7.58656 7.20866 8.61617 6.17904 9.88175 6.17904C11.1473 6.17904 12.177 7.20866 12.177 8.47424C12.177 9.73982 11.1473 10.7694 9.88175 10.7694ZM22.4923 9.15965C22.2806 9.74113 21.8552 10.2055 21.2943 10.467C20.7335 10.7286 20.1042 10.756 19.5228 10.5443L14.9575 8.88271C14.8407 8.84021 14.7803 8.71058 14.8228 8.59381L16.2534 4.6632C16.274 4.60666 16.3154 4.56149 16.3699 4.53604C16.4245 4.51059 16.4857 4.50792 16.5422 4.52853L21.1075 6.19015C21.6891 6.40181 22.1534 6.82725 22.4149 7.38812C22.6764 7.94895 22.7039 8.57807 22.4923 9.15965Z" fill="#128894"/>
<path d="M10.4302 7.92579C10.5544 8.05003 10.7559 8.05003 10.8801 7.92579C11.0043 7.80156 11.0043 7.60012 10.8801 7.47592C10.3296 6.9254 9.43388 6.9254 8.88344 7.47592C8.33296 8.0264 8.33296 8.92207 8.88344 9.47255C9.15868 9.74779 9.52024 9.88539 9.88175 9.88539C10.2433 9.88539 10.6048 9.74779 10.8801 9.47255C11.0043 9.34831 11.0043 9.14688 10.8801 9.02268C10.7558 8.89844 10.5544 8.89844 10.4302 9.02268C10.1278 9.32507 9.63578 9.32507 9.33335 9.02268C9.03097 8.7203 9.03097 8.22822 9.33335 7.92583C9.63578 7.62341 10.1278 7.62341 10.4302 7.92579Z" fill="#128894"/>
<path d="M8.78805 12.6248C7.17164 12.6248 5.8566 13.9399 5.8566 15.5562C5.8566 17.1726 7.17164 18.4877 8.78805 18.4877C10.4045 18.4877 11.7195 17.1726 11.7195 15.5562C11.7195 13.9399 10.4045 12.6248 8.78805 12.6248ZM8.78805 17.8515C7.52247 17.8515 6.49285 16.8218 6.49285 15.5563C6.49285 14.2907 7.52247 13.2611 8.78805 13.2611C10.0536 13.2611 11.0832 14.2907 11.0832 15.5563C11.0832 16.8218 10.0536 17.8515 8.78805 17.8515Z" fill="#128894"/>
<path d="M9.64583 15.404C9.73313 15.2691 9.78437 15.1089 9.78437 14.9366C9.78437 14.4605 9.39702 14.0731 8.92089 14.0731H8.10985C7.93416 14.0731 7.79173 14.2156 7.79173 14.3912V16.7213C7.79173 16.897 7.93416 17.0394 8.10985 17.0394H9.01989C9.53699 17.0394 9.95772 16.6188 9.95772 16.1017C9.95768 15.8249 9.83713 15.5758 9.64583 15.404ZM8.42797 14.7094H8.92089C9.04619 14.7094 9.14812 14.8113 9.14812 14.9366C9.14812 15.0619 9.04619 15.1638 8.92089 15.1638H8.42797V14.7094ZM9.01989 16.4032H8.42797V15.8001H9.01985C9.18612 15.8001 9.32143 15.9353 9.32143 16.1017C9.32143 16.2679 9.18617 16.4032 9.01989 16.4032Z" fill="#128894"/>
<path d="M15.4994 15.5452C14.2123 15.5452 13.057 16.4063 12.69 17.6393C12.6399 17.8077 12.7358 17.9848 12.9042 18.035C13.0727 18.0851 13.2497 17.9892 13.2998 17.8208C13.5871 16.8556 14.4917 16.1814 15.4994 16.1814C16.765 16.1814 17.7946 17.2111 17.7946 18.4766C17.7946 19.7422 16.765 20.7718 15.4994 20.7718C14.4484 20.7718 13.5337 20.0614 13.2751 19.0443C13.2318 18.8739 13.0584 18.771 12.8884 18.8144C12.7181 18.8577 12.6152 19.0308 12.6585 19.2011C12.9889 20.5005 14.1572 21.4081 15.4995 21.4081C17.1158 21.4081 18.4309 20.0931 18.4309 18.4767C18.4309 16.8603 17.1158 15.5452 15.4994 15.5452Z" fill="#128894"/>
<path d="M14.5665 19.6806C14.6956 19.6806 14.817 19.6014 14.8647 19.4733L14.9599 19.2175H16.0389L16.1341 19.4733C16.1954 19.638 16.3785 19.7218 16.5432 19.6606C16.7078 19.5993 16.7916 19.4161 16.7304 19.2515L16.0265 17.3596C15.9449 17.1406 15.7331 16.9934 15.4994 16.9934C15.2656 16.9934 15.0537 17.1406 14.9722 17.3597L14.2683 19.2515C14.2071 19.4161 14.2909 19.5993 14.4556 19.6606C14.4922 19.6742 14.5297 19.6806 14.5665 19.6806ZM15.8022 18.5813H15.1967L15.4994 17.7676L15.8022 18.5813Z" fill="#128894"/>
<path d="M20.1516 13.0856H19.9397V12.8737C19.9397 12.4774 19.6173 12.155 19.2211 12.155H18.7261C18.3299 12.155 18.0075 12.4774 18.0075 12.8737V13.0856H17.7956C17.3994 13.0856 17.077 13.408 17.077 13.8042V14.2991C17.077 14.6954 17.3994 15.0178 17.7956 15.0178H18.0075V15.2297C18.0075 15.626 18.3299 15.9483 18.7261 15.9483H19.2211C19.6173 15.9483 19.9397 15.626 19.9397 15.2297V15.0178H20.1516C20.5479 15.0178 20.8702 14.6954 20.8702 14.2991V13.8042C20.8702 13.408 20.5479 13.0856 20.1516 13.0856ZM20.234 14.2992C20.234 14.3446 20.1971 14.3816 20.1516 14.3816H19.6216C19.4459 14.3816 19.3035 14.524 19.3035 14.6997V15.2297C19.3035 15.2752 19.2665 15.3121 19.2211 15.3121H18.7261C18.6807 15.3121 18.6438 15.2751 18.6438 15.2297V14.6997C18.6438 14.524 18.5014 14.3816 18.3256 14.3816H17.7956C17.7502 14.3816 17.7132 14.3446 17.7132 14.2992V13.8042C17.7132 13.7588 17.7502 13.7219 17.7956 13.7219H18.3256C18.5014 13.7219 18.6438 13.5794 18.6438 13.4038V12.8737C18.6438 12.8283 18.6807 12.7913 18.7261 12.7913H19.2211C19.2665 12.7913 19.3035 12.8283 19.3035 12.8737V13.4038C19.3035 13.5794 19.4459 13.7219 19.6216 13.7219H20.1516C20.1971 13.7219 20.234 13.7589 20.234 13.8042V14.2992Z" fill="#128894"/>
<path d="M11.9016 4.86273H12.1136V5.07464C12.1136 5.4709 12.4359 5.7933 12.8322 5.7933H13.3272C13.7234 5.7933 14.0458 5.4709 14.0458 5.07464V4.86273H14.2577C14.6539 4.86273 14.9763 4.54036 14.9763 4.14411V3.64919C14.9763 3.25294 14.6539 2.93053 14.2577 2.93053H14.0458V2.71862C14.0458 2.32237 13.7234 2 13.3272 2H12.8322C12.4359 2 12.1136 2.32237 12.1136 2.71862V2.93053H11.9016C11.5054 2.93053 11.183 3.25294 11.183 3.64919V4.14411C11.183 4.54036 11.5053 4.86273 11.9016 4.86273ZM11.8192 3.64919C11.8192 3.60377 11.8562 3.56678 11.9016 3.56678H12.4317C12.6074 3.56678 12.7498 3.42434 12.7498 3.24866V2.71862C12.7498 2.67319 12.7867 2.63625 12.8322 2.63625H13.3271C13.3725 2.63625 13.4095 2.67323 13.4095 2.71862V3.24866C13.4095 3.42434 13.5519 3.56678 13.7276 3.56678H14.2576C14.3031 3.56678 14.34 3.60377 14.34 3.64919V4.14411C14.34 4.18954 14.3031 4.22648 14.2576 4.22648H13.7276C13.5519 4.22648 13.4095 4.36892 13.4095 4.54461V5.07464C13.4095 5.12007 13.3725 5.15706 13.3271 5.15706H12.8322C12.7867 5.15706 12.7498 5.12007 12.7498 5.07464V4.54461C12.7498 4.36892 12.6074 4.22648 12.4317 4.22648H11.9016C11.8562 4.22648 11.8192 4.1895 11.8192 4.14411V3.64919Z" fill="#128894"/>
<path d="M6.49056 19.1373H6.27865V18.9254C6.27865 18.5291 5.95624 18.2067 5.55998 18.2067H5.06503C4.66877 18.2067 4.34641 18.5291 4.34641 18.9254V19.1373H4.13449C3.73824 19.1373 3.41583 19.4596 3.41583 19.8559V20.3508C3.41583 20.7471 3.73824 21.0695 4.13449 21.0695H4.34641V21.2814C4.34641 21.6776 4.66877 22 5.06503 22H5.55994C5.9562 22 6.2786 21.6776 6.2786 21.2814V21.0695H6.49052C6.88677 21.0695 7.20914 20.7471 7.20914 20.3508V19.8559C7.20918 19.4596 6.88681 19.1373 6.49056 19.1373ZM6.57293 20.3508C6.57293 20.3962 6.53594 20.4332 6.49056 20.4332H5.96052C5.78483 20.4332 5.6424 20.5757 5.6424 20.7513V21.2814C5.6424 21.3268 5.60541 21.3638 5.55998 21.3638H5.06503C5.0196 21.3638 4.98265 21.3268 4.98265 21.2814V20.7513C4.98265 20.5757 4.84022 20.4332 4.66453 20.4332H4.13449C4.08906 20.4332 4.05208 20.3962 4.05208 20.3508V19.8559C4.05208 19.8105 4.08906 19.7735 4.13449 19.7735H4.66453C4.84022 19.7735 4.98265 19.6311 4.98265 19.4554V18.9254C4.98265 18.8799 5.01964 18.8429 5.06503 18.8429H5.55994C5.60537 18.8429 5.64236 18.8799 5.64236 18.9254V19.4554C5.64236 19.6311 5.78479 19.7735 5.96048 19.7735H6.49052C6.53594 19.7735 6.57289 19.8105 6.57289 19.8559V20.3508H6.57293Z" fill="#128894"/>
</svg>
